<svg width="130" height="175" viewBox="0 0 130 175" fill="none" xmlns="http://www.w3.org/2000/svg">
<path d="M178.859 101.112C168.304 108.047 153.711 111.924 137.022 112.792C120.334 113.659 101.507 111.546 82.356 106.48C71.6012 103.634 60.7676 99.8735 50.2168 95.2228C48.5769 94.5 47.8987 95.8929 49.5462 96.6153C68.7862 105.093 88.8857 110.693 107.831 113.227C126.796 115.766 144.602 115.264 159.456 111.651C167.768 109.629 175.084 106.595 181.126 102.626C182.049 102.015 179.774 100.502 178.859 101.112Z" fill="#7E2424"/>
<path d="M144.763 80.3556C136.296 85.6679 123.489 87.1869 110.311 87.6089C103.539 87.8229 96.5963 87.811 89.627 87.7286C82.6345 87.6474 75.2716 87.3311 67.4844 85.4308C60.1564 83.6434 52.5311 80.5264 46.4344 75.879C46.5325 76.3506 46.6351 76.8285 46.7332 77.3C55.4062 73.3351 64.0761 69.3768 72.7491 65.4119C73.6579 64.9982 72.4844 63.4799 71.1031 63.5725C53.8977 64.7361 35.9794 64.9318 17.4941 64.1387C12.2555 63.9126 6.97331 63.6039 1.64925 63.2256C0.817341 63.1651 0.392389 63.5468 0.833694 64.2157C9.56259 77.3243 20.757 90.3939 33.9419 102.843C37.713 106.405 41.6462 109.913 45.729 113.36C46.444 113.963 47.7695 114.284 47.9728 113.673C49.1109 110.237 50.2537 106.807 51.3918 103.37C52.5017 100.04 53.4001 96.584 54.8525 93.4054C55.2736 92.482 52.6706 91.2352 52.2494 92.1586C50.7971 95.3372 49.8941 98.7871 48.7888 102.124C47.6507 105.56 46.5081 108.99 45.37 112.426C46.1205 112.53 46.8634 112.634 47.6139 112.738C33.4188 100.741 21.0383 88.0021 11.0172 75.0205C8.20907 71.3879 5.59794 67.7384 3.16175 64.0862C2.89092 64.4139 2.6122 64.7421 2.34589 65.0761C21.3131 66.438 39.7702 66.8342 57.5492 66.2215C62.58 66.0471 67.5519 65.791 72.4617 65.4598C71.9171 64.8486 71.3649 64.2379 70.8158 63.6204C62.1428 67.5853 53.473 71.5434 44.8 75.5083C44.2159 75.7808 44.3521 76.3613 45.0988 76.9291C50.6764 81.1795 57.6497 84.3179 64.4121 86.2919C72.3064 88.5979 79.8325 89.2974 86.9679 89.5212C94.3927 89.7559 101.688 89.7099 108.867 89.5592C115.805 89.4082 122.614 89.0223 128.901 88.0111C135.916 86.883 142.199 84.9839 147.09 81.911C148.07 81.3172 145.719 79.75 144.763 80.3556Z" fill="#7E2424"/>
<path d="M170.043 97.9328C155.94 92.1182 142.318 84.8379 129.933 76.4648C130.038 76.9568 130.148 77.4555 130.252 77.9475C130.773 77.787 131.354 77.8824 132.067 78.2303C133.82 79.0878 134.528 77.6114 132.775 76.7538C131.105 75.9402 129.44 75.6912 128.226 76.0748C127.583 76.275 127.768 77.0288 128.545 77.5575C141.114 86.0582 154.998 93.5034 169.327 99.4097C171.115 100.143 171.845 98.6723 170.043 97.9328Z" fill="#7E2424"/>
<path d="M168.675 107.784C166.148 101.594 159.991 95.069 151.899 90.1078C151.207 89.6817 150.498 89.5892 150.07 89.8532C146.803 91.8658 145.418 95.0756 144.255 98.2476C143.13 101.326 142.286 104.696 139.64 107.002C138.249 108.217 136.315 109.011 133.779 109.205C134.451 109.658 135.123 110.111 135.806 110.57C134.438 103.256 131.76 95.6725 127.726 87.9459C127.36 87.2481 126.243 86.6099 125.459 86.8603C116.997 89.5668 116.986 97.587 112.36 102.71C111.054 104.156 109.365 105.334 107.059 106.037C107.764 106.313 108.475 106.588 109.184 106.87C107.066 103.468 104.951 100.06 102.832 96.6584C101.807 95.0112 100.848 93.3542 99.7537 91.7107C99.2321 90.93 98.5046 90.5774 97.4252 90.2828C96.5134 90.0315 95.6248 89.9354 94.8358 89.9774C91.3285 90.1706 90.0229 92.5417 88.6477 94.3362C86.8701 96.6542 85.0846 98.9726 83.2947 101.285C81.2924 103.882 79.2979 106.479 77.2956 109.076C77.9518 109.106 78.6005 109.137 79.2568 109.167C75.3843 106.498 75.2134 103.169 75.0439 100.589C74.892 98.2243 74.692 96.0377 72.9179 93.3938C71.5647 91.3794 69.3055 89.0546 66.335 87.8175C61.8387 85.9444 59.3153 87.7284 57.0732 89.0214C53.6108 91.0183 50.1606 93.0211 46.6982 95.018C47.5315 95.417 48.377 95.8218 49.2103 96.2208C49.628 89.033 48.5633 81.37 46.0878 73.4431C45.8938 72.8275 44.8484 72.2899 44.1077 72.3098C41.689 72.3864 39.2659 72.4567 36.8472 72.5333C37.3906 73.1434 37.9416 73.753 38.4895 74.3693C45.5872 71.1291 53.5475 68.6188 62.2337 66.8719C63.4003 66.6402 61.8322 64.8851 60.5914 65.0359C50.4464 66.2737 41.7212 69.105 34.8573 73.3956C34.6119 73.5455 34.62 73.9363 34.8724 74.2424C36.1554 75.791 37.4384 77.3397 38.7215 78.8883C39.2209 78.6335 39.7235 78.372 40.2228 78.1172C34.4082 75.0038 28.5903 71.8971 22.7757 68.7836C21.2348 67.9594 20.6115 69.1467 21.7727 70.0237C30.8851 76.8606 40.6451 83.2913 50.8693 89.1952C52.4335 90.0964 53.685 89.2018 52.1903 88.1403C42.9085 81.5147 32.8293 75.4661 22.2892 70.1723C21.245 69.6476 20.0754 70.1207 20.7879 70.9434C28.2983 79.6389 37.2285 88.0307 47.3386 95.8967C48.5572 96.8424 50.0869 96.0438 48.9339 95.0555C38.7888 86.3372 28.656 77.6247 18.5109 68.9065C17.3793 67.9365 15.6621 68.1844 16.4097 69.2791C23.2115 79.1664 31.6345 88.9739 41.409 98.4161C42.6143 99.5777 44.4574 98.9581 43.283 97.7948C32.943 87.5221 21.5646 77.5589 9.33779 68.0125C8.18621 67.1154 6.95636 67.7612 7.51546 68.6051C12.0638 75.4502 17.4596 82.2567 23.5981 88.9454C24.4099 89.828 26.3297 89.7389 25.8338 88.8264C21.6786 81.2105 14.3305 73.5888 4.86912 67.2269C3.45124 66.2723 2.36964 67.0796 3.27377 68.0681C13.0643 78.7939 24.8471 89.1072 38.0131 98.5188C41.7373 101.183 45.5743 103.769 49.504 106.272C49.7227 105.817 49.9445 105.355 50.1632 104.9C44.7837 103.061 39.4043 101.222 34.0248 99.3831C33.0988 99.0673 32.5764 99.4797 32.7297 100.039C33.4473 102.732 37.6992 105.192 41.3339 106.036C45.518 107.006 48.1959 105.638 49.364 103.6C51.5777 99.7004 50.4124 91.3841 41.532 87.169C37.7758 85.3869 33.0769 84.6722 31.4891 86.5954C31.0416 87.1343 31.8044 88.0717 33.0056 88.3011C43.2201 90.274 53.0816 91.1312 62.2115 90.8603C63.0451 90.8354 63.1345 89.9439 62.1959 89.3876C59.0592 87.5399 55.9269 85.6985 52.7902 83.8508C51.8807 83.3124 50.8085 83.2847 50.7866 83.9575C50.6737 88.4101 53.5249 94.1134 60.7424 97.9932C63.6603 99.5591 67.1366 100.606 69.8323 100.424C72.539 100.234 74.2305 98.8006 74.3227 96.8528C74.3996 95.1404 73.0178 92.9189 70.4821 91.3261C68.4657 90.0643 66.1031 89.3816 64.0439 89.2435C59.4318 88.9283 56.2474 91.0213 58.1043 94.6845C60.2804 98.9697 67.242 102.896 72.9875 103.848C78.8793 104.825 83.16 102.459 83.3311 98.7791C83.4086 97.0342 82.4518 94.9008 80.4599 92.9922C78.7139 91.3247 76.2861 89.9935 73.8329 89.107C69.2169 87.4359 63.8178 87.2995 62.6458 89.9569C61.1883 93.2554 66.3012 97.9385 71.6421 100.516C78.994 104.07 85.6858 103.335 90.6126 101.71C92.0729 101.228 93.4437 100.666 94.8021 100.098C95.2944 99.8895 95.2971 99.4133 94.7783 98.8933C90.3574 94.4799 84.4437 89.4875 77.4263 88.4528C74.3992 88.0076 71.6875 88.4584 70.7267 90.0809C69.7883 91.6565 70.8666 93.992 72.8 96.0537C77.2302 100.793 85.2838 102.776 90.7677 102.595C95.8448 102.429 100.661 100.171 98.768 95.7207C97.245 92.131 91.5318 87.8191 86.4597 87.8023C81.0368 87.7781 81.3998 92.3228 82.6538 95.829C83.4322 98.0043 84.5558 100.481 86.4725 102.687C88.5739 105.105 91.7128 106.744 95.0959 107.326C98.3326 107.884 101.416 107.648 104.138 107.347C107.046 107.023 109.728 106.397 111.656 105.147C115.011 102.98 115.133 98.5724 110.896 94.2926C106.889 90.2419 100.285 88.631 96.5367 90.1867C94.7299 90.9349 93.5861 92.2477 93.4737 93.9554C93.346 95.8986 94.7007 98.2388 96.6716 100.364C101.189 105.235 108.551 108.579 115.328 110.161C118.92 111 122.405 111.447 125.782 111.697C128.94 111.933 132.364 111.992 133.755 110.354C134.931 108.974 134.294 106.739 132.602 104.677C130.687 102.341 127.661 100.39 124.412 98.9781C118.57 96.4399 111.606 94.8547 106.723 95.5581C104.504 95.8784 102.66 96.6872 102.072 98.2246C101.464 99.8022 102.142 101.794 103.927 103.772C107.575 107.803 114.647 110.934 119.972 111.257C123.626 111.48 126.661 110.809 129.193 109.729C130.505 109.164 131.703 108.507 132.846 107.807C133.875 107.172 134.984 106.559 135.82 105.79C136.578 105.092 136.931 104.153 136.186 102.928C135.432 101.691 133.838 100.569 132.351 99.5856C129.448 97.6603 126.232 95.9602 122.939 94.6098C119.627 93.254 116.277 92.2262 112.989 91.5862C109.686 90.9471 105.866 90.4723 104.056 91.8401C101.262 93.9514 104.83 98.7755 108.673 101.818C113.713 105.807 121.047 108.722 127.068 109.556C133.413 110.437 138.32 108.885 139.819 105.297C141.21 101.963 139.455 97.2252 134.22 93.3311C129.522 89.8387 122.564 87.4251 117.813 88.0106C112.306 88.695 111.389 93.0015 112.791 97.2822C113.608 99.7685 115.217 102.506 118.283 104.814C120.794 106.708 123.977 107.927 126.955 108.584C133.317 109.979 139.305 108.858 141.741 105.893C144.136 102.981 142.565 98.0311 137.179 94.0734C132.368 90.5349 125.861 89.5839 122.921 91.7486C121.483 92.8096 121.327 94.5458 122.5 96.511C123.879 98.8174 126.955 101.027 130.057 102.492C133.608 104.167 137.358 104.913 140.798 105.33C144.682 105.795 148.491 106.042 152.307 106.367C155.099 106.609 158.079 106.855 159.853 105.815C161.855 104.645 160.187 102.25 157.432 100.408C154.111 98.1922 150.503 96.1481 146.891 94.254C145.036 93.2834 143.162 92.3529 141.262 91.4761C139.537 90.6747 137.714 89.7938 135.931 89.1911C132.179 87.9173 130.331 89.4892 130.68 91.7266C130.972 93.5953 132.443 95.6948 134.594 97.5233C138.793 101.081 145.165 103.787 150.177 103.82C160.375 103.883 156.156 93.1216 146.909 88.1176C141.585 85.2388 134.517 84.748 133.854 88.3694C133.291 91.405 137.114 95.8242 141.78 98.3794C148.034 101.802 154.915 102.446 160.822 102.921C161.845 103.003 162.082 102.417 161.417 101.683C157.638 97.535 152.634 93.7068 147.021 90.5501C144.251 88.9893 141.346 87.6314 138.382 86.4917C135.543 85.4041 132.053 84.5271 130.167 85.4556C126.507 87.2674 131.847 93.2815 135.409 96.3127C139.83 100.068 145.698 103.211 151.514 104.629C158.326 106.294 164.54 105.754 168.025 103.13C168.39 102.857 168.141 102.231 167.517 101.821C162.246 98.3589 154.911 97.5303 152.483 100.261C152.12 100.672 152.434 101.287 153.317 101.755C159.602 105.098 166.843 106.688 172.197 105.881C172.783 105.791 173.078 105.43 172.68 104.878C171.08 102.655 168.467 100.564 165.426 99.0503C164.022 98.3491 162.41 97.7048 160.951 97.3848C159.635 97.0962 158.752 97.6779 158.478 98.3575C157.924 99.7302 159.313 101.951 161.69 103.279C164.508 104.85 167.591 104.849 169.276 103.931C171.562 102.688 171.036 99.8926 169.821 97.3558C169.58 96.8535 168.927 96.3471 168.173 96.2373C161.574 95.3042 155.914 96.2902 152.527 98.9612C152.164 99.2479 152.418 99.8473 153.036 100.271C158.395 103.924 165.556 105.57 169.918 104.164C170.558 103.96 170.336 103.262 169.62 102.746C164.609 99.1525 157.989 98.6704 154.49 100.271C150.041 102.314 150.279 107.198 150.587 111.466C150.626 111.979 151.414 112.739 152.277 112.81C157.144 113.222 156.561 108.885 153.197 105.941C148.538 101.866 141.597 101.864 137.422 102.491C136.058 102.694 137.262 104.468 138.777 104.375C142.251 104.157 145.725 103.94 149.207 103.722C150.714 103.628 149.397 101.866 147.851 101.838C137.567 101.655 127.584 101.945 117.955 102.706C116.497 102.823 117.81 104.67 119.31 104.59C128.272 104.119 137.242 103.648 146.2 103.171C145.748 102.543 145.296 101.915 144.844 101.287C131.871 102.089 118.606 102.495 105.083 102.498C101.237 102.501 97.3727 102.465 93.4899 102.404C93.9418 103.032 94.3936 103.66 94.8455 104.288C99.1677 104.078 103.482 103.868 107.804 103.657C108.737 103.614 108.62 102.792 107.789 102.184C101.016 97.2703 92.628 94.6329 84.9242 93.1131C76.6092 91.4694 68.7854 91.1557 60.4632 89.4798C55.7486 88.5311 50.9026 87.0874 46.2653 84.8176C46.2658 85.3652 46.2696 85.9062 46.2702 86.4539C49.231 87.0525 52.1918 87.6512 55.1449 88.2503C56.4783 88.5183 56.4073 87.192 55.14 86.614C48.4352 83.5806 41.7338 80.5405 35.029 77.5071C35.0296 78.0548 35.0332 78.5957 35.0337 79.1434C41.0584 79.6246 46.5486 79.2736 51.3527 78.0919C52.3697 77.8422 51.2736 76.453 50.0467 76.2771C44.068 75.4023 41.7489 79.5682 45.4681 83.7321C45.9721 84.2986 47.2669 84.5688 47.5766 84.2067C50.9468 80.2848 54.3202 76.3561 57.6905 72.4342C56.8572 72.0352 56.0118 71.6303 55.1785 71.2313C54.5458 75.5421 53.913 79.8529 53.2803 84.1638C53.1388 85.1167 55.4804 85.9375 55.9284 85.2095C59.3312 79.6362 60.5386 72.9541 59.4252 65.6588C59.2533 64.527 56.875 63.7669 56.7393 64.8173C55.9094 71.0751 53.4665 76.721 49.5782 81.5637C48.9595 82.3335 51.2342 83.4186 52.0524 82.9708C58.2854 79.5224 61.6508 73.9641 61.6294 67.2823C61.6284 66.2652 59.503 65.5437 58.9815 66.2365C55.5346 70.8667 52.8191 75.8884 50.8698 81.2604C50.5181 82.2114 52.978 83.3974 53.4677 82.5042C56.3139 77.3518 59.9361 72.608 64.3271 68.3188C65.0845 67.5743 62.9474 66.1558 61.9887 66.7545C55.9668 70.4851 51.3997 75.2663 48.4785 80.8726C49.3652 81.2231 50.2396 81.5678 51.1264 81.9183C51.787 78.5057 52.44 75.0936 53.1006 71.681C53.2667 70.818 51.2501 70.0582 50.5885 70.4781C46.9955 72.7624 44.3727 75.7252 42.8051 79.2056C43.6752 79.6222 44.5328 80.0328 45.4029 80.4494C46.8076 77.245 45.5755 72.9096 41.9684 68.7789C41.2088 67.9131 39.4653 67.5104 39.4591 68.417C39.4559 72.4531 40.4182 76.7703 42.3114 81.2205C43.1283 81.2618 43.9495 81.3093 44.7741 81.3501C42.0297 78.0276 39.2931 74.7047 36.5488 71.3821C35.6859 70.3392 33.766 70.1937 34.0862 71.2525C35.3641 75.4616 37.5787 79.8228 40.6316 84.1656C41.3309 84.0436 42.0259 83.9154 42.733 83.793C39.1232 80.1384 35.5056 76.4842 31.8958 72.8296C30.8098 71.7334 29.2089 72.2098 29.7946 73.2022C33.0155 78.638 37.0731 84.0422 41.8494 89.3625C42.729 90.3393 44.3538 90.0637 44.0848 89.2435C41.5294 81.3729 35.4016 72.9688 26.7546 65.4617C26.0307 64.8352 24.7482 64.571 24.5148 65.1507C22.601 69.947 23.7229 75.9705 27.6761 82.1562C28.3547 83.222 30.5659 83.3259 30.1388 82.2858C27.3066 75.4928 19.634 68.3576 10.1833 63.7295C9.31651 63.3062 8.53854 63.4976 8.49328 64.0151C8.18633 67.8522 10.1088 72.3987 13.9146 76.7275C14.5774 77.4812 16.0689 77.9689 16.3738 77.2876C17.2467 75.3308 16.3499 72.7901 14.0242 70.3059C13.4965 70.5883 12.9565 70.8648 12.4288 71.1471C19.7422 76.8344 27.0601 82.528 34.3735 88.2152C34.8128 87.8658 35.2554 87.5097 35.6947 87.1604C33.1309 85.2496 30.903 83.1579 29.1074 80.9976C28.311 80.0359 26.0246 79.7274 26.6446 80.868C30.0119 87.0653 35.1735 93.2779 41.8519 99.0316C43.0184 100.039 44.6006 99.7263 43.953 98.6589C42.1283 95.6655 40.3035 92.6722 38.4788 89.6789C37.837 88.6307 35.4627 88.4899 36.0162 89.5492C38.5531 94.3694 42.1535 99.1719 46.7706 103.836C47.7747 104.851 49.733 104.526 48.872 103.463C44.3462 97.8881 39.3356 92.3651 33.8978 86.9627C33.2151 86.2818 31.8889 86.1243 31.658 86.6516C30.3015 89.7557 31.0177 93.6751 33.6215 97.7289C34.3208 97.6069 35.0157 97.4787 35.7227 97.3563C34.1883 95.8601 32.1996 94.6815 29.9954 93.873C28.9255 93.4801 28.3989 94.1211 28.8346 94.7825C31.9491 99.4676 35.888 104.115 40.5133 108.589C41.5515 109.597 43.4491 109.287 42.6145 108.217C37.5708 101.744 33.6178 95.2124 30.8685 88.7801C30.1259 88.8196 29.3755 88.8596 28.6329 88.8991C31.7653 91.6337 34.8979 94.3684 38.0304 97.103C39.0279 97.9758 40.5562 97.9009 40.2659 96.984C37.6721 88.77 40.4221 81.5753 47.712 77.8098C46.949 77.3745 46.1737 76.9333 45.4107 76.498C45.0008 80.5492 47.819 85.6151 52.8709 89.9232C53.4535 90.4203 54.6251 90.8208 54.9793 90.3977C59.6617 84.7498 61.9639 77.7812 61.5869 69.9576C61.4815 67.7464 61.152 65.4691 60.6315 63.1496C60.4003 62.1252 57.9423 61.5779 57.9877 62.5339C58.3998 70.5512 56.0312 77.7515 51.0085 83.4175C49.5938 85.012 47.9727 86.4872 46.1638 87.8353C46.9927 88.3063 47.8093 88.7713 48.6381 89.2422C52.4025 83.6693 48.0047 74.3322 38.5924 67.4135C37.7189 66.7689 36.6199 66.9382 36.5889 67.5202C36.5188 69.03 36.4519 70.5332 36.3818 72.043C36.3357 73.017 38.5845 73.8427 39.0299 73.0887C40.1671 71.1308 41.2965 69.1734 42.4337 67.2155C42.7548 66.6572 41.7263 65.8644 40.7888 65.6666C29.6198 63.3272 19.5604 64.293 13.2112 68.1715C12.6062 68.5362 13.4555 69.4821 14.3816 69.7979C23.5432 72.9418 32.7245 75.7781 41.8842 78.2831C41.7747 77.6956 41.6531 77.1023 41.5436 76.5148C34.6108 75.0061 31.6919 79.0866 32.7455 83.3076C34.1519 88.9117 42.3008 94.711 48.7989 99.2876C49.9749 100.118 51.2289 99.5951 50.6214 98.6951C49.2256 96.6439 47.8331 94.5859 46.4374 92.5347C45.9861 91.8741 44.9517 91.5641 44.3123 91.7025C41.3295 92.3568 40.037 94.4337 40.6836 97.0399C40.9334 98.0568 42.8497 98.3981 43.2849 97.8533C45.3942 95.2373 48.397 93.115 52.1035 91.6137C53.8634 90.9006 55.7844 90.3222 57.8404 89.8867C59.7101 89.4938 61.8418 89.2304 64.2603 89.6559C69.3378 90.5396 72.3706 94.7987 75.9762 97.5211C79.6367 100.286 84.2646 102.152 88.6397 103.321C93.3978 104.587 97.9878 105.184 102.526 105.731C108.603 106.464 114.68 107.196 120.77 107.935C126.812 108.663 132.885 109.435 138.902 110.106C144.875 110.772 150.824 111.27 156.304 111.05C166.191 110.661 174.705 107.58 176.049 100.675C176.121 100.307 175.563 99.8211 175.049 99.542C164.56 93.9065 153.421 89.2314 142.291 85.8076C141.083 85.4351 139.469 84.7321 138.638 85.1284C137.758 85.5469 137.1 86.1948 136.318 86.6928C134.725 87.7165 133.061 88.6853 131.321 89.593C127.859 91.4008 124.118 92.9888 120.13 94.3552C112.236 97.0576 103.393 98.8779 93.8115 99.7598C89.0802 100.194 84.1707 100.403 79.1127 100.373C74.1134 100.346 68.8453 100.313 63.4165 99.4547C60.7414 99.0299 58.0543 98.2536 55.4169 96.8879C53.1453 95.7179 51.0754 94.2698 49.0478 92.8586C45.1515 90.1451 40.9938 87.1913 36.2286 85.9715C36.4555 86.5658 36.6822 87.1599 36.9059 87.7609C48.9633 88.2991 62.4755 93.1803 75.2562 97.592C81.9867 99.9133 88.7049 102.151 95.4342 103.957C102.503 105.856 109.541 107.366 116.423 108.447C124.147 109.659 131.672 110.328 138.884 110.472C138.432 109.844 137.98 109.216 137.528 108.588C126.13 110.316 113.542 110.615 100.178 109.423C100.74 109.869 101.307 110.321 101.869 110.767C101.757 108.68 105.914 108.53 108.642 110.491C108.861 110.036 109.083 109.574 109.301 109.119C95.5228 105.341 81.8601 100.24 68.4292 94.0761C62.6047 91.4065 56.2075 88.5328 50.5079 88.3472C45.1049 88.172 42.2222 90.8291 41.5705 94.176C40.7046 98.6427 44.0262 104.23 47.0947 109.387C47.794 109.265 48.4888 109.136 49.1959 109.014C39.0207 98.602 30.7682 87.7813 24.7307 77.0252C24.167 76.0186 22.2799 75.9299 22.2213 76.6633C22.0132 79.3541 23.1936 82.5121 25.5734 85.5737C27.4356 87.9717 31.6361 92.5925 35.3995 91.7727C36.9669 91.4285 37.8239 90.3201 38.5327 89.363C39.2654 88.3721 39.7142 87.1876 39.6187 85.8496C39.4495 83.5049 37.4526 80.6186 34.0101 78.5916C32.4356 77.6648 30.3325 76.7401 28.9113 77.0309C27.7228 77.2767 27.1531 78.0699 27.1921 79.0393C27.2691 81.2781 30.0289 83.8631 33.5646 84.9593C37.5092 86.1771 40.7618 85.3845 42.3827 83.7529C43.323 82.8161 43.8687 81.6657 44.3407 80.48C44.7838 79.3546 45.289 78.1148 44.4534 76.6075C43.6403 75.1317 41.6222 73.8895 39.5828 73.5222C37.6543 73.175 36.0493 73.5342 34.7695 74.0327C31.3767 75.3673 28.9033 77.455 27.4844 80.0929C27.1768 80.67 28.1859 81.4248 29.1293 81.6419C38.0488 83.6902 46.365 83.2932 51.8921 80.5604C52.4475 80.2831 52.3748 79.7131 51.5942 79.1418C45.2049 74.4485 36.0576 72.7644 31.6035 75.2249C30.59 75.7809 32.9362 77.3447 33.9419 76.7892C37.59 74.7823 45.2069 76.4827 50.2775 80.2029C50.1797 79.7322 50.0775 79.2552 49.9797 78.7844C44.7006 81.3931 36.9721 81.759 28.4543 79.8001C29.0041 80.3185 29.5495 80.8307 30.0992 81.3491C31.0567 79.5768 32.5205 78.0841 34.4681 76.9176C35.3592 76.3812 36.3482 75.8916 37.4734 75.5579C38.2506 75.3209 39.3503 75.1189 40.4942 75.4362C43.6371 76.299 41.6726 79.507 41.2847 80.3296C40.5268 81.9218 39.3399 83.4977 36.6183 83.6557C34.6426 83.7674 31.6655 83.0457 30.3911 81.1967C29.9308 80.5235 29.7057 79.7531 30.0347 79.2727C30.1699 79.0699 30.3798 78.9152 30.713 78.8649C30.8433 78.8449 30.6072 78.8183 30.5839 78.8195C30.6935 78.8267 30.9039 78.9068 31.0206 78.9462C31.3908 79.07 31.7299 79.1953 32.0808 79.3592C34.5613 80.5181 36.3374 82.5622 36.8084 84.2323C37.4042 86.3326 36.3189 87.9944 34.9231 89.2358C34.5521 89.5685 34.0306 90.1048 33.1763 90.0003C32.4285 89.9098 31.6491 89.2732 31.1213 88.8188C29.7387 87.6341 28.5661 86.3729 27.621 85.0932C25.6645 82.4524 24.749 79.8409 24.9253 77.53C24.093 77.4113 23.2606 77.2926 22.4159 77.168C28.5444 88.0953 36.9886 99.0819 47.3276 109.655C48.4026 110.758 50.0145 110.274 49.4288 109.282C46.804 104.864 43.9655 100.138 44.144 96.1451C44.291 92.8447 46.7287 90.0155 51.8848 90.2495C57.1616 90.4836 63.3048 93.4622 68.6204 95.9046C74.8693 98.7732 81.2011 101.422 87.5919 103.807C94.8147 106.5 102.084 108.845 109.317 110.827C110.676 111.198 111.133 110.28 109.977 109.455C105.572 106.293 99.0102 106.616 99.1966 109.944C99.2287 110.458 100.04 111.216 100.887 111.289C114.474 112.502 127.304 112.249 138.897 110.491C140.28 110.28 139.124 108.64 137.542 108.607C124.7 108.352 110.778 106.315 96.6405 102.608C83.2863 99.1075 69.9946 93.6732 56.6458 89.8004C49.4089 87.7016 42.2505 86.1919 35.5638 85.8959C34.3454 85.8435 34.96 87.356 36.2412 87.6855C39.542 88.5334 42.4665 90.3206 45.2423 92.2136C48.1723 94.2092 50.9846 96.309 54.2038 98.048C57.9738 100.084 61.936 101.092 65.7064 101.543C69.9764 102.052 74.13 102.177 78.1656 102.249C94.629 102.559 109.631 100.437 122.188 96.1103C129.277 93.6725 135.582 90.5137 140.974 86.7123C140.588 86.7329 140.193 86.7539 139.806 86.7745C151.559 90.2042 163.284 95.0241 174.365 100.98C174.028 100.6 173.695 100.227 173.365 99.8469C172.198 105.881 164.568 108.628 156.075 109.126C150.609 109.443 144.647 108.972 138.632 108.314C132.617 107.656 126.554 106.877 120.505 106.149C114.428 105.417 108.351 104.684 102.261 103.946C97.7661 103.403 93.2029 102.876 88.4789 101.602C84.1025 100.42 79.7014 98.5681 76.2787 95.6533C74.4625 94.1004 72.8904 92.4628 70.8918 90.9914C68.9055 89.5258 66.5735 88.4503 64.2091 87.9437C61.5306 87.3691 59.1287 87.5362 57.023 87.9026C54.6382 88.3165 52.4426 88.9485 50.4418 89.7396C46.2892 91.369 43.0367 93.7134 40.6994 96.6153C41.5706 96.8884 42.4296 97.1556 43.3008 97.4287C42.805 95.4339 44.0206 93.9869 46.2539 93.4964C45.5496 93.2209 44.8378 92.9459 44.129 92.6641C45.5248 94.7154 46.9173 96.7733 48.313 98.8245C48.9195 98.6292 49.5259 98.4339 50.1356 98.2319C44.4535 94.2313 37.2858 89.2599 35.5545 84.3317C34.2972 80.7539 36.4784 77.1104 42.2506 78.3679C43.7529 78.6921 43.4211 77.0146 41.9097 76.5996C32.7499 74.0946 23.5732 71.2645 14.407 68.1143C14.7956 68.6544 15.1888 69.2007 15.5774 69.7408C21.5343 66.0984 31.0658 65.3366 41.5036 67.5192C40.9538 67.0008 40.4086 66.4887 39.8589 65.9703C38.7217 67.9282 37.5923 69.8856 36.4551 71.8435C37.3418 72.194 38.2164 72.5387 39.1032 72.8892C39.1732 71.3793 39.24 69.8762 39.3101 68.3664C38.6448 68.4018 37.9719 68.4376 37.3067 68.473C45.7661 74.6926 49.4191 83.0393 46.0757 88.003C45.5575 88.7674 47.7898 89.972 48.5499 89.4099C55.1244 84.4828 59.1587 77.8785 60.3804 70.1785C60.729 67.9953 60.8318 65.7273 60.7134 63.3864C59.8333 63.179 58.9499 62.9783 58.0698 62.7709C60.2895 72.7978 58.4012 81.9156 52.6642 88.8324C53.3644 88.9907 54.0723 89.1485 54.7726 89.3069C50.2182 85.4222 47.7559 80.9958 48.1243 77.3446C48.1894 76.6761 46.5282 75.6625 45.8227 76.0326C37.9336 80.1038 34.8888 87.6924 37.6967 96.6057C38.4393 96.5662 39.1895 96.5262 39.9321 96.4867C36.7996 93.752 33.6672 91.0173 30.5348 88.2827C29.5889 87.4594 27.8875 87.4391 28.2991 88.4018C31.1105 94.9873 35.1527 101.709 40.3171 108.339C41.0164 108.217 41.7112 108.089 42.4183 107.967C37.9524 103.647 34.1832 99.1791 31.174 94.6514C30.7881 94.9523 30.4023 95.2532 30.0132 95.5608C31.5235 96.1194 32.8338 96.969 33.8643 97.9769C34.9541 99.0338 36.6246 98.6318 35.9654 97.6041C33.6843 94.0548 33.0967 90.6043 34.279 87.8943C33.5298 87.7907 32.7885 87.6868 32.0394 87.5832C37.3178 92.8312 42.174 98.1733 46.5714 103.592C47.2707 103.47 47.9655 103.342 48.6726 103.219C44.4059 98.9087 40.9821 94.3964 38.6408 89.9375C37.824 89.8962 37.0027 89.8487 36.1782 89.8079C38.0029 92.8012 39.8277 95.7945 41.6524 98.7879C42.3517 98.6659 43.0465 98.5377 43.7536 98.4153C37.4584 92.9933 32.4502 87.105 29.265 81.2501C28.4482 81.2088 27.6266 81.1612 26.8021 81.1203C28.8816 83.6307 31.4091 85.9932 34.3889 88.2144C35.8308 89.2917 37.072 88.215 35.7101 87.1595C28.3968 81.4722 21.0789 75.7787 13.7655 70.0914C12.4494 69.0661 11.2733 69.9765 12.1703 70.9328C13.8642 72.7399 14.425 74.6465 13.8036 76.0488C14.6193 76.2336 15.4472 76.4241 16.2628 76.6089C12.7159 72.5727 10.9216 68.4499 11.2114 64.868C10.6455 64.9633 10.0873 65.0583 9.52137 65.1536C18.0349 69.3165 25.0105 75.7845 27.5616 81.9079C28.3784 81.9492 29.2 81.9968 30.0245 82.0377C26.4031 76.369 25.3887 70.7963 27.1449 66.4061C26.3957 66.3025 25.6542 66.1984 24.905 66.0949C33.2236 73.313 39.0579 81.3089 41.5169 88.8782C42.2595 88.8386 43.0098 88.7987 43.7524 88.7591C39.1258 83.6134 35.245 78.3432 32.1398 73.0904C31.4404 73.2124 30.7456 73.3406 30.0385 73.463C33.6483 77.1176 37.2658 80.7718 40.8755 84.4264C41.9099 85.4732 43.7036 85.0974 42.9767 84.0538C40.0369 79.868 37.939 75.7025 36.703 71.6412C35.8862 71.5999 35.065 71.5524 34.2404 71.5116C36.9848 74.8341 39.7214 78.157 42.4657 81.4795C43.2847 82.4726 45.402 82.725 44.9283 81.6092C43.0972 77.3122 42.1718 73.1691 42.1693 69.2703C41.3369 69.1516 40.5047 69.0329 39.6601 68.9083C42.8586 72.5718 44.0626 76.3546 42.8174 79.2114C42.4089 80.1395 44.9989 81.3837 45.4151 80.4553C46.928 77.0887 49.4633 74.2609 52.9391 72.0481C52.1058 71.6491 51.2603 71.2443 50.427 70.8454C49.7664 74.2579 49.1134 77.6701 48.4528 81.0826C48.2732 82.005 50.6954 82.893 51.1007 82.1282C53.9673 76.6356 58.4425 71.9834 64.3517 68.3305C63.5763 67.8111 62.7886 67.2857 62.0132 66.7663C57.5308 71.1517 53.8107 76.0051 50.9021 81.2717C51.7721 81.6883 52.6297 82.0989 53.4998 82.5155C55.4491 77.1436 58.1647 72.1221 61.6116 67.4919C60.7249 67.1414 59.8504 66.7967 58.9637 66.4462C58.9855 72.8607 55.717 78.1073 49.7262 81.4124C50.5551 81.8834 51.3718 82.3485 52.2006 82.8195C56.1868 77.8672 58.6029 72.0725 59.4494 65.6704C58.5583 65.3919 57.655 65.1076 56.7639 64.829C57.852 71.9888 56.7017 78.5047 53.3549 83.9772C54.2416 84.3277 55.1162 84.6724 56.003 85.0229C56.6357 80.7121 57.2683 76.4013 57.901 72.0905C58.0131 71.3086 55.9072 70.2797 55.3888 70.8876C52.0186 74.8095 48.6452 78.7381 45.2749 82.6601C45.9752 82.8184 46.6831 82.9762 47.3833 83.1346C44.878 80.3339 46.9789 77.5946 50.7751 78.1488C50.3413 77.546 49.9029 76.9368 49.4691 76.334C45.0563 77.423 39.9343 77.761 34.3879 77.3195C33.2274 77.2248 32.9707 78.3078 34.3928 78.9558C41.0976 81.9892 47.7991 85.0294 54.5039 88.0628C54.5033 87.5152 54.4997 86.9742 54.4992 86.4266C51.5384 85.8279 48.5774 85.2292 45.6243 84.6301C44.2432 84.3516 44.4147 85.6725 45.6292 86.2664C62.2931 94.4224 77.6893 91.8097 94.2183 97.1888C98.5917 98.6121 102.843 100.602 106.521 103.269C106.515 102.78 106.508 102.292 106.505 101.796C102.183 102.007 97.8687 102.217 93.5465 102.428C92.0258 102.502 93.3601 104.289 94.9021 104.311C108.561 104.53 121.978 104.356 135.121 103.78C138.856 103.614 142.562 103.417 146.257 103.194C147.741 103.102 146.394 101.231 144.901 101.31C135.939 101.781 126.969 102.252 118.011 102.729C118.463 103.357 118.915 103.985 119.367 104.613C129.004 103.852 138.987 103.562 149.263 103.745C148.811 103.117 148.36 102.489 147.908 101.861C144.434 102.078 140.96 102.296 137.478 102.514C137.93 103.142 138.382 103.77 138.834 104.398C141.88 103.942 147.065 103.503 150.891 106.207C152.883 107.614 154.713 111.239 151.634 110.979C152.196 111.425 152.763 111.878 153.325 112.324C153.059 108.628 152.619 104.211 156.168 102.223C158.8 100.746 164.203 100.843 168.351 103.817C168.253 103.346 168.151 102.869 168.053 102.399C164.52 103.539 158.742 102.184 154.417 99.2323C154.585 99.6667 154.758 100.107 154.926 100.542C157.955 98.144 163.007 97.2622 168.92 98.1014C168.374 97.7328 167.823 97.3578 167.272 96.9829C168.206 98.9283 168.945 101.295 167.162 102.277C165.967 102.927 163.122 102.902 161.652 101.149C161.166 100.575 160.877 99.8271 161.206 99.4249C161.258 99.3634 161.406 99.323 161.426 99.2502C161.674 99.2044 161.636 99.1739 161.319 99.1581C161.479 99.2018 161.639 99.2454 161.804 99.2954C162.497 99.4997 163.182 99.7371 163.858 100.04C166.608 101.25 168.996 103.04 170.415 105.011C170.576 104.677 170.737 104.342 170.897 104.008C166.048 104.735 159.76 103.375 154.063 100.346C154.342 100.847 154.617 101.34 154.897 101.841C156.735 99.7738 162.187 100.207 166.271 102.891C166.103 102.457 165.93 102.016 165.762 101.582C163.13 103.56 158.698 104.188 153.666 103.367C148.744 102.566 143.618 100.309 139.379 97.2749C137.338 95.8122 135.5 94.1498 134.109 92.4634C132.905 91.0018 131.323 88.9149 131.85 87.6937C132.469 86.2328 135.976 87.2783 138.12 88.0704C140.661 89.0109 143.21 90.2315 145.599 91.5322C151.102 94.5252 155.957 98.3026 159.619 102.32C159.815 101.911 160.014 101.497 160.211 101.088C155.064 100.678 149.256 100.231 143.718 97.5785C139.845 95.7244 136.516 92.3027 136.556 89.7251C136.613 86.6903 142.474 87.4018 146.41 89.6112C149.858 91.5465 152.348 94.4589 153.221 96.9552C154.155 99.6374 152.919 101.816 149.374 101.946C145.562 102.084 140.378 99.947 136.971 97.2662C135.27 95.9288 133.997 94.4058 133.544 92.9499C133.291 92.1418 133.263 91.1979 133.963 90.7759C134.87 90.2386 136.678 91.1334 137.972 91.7035C144.199 94.4298 150.42 97.6846 156 101.365C156.966 102.004 158.248 102.882 158.135 103.65C158.059 104.215 157.208 104.45 156.521 104.577C154.337 104.981 151.413 104.51 148.839 104.282C145.779 104.015 142.735 103.825 139.607 103.418C136.668 103.04 133.478 102.401 130.464 100.925C128.018 99.725 125.562 97.9194 124.717 96.0866C124.046 94.6293 124.659 93.4946 126.003 92.9405C127.284 92.4094 129.108 92.2994 131.082 92.7876C133.462 93.3716 135.728 94.8026 137.34 96.3729C145.613 104.409 135.074 109.351 125.122 106.438C122.566 105.688 120.149 104.428 118.41 102.669C116.385 100.625 115.463 98.294 115.074 96.3261C114.413 92.9513 115.764 89.7954 120.671 89.8275C124.752 89.8515 130.263 92.0748 133.695 95.0021C137.615 98.3403 138.41 102.112 136.981 104.646C135.427 107.409 131.293 108.45 126.105 107.67C121.08 106.914 115.084 104.554 110.763 101.328C107.879 99.1738 104.417 95.2113 106.335 93.5118C107.649 92.3465 111.016 92.9301 113.573 93.4134C116.272 93.9282 119.09 94.7626 121.822 95.8364C124.611 96.9332 127.366 98.3058 129.888 99.8798C131.013 100.583 132.276 101.356 133.188 102.188C134.438 103.334 133.919 103.975 133.137 104.551C129.888 106.967 125.847 109.51 119.932 109.427C115.641 109.369 109.974 107.141 106.588 103.898C103.224 100.674 104.549 97.995 108.15 97.4512C112.148 96.8471 117.581 98.0117 122.439 99.8525C125.155 100.881 127.961 102.336 129.831 104.232C131.333 105.749 132.251 107.617 131.511 108.765C130.566 110.23 127.365 110.035 124.83 109.838C122.07 109.62 119.241 109.281 116.334 108.68C110.708 107.525 104.606 105.151 100.223 101.303C96.458 98.002 94.9464 94.2942 97.7688 92.3901C100.1 90.8185 105.019 91.2477 108.509 94.3675C112.135 97.6105 112.304 101.259 110.018 103.128C108.585 104.307 106.407 104.964 104.036 105.318C101.803 105.652 99.3292 105.843 96.775 105.731C94.2872 105.622 91.4037 105.019 89.3189 103.037C87.4922 101.302 86.5683 99.2261 85.8071 97.4541C84.6519 94.7772 83.2799 90.6382 86.6429 89.8202C89.9749 89.0038 94.6712 92.3269 96.0663 94.991C97.9567 98.6002 94.0417 100.426 90.165 100.697C85.8397 100.993 79.1893 99.7428 75.2571 95.975C73.5749 94.3628 72.5629 92.3759 73.4939 91.1919C74.4011 90.0417 76.7961 89.999 79.1083 90.4888C84.7934 91.6922 89.4597 96.0339 92.9687 99.5374C92.9593 99.1336 92.9544 98.7361 92.945 98.3324C88.7732 100.08 83.901 102.172 77.2205 100.813C73.0004 99.9485 67.6661 97.0116 65.7542 93.886C61.884 87.559 75.6794 89.2957 79.6048 94.7395C82.0043 98.0739 80.2511 100.906 77.0217 101.853C73.4598 102.897 67.9991 101.336 63.9065 98.3723C60.4145 95.8524 58.9847 92.5708 62.0097 91.4839C64.0808 90.7346 68.216 91.023 70.5779 93.4792C72.3925 95.3647 71.8452 97.2716 70.3027 98.097C68.5901 99.0097 65.6009 98.5168 62.8761 97.2862C55.9597 94.1597 53.4456 88.7907 53.5461 84.8342C52.8809 84.8697 52.2078 84.9055 51.5426 84.9409C54.6793 86.7886 57.8116 88.63 60.9483 90.4777C60.9421 89.989 60.9358 89.5003 60.9327 89.005C52.0084 89.2715 42.3881 88.4145 32.3954 86.482C32.8994 87.0485 33.4079 87.6213 33.9119 88.1878C34.9318 86.9598 37.5926 87.2419 40.1007 88.2493C43.371 89.5683 45.5572 91.9034 46.5992 94.1104C47.7543 96.5526 47.9296 98.9949 47.4036 100.998C46.9572 102.711 45.7387 104.556 42.8506 104.527C40.2236 104.504 36.0046 102.681 35.4035 100.451C34.9744 100.669 34.5375 100.888 34.1084 101.106C39.4879 102.946 44.8673 104.785 50.2468 106.624C51.5797 107.081 52.0899 106.004 50.9062 105.252C37.1562 96.4909 24.614 86.7072 13.8568 76.3459C10.8344 73.4293 7.9595 70.4723 5.22904 67.4816C4.70135 67.7639 4.16137 68.0404 3.63366 68.3228C12.4035 74.2259 19.4495 81.3944 23.3102 88.4783C24.0528 88.4387 24.8032 88.3988 25.5458 88.3592C19.5648 81.8447 14.3435 75.1919 9.90949 68.5168C9.30307 68.7121 8.6968 68.9074 8.08716 69.1093C20.1237 78.5028 31.3031 88.3461 41.4792 98.458C42.0998 98.249 42.7327 98.0457 43.3533 97.8366C33.7382 88.549 25.4927 78.9211 18.8007 69.1974C18.1014 69.3194 17.4065 69.4478 16.6994 69.5702C26.8445 78.2885 36.9774 87.0008 47.1225 95.7191C47.6502 95.4367 48.1902 95.1603 48.7179 94.8779C39.0129 87.3293 30.3653 79.1964 23.1667 70.8559C22.6673 71.1107 22.1646 71.372 21.6653 71.6268C31.9925 76.8146 41.8299 82.7392 50.9272 89.2313C51.3665 88.8819 51.8091 88.5258 52.2484 88.1764C42.0197 82.2662 32.2643 75.8417 23.1518 69.0049C22.8164 69.4205 22.4843 69.8294 22.1488 70.245C27.9634 73.3585 33.7811 76.4652 39.5957 79.5786C40.6638 80.1477 41.756 79.6005 41.097 78.8075C39.8139 77.2589 38.5308 75.7103 37.2477 74.1616C37.2486 74.4419 37.2495 74.7221 37.2626 75.0083C43.8482 70.8891 52.2796 68.1517 62.014 66.9684C61.4706 66.3584 60.9194 65.7486 60.3715 65.1323C51.6852 66.8793 43.7372 69.3954 36.6273 72.6297C35.6982 73.0574 36.8779 74.5072 38.2697 74.4657C40.6883 74.389 43.1117 74.3187 45.5303 74.2421C44.8744 73.8662 44.2138 73.4842 43.55 73.1088C45.9835 80.888 46.9959 88.3778 46.5838 95.4283C46.5344 96.3307 48.3834 97.0473 49.096 96.6312C51.9585 94.9726 54.8288 93.3137 57.6991 91.6548C59.0882 90.8506 60.3733 89.9019 61.974 89.269C62.9612 88.8774 64.2627 88.7102 65.8137 89.3253C68.3881 90.3358 70.1683 92.6534 71.1234 94.3043C72.5783 96.8283 72.2832 98.9631 72.5401 101.251C72.875 104.161 73.88 107.432 77.995 110.271C78.8097 110.834 79.6536 110.757 79.9562 110.362C82.7665 106.711 85.5766 103.061 88.3792 99.41C89.7686 97.6017 91.0787 95.739 92.5629 93.9843C93.5886 92.7757 95.3244 91.1249 98.4528 92.3471C98.0651 92.0874 97.6774 91.8277 97.2929 91.5613C100.497 96.7175 103.71 101.873 106.919 107.036C107.309 107.667 108.462 108.042 109.044 107.868C117.604 105.254 117.662 97.2315 122.216 92.086C123.504 90.6286 125.168 89.4251 127.443 88.6911C126.695 88.3332 125.936 87.9693 125.176 87.6055C129.115 95.1547 131.827 102.619 133.168 109.772C133.286 110.405 134.233 111.208 135.194 111.138C145.637 110.347 145.473 101.547 148.487 95.8576C149.392 94.1468 150.614 92.6082 152.467 91.4664C151.86 91.3813 151.245 91.2967 150.638 91.2117C158.088 95.7833 163.798 101.732 166.13 107.45C166.559 108.594 169.156 108.977 168.675 107.784Z" fill="#7E2424"/>
<path d="M143.776 86.2083C129.837 89.2818 115.748 92.3375 99.8245 93.0765C86.4004 93.7006 71.5349 92.5664 56.0245 88.5179C47.6271 86.3198 39.1622 83.2922 31.0214 79.3553C31.3004 79.8545 31.5748 80.3475 31.8537 80.8468C36.6603 76.2918 44.3025 73.661 53.723 73.3237C54.5504 73.2923 54.5134 72.6498 53.986 72.0728C50.425 68.215 44.3305 66.3424 39.4925 66.0492C36.8609 65.8912 34.4167 66.0942 32.3738 66.6988C29.7274 67.4791 27.6496 68.7822 25.4146 69.9114C22.8401 71.2151 20.066 72.3862 16.2822 72.466C15.6974 72.4779 15.3793 72.9833 15.8004 73.4684C25.8696 85.0355 34.8746 96.751 42.7389 108.508C43.2368 109.256 44.5419 109.577 45.0699 109.229C48.7251 106.741 47.8439 102.049 46.5055 97.6358C45.8056 95.3364 44.8053 92.9425 44.4773 90.7142C44.1332 88.3631 44.4067 86.135 45.6169 84.3838C46.8779 82.5583 49.3679 81.5717 53.1826 82.3821C52.6797 81.8168 52.1722 81.2451 51.6692 80.6798C50.0777 82.6142 48.1963 85.1045 50.7814 88.3637C53.0426 91.2171 57.8455 93.602 60.6998 92.2637C62.1939 91.5649 62.8061 90.1974 63.4982 89.008C64.2461 87.7178 64.9251 86.3989 65.534 85.0382C66.7775 82.2632 67.712 79.3484 68.3711 76.3184C69.1116 72.9 69.4691 69.3393 69.445 65.6495C69.4352 64.6214 67.3445 63.9332 66.8026 64.6068C61.7073 71.0457 60.3014 79.4475 62.6248 88.6968C62.8455 89.5834 64.9969 90.2554 65.2209 89.5077C66.1064 86.4915 65.9745 83.12 64.7801 79.4866C64.4506 78.4823 62.6346 78.0982 62.184 78.6758C59.0853 82.7288 55.9833 86.7885 52.8846 90.8415C53.7541 91.1138 54.6113 91.3801 55.4807 91.6524C54.9254 89.9441 52.4955 88.4278 50.1396 87.8058C47.4245 87.086 45.4187 87.5192 44.5254 88.8302C43.5877 90.2021 44.0221 92.1773 44.5576 94.0364C45.093 95.8955 45.8759 98.0539 44.6564 99.3238C45.2625 99.4084 45.8763 99.4924 46.4825 99.577C41.2255 96.494 35.9639 93.4049 30.7069 90.3219C29.639 89.6958 28.5163 89.8407 28.7537 90.6612C29.6053 93.6621 31.5392 96.774 34.323 99.8077C34.9424 99.5986 35.5742 99.3954 36.1936 99.1863C33.7474 96.6553 31.3056 94.1305 28.8593 91.5994C27.8246 90.5289 26.0936 90.954 26.7622 91.9727C28.2676 94.2549 30.5475 96.4432 33.3607 98.3361C34.4968 99.1017 35.8913 98.6882 35.1796 97.7435C32.9718 94.8416 30.7563 91.9402 28.5485 89.0382C28.2785 89.3652 28.0009 89.6926 27.7354 90.0259C37.5979 91.429 47.4526 92.8327 57.3196 94.2422C62.2532 94.9469 67.1822 95.6453 72.1079 96.3504C75.86 96.8843 79.6347 97.3714 83.5126 98.3477C87.498 99.3508 91.5074 100.867 94.8544 103.402C94.9576 102.921 95.064 102.433 95.1673 101.953C84.666 99.8286 74.5899 99.1985 65.7014 100.119C64.2223 100.27 65.4943 101.927 67.054 101.999C72.7824 102.271 78.5185 102.542 84.2469 102.813C85.5183 102.875 84.8088 101.409 83.5712 101.027C76.3788 98.8093 69.1833 96.5988 61.9832 94.3819C60.4496 93.911 60.1797 95.2081 61.6421 95.9367C67.0423 98.6279 72.8246 100.446 78.2362 101.157C79.6718 101.347 79.4486 99.8551 77.8963 99.3918C70.186 97.0787 62.468 94.7661 54.7532 92.4467C53.0169 91.9282 53.0309 93.5418 54.755 94.1326C61.6194 96.4847 68.4881 98.8431 75.3524 101.195C75.3507 100.635 75.3522 100.069 75.3505 99.5091C69.7666 98.1233 64.1796 96.7441 58.5957 95.3583C58.7049 95.9448 58.8264 96.5372 58.9356 97.1237C73.2508 99.9345 87.1932 101.424 100.305 101.559C104.047 101.599 107.718 101.519 111.317 101.338C112.236 101.289 112.181 100.165 110.981 99.6895C108.159 98.5653 105.355 97.6875 102.539 97.0838C99.9687 96.5319 96.9688 96.0292 94.8297 96.333C92.7942 96.6247 92.1075 97.9442 93.3075 99.735C94.4038 101.382 96.6046 102.78 98.8944 103.555C101.63 104.482 104.274 104.568 106.771 104.74C109.714 104.94 112.639 105.082 115.51 105.149C121.307 105.293 126.941 105.166 132.369 104.763C138.522 104.309 144.394 103.498 149.978 102.365C150.837 102.188 150.189 101.22 149.356 100.764C139.787 95.5107 128.656 93.3361 120.889 95.0361C120.369 95.1487 120.384 95.8053 120.912 96.2391C129.318 103.13 141.425 107.687 150.977 107.499C151.531 107.489 151.698 107.142 151.601 106.75C150.969 104.277 149.257 101.674 146.729 99.2193C146.109 99.4284 145.478 99.6315 144.858 99.8405C147.703 102.558 151.279 104.977 155.213 106.855C156.264 107.358 157.004 106.993 156.853 106.337C155.912 102.41 151.994 97.9662 146.66 94.7766C145.335 93.9821 143.913 94.5467 145.068 95.6174C150.386 100.546 158.257 104.354 165.501 105.651C168.674 106.216 173.571 106.747 173.918 104.443C174.297 101.981 169.474 99.1681 166.327 97.5015C161.904 95.1549 157.145 93.321 152.496 92.1322C151.76 91.944 151.179 92.0729 151.157 92.5558C151.03 95.746 154.162 99.8873 158.949 102.618C163.551 105.248 168.965 106.252 172.576 105.264C172.965 105.158 173.11 104.701 172.772 104.309C169.031 99.9341 161.487 94.754 155.403 95.3807C152.848 95.6417 151.017 96.8534 150.838 98.7444C150.755 99.6212 151.112 100.709 151.912 101.72C152.761 102.801 154.692 103.556 156.097 103.826C157.545 104.099 158.893 103.923 159.539 103.283C160.209 102.609 158.849 100.996 157.989 100.046C156.025 97.8731 153.011 95.9911 149.9 94.7652C146.801 93.5452 143.58 93.0023 141.234 93.6102C139.244 94.1208 138.252 95.4957 138.417 97.2185C138.771 100.988 143.758 106.104 149.915 107.361C151.223 107.629 151.208 106.283 149.911 105.727C145.654 103.912 141.397 102.097 137.133 100.282C135.965 99.7849 135.099 100.209 135.634 101.053C137.256 103.608 139.631 106.052 142.559 108.316C142.998 107.967 143.44 107.612 143.878 107.263C139.622 104.289 135.373 101.314 131.116 98.34C130.036 97.5844 129.01 97.9651 129.163 98.6795C129.908 102.2 130.665 105.727 131.409 109.248C131.959 109.075 132.5 108.903 133.05 108.73C127.617 106.06 122.196 103.396 116.763 100.726C115.71 100.21 114.584 100.674 115.264 101.497C118.274 105.124 122.161 108.554 126.739 111.563C128.11 112.465 129.334 111.736 128.332 110.722C125.057 107.396 121.786 104.076 118.512 100.749C117.985 101.032 117.446 101.308 116.919 101.59C121.006 104.463 125.098 107.341 129.185 110.214C130.354 111.036 131.61 110.52 131.004 109.621C128.986 106.67 126.974 103.719 124.956 100.767C124.184 100.809 123.412 100.85 122.64 100.892C124.337 102.806 126.423 104.568 128.97 106.092C129.701 106.527 130.751 106.705 130.928 106.182C132.096 102.656 126.147 97.2727 120.061 96.8057C116.905 96.5653 115.376 97.6501 114.453 99.3207C114.004 100.146 113.507 100.927 112.429 101.356C111.518 101.718 110.373 101.831 109.123 101.788C106.217 101.684 102.885 100.808 99.7654 100.006C96.3991 99.139 92.9729 98.1776 89.6783 97.6777C82.3909 96.5657 76.2454 97.4756 69.6274 97.5059C63.5833 97.5314 56.4265 96.6793 49.8141 93.0052C48.2068 92.1086 47.5427 93.5374 49.1332 94.4218C61.8574 101.498 73.6411 98.7938 84.442 99.0268C87.6121 99.0972 90.9286 99.5048 94.4036 100.334C97.5484 101.082 100.721 101.992 103.862 102.702C106.757 103.36 109.783 103.888 112.248 103.625C114.817 103.35 116.16 102.23 117.021 100.673C117.494 99.8145 117.996 98.974 119.366 98.7376C120.506 98.5395 121.992 98.72 123.424 99.2288C126.636 100.371 128.948 103.196 128.356 104.959C129.011 104.989 129.659 105.019 130.314 105.049C128.229 103.801 126.385 102.364 124.985 100.785C123.961 99.6296 121.818 99.6602 122.669 100.91C124.687 103.861 126.698 106.813 128.717 109.764C129.322 109.569 129.928 109.373 130.536 109.171C126.449 106.299 122.357 103.42 118.27 100.548C116.921 99.5981 115.702 100.399 116.678 101.388C119.953 104.715 123.223 108.035 126.498 111.361C127.025 111.079 127.564 110.802 128.09 110.52C123.936 107.788 120.341 104.674 117.613 101.384C117.114 101.638 116.613 101.9 116.114 102.154C121.547 104.824 126.968 107.488 132.401 110.158C133.466 110.68 134.171 110.278 134.041 109.64C133.297 106.119 132.54 102.593 131.795 99.0717C131.147 99.1846 130.491 99.2981 129.842 99.4111C134.099 102.385 138.347 105.36 142.604 108.334C144.106 109.386 145.277 108.327 143.923 107.28C141.378 105.314 139.4 103.155 137.995 100.945C137.496 101.2 136.994 101.461 136.496 101.716C140.753 103.531 145.01 105.346 149.274 107.161C149.274 106.614 149.27 106.074 149.27 105.527C145.03 104.662 141.628 100.88 141.168 98.3334C140.913 96.9085 141.57 95.8054 143.187 95.3995C145.152 94.9098 148.067 95.6058 150.564 96.7475C153.48 98.0815 156.192 100.123 157.151 102.259C157.193 102.061 157.235 101.864 157.278 101.666C156.844 102.145 155.874 102.223 154.778 101.781C154.532 101.684 154.251 101.549 154.049 101.391C154.381 101.653 153.977 101.225 153.921 101.124C153.692 100.739 153.568 100.355 153.537 99.999C153.41 98.5411 154.77 97.5564 156.557 97.2976C161.296 96.6066 167.547 101.003 170.488 104.445C170.557 104.129 170.618 103.813 170.683 103.491C167.88 104.253 163.536 103.432 159.97 101.385C156.165 99.1936 153.762 95.9311 153.858 93.4001C153.414 93.5412 152.962 93.6827 152.518 93.8237C155.948 94.7004 159.383 95.9088 162.733 97.4668C164.369 98.2252 165.993 99.0557 167.536 99.9623C168.863 100.737 170.567 101.824 171.14 102.9C172.281 105.032 166.637 104.131 164.828 103.812C161.884 103.287 158.785 102.256 155.869 100.889C152.513 99.3118 149.44 97.3027 146.963 95.0077C146.436 95.2899 145.897 95.5663 145.37 95.8485C150.126 98.6916 153.446 102.471 154.282 105.974C154.832 105.801 155.373 105.629 155.923 105.456C152.41 103.783 149.298 101.665 146.758 99.2371C145.552 98.0846 143.692 98.6989 144.887 99.8585C147.101 102.011 148.492 104.235 149.042 106.393C149.246 106.141 149.454 105.895 149.666 105.643C141.237 105.81 130.27 101.745 122.829 95.6478C122.834 96.0446 122.843 96.4478 122.852 96.8509C129.92 95.3056 140.089 97.48 148.717 102.217C148.508 101.682 148.304 101.153 148.095 100.617C139.555 102.346 130.274 103.255 120.444 103.347C115.524 103.397 110.471 103.239 105.303 102.866C103.216 102.718 100.877 102.655 98.5844 101.775C97.099 101.204 95.0599 99.7188 95.4426 98.7347C95.7104 98.0368 97.2741 98.1482 98.3261 98.2283C99.5075 98.321 100.731 98.483 101.968 98.7094C104.707 99.2066 107.566 100.036 110.343 101.143C110.23 100.596 110.12 100.042 110.007 99.4946C97.5419 100.126 84.1631 99.4194 70.239 97.3753C66.2919 96.7933 62.2991 96.1032 58.2849 95.3165C56.8081 95.0248 57.1125 96.7075 58.6248 97.0819C64.2086 98.4678 69.7956 99.8469 75.3795 101.233C77.0746 101.649 77.1338 100.149 75.3775 99.5467C68.5132 97.1947 61.6445 94.8363 54.7801 92.4842C54.7818 93.044 54.7804 93.6105 54.7821 94.1702C62.4925 96.4833 70.2105 98.7961 77.9254 101.115C77.8162 100.529 77.6949 99.9365 77.5857 99.35C72.5911 98.6941 67.3576 97.0485 62.3699 94.563C62.2552 95.0834 62.1438 95.5973 62.029 96.1177C69.2291 98.3346 76.4169 100.546 83.617 102.762C83.3907 102.169 83.1644 101.576 82.9413 100.976C77.2129 100.705 71.4768 100.434 65.7484 100.162C66.1993 100.789 66.6502 101.416 67.101 102.042C75.821 101.144 85.6119 101.757 95.9073 103.84C97.1827 104.097 97.0766 103.035 96.2203 102.391C89.8791 97.5888 81.5438 96.0123 74.5846 94.9998C64.5291 93.5289 54.4968 92.135 44.4574 90.7088C38.67 89.8872 32.8781 89.0594 27.0985 88.2375C26.2832 88.1186 25.8157 88.6059 26.2852 89.2251C28.493 92.127 30.7085 95.0284 32.9163 97.9303C33.5216 97.7351 34.1269 97.5398 34.7354 97.3378C32.3092 95.704 30.4252 93.8653 29.1344 91.9036C28.4364 92.0258 27.7428 92.1543 27.0371 92.2769C29.4833 94.8079 31.9251 97.3327 34.3713 99.8637C35.5226 101.052 37.309 100.402 36.2419 99.2423C33.7634 96.5438 32.1455 93.7599 31.3939 91.0987C30.7455 91.2117 30.0892 91.325 29.4408 91.438C34.6978 94.521 39.9595 97.6102 45.2165 100.693C45.8389 101.057 46.7123 101.29 47.0427 100.947C49.1829 98.7158 46.9012 95.1538 46.7181 92.1235C46.6438 90.9167 46.9314 89.4104 48.8152 89.3872C50.1451 89.3743 52.5258 90.0861 52.934 91.3336C53.2635 92.338 55.0795 92.722 55.5301 92.1445C58.6365 88.091 61.7308 84.0317 64.8295 79.9787C63.9601 79.7065 63.1029 79.4401 62.2334 79.1679C63.3124 82.4625 63.4737 85.585 62.6689 88.3234C63.5384 88.5956 64.3954 88.862 65.2649 89.1342C63.0189 80.1931 64.5158 72.1186 69.4434 65.9035C68.5584 65.554 67.6858 65.2103 66.8008 64.8608C66.8322 70.5227 65.9651 75.8945 64.1739 80.8733C63.293 83.3163 62.1933 85.6668 60.8812 87.9117C60.3009 88.8998 59.8228 90.2862 58.36 90.7164C57.1874 91.0594 55.6253 90.4598 54.3757 89.4919C50.6572 86.6192 52.6382 83.9998 54.0465 82.2901C54.4997 81.7384 53.7346 80.8421 52.5332 80.5877C44.8883 78.9677 42.0093 83.2368 41.7307 87.4312C41.442 91.8344 44.4031 96.9873 44.9587 101.606C45.2572 104.083 44.8399 106.312 42.7724 107.719C43.5453 107.957 44.3182 108.195 45.1033 108.44C37.239 96.6823 28.2296 84.9607 18.1649 73.3999C18.0044 73.734 17.8438 74.0682 17.6832 74.4023C24.0193 74.2699 27.588 71.383 32.0292 69.419C35.3628 67.9443 39.9451 67.2357 45.3528 68.8002C48.0345 69.574 50.4282 70.8839 52.1559 72.7505C52.2424 72.3357 52.3245 71.9147 52.4187 71.4995C42.6155 71.8508 34.5699 74.6009 29.5685 79.3422C29.1821 79.708 29.5283 80.412 30.4011 80.8338C45.2673 88.0222 61.0524 92.2187 75.6919 94.042C92.375 96.12 107.417 95.103 121.274 92.9062C129.693 91.5681 137.738 89.8206 145.758 88.0484C147.003 87.695 145.082 85.9167 143.776 86.2083Z" fill="#7E2424"/>
<path d="M99.4483 91.6555C85.5639 88.4093 71.591 85.1413 57.5493 80.4648C53.5883 79.1448 49.6323 77.7194 45.7007 76.1484C44.0088 75.4735 43.2708 76.8512 45.0148 77.5759C59.9662 83.795 75.0063 89.6549 90.103 95.144C89.8735 94.5451 89.6439 93.946 89.4176 93.3403C79.6567 94.591 67.3981 92.601 55.537 87.9306C52.1715 86.6063 48.8692 85.0554 45.6712 83.3349C45.556 83.8597 45.4441 84.3778 45.3289 84.9025C54.6269 88.0037 63.8901 91.573 73.0224 95.5891C73.1376 95.0643 73.2496 94.5462 73.3648 94.0214C67.4719 91.9404 61.5744 89.8531 55.6815 87.7721C54.1603 87.233 53.8139 88.6827 55.3393 89.3398C60.423 91.5215 65.5067 93.7032 70.5983 95.8845C72.0944 96.5234 72.9601 95.5922 71.6082 94.6372C68.1825 92.2192 64.5224 90.0036 60.6952 87.9937C59.7715 87.5092 58.7014 87.8204 59.0384 88.5123C59.5531 89.563 61.1642 90.4062 62.4127 90.2304C63.8081 90.0338 63.3821 88.8145 62.8233 87.7924C61.2468 84.8983 59.3197 81.9893 57.1008 79.102C57.1021 79.3843 57.1034 79.6667 57.117 79.955C58.3954 78.8778 59.6693 77.7944 60.9477 76.7172C62.0268 75.8013 63.2776 74.9554 64.0266 73.8397C64.6442 72.9345 64.7658 71.7002 63.6641 70.3514C62.5669 69.0089 60.6649 68.0427 58.814 67.4614C56.656 66.7908 54.4957 66.5209 52.44 66.2392C50.106 65.9192 47.8045 65.6894 45.5593 65.5487C41.0051 65.2575 36.6338 65.2986 32.5382 65.6997C27.9226 66.1538 23.653 67.0431 19.8501 68.3552C19.1491 68.5949 19.4873 69.4904 20.4812 69.9713C25.7673 72.5235 31.3105 74.2876 36.622 75.1244C36.3944 74.5056 36.1543 73.881 35.9266 73.2622C32.5313 72.8391 29.1438 72.4155 25.7485 71.9925C25.9761 72.6113 26.2161 73.2361 26.4438 73.8549C29.7727 74.2419 33.1094 74.6286 36.4383 75.0157C37.7715 75.1704 37.7163 74.0502 36.4314 73.3675C30.6123 70.2779 21.8872 67.8367 19.3202 71.2C18.1475 72.7381 18.8941 75.1429 20.6414 77.3648C22.6281 79.8963 25.7731 82.0595 29.1428 83.85C31.0825 84.8799 33.082 85.6899 35.067 86.6255C35.755 86.9514 36.421 87.3703 36.9616 87.8285C37.1336 87.9772 37.3858 88.1811 37.4577 88.3481C37.4531 88.3418 37.7148 88.2561 37.3314 88.3415C37.967 88.5386 38.6106 88.7354 39.2462 88.9326C37.183 87.0356 33.8376 85.638 31.3421 85.8124C28.8544 85.9863 27.7254 87.6073 28.5522 89.6074C29.3011 89.5688 30.0577 89.5299 30.8066 89.4914C29.1346 88.1259 27.7845 86.7243 26.726 85.2222C25.8592 83.9861 23.6354 84.1333 24.3858 85.3426C25.3364 86.8634 26.7764 88.2998 28.5692 89.6196C29.7049 90.4544 31.0873 89.9367 30.4065 89.026C28.5618 86.5792 27.1704 84.1551 26.2275 81.7472C25.3554 81.6148 24.4799 81.489 23.6078 81.3565C26.2492 86.2778 28.8908 91.1991 31.5277 96.1141C32.2765 96.0755 33.0331 96.0366 33.782 95.9981C30.5421 92.4015 28.1725 88.6877 26.7393 85.0835C26.2601 83.88 23.6405 83.4894 24.1197 84.6929C25.6947 88.6511 28.335 92.6726 31.8883 96.6144C32.7017 97.5183 34.6316 97.4125 34.1426 96.4984C31.5012 91.5772 28.8598 86.6558 26.2229 81.7409C25.589 80.5585 23.1167 80.1142 23.6032 81.3502C24.6134 83.9187 26.1029 86.5349 28.0695 89.1396C28.6808 88.944 29.2922 88.7483 29.9068 88.546C28.5002 87.5149 27.4724 86.3923 26.737 85.2151C25.9569 85.2552 25.1769 85.2953 24.3968 85.3354C25.5571 86.9899 27.0814 88.5994 28.9285 90.1069C29.8951 90.8978 31.5986 90.9941 31.1828 89.9909C30.6952 88.8207 31.2445 87.8205 32.7227 87.7051C34.1852 87.5905 36.1529 88.435 37.3601 89.5485C37.9185 90.0649 38.7193 90.2668 39.2827 90.1393C41.6707 89.6027 38.9493 87.017 36.9175 85.8146C35.4658 84.9566 33.8176 84.3648 32.2856 83.6423C30.5108 82.8076 28.7639 81.8992 27.1551 80.8457C24.4166 79.0556 22.1888 76.8518 21.5735 74.6964C20.9909 72.6313 22.5682 71.4075 25.3055 71.49C28.5382 71.5864 32.4714 73.0588 35.7455 74.7951C35.7442 74.2434 35.7397 73.6986 35.7385 73.1469C32.4096 72.7599 29.0728 72.3732 25.7439 71.9862C24.0856 71.7956 24.7672 73.639 26.4392 73.8485C29.8345 74.2716 33.2221 74.695 36.6174 75.1181C38.2894 75.3276 37.6195 73.5232 35.9221 73.2558C31.0613 72.4944 26.0112 70.8757 21.1703 68.537C21.3822 69.0778 21.5895 69.6122 21.8014 70.153C27.7936 68.0847 34.9247 67.1137 42.7936 67.2673C46.6985 67.3423 50.7789 67.7169 54.9575 68.3624C56.5587 68.6084 58.3346 68.8389 59.9955 69.5942C61.7057 70.3731 62.0242 71.4208 61.6139 72.2432C61.0197 73.4165 59.6522 74.2355 58.5906 75.1308C57.3123 76.2079 56.0384 77.2915 54.7601 78.3687C54.5401 78.5573 54.5187 78.8867 54.7762 79.2215C56.0914 80.9337 57.3131 82.6508 58.4098 84.3743C58.9376 85.2075 59.4419 86.0419 59.9229 86.8775C60.1422 87.2603 60.3817 87.6486 60.5497 88.0275C60.5706 88.079 60.6422 88.3577 60.6806 88.3886C60.6697 88.4745 60.7333 88.4843 60.8671 88.4117C61.1386 88.3058 61.4102 88.4692 61.6738 88.9022C61.119 89.0753 60.572 89.248 60.0172 89.421C63.6251 91.3174 67.05 93.4202 70.2849 95.697C70.6227 95.279 70.9573 94.8677 71.2951 94.4497C66.2114 92.2679 61.1277 90.0863 56.0361 87.9049C55.9209 88.4297 55.809 88.9478 55.6938 89.4726C61.5867 91.5536 67.4842 93.6409 73.3771 95.7219C74.9061 96.2606 75.2384 94.8248 73.7195 94.1542C64.3659 90.0445 54.869 86.3756 45.3354 83.1945C43.716 82.6539 43.6034 84.0127 44.9931 84.7622C56.7597 91.086 69.9746 94.9183 81.4658 95.5292C84.7611 95.7013 87.8845 95.6128 90.8028 95.2394C91.9135 95.0969 91.4943 93.9429 90.1175 93.4358C75.2531 88.0332 60.4419 82.2666 45.7195 76.1408C45.4898 76.6189 45.2633 77.0902 45.0336 77.5684C59.1567 83.1996 73.3819 87.0982 87.4753 90.511C91.4752 91.4809 95.4756 92.418 99.4715 93.3487C100.203 93.5213 100.82 93.4238 100.824 92.9245C100.814 92.5178 100.175 91.8218 99.4483 91.6555Z" fill="#7E2424"/>
</svg>
