<svg width="137" height="170" viewBox="0 0 137 170" fill="none" xmlns="http://www.w3.org/2000/svg">
<path d="M160.178 2.74001C168.475 20.1013 159.793 46.3585 142.583 67.3153C121.168 93.3944 89.921 110.589 60.3417 120.882C43.4927 126.746 26.7277 130.697 10.1382 134.094C5.8723 134.969 3.89522 141.238 8.21094 140.368C39.6289 134.007 72.4747 125.672 103.509 106.678C131.602 89.4815 156.945 64.1435 165.382 36.2425C169.417 22.9067 168.706 10.2654 162.953 0.863788C162.295 -0.222338 159.619 1.56538 160.178 2.74001Z" fill="#863131"/>
<path d="M8.18179 141.97C13.4761 144.286 18.6317 146.852 23.4229 149.77C28.2252 152.701 32.5023 156.221 37.4599 158.964C39.371 160.018 42.6987 156.762 41.3804 155.132C34.4502 146.584 22.1242 141.838 10.3607 138.873C8.73173 138.473 6.70942 141.327 8.18179 141.97Z" fill="#863131"/>
<path d="M12.9976 136.66C23.8293 127.789 34.2284 117.2 40.9499 105.855C42.3509 103.484 39.0808 103.074 37.5634 105.288C30.1068 116.166 22.4649 126.328 12.2555 135.764C11.4532 136.503 12.1131 137.381 12.9976 136.66Z" fill="#863131"/>
</svg>
