<svg width="145" height="149" viewBox="0 0 145 149" fill="none" xmlns="http://www.w3.org/2000/svg">
<path d="M-43.3874 124.965C-36.3915 126.086 -29.431 127.383 -22.6441 127.472C-16.0873 127.557 -9.74763 126.844 -3.66527 125.499C8.85002 122.727 20.2522 117.253 30.7042 110.323C53.8513 94.9722 72.8019 72.8306 90.0074 49.2763C99.9379 35.6791 109.074 21.1654 118.942 7.50086C119.857 6.23335 121.854 8.80422 121.055 10.1212C113.023 23.4015 104.316 35.9848 95.425 48.2933C86.5477 60.579 77.2685 72.405 67.2257 83.2351C57.5336 93.6868 47.1496 103.302 35.715 111.193C25.3085 118.371 13.9798 124.097 1.57137 127.357C-10.6094 130.56 -23.888 131.263 -37.8458 128.178C-39.6171 127.786 -41.3912 127.177 -43.1855 126.493C-43.9731 126.197 -44.1945 124.835 -43.3874 124.965Z" fill="#902920"/>
<path d="M121.212 9.25984C121.573 11.3021 122.056 13.4029 122.66 15.4613C123.162 17.1733 124.126 19.1832 124.131 20.8113C124.133 21.5316 123.324 21.5477 122.864 20.9593C121.64 19.3913 121.228 16.8696 120.899 15.0749C120.508 12.9357 120.394 10.9614 120.472 8.97629C120.491 8.47033 121.123 8.75405 121.212 9.25984Z" fill="#902920"/>
<path d="M119.591 8.805C118.003 9.24903 115.916 8.74823 114.106 8.2758C112.172 7.77347 110.285 7.02729 108.353 5.8412C107.628 5.39731 107.731 4.25301 108.458 4.56638C110.34 5.38208 112.245 6.23579 114.12 6.8367C115.906 7.41173 117.658 7.53337 119.438 8.14734C119.748 8.25928 119.852 8.73297 119.591 8.805Z" fill="#902920"/>
</svg>
