<svg width="189" height="167" viewBox="0 0 189 167" fill="none" xmlns="http://www.w3.org/2000/svg">
<path d="M-2.86703 38.6709C12.2224 26.7308 39.751 29.3744 64.0022 41.51C94.1804 56.609 117.875 83.2657 134.471 109.826C143.925 124.956 151.495 140.427 158.485 155.851C160.285 159.816 166.836 160.354 165.031 156.339C151.861 127.113 136.451 96.9332 111.048 70.8831C88.0515 47.3024 57.7247 28.2081 28.6476 26.1679C14.7492 25.1906 2.57997 28.6861 -5.31186 36.381C-6.22507 37.2634 -3.88852 39.4763 -2.86703 38.6709Z" fill="#863131"/>
<path d="M166.599 156.012C167.684 150.336 169.043 144.74 170.826 139.421C172.619 134.088 175.103 129.137 176.679 123.695C177.283 121.597 173.369 119.075 172.073 120.721C165.274 129.374 163.379 142.446 163.096 154.574C163.067 156.251 166.299 157.59 166.599 156.012Z" fill="#863131"/>
<path d="M160.353 152.494C149.302 143.898 136.67 136.106 124.117 132.068C121.495 131.227 121.821 134.507 124.316 135.495C136.577 140.354 148.179 145.553 159.645 153.416C160.543 154.034 161.253 153.196 160.353 152.494Z" fill="#863131"/>
</svg>
