<svg width="144" height="137" viewBox="0 0 144 137" fill="none" xmlns="http://www.w3.org/2000/svg">
<path d="M118.436 12.6699C108.179 13.2903 96.9558 18.325 85.9689 26.691C74.982 35.057 64.1896 46.757 54.721 60.791C49.405 68.6736 44.5123 77.2667 40.2596 86.3589C39.5986 87.772 38.4487 87.1189 39.1147 85.702C46.8716 69.1245 56.6615 54.1878 67.3116 42.1165C77.9712 30.0308 89.4745 20.7946 100.725 15.4261C107.021 12.4221 113.212 10.6949 119.084 10.3397C119.983 10.2888 119.33 12.6227 118.436 12.6699Z" fill="#7E2424"/>
<path d="M107.66 46.241C99.5618 46.9221 90.6884 52.7182 82.1487 59.5171C77.7619 63.0129 73.3843 66.7661 69.0264 70.5851C64.6532 74.4158 60.168 78.6182 56.2354 84.2081C52.5344 89.4677 49.3343 95.8602 47.8923 102.548C47.71 102.15 47.5272 101.745 47.3448 101.347C54.8752 99.5695 62.4001 97.7887 69.9305 96.0111C70.7186 95.8235 70.7642 97.567 69.844 98.2443C58.3773 106.673 46.962 116.193 35.7008 126.743C32.5102 129.734 29.3348 132.809 26.1691 135.957C25.6752 136.45 25.2091 136.4 25.1412 135.673C23.8619 121.377 24.1596 105.78 26.0358 89.5632C26.5715 84.9238 27.2377 80.2367 28.0296 75.5129C28.1691 74.6868 28.8394 73.7366 29.2845 74.0742C31.7833 75.9738 34.2818 77.8662 36.7806 79.7658C39.2066 81.603 41.5644 83.6464 44.1281 85.1881C44.8724 85.6363 43.8747 87.9522 43.1304 87.5039C40.5667 85.9623 38.2093 83.9259 35.7829 82.0816C33.2841 80.1821 30.7857 78.2895 28.287 76.39C28.707 75.9091 29.122 75.4321 29.542 74.9512C26.794 91.3822 25.5763 107.377 25.9739 122.277C26.0826 126.449 26.3245 130.526 26.6783 134.512C26.3375 134.418 25.9915 134.328 25.6503 134.228C36.9211 123.002 48.37 112.757 59.9135 103.617C63.1804 101.031 66.4524 98.5369 69.7242 96.1311C69.697 96.8718 69.6647 97.6164 69.6379 98.3642C62.1075 100.142 54.5827 101.923 47.0524 103.7C46.5424 103.816 46.3277 103.318 46.5049 102.5C47.8249 96.3828 50.6021 90.3263 53.8494 85.2353C57.6394 79.2909 62.0292 74.7202 66.4187 70.7081C70.9853 66.532 75.6154 62.6311 80.2268 58.8692C84.6858 55.2377 89.1852 51.8475 93.6785 49.1967C98.6923 46.2384 103.643 44.2389 108.323 43.8487C109.25 43.7543 108.577 46.1685 107.66 46.241Z" fill="#7E2424"/>
<path d="M114.517 19.7499C108.624 31.6094 103.794 44.2812 100.312 57.0849C100.123 56.6685 99.934 56.2447 99.7452 55.8283C100.157 55.6648 100.474 55.2818 100.744 54.6428C101.407 53.0703 102.619 53.7682 101.957 55.3407C101.323 56.837 100.401 57.9166 99.4358 58.2911C98.9259 58.4915 98.6524 57.8403 98.869 57.0346C102.402 44.0381 107.311 31.1042 113.299 19.0561C114.048 17.5551 115.271 18.2374 114.517 19.7499Z" fill="#7E2424"/>
<path d="M108.549 13.2829C110.161 19.1731 109.653 27.2661 107.114 35.2592C106.898 35.9442 106.498 36.3943 106.091 36.4322C102.985 36.7219 100.448 35.121 98.0705 33.4282C95.7648 31.7835 93.4861 29.7735 90.621 29.5142C89.1135 29.3755 87.4806 29.8381 85.7795 31.0638C85.9687 30.3701 86.1579 29.6763 86.3518 28.9717C89.2772 35.0595 91.5148 42.0509 92.9703 49.8781C93.101 50.5856 92.7258 51.6552 92.1013 51.8947C85.3564 54.4788 81.1943 48.6187 75.6191 47.3664C74.0462 47.0133 72.3685 47.0625 70.5487 47.7916C70.8507 47.2103 71.1577 46.6252 71.4593 46.0369C71.8838 49.6674 72.3138 53.301 72.7383 56.9316C72.9446 58.689 73.1973 60.4185 73.3577 62.2108C73.4328 63.0632 73.156 63.7134 72.6271 64.511C72.1816 65.1867 71.6703 65.7362 71.1504 66.131C68.8356 67.8813 66.7829 66.8512 64.9849 66.2803C62.6617 65.5436 60.3333 64.8108 58.0053 64.085C55.3955 63.2652 52.7908 62.4415 50.181 61.6217C50.5797 61.2456 50.9734 60.8733 51.3721 60.4972C50.3097 64.5381 51.9264 67.0653 53.1557 69.0434C54.2851 70.8553 55.2915 72.5626 55.541 75.4533C55.7302 77.6564 55.508 80.5753 54.2733 83.0823C52.4045 86.8774 49.887 86.9335 47.8014 87.197C44.5807 87.6038 41.3646 87.9996 38.1439 88.4064C38.4634 87.6651 38.7875 86.9131 39.107 86.1718C43.0944 91.2039 46.3919 97.3831 48.9354 104.516C49.1318 105.071 48.7502 106.028 48.2722 106.413C46.7053 107.662 45.1388 108.917 43.572 110.165C43.599 109.426 43.6312 108.683 43.6579 107.937C49.8181 106.479 56.1448 104.022 62.5345 100.615C63.3911 100.155 63.3102 102.284 62.4486 102.843C55.4016 107.409 48.4256 110.044 41.8688 110.608C41.6361 110.631 41.4388 110.34 41.4396 109.98C41.4475 108.156 41.4554 106.331 41.4632 104.506C41.9105 104.423 42.3634 104.344 42.8107 104.261C40.7521 109.674 38.688 115.084 36.6294 120.497C36.0835 121.931 35.0748 121.399 35.3537 120.131C37.5657 110.216 40.3969 100.248 43.7941 90.4158C44.3149 88.913 45.5686 88.8924 45.1747 90.4749C42.7464 100.327 39.5157 110.187 35.6029 119.744C35.2154 120.691 34.2318 120.976 34.2555 119.99C34.4929 109.579 35.7843 98.6246 38.093 87.4184C38.3726 86.0694 39.7522 85.8285 39.5362 87.1732C37.6468 99.0217 35.7623 110.859 33.8729 122.708C33.6608 124.027 32.4482 124.772 32.3532 123.568C31.5258 112.668 31.7635 100.952 33.0438 88.7736C33.2031 87.2739 34.6879 86.7331 34.5489 88.2173C33.3418 101.308 31.3187 114.732 28.5439 128.309C28.2815 129.586 27.1704 129.777 27.0863 128.858C26.4121 121.399 26.293 113.51 26.7039 105.307C26.7593 104.223 28.0177 103.253 28.1772 104.188C29.4989 112 28.8076 121.538 26.1293 131.294C25.7286 132.757 24.6274 132.749 24.6861 131.539C25.3116 118.413 27.4087 104.515 30.8463 90.5301C31.8178 86.573 32.9007 82.6118 34.0853 78.6615C34.4591 78.8763 34.8384 79.0945 35.2122 79.3093C32.7682 83.5558 30.3243 87.8023 27.8803 92.0489C27.4592 92.7793 26.9157 92.7594 26.7229 92.2678C25.7805 89.9105 27.1908 85.818 29.0491 83.241C31.1883 80.2746 33.5881 79.8311 35.3813 80.6917C38.7993 82.3499 42.3716 89.0612 38.948 96.9338C37.4995 100.263 34.9028 103.32 32.9039 102.77C32.3421 102.617 32.3382 101.52 32.9778 100.704C38.4054 93.7522 44.1881 87.8066 50.0933 83.0807C50.6324 82.6493 51.1507 83.2531 50.8464 84.1662C49.823 87.2095 48.7991 90.2457 47.7757 93.2889C47.4803 94.1732 46.8177 94.7717 46.4553 94.2914C44.0773 91.0955 42.9231 85.3862 45.4704 78.6558C46.5016 75.9366 48.1541 73.2958 49.9509 71.9755C51.7583 70.6545 53.5688 70.7906 54.6361 72.1656C55.5718 73.3765 55.8501 75.7467 55.0742 78.2793C54.4547 80.2898 53.3165 82.0633 52.0879 83.2749C49.3389 85.993 46.2439 86.1795 45.5187 82.4986C44.6728 78.1907 47.0347 71.5644 50.169 67.769C53.383 63.8766 57.3119 63.2987 59.3262 65.898C60.2792 67.1325 60.7802 69.2089 60.5113 71.6793C60.2726 73.8406 59.4293 76.1237 58.3396 78.0952C56.2906 81.8071 52.9522 84.8188 50.8355 83.5072C48.2064 81.8807 49.0087 75.6977 51.0456 70.9316C53.847 64.3676 58.4529 61.2957 62.4056 59.8271C63.5774 59.392 64.734 59.0637 65.8859 58.7464C66.3049 58.6336 66.5533 58.9804 66.4952 59.6406C65.9901 65.2531 64.8423 72.0942 60.9474 76.6357C59.2667 78.5939 57.3209 79.7267 55.8737 79.0582C54.4649 78.4118 53.9358 76.122 54.0886 73.5713C54.4309 67.7157 58.4886 61.9212 62.045 59.0961C65.3368 56.4792 69.5479 55.5333 70.6579 59.8093C71.5559 63.2564 70.1822 69.4916 66.9883 72.2395C63.5767 75.1819 61.4515 71.662 60.427 68.4211C59.7915 66.4102 59.218 63.9928 59.2854 61.3455C59.3597 58.4436 60.4927 55.552 62.327 53.3012C64.0817 51.1474 66.1506 49.6571 68.026 48.4091C70.0295 47.0784 72.0473 46.0891 73.912 45.9639C77.1538 45.7391 79.5137 48.8974 79.0559 54.3126C78.6241 59.4367 75.2883 64.1771 72.1159 65.0605C70.5874 65.4877 69.1851 65.1444 68.2295 63.956C67.1422 62.6035 66.7852 60.1611 66.9289 57.544C67.2577 51.5446 70.174 45.128 73.6334 40.3158C75.4665 37.7652 77.4362 35.5582 79.4387 33.5537C81.3102 31.6779 83.4416 29.7881 85.1688 30.2367C86.626 30.6117 87.3819 32.5899 87.3813 35.0104C87.383 37.7519 86.4828 40.8116 85.1628 43.5959C82.7887 48.6035 79.2128 53.5187 75.7651 55.6379C74.1979 56.6006 72.6148 57.0033 71.4469 56.196C70.2459 55.3698 69.6424 53.5474 69.7447 51.1376C69.9597 46.2221 72.803 40.1175 75.9978 37.0097C78.1897 34.876 80.4537 33.729 82.6119 33.1536C83.7332 32.8596 84.8299 32.6941 85.9142 32.5896C86.8928 32.4992 87.9107 32.3497 88.8369 32.4604C89.6777 32.5628 90.3865 33.0584 90.5508 34.3565C90.7158 35.6686 90.2902 37.3485 89.8609 38.8698C89.025 41.844 87.8755 44.8217 86.4958 47.5854C85.1063 50.3638 83.5236 52.9223 81.7792 55.1636C80.0246 57.4126 77.8588 59.8198 76.0069 59.796C73.1491 59.7585 72.9028 54.3058 73.7538 50.0074C74.8691 44.3717 77.9901 38.2838 81.3602 34.4267C84.9099 30.36 88.8123 28.8489 91.617 30.6648C94.223 32.3528 95.5694 36.7648 94.2807 42.4369C93.1237 47.525 89.981 53.0428 86.6777 55.177C82.8457 57.6467 80.0357 54.9914 78.7032 51.1042C77.9313 48.8449 77.5288 45.975 78.2694 42.6332C78.874 39.8934 80.2518 37.2851 81.7923 35.1987C85.0861 30.7469 89.448 28.3369 92.5225 29.1925C95.5428 30.0306 97.1156 34.4979 95.7651 40.2977C94.5602 45.4807 90.944 49.686 87.9662 49.6883C86.509 49.6874 85.511 48.5018 85.2337 46.4315C84.9093 44.001 85.7069 40.7259 86.9068 37.9814C88.281 34.8405 90.262 32.2729 92.2184 30.1127C94.4304 27.6777 96.7071 25.4432 98.9482 23.1474C100.586 21.4637 102.34 19.677 103.999 19.4809C105.869 19.2566 106.057 21.9079 105.271 24.7411C104.322 28.1534 103.103 31.5942 101.804 34.9276C101.135 36.638 100.434 38.3294 99.6885 39.9955C99.0143 41.5121 98.3198 43.1395 97.5061 44.542C95.797 47.4972 93.8154 47.3445 92.8767 45.5198C92.0934 43.9951 91.9343 41.6663 92.3453 39.1688C93.1533 34.3017 95.7754 28.8859 98.9227 26.1588C105.329 20.6124 108.241 30.7589 104.994 39.4064C103.123 44.3837 98.9148 48.5546 96.6202 46.2634C94.6925 44.3463 94.8169 39.0523 96.4393 34.6668C98.6151 28.7905 102.626 24.6081 106.11 21.0751C106.714 20.4629 107.167 20.7642 107.128 21.6596C106.89 26.7319 105.713 32.2306 103.805 37.5667C102.864 40.2021 101.734 42.7621 100.452 45.1946C99.223 47.5212 97.4734 50.0451 95.8016 50.3832C92.552 51.0318 92.8081 43.753 93.4874 39.6143C94.3336 34.4836 96.4106 29.0197 99.348 24.8459C102.787 19.9539 106.99 16.9971 110.55 17.0369C110.922 17.0401 111.089 17.6323 110.907 18.269C109.373 23.6436 105.171 28.2057 102.223 27.518C101.781 27.4136 101.66 26.7937 101.975 25.9751C104.212 20.1406 107.96 15.0725 111.759 12.7744C112.176 12.5241 112.549 12.6297 112.584 13.2483C112.725 15.737 112.159 18.6755 111.023 21.4228C110.499 22.6929 109.815 24.0337 109.06 25.0547C108.378 25.9755 107.519 26.0262 106.994 25.6768C105.933 24.9718 105.66 22.5979 106.473 20.3451C107.438 17.6763 109.386 16.0141 110.925 15.7766C113.012 15.453 114.128 17.781 114.675 20.2919C114.783 20.7892 114.633 21.512 114.214 21.9989C110.531 26.2404 106.446 28.5717 102.924 28.4448C102.546 28.4313 102.396 27.8557 102.567 27.2126C104.059 21.6504 107.727 16.5843 111.209 15.2602C111.719 15.0636 111.941 15.6943 111.756 16.4583C110.453 21.7891 106.523 25.7121 103.485 26.4277C99.617 27.3331 97.2369 23.6326 95.2206 20.3454C94.98 19.9487 95.0837 18.968 95.5914 18.4505C98.4508 15.5239 100.33 19.0109 99.731 22.9783C98.9001 28.4714 94.5184 32.2165 91.5574 34.0102C90.591 34.5973 90.4324 32.6497 91.4374 31.9012C93.7436 30.1868 96.0498 28.4723 98.361 26.754C99.3609 26.0094 99.4427 28.008 98.481 28.863C92.0823 34.543 85.6281 39.7151 79.1542 44.3522C78.173 45.0532 78.0453 42.9941 79.0342 42.2432C84.9369 37.7538 90.8447 33.2606 96.7478 28.7783C96.7878 29.4813 96.8278 30.1843 96.8678 30.8873C88.2612 37.2977 79.6747 44.1549 71.1342 51.4465C68.7048 53.5185 66.2829 55.6289 63.8626 57.7673C63.8227 57.0643 63.7827 56.3613 63.7427 55.6583C66.5809 53.4812 69.414 51.3079 72.2522 49.1308C72.8635 48.6593 73.2151 49.3238 73.0053 50.2164C71.2744 57.4637 67.3445 63.9165 63.2675 69.1831C58.8687 74.8699 54.0911 79.319 49.7045 85.0333C47.219 88.2699 44.9071 91.9396 43.1549 96.1008C42.8715 95.7 42.5937 95.3022 42.3103 94.9014C43.8697 92.8666 45.429 90.8319 46.9833 88.801C47.6864 87.8858 48.3287 88.8941 47.8279 90.0004C45.1659 95.8353 42.5093 101.673 39.8473 107.508C39.5639 107.107 39.2859 106.71 39.0025 106.309C42.5574 102.707 46.2059 100.003 49.8514 98.2764C50.6229 97.9106 50.6505 99.5178 49.967 100.308C46.6451 104.173 43.0226 102.376 43.2139 97.3248C43.2387 96.6386 43.9162 95.7426 44.2993 95.8404C48.4592 96.8914 52.6244 97.9455 56.7842 98.9964C56.4648 99.7377 56.1407 100.49 55.8213 101.231C53.1886 98.4192 50.5557 95.6075 47.923 92.7956C47.34 92.1749 48.3934 90.3117 49.0534 90.6026C54.0892 92.8438 58.3132 97.0801 61.3896 103.017C61.8673 103.937 60.7594 105.776 60.1296 105.081C56.3637 100.951 51.8964 98.1391 46.9324 96.694C46.143 96.4647 47.0171 94.4442 47.7657 94.3304C53.4878 93.4911 58.4923 95.7415 61.9403 100.64C62.4666 101.385 61.4983 103.059 60.8101 102.833C56.235 101.306 51.9189 99.0972 47.9051 96.2193C47.1903 95.7134 48.1292 93.5192 48.9011 93.9084C53.3675 96.142 58.1121 97.6581 63.1068 98.4272C63.9707 98.5633 63.3561 100.753 62.4406 100.833C56.7056 101.352 51.3449 100.318 46.5961 97.7927C46.9744 97.0581 47.3479 96.3344 47.7263 95.5997C49.9113 97.7395 52.0913 99.8831 54.2763 102.023C54.8282 102.564 53.9485 104.208 53.3132 104.258C49.8612 104.525 46.6702 103.772 43.8774 102.072C44.2109 101.298 44.5397 100.535 44.8732 99.761C47.4203 101.347 48.8882 105.183 48.7506 110.149C48.7195 111.192 47.8272 112.427 47.3536 111.768C45.2608 108.817 43.6318 105.14 42.5218 100.864C43.0162 100.394 43.5101 99.9159 44.0096 99.4413C43.998 103.352 43.9915 107.258 43.9799 111.168C43.9753 112.397 42.8385 113.538 42.4921 112.591C41.1185 108.823 40.2575 104.439 39.9354 99.6162C40.4401 99.3282 40.9454 99.0472 41.4553 98.7553C41.0693 103.375 40.6781 107.999 40.2921 112.619C40.1742 114.007 38.9166 114.522 38.7723 113.48C37.99 107.767 37.7524 101.626 38.0121 95.1582C38.0615 93.9693 39.2302 93.2946 39.4853 94.0396C41.9491 101.175 42.4336 110.627 40.8627 120.781C40.7302 121.63 40.0573 122.515 39.6096 122.217C35.9165 119.741 33.5043 114.73 32.796 108.073C32.6724 106.928 34.0147 105.659 34.2838 106.65C36.0146 113.146 34.8664 122.503 31.2966 130.986C30.9686 131.763 30.3782 132.042 30.0815 131.688C27.8999 129.047 26.7585 124.685 26.919 119.466C26.9471 118.557 27.6362 117.396 28.1816 117.73C29.7465 118.691 30.4965 121.033 30.3149 124.104C29.8354 124.182 29.3513 124.271 28.8718 124.349C30.5433 116.245 32.2144 108.134 33.886 100.029C34.3444 100.048 34.8083 100.07 35.2667 100.088C34.6378 102.869 34.3146 105.6 34.3 108.149C34.2953 109.282 33.0115 110.741 32.812 109.572C31.7277 103.223 31.7684 95.8949 33.0046 88.0845C33.2194 86.7187 34.3803 86.094 34.5244 87.224C34.9229 90.3975 35.3214 93.5711 35.7199 96.7447C35.8577 97.8575 34.4315 99.241 34.2321 98.1677C33.3369 93.2738 33.1224 87.8193 33.6216 81.9179C33.7294 80.6333 35.1347 79.8155 35.1415 81.0571C35.1719 87.5757 34.8693 94.3178 34.2345 101.202C34.1562 102.068 33.4004 102.899 32.9814 102.638C30.5168 101.099 28.9385 97.8457 28.4826 93.4763C28.9874 93.1884 29.4925 92.9074 30.0024 92.6156C29.8086 94.5375 29.1635 96.4722 28.1905 98.2523C27.7185 99.1167 27.0539 98.932 26.9865 98.2132C26.5259 93.1066 26.6053 87.5828 27.2079 81.8156C27.3416 80.5188 28.7001 79.7218 28.7277 80.9549C28.8964 88.4098 29.784 95.319 31.3803 101.507C30.8909 101.878 30.3963 102.254 29.907 102.625C30.4682 98.9356 31.0295 95.2459 31.5907 91.5562C31.7684 90.3799 32.7722 89.6104 33.0639 90.4376C35.6814 97.8446 41.145 101.624 47.6988 100.446C47.4425 101.176 47.1815 101.917 46.9252 102.647C44.5677 99.9049 43.7228 94.6795 44.6808 88.8038C44.7912 88.126 45.3235 87.2011 45.7663 87.3196C51.6488 88.9253 56.7126 92.7807 60.5275 98.7064C61.6065 100.381 62.5782 102.224 63.4511 104.201C63.8359 105.075 62.5673 106.801 62.1008 106.078C58.2076 99.9912 52.9819 96.0021 46.8752 94.5667C45.1558 94.1635 43.3681 93.9588 41.5275 93.9483C41.8069 93.1568 42.0816 92.3763 42.3609 91.5848C47.625 93.6307 49.6852 102.832 47.3263 112.969C47.1087 113.912 46.327 114.38 46.0059 113.972C45.1795 112.905 44.3585 111.842 43.5321 110.775C42.9984 110.088 43.9906 108.271 44.6624 108.582C46.3948 109.401 48.122 110.223 49.8543 111.042C50.3463 111.277 50.1076 112.412 49.6181 113.062C43.7777 120.797 36.9256 125.516 30.9073 126.104C30.3364 126.163 30.3827 125.013 30.8038 124.283C34.96 117.042 39.2878 110.016 43.7738 103.243C44.009 103.732 44.2396 104.232 44.4747 104.72C40.8788 109.563 36.9219 108.153 35.4004 104.497C33.3852 99.6395 35.5263 91.0027 37.2584 84.1505C37.5707 82.9087 38.6335 82.615 38.7162 83.601C38.8975 85.8541 39.0843 88.1104 39.2657 90.3635C39.323 91.09 38.8304 91.8747 38.355 92.1183C36.1326 93.2484 34.2406 92.4264 33.2987 90.1714C32.9296 89.2929 33.9628 88.0098 34.5198 88.1735C37.2069 88.9493 40.2024 88.8821 43.3206 87.9812C44.8012 87.5536 46.3138 86.9406 47.8376 86.1502C49.2218 85.4292 50.7042 84.4722 52.0109 82.8566C54.7591 79.4718 54.4676 74.7208 55.3339 70.7849C56.2127 66.7881 58.1682 62.9272 60.3252 59.7126C62.6738 56.2205 65.2629 53.3085 67.8449 50.4606C71.3027 46.647 74.7604 42.8336 78.2228 39.0091C81.6605 35.2181 85.0954 31.3778 88.5469 27.6423C91.9734 23.9332 95.4714 20.3604 99.0456 17.5658C105.491 12.5179 112.462 10.1796 116.888 14.5047C117.125 14.7358 117.024 15.3919 116.844 15.8733C113.14 25.6523 108.529 35.0795 103.275 43.5866C102.705 44.5105 102.05 45.8953 101.32 46.0537C100.548 46.222 99.7965 46.1031 99.0446 46.1607C97.5087 46.2708 95.956 46.4598 94.3869 46.7345C91.2644 47.2793 88.0799 48.1352 84.8536 49.2869C78.469 51.568 71.9429 55.0054 65.4358 59.5283C62.2233 61.7622 59.0149 64.2571 55.8371 67.0074C52.6945 69.7236 49.3849 72.5886 46.4018 76.1445C44.9327 77.898 43.6382 79.9151 42.6804 82.3364C41.8522 84.4174 41.2953 86.5929 40.7462 88.7186C39.6917 92.8048 38.5966 97.2077 36.2197 100.67C36.0551 100.113 35.8905 99.556 35.7204 98.9958C43.0549 92.0992 49.058 81.2413 54.8426 71.1214C57.8898 65.7935 60.9728 60.5337 64.286 55.583C67.7659 50.3813 71.4277 45.4815 75.2132 40.979C79.462 35.9268 83.867 31.3791 88.3461 27.3841C88.3861 28.0871 88.426 28.7901 88.466 29.4931C80.3735 34.3765 72.2706 40.9472 64.4503 49.0267C64.574 48.3974 64.6974 47.761 64.8212 47.1317C65.8314 48.7187 68.5338 46.5861 69.2407 43.6806C69.6145 43.8954 69.9939 44.1133 70.3677 44.3281C63.6249 54.5229 57.6409 65.6231 52.3533 77.3751C50.0586 82.469 47.5079 88.0213 44.0052 91.2309C40.6845 94.2732 37.4877 93.8844 35.3423 91.7879C32.4816 88.9878 31.6847 83.1099 30.9506 77.683C31.4554 77.3951 31.9605 77.1141 32.4704 76.8223C31.4395 89.9257 31.8343 102.291 33.5943 113.415C33.7599 114.455 32.6143 115.538 32.1973 115.033C30.6719 113.177 29.7812 110.231 29.6979 106.708C29.6314 103.949 29.8899 98.304 32.6908 96.874C33.8589 96.2804 34.9742 96.6288 35.9176 96.9466C36.8936 97.2762 37.7906 97.9006 38.4235 98.9307C39.5313 100.737 39.7657 103.925 38.6421 107.264C38.128 108.791 37.2791 110.602 36.2311 111.156C35.3533 111.617 34.5827 111.344 34.1051 110.614C32.9939 108.935 33.3974 105.556 35.062 102.847C36.9218 99.8289 39.3861 98.6545 41.2549 98.9736C42.3339 99.1516 43.2744 99.6988 44.1867 100.311C45.0495 100.896 46.0108 101.53 46.264 103.083C46.5152 104.601 45.8844 106.598 44.787 107.967C43.7492 109.261 42.5496 109.864 41.4833 110.189C38.6496 111.043 36.0063 110.85 33.7438 109.686C33.2506 109.43 33.4968 108.333 33.98 107.666C38.5508 101.357 44.0075 97.1621 48.9132 96.1799C49.4076 96.0832 49.6569 96.5394 49.46 97.3783C47.8571 104.257 42.9536 110.422 38.8666 111.025C37.9386 111.165 38.6099 108.756 39.5328 108.62C42.8759 108.12 46.8045 102.768 48.0789 97.3122C48.261 97.7093 48.4436 98.1133 48.6257 98.5104C43.941 99.4495 38.8715 103.35 34.508 109.377C34.5865 108.701 34.6656 108.032 34.7441 107.357C36.2668 108.137 37.9644 108.439 39.7985 108.242C40.639 108.154 41.5171 107.978 42.4005 107.615C43.014 107.37 43.813 106.924 44.3709 106.075C45.9084 103.749 43.0061 102.462 42.335 102.07C41.0317 101.314 39.4658 100.801 37.6655 102.154C36.3601 103.138 34.8542 105.271 35.0074 107.311C35.0655 108.051 35.3225 108.736 35.7791 108.91C35.9695 108.986 36.1822 108.986 36.4187 108.843C36.5112 108.787 36.3759 108.934 36.3606 108.946C36.4261 108.881 36.5174 108.709 36.5707 108.617C36.7404 108.327 36.8896 108.053 37.0262 107.743C37.9921 105.558 38.0546 103.105 37.4868 101.629C36.7749 99.7718 35.2288 99.1417 33.7043 98.9865C33.2977 98.9432 32.6906 98.8322 32.2053 99.3693C31.78 99.839 31.6177 100.725 31.5198 101.342C31.2605 102.954 31.1735 104.509 31.2397 105.955C31.3724 108.942 32.1472 111.345 33.4557 112.941C32.9916 113.476 32.5275 114.012 32.0587 114.559C30.2675 103.261 29.9077 90.6707 30.9588 77.3613C31.066 75.9745 32.3344 75.4589 32.4787 76.5007C33.1099 81.1476 33.7658 86.1351 35.9472 88.9596C37.7498 91.2944 40.7547 92.049 43.8892 89.0969C47.0997 86.0798 49.4357 80.5878 51.5268 75.9345C53.9864 70.4661 56.6121 65.1136 59.4118 59.9222C62.5774 54.0571 65.9527 48.4213 69.4932 43.0708C70.1593 42.0663 70.9227 42.4914 70.6202 43.7185C69.4777 48.4069 65.1666 51.7096 63.56 49.1747C63.3143 48.7819 63.4334 47.7894 63.9309 47.2797C71.8818 39.0643 80.1135 32.3297 88.3449 27.363C89.3269 26.7713 89.4466 28.5945 88.4648 29.472C80.4885 36.5846 72.7524 45.5829 65.7464 55.9189C59.1279 65.682 53.5504 76.8255 47.1281 86.8577C43.6458 92.296 39.9079 97.2609 35.8391 101.084C35.0969 101.779 34.7014 100.342 35.3397 99.4095C36.9847 97.0091 37.9054 94.1245 38.6774 91.2429C39.4937 88.203 40.1816 85.1503 41.3134 82.1422C42.6393 78.62 44.6189 75.7456 46.7658 73.382C49.1981 70.7065 51.7563 68.3753 54.2671 66.146C64.5019 57.0399 75.0741 50.5011 85.244 46.8932C90.9829 44.853 96.6003 43.763 101.975 43.635C101.72 43.8286 101.46 44.026 101.205 44.2195C106.849 35.3722 111.756 25.523 115.667 15.1902C115.651 15.65 115.634 16.1026 115.622 16.5585C111.759 12.7743 105.519 14.8801 99.8984 19.0964C96.2825 21.8126 92.7625 25.3727 89.3051 29.098C85.8477 32.8234 82.4233 36.663 78.9804 40.4579C75.5227 44.2715 72.065 48.0849 68.6026 51.9094C66.0456 54.7309 63.437 57.5771 61.1143 61.0568C58.9632 64.2816 57.1437 68.01 56.4926 71.988C56.1502 74.1033 56.006 76.149 55.5063 78.3032C55.0113 80.4464 54.096 82.4908 52.8655 84.1366C51.4719 86.0014 49.8688 87.1746 48.3494 88.0423C46.6291 89.0258 44.9154 89.7477 43.2422 90.2482C39.776 91.296 36.5078 91.3355 33.5287 90.4734C33.9373 89.8038 34.3412 89.1451 34.7498 88.4755C35.4702 90.202 36.9874 90.6047 38.6516 89.7591C38.3496 90.3404 38.0426 90.9255 37.7411 91.5138C37.5598 89.2607 37.3729 87.0044 37.1916 84.7513C37.6757 84.5671 38.1598 84.3828 38.6493 84.2018C37.1341 90.1925 35.1836 97.6945 36.6436 102.233C37.7031 105.528 40.9679 107.017 43.9612 102.984C44.7418 101.936 45.4014 103.342 44.662 104.461C40.1761 111.233 35.8478 118.253 31.692 125.5C31.6576 124.896 31.6228 124.284 31.5884 123.68C37.2367 123.131 43.6497 118.548 49.1096 111.322C49.0311 111.997 48.9522 112.666 48.8736 113.342C47.1413 112.523 45.4141 111.7 43.6817 110.882C44.0601 110.147 44.4338 109.423 44.8121 108.688C45.6385 109.755 46.4593 110.818 47.2858 111.885C46.8474 112.218 46.4039 112.555 45.9655 112.887C48.085 103.776 46.0675 95.7006 41.3849 93.8732C40.6618 93.5936 41.4473 91.5085 42.2184 91.5097C48.9222 91.5677 54.8908 94.2225 59.6513 99.1955C61.0024 100.604 62.2422 102.208 63.3802 103.984C62.9319 104.61 62.4781 105.234 62.0298 105.86C58.2369 97.3287 52.3212 91.6781 45.1154 89.7131C45.4756 89.2197 45.8408 88.7224 46.2009 88.229C45.3376 93.5267 46.076 98.0922 48.2001 100.564C48.5875 101.018 48.0637 102.655 47.4265 102.765C40.336 104.042 34.4822 100.134 31.6376 92.1C32.127 91.7284 32.6214 91.353 33.1108 90.9814C32.5496 94.6711 31.9884 98.3607 31.4272 102.05C31.2564 103.163 30.1927 104.095 29.9539 103.169C28.3174 96.8359 27.3873 89.739 27.2137 82.1045C27.7185 81.8166 28.2236 81.5356 28.7335 81.2438C28.1515 86.812 28.086 92.1127 28.5315 97.0474C28.132 97.0354 27.7324 97.0233 27.3274 97.0082C27.9917 95.7851 28.3789 94.457 28.5074 93.164C28.6481 91.8032 29.9111 91.1963 30.0272 92.3035C30.4257 96.1298 31.8422 98.9705 33.9926 100.315C33.5732 100.795 33.159 101.271 32.7396 101.751C33.3538 95.0652 33.6526 88.5386 33.622 82.2035C34.1268 81.9156 34.6319 81.6346 35.1418 81.3428C34.6809 86.797 34.8566 91.944 35.6883 96.4681C35.1939 96.9388 34.6999 97.4165 34.2004 97.8911C33.8019 94.7175 33.4034 91.544 33.0049 88.3704C33.5097 88.0825 34.0148 87.8015 34.5247 87.5097C33.3586 94.8708 33.2467 101.879 34.2687 107.879C33.7743 108.35 33.2802 108.828 32.7807 109.302C32.7933 106.345 33.1653 103.253 33.8962 100.022C34.2485 98.456 35.59 98.5741 35.2769 100.081C33.6054 108.185 31.9342 116.296 30.2627 124.4C29.9628 125.86 28.7486 125.829 28.8195 124.645C28.953 122.41 28.3193 120.713 27.2006 120.022C27.6199 119.447 28.0439 118.861 28.4632 118.286C28.3145 123.152 29.3174 127.135 31.356 129.598C30.9493 129.834 30.5476 130.066 30.1409 130.301C33.3599 122.665 34.4137 114.171 32.8523 108.317C33.3467 107.846 33.8408 107.368 34.3402 106.893C34.9902 112.993 37.2367 117.616 40.62 119.88C40.2006 120.36 39.7862 120.836 39.3668 121.316C40.88 111.549 40.4216 102.554 38.0531 95.6918C38.5425 95.3202 39.0369 94.9448 39.5263 94.5732C39.2707 100.832 39.5505 106.78 40.311 112.297C39.8062 112.585 39.3011 112.866 38.7912 113.158C39.1772 108.538 39.5683 103.914 39.9543 99.2938C40.0652 97.9703 41.3924 97.2777 41.4741 98.4331C41.7863 103.08 42.6195 107.259 43.9431 110.896C43.4488 111.366 42.9548 111.844 42.4553 112.319C42.4669 108.408 42.4734 104.502 42.485 100.592C42.4877 99.4235 43.6938 98.0971 43.9728 99.1687C45.0426 103.299 46.6047 106.829 48.6229 109.682C48.1588 110.218 47.6948 110.753 47.226 111.3C47.3477 106.895 46.1483 103.479 43.8821 102.061C43.1434 101.602 44.1342 99.2955 44.878 99.7501C47.5773 101.397 50.6431 102.098 53.9841 101.841C53.6646 102.583 53.3405 103.335 53.021 104.076C50.836 101.936 48.656 99.7927 46.471 97.6529C45.8798 97.0751 46.9491 95.1192 47.6013 95.46C52.2567 97.9314 57.4926 98.9206 63.1162 98.4054C62.8957 99.2035 62.6705 100.013 62.45 100.811C57.3478 100.021 52.4845 98.477 47.9196 96.1936C48.2532 95.4197 48.5819 94.6568 48.9155 93.8828C52.9293 96.7607 57.2453 98.969 61.8205 100.497C61.4422 101.231 61.0686 101.955 60.6903 102.69C57.381 97.986 52.5991 95.9113 47.1042 96.7249C47.3836 95.9334 47.6583 95.1527 47.9377 94.3612C53.0202 95.8336 57.5477 98.7689 61.3989 102.995C60.9804 103.679 60.5574 104.374 60.139 105.059C57.117 99.2351 53.015 95.0895 48.0668 92.8918C48.4451 92.1572 48.8188 91.4334 49.1971 90.6988C51.8298 93.5106 54.4625 96.3225 57.0952 99.1343C57.571 99.6457 56.7744 101.534 56.1321 101.369C51.9723 100.318 47.8071 99.264 43.6473 98.213C44.0074 97.7196 44.3726 97.2223 44.7327 96.7288C44.6017 100.129 47.3473 100.999 49.4573 98.5463C49.4956 99.2212 49.5344 99.9032 49.5728 100.578C46.2222 102.162 42.813 104.677 39.5396 107.991C38.8559 108.686 38.1328 108.033 38.695 106.792C41.3571 100.957 44.0136 95.1187 46.6757 89.2838C46.9591 89.6847 47.2371 90.0823 47.5204 90.4831C45.961 92.5179 44.4016 94.5527 42.8473 96.5837C42.1195 97.5323 41.5435 96.4736 42.0027 95.3842C48.2994 80.4312 59.3744 74.0385 67.0245 61.1894C69.0487 57.7896 70.7021 54.0408 71.643 50.1069C71.8922 50.4677 72.1414 50.8285 72.3961 51.1925C69.5579 53.3696 66.7246 55.5428 63.8864 57.7199C62.8877 58.4856 62.8043 56.4588 63.7665 55.6109C72.2777 48.0848 80.8392 40.9752 89.4365 34.3079C91.8814 32.4147 94.3233 30.5606 96.7718 28.7308C97.7564 27.9978 97.8756 30.0927 96.8917 30.8398C90.989 35.3291 85.0812 39.8224 79.1781 44.3047C79.1381 43.6017 79.0981 42.8987 79.0581 42.1957C85.5372 37.5547 91.9913 32.3825 98.3849 26.7064C98.4249 27.4094 98.4649 28.1125 98.5049 28.8155C96.1987 30.5299 93.8925 32.2444 91.5813 33.9627C91.5413 33.2597 91.5013 32.5567 91.4613 31.8537C93.6204 30.5443 97.1222 28.0686 98.1367 24.0275C98.6659 21.9243 97.9432 18.2856 96.134 20.136C96.2578 19.5067 96.381 18.8702 96.5048 18.2409C98.2514 21.0875 100.262 24.5551 103.533 24.0955C105.96 23.7562 109.321 20.7713 110.4 16.3588C110.582 16.7559 110.764 17.16 110.946 17.5571C108.125 18.6286 105.179 22.736 103.977 27.2272C103.858 26.8189 103.739 26.4036 103.62 25.9952C106.775 26.1151 110.421 24.0353 113.72 20.2324C113.566 20.7967 113.413 21.3681 113.259 21.9395C112.841 20.0128 112.082 17.8831 110.447 18.127C109.356 18.2955 107.572 19.8479 107.552 21.924C107.543 22.6056 107.748 23.3081 108.164 23.4248C108.229 23.4416 108.343 23.3916 108.393 23.4341C108.573 23.3338 108.565 23.3766 108.374 23.5589C108.452 23.4407 108.53 23.3225 108.608 23.1973C108.94 22.674 109.25 22.1309 109.519 21.5447C110.629 19.1767 111.21 16.5797 111.084 14.3722C111.359 14.5302 111.634 14.6881 111.909 14.8461C108.47 16.9295 105.204 21.3158 103.176 26.6036C103.093 26.0869 103.011 25.5774 102.928 25.0607C105.16 25.5813 108.378 22.3237 109.566 18.1579C109.685 18.5663 109.804 18.9817 109.923 19.3901C107.236 19.3623 104.113 21.294 101.36 24.6085C98.6678 27.8485 96.6004 32.2638 95.4954 36.7697C94.9647 38.9401 94.6648 41.1478 94.6606 43.131C94.6573 44.8496 94.7395 47.2294 95.7048 47.8385C96.8526 48.573 98.5256 45.9167 99.4691 44.1809C100.586 42.1229 101.563 39.8554 102.398 37.6153C104.322 32.458 105.431 27.0768 105.662 22.1637C105.997 22.3564 106.338 22.5524 106.673 22.7451C103.636 25.8212 100.201 29.2804 98.0776 34.2076C96.5931 37.6522 96.2633 41.9508 97.6243 43.8142C99.2325 46.0032 102.565 42.3217 103.905 38.5833C105.08 35.3076 105.143 31.8348 104.401 29.5382C103.601 27.0725 101.693 26.1456 99.387 27.9623C96.9084 29.9177 94.742 34.2763 93.9795 38.0747C93.5981 39.9704 93.5835 41.7709 94.0514 43.0803C94.3108 43.8074 94.7817 44.5133 95.4425 44.4442C96.2932 44.3483 96.9717 42.7184 97.4932 41.6036C100.013 36.2512 102.255 30.515 103.872 24.8138C104.15 23.8248 104.505 22.492 104.035 21.9907C103.695 21.6184 103.036 21.9061 102.536 22.1831C100.948 23.066 99.3454 24.9872 97.8385 26.5422C96.045 28.388 94.2212 30.1687 92.4569 32.1537C90.7973 34.0153 89.1136 36.2032 87.9752 38.9083C87.0525 41.105 86.4372 43.7502 86.8531 45.5465C87.1842 46.9745 88.1593 47.4737 89.2951 47.154C90.3787 46.8519 91.5876 45.9485 92.581 44.5268C93.7812 42.8161 94.4711 40.5468 94.6754 38.5289C95.7359 28.1898 86.5208 30.2588 81.7464 37.7563C80.5213 39.6839 79.648 41.9092 79.4607 44.1341C79.2409 46.7211 79.8661 48.9232 80.6405 50.572C81.9711 53.3971 84.4593 54.9767 87.5407 52.3069C90.1054 50.0882 92.4336 45.4895 93.084 41.4975C93.83 36.9415 92.3777 33.754 90.1624 32.6713C87.75 31.4889 84.6002 32.9565 81.7287 36.325C78.947 39.5886 76.3841 44.5487 75.3267 49.2385C74.622 52.3697 74.4889 57.1351 76.5801 57.344C78.0134 57.4877 79.8374 55.2445 81.2013 53.5122C82.6392 51.6797 83.9859 49.5498 85.1549 47.2908C86.3479 44.9842 87.3762 42.4946 88.1533 39.9831C88.499 38.8625 88.8961 37.6151 89.0409 36.5151C89.2367 35.0023 88.5773 34.8136 87.7849 34.8139C84.4817 34.7993 80.6125 35.1191 76.9207 38.3697C74.2416 40.7267 71.8174 45.4128 71.3595 49.6106C70.9055 53.7836 73.13 55.028 75.6851 53.4838C78.523 51.769 81.3497 47.9874 83.4639 44.0205C84.646 41.8029 85.6641 39.2258 85.8629 36.8307C86.0249 34.9109 85.6372 33.0491 84.5751 32.6088C83.2191 32.0471 81.2992 33.9157 79.8005 35.4277C78.1712 37.0755 76.5598 38.8491 75.0361 40.8568C72.0819 44.7353 69.459 49.763 68.6847 54.9418C68.0175 59.3866 68.9838 62.9139 71.7524 62.7844C74.0382 62.6768 76.922 59.7098 77.5094 55.5456C78.1194 51.2176 76.3352 48.4581 73.9239 48.3236C72.4086 48.2348 70.6932 48.9285 69.0123 49.9482C67.429 50.9084 65.7686 52.1031 64.2137 53.5625C62.6992 54.9838 61.1909 56.98 60.9012 59.5541C60.6465 61.8082 61.1387 63.8251 61.5761 65.5318C62.2334 68.1128 63.5113 71.8802 66.0586 70.6647C68.5854 69.4647 69.8293 64.5013 69.33 61.8002C68.6539 58.1407 65.2362 58.9171 62.6476 60.8092C59.7635 62.9259 56.2118 67.4269 55.6809 72.3037C55.4539 74.3901 55.8442 76.3892 57.0454 76.7531C58.2141 77.1051 59.7485 75.8446 60.9547 74.2394C63.921 70.293 64.6182 64.6006 65.0189 60.1455C65.2221 60.4459 65.4249 60.7393 65.6281 61.0397C62.0885 62.0113 57.9286 63.1092 54.4144 67.7063C52.1974 70.6144 50.3507 75.6395 50.7628 78.9569C51.5967 85.672 59.4077 76.9614 59.0662 70.8624C58.8538 67.1294 56.2799 66.0037 53.7497 67.0522C50.9599 68.2099 48.3206 72.2968 47.2719 76.6719C46.3724 80.3984 47.1697 83.5699 49.6428 82.7334C51.3387 82.1644 53.8003 79.7232 54.0192 76.6528C54.1883 74.295 52.8548 73.1954 51.4532 73.4236C49.899 73.6797 48.2669 75.6524 47.1839 78.0221C44.4365 84.0392 45.6304 89.3222 47.7435 92.1619C47.3051 92.4947 46.8616 92.8315 46.4232 93.1644C47.4466 90.1212 48.4704 87.085 49.4939 84.0418C49.7431 84.4026 49.9923 84.7634 50.247 85.1274C44.4739 89.7456 38.8433 95.561 33.5349 102.364C33.5597 101.678 33.584 100.985 33.6088 100.298C34.8889 100.646 36.4229 99.0051 37.4846 96.9155C38.8662 94.187 39.037 91.2999 38.5516 89.1236C38.0157 86.7144 36.8612 84.8335 35.4911 83.6517C34.3221 82.6399 32.597 81.9477 30.7883 83.5264C29.1415 84.9601 27.4218 88.5688 28.1978 90.5244C27.8136 90.5961 27.4244 90.6717 27.0403 90.7433C29.4843 86.4968 31.9282 82.2503 34.3722 78.0037C34.977 76.9505 35.8571 77.463 35.4992 78.6514C31.3558 92.4754 28.5049 106.396 27.0802 119.776C26.6827 123.54 26.3993 127.253 26.2246 130.913C25.7451 130.991 25.261 131.08 24.7815 131.158C27.2608 122.111 27.9962 113.067 26.7641 105.804C27.2535 105.432 27.748 105.057 28.2374 104.685C27.8357 112.676 27.9854 120.358 28.6437 127.632C28.1596 127.816 27.6756 128 27.186 128.181C29.9199 114.819 31.8794 101.59 33.0664 88.7051C33.5665 88.5233 34.0715 88.3306 34.5717 88.1488C33.312 100.128 33.0933 111.617 33.9052 122.339C33.4004 122.626 32.8951 122.907 32.3853 123.199C34.2746 111.351 36.1593 99.5132 38.0486 87.6648C38.5281 87.5867 39.0123 87.4977 39.4918 87.4196C37.2744 98.1751 36.0274 108.788 35.8028 118.771C35.3555 118.854 34.9027 118.934 34.4554 119.017C38.2887 109.652 41.431 100.013 43.812 90.3582C44.2704 90.3768 44.7343 90.3986 45.1927 90.4172C41.7959 100.257 38.9643 110.217 36.7523 120.133C36.3252 120.01 35.9036 119.89 35.4765 119.767C37.5351 114.353 39.5991 108.943 41.6576 103.53C42.0373 102.538 43.0104 102.349 43.0051 103.284C42.9972 105.109 42.9892 106.934 42.9813 108.758C42.8367 108.553 42.6921 108.348 42.5521 108.131C48.8444 107.592 55.5862 105.047 62.3457 100.662C62.3186 101.402 62.2865 102.145 62.2598 102.891C55.8701 106.298 49.5481 108.745 43.3832 110.214C42.575 110.402 42.5688 108.705 43.4691 107.985C45.036 106.736 46.6026 105.481 48.1695 104.232C47.95 104.861 47.7308 105.497 47.5062 106.129C45.0127 99.127 41.7719 93.1028 37.8591 88.168C37.3605 87.5346 38.1567 86.0133 38.8222 85.9333C41.4889 85.6025 44.1606 85.2679 46.8324 84.9332C48.1261 84.7723 49.429 84.7731 50.7676 84.3727C51.5939 84.1267 52.5023 83.547 53.163 82.2606C54.2651 80.133 54.1884 77.4777 53.9362 75.7551C53.5473 73.1243 52.2551 71.722 51.2321 69.91C49.9362 67.6012 48.8758 64.6661 50.0035 60.3703C50.2263 59.5191 50.7993 59.1207 51.1946 59.2459C54.8604 60.4005 58.5262 61.5554 62.1869 62.7139C64.001 63.2872 65.7932 63.9431 67.6394 64.426C68.9132 64.7569 70.8644 65.0281 72.2065 62.4469C72.0963 62.846 71.9861 63.2451 71.8813 63.6473C71.2335 58.1476 70.5907 52.644 69.9425 47.1372C69.8617 46.4652 70.3957 45.5684 70.8531 45.3824C77.6125 42.6774 81.8052 48.5142 87.3463 49.8217C88.9149 50.1927 90.5889 50.1757 92.4056 49.4856C92.119 50.1506 91.8278 50.8264 91.5366 51.5023C90.1126 43.8564 87.9586 36.9335 85.0993 30.9788C84.846 30.4525 85.0281 29.3534 85.6716 28.8868C92.6749 23.8331 97.1301 30.3581 101.981 32.8941C103.439 33.6571 105.007 34.1233 106.769 33.9591C106.429 34.3489 106.085 34.7426 105.745 35.1323C108.081 27.7703 108.605 20.3395 107.115 14.8999C106.794 13.8312 108.235 12.1502 108.549 13.2829Z" fill="#7E2424"/>
<path d="M104.005 42.4923C93.6111 47.7623 83.1322 53.1258 72.6948 61.1735C63.8952 67.9571 55.0965 76.8041 47.4002 88.1306C43.2365 94.2674 39.4601 101.047 36.3594 108.318C36.2768 107.802 36.1947 107.293 36.1122 106.778C41.5069 107.517 47.6953 105.32 53.8183 100.485C54.357 100.062 54.6665 100.552 54.6324 101.259C54.3824 106.001 51.5043 110.658 48.6014 113.481C47.0216 115.016 45.3731 116.186 43.7699 116.846C41.6948 117.702 39.7077 117.87 37.7115 118.249C35.4105 118.684 33.0522 119.324 30.6217 121.306C30.2462 121.613 29.7836 121.415 29.7982 120.833C30.1637 106.941 29.7805 93.5156 28.6554 80.6745C28.5823 79.8589 29.2404 78.9206 29.7537 78.8899C33.3506 78.7384 35.2249 82.6455 36.6661 86.5955C37.4154 88.6548 38.0239 90.9452 38.9712 92.752C39.9719 94.6572 41.2989 96.1395 42.9702 96.7676C44.7121 97.4228 46.7955 96.8015 48.7844 94.1513C48.7597 94.836 48.7353 95.5279 48.7107 96.2126C46.7036 95.6562 44.2256 94.8493 44.1695 91.0712C44.119 87.7646 45.9161 83.4299 48.4118 82.8693C49.7172 82.5746 50.8121 83.2446 51.8653 83.7414C53.0059 84.2816 54.1179 84.8801 55.2073 85.547C57.4301 86.9061 59.5302 88.534 61.516 90.3947C63.7545 92.4958 65.8248 94.9073 67.7212 97.6192C68.2476 98.3764 67.2839 100.007 66.5928 99.8069C60.0399 97.8454 54.7996 92.4584 51.475 84.44C51.1551 83.6725 52.1654 82.0207 52.6942 82.4468C54.8159 84.1752 56.4792 86.7124 57.6073 90.0142C57.9195 90.9265 56.9719 92.1869 56.3881 92.0074C52.3319 90.7142 48.2701 89.4178 44.2138 88.1245C44.6218 87.4565 45.025 86.7993 45.433 86.1313C45.9673 87.6803 45.2186 90.0998 44.0531 91.8254C42.7117 93.8163 41.2208 94.5812 39.9776 94.1041C38.6748 93.6063 37.9258 91.9273 37.3008 90.2787C36.6758 88.6301 36.052 86.6292 34.6241 86.3581C34.963 85.9693 35.307 85.5768 35.646 85.188C33.9237 90.2783 32.2017 95.3755 30.4795 100.466C30.1296 101.5 29.3456 101.999 29.0704 101.271C28.0536 98.6168 27.6625 95.2976 27.8486 91.5773C28.3481 91.3962 28.8523 91.2041 29.3517 91.0229C29.1183 94.1936 28.8845 97.3572 28.6511 100.528C28.5523 101.869 27.2391 102.492 27.1336 101.386C26.9018 98.9047 27.2077 96.0745 28.0034 93.1727C28.3242 91.9999 29.4188 91.5503 29.4589 92.6251C29.5682 95.9384 29.6724 99.2555 29.7816 102.569C29.4418 102.475 29.0968 102.386 28.7566 102.285C34.2571 95.9395 39.7524 89.5977 45.2525 83.2452C48.0025 80.0689 50.753 76.8997 53.4979 73.7273C55.5905 71.3132 57.7216 68.921 59.6644 66.1155C61.6612 63.2323 63.4075 59.961 64.2077 56.3019C64.522 56.5979 64.8417 56.897 65.1559 57.193C59.6255 64.4103 53.5896 70.3055 47.5003 74.426C46.4881 75.1132 46.433 73.2154 47.3803 72.3213C50.8568 69.0332 54.3383 65.7414 57.8148 62.4534C58.5855 61.7224 58.8968 63.1771 58.3136 64.1245C54.9208 69.6253 51.5226 75.123 48.1247 80.6278C47.4004 81.7993 46.558 80.9962 47.1039 79.6745C49.1196 74.7936 51.829 70.3454 54.8773 66.9063C55.6855 65.9933 56.3174 67.2048 55.5773 68.3809C51.9071 74.2312 48.2319 80.0853 44.5621 85.9426C43.7344 87.2584 42.9073 86.0706 43.6899 84.7085C46.8057 79.286 49.921 73.8564 53.0368 68.4339C53.3257 68.8442 53.6201 69.2578 53.909 69.6681C51.1012 73.6934 48.2879 77.7154 45.48 81.7406C45.2451 81.2527 45.0149 80.7539 44.78 80.266C52.3629 70.4894 60.3946 61.88 68.6039 54.7097C70.9458 52.6628 73.3055 50.7415 75.6715 48.9324C76.2772 48.473 76.8248 49.324 76.3134 50.3194C75.1142 52.6635 73.7981 54.8181 72.3328 56.7784C70.9958 58.5683 69.362 60.554 67.854 61.4854C66.4176 62.3699 65.3005 61.7751 65.1305 59.8181C64.9697 58.0224 65.6347 55.8125 66.679 54.0105C67.9262 51.8569 69.5511 50.3683 71.039 48.8959C72.7933 47.1628 74.5666 45.4813 76.3447 43.8839C79.9305 40.652 83.554 37.7062 87.1899 35.0731C91.3102 32.0873 95.438 29.513 99.5509 27.3305C100.185 26.996 100.277 28.0532 99.9874 28.8366C96.6669 37.8399 90.7649 45.434 84.9803 48.3793C84.5933 48.5776 84.2628 48.0891 84.3718 47.4868C86.1092 37.9129 91.3933 28.0499 97.522 23.0358C97.8771 22.7445 98.1625 22.9085 98.304 23.2477C99.1859 25.3968 99.4532 28.2242 99.1289 31.3833C98.6295 31.5645 98.1254 31.7566 97.626 31.9378C98.0145 28.4152 99.0196 24.7178 100.53 21.2227C100.934 20.2873 101.59 20.1557 101.834 20.7169C103.275 24.0964 103.103 29.4601 101.387 34.6697C100.962 35.9656 99.7715 36.3197 99.9462 34.9136C100.751 28.4407 103.748 21.4097 107.65 16.5545C109.361 14.4299 112.178 11.4008 113.591 12.8983C115.105 14.4947 113.517 19.1533 112.393 22.0699C110.817 26.1715 108.761 30.0798 106.442 33.4563C106.075 33.9913 105.641 34.2104 105.377 33.8687C103.644 31.6038 103.476 26.8857 105.084 22.3066C106.628 17.9008 109.526 14.2464 112.318 13.0216C112.619 12.889 112.947 13.1452 112.936 13.6143C112.841 18.8321 110.761 26.6894 106.594 29.5129C104.846 30.6998 103.062 30.801 101.969 29.5145C101.463 28.918 101.125 27.9299 101.106 26.7586C101.083 25.5101 101.91 23.9161 102.658 22.9613C103.43 21.9803 104.373 21.3823 105.113 21.502C105.885 21.6337 105.861 23.5472 105.811 24.7056C105.696 27.3542 104.768 30.3562 103.439 32.9308C102.114 35.4945 100.361 37.629 98.5655 38.4493C97.0442 39.1493 95.7058 38.6785 94.9173 37.3295C93.1881 34.3812 93.6869 27.9499 96.9232 23.7095C97.6099 22.8081 98.2984 23.8009 97.7667 24.9068C96.0192 28.5304 94.2717 32.1541 92.5191 35.7816C92.0395 36.7748 91.2731 36.9315 91.1737 36.0261C90.8738 33.2819 91.1078 30.2133 91.7836 26.978C92.2413 26.9968 92.7044 27.0188 93.1622 27.0377C92.0153 31.5086 90.8735 35.9757 89.7265 40.4466C89.4355 41.5823 88.5909 41.8568 88.3175 41.2517C86.9636 38.2749 85.6145 35.2871 84.2606 32.3103C84.6969 32.1404 85.1282 31.9742 85.5646 31.8043C83.5172 36.6874 81.4744 41.5597 79.4271 46.4428C79.0296 47.3883 78.0784 47.6559 78.0816 46.6873C78.1033 42.411 78.7806 37.8059 80.1126 33.136C80.5107 31.7362 81.6611 31.6102 81.5537 32.892C81.209 37.0913 80.864 41.2835 80.5194 45.4827C80.0406 45.5603 79.5571 45.6488 79.0783 45.7264C80.171 41.4211 81.2631 37.1087 82.3558 32.8034C82.6678 31.5713 83.7287 31.2717 83.8114 32.2557C84.0656 35.503 84.3248 38.7465 84.579 41.9938C84.07 42.3799 83.561 42.7659 83.052 43.1519C83.1324 40.8366 83.5365 38.4222 84.3557 35.9344C84.5912 35.2215 85.1621 34.525 85.5449 34.8129C88.1093 36.7619 87.1415 43.9077 83.5408 47.5315C81.6725 49.4095 80.145 49.4407 78.6966 48.7167C77.9857 48.3556 77.2673 48.0514 76.364 48.3193C75.6016 48.5462 74.8197 49.0808 74.0528 49.7868C72.2721 51.4301 70.6215 53.8677 69.0676 56.1368C67.3913 58.5865 65.726 61.1376 63.9047 63.2802C59.8793 68.0239 55.5275 70.6729 51.333 74.22C47.5034 77.4611 43.426 81.9443 41.1541 88.198C40.6037 89.7206 39.4442 89.0338 39.9903 87.529C44.3591 75.491 53.2002 71.1133 59.8995 65.1175C61.8646 63.3563 63.7475 61.2694 65.5124 58.7891C67.1103 56.5453 68.6422 54.1685 70.2577 51.9551C71.7448 49.9123 73.3821 47.8947 75.0748 46.7573C76.8393 45.5728 78.2678 45.6678 79.6178 46.342C80.3613 46.7151 81.1137 47.0592 82.1009 46.4935C82.9237 46.0231 83.768 45.0902 84.4089 43.9453C85.8449 41.3777 85.8419 38.0644 84.5546 37.0938C84.9527 36.7187 85.3456 36.3474 85.7437 35.9723C85.074 38.0099 84.6543 40.0556 84.588 41.965C84.5402 43.3627 83.1711 44.4961 83.061 43.1231C82.8068 39.8758 82.5476 36.6323 82.2934 33.385C82.7768 33.2014 83.2601 33.0178 83.749 32.8373C82.6564 37.1427 81.5641 41.4551 80.4714 45.7604C80.1118 47.1823 78.9264 47.2543 79.0304 46.0044C79.3751 41.8052 79.7201 37.6129 80.0648 33.4137C80.5436 33.336 81.0271 33.2476 81.5059 33.1699C80.2979 37.409 79.6409 41.6255 79.6231 45.5036C79.1764 45.5862 78.7244 45.6655 78.2777 45.748C80.3251 40.865 82.3677 35.9929 84.4151 31.1098C84.8172 30.1534 85.4708 30.0676 85.7191 30.6039C87.073 33.5807 88.4221 36.5686 89.776 39.5455C89.308 39.8126 88.835 40.0835 88.367 40.3506C89.5139 35.8796 90.6558 31.4124 91.8027 26.9415C92.2065 25.3617 93.4943 25.5049 93.1814 27.0011C92.5929 29.8116 92.4624 32.4577 92.7198 34.8315C92.2732 34.9141 91.821 34.9934 91.3744 35.076C93.1219 31.4524 94.8694 27.8289 96.622 24.2014C96.905 24.6016 97.1825 24.9986 97.4655 25.3988C95.2371 28.3185 95.0481 32.9193 96.0765 35.0304C96.6536 36.2104 97.6404 36.6624 98.8714 36.0874C100.366 35.3857 101.846 33.3047 102.831 31.1228C103.981 28.5742 104.636 25.6185 104.135 23.5391C104.264 23.6608 104.393 23.7824 104.522 23.9041C104.001 23.7875 103.347 24.2535 102.885 25.1682C102.779 25.3724 102.672 25.6224 102.626 25.8473C102.7 25.4761 102.667 26.0067 102.683 26.1113C102.738 26.5161 102.859 26.8635 103.024 27.1413C103.699 28.2759 105.068 28.2623 106.33 27.4881C109.681 25.4374 111.35 18.8504 111.424 14.7467C111.631 14.9406 111.834 15.1386 112.042 15.3396C109.876 16.2937 107.559 19.2368 106.368 22.6578C105.1 26.3128 105.273 29.9952 106.645 31.7947C106.292 31.9309 105.933 32.071 105.58 32.2072C107.291 29.7164 108.834 26.9797 110.142 24.0333C110.783 22.5962 111.378 21.1129 111.882 19.618C112.319 18.3353 112.832 16.6214 112.636 15.5252C112.252 13.35 109.155 17.053 108.178 18.2625C106.591 20.2344 105.168 22.6603 104.035 25.2324C102.733 28.196 101.834 31.323 101.459 34.3375C100.98 34.4152 100.496 34.5036 100.018 34.5813C101.548 29.9369 101.686 25.3817 100.399 22.3687C100.835 22.1988 101.267 22.0328 101.703 21.8629C100.352 24.9812 99.4842 28.2082 99.1379 31.3547C98.9735 32.8481 97.4811 33.4017 97.635 31.909C97.9178 29.14 97.6443 26.7636 96.8736 24.8888C97.1327 24.9631 97.3914 25.0305 97.6557 25.1009C92.2474 29.5247 87.4282 38.413 85.8882 46.8857C85.6856 46.5928 85.4826 46.2929 85.2797 45.993C90.543 43.3114 95.8373 36.2367 98.8312 28.1179C98.9768 28.6223 99.1221 29.1195 99.2676 29.6239C92.9799 32.9654 86.6482 37.3064 80.394 42.5401C77.2616 45.1573 74.1526 47.9983 71.0827 51.0586C69.8415 52.2927 68.3974 53.6001 67.4054 55.4797C66.7633 56.6986 66.2454 58.8848 66.9968 59.3981C67.5274 59.7642 68.4571 58.8394 69.0798 58.2134C69.7777 57.5084 70.4662 56.7302 71.1303 55.8972C72.6024 54.0561 73.9773 51.908 75.1573 49.6004C75.3695 50.0617 75.587 50.5262 75.7992 50.9874C67.6017 57.2485 59.52 64.9808 51.7869 73.9857C49.5961 76.5402 47.4325 79.1984 45.3054 81.9388C44.524 82.9487 43.8445 81.5537 44.6054 80.4642C47.4133 76.439 50.2265 72.417 53.0344 68.3917C53.8888 67.1728 54.7036 68.2383 53.9066 69.626C50.7908 75.0486 47.6755 80.4781 44.5597 85.9007C44.2708 85.4903 43.9764 85.0768 43.6875 84.6664C47.3577 78.8161 51.0329 72.9618 54.7027 67.1045C54.9376 67.5924 55.1679 68.0911 55.4028 68.579C52.5889 71.7524 50.1368 75.7788 48.2751 80.2868C47.933 79.968 47.5965 79.6522 47.2544 79.3334C50.6523 73.8287 54.0454 68.3349 57.4433 62.8301C57.6077 63.3861 57.7722 63.9421 57.9422 64.5013C54.4657 67.7893 50.9842 71.0811 47.5077 74.3691C47.4677 73.6675 47.4277 72.966 47.3877 72.2644C53.3591 68.2186 59.2239 62.4898 64.6456 55.4136C65.3178 54.5378 65.8009 55.3718 65.5939 56.3046C64.0775 63.2369 59.6311 68.8855 55.7615 73.3794C50.1741 79.8786 44.5617 86.3089 38.9614 92.7667C35.7327 96.489 32.5045 100.218 29.2809 103.937C28.8277 104.463 28.2801 104.359 28.2557 103.653C28.1465 100.34 28.0423 97.0224 27.933 93.7091C28.4164 93.5255 28.8998 93.3419 29.3886 93.1615C28.703 95.665 28.466 98.0259 28.6671 100.157C28.1631 100.444 27.6586 100.724 27.1495 101.015C27.3829 97.8445 27.6167 94.6809 27.8501 91.5102C27.9617 90.0204 29.426 89.5319 29.3532 90.9559C29.1862 94.2664 29.6068 97.1752 30.5109 99.5271C30.0429 99.7942 29.5698 100.065 29.1018 100.332C30.8241 95.242 32.546 90.1446 34.2683 85.0544C34.4729 84.4527 34.9037 83.8112 35.2902 83.8841C37.7972 84.3615 38.2018 88.1975 39.656 90.5127C40.2343 91.4355 41.1962 92.3821 42.3977 91.383C43.2441 90.6752 44.3785 88.8706 43.99 87.7379C43.6778 86.8256 44.6255 85.5653 45.2092 85.7447C49.2706 87.0341 53.3273 88.3344 57.3836 89.6276C56.9756 90.2957 56.5723 90.9528 56.1644 91.6209C55.1389 88.6292 53.6231 86.2583 51.6964 84.6893C52.1043 84.0213 52.5075 83.3642 52.9154 82.6962C56.1292 90.4473 61.2574 95.546 67.5885 97.4342C67.2108 98.1672 66.8379 98.8892 66.4602 99.6222C63.5468 95.4639 60.2164 92.0024 56.5061 89.3269C54.6843 88.0151 52.7722 86.889 50.7808 85.9547C49.9025 85.5448 48.8824 84.7887 47.7359 85.263C46.8178 85.6446 46.1421 86.9256 45.8545 88.3074C44.9947 92.4142 47.6025 93.2617 49.3775 93.7527C49.9495 93.9118 49.9307 94.98 49.3039 95.814C45.316 101.122 41.2865 99.5523 38.9377 96.6346C36.4743 93.5697 35.6745 88.2037 33.6329 84.5261C32.538 82.5532 31.1196 81.1477 29.0855 81.2339C29.45 80.6427 29.8146 80.0516 30.1838 79.4495C31.309 92.2906 31.6926 105.723 31.3267 119.607C31.0522 119.45 30.7777 119.292 30.5032 119.134C34.5725 115.814 38.3215 116 42.1432 115.042C45.0121 114.322 48.2726 112.369 50.8766 108.308C52.169 106.296 53.0018 104.047 53.1257 101.75C53.3953 102.007 53.6652 102.27 53.9398 102.523C47.5678 107.553 41.0629 109.881 35.4487 109.111C35.0153 109.052 34.8692 108.35 35.2017 107.571C40.8646 94.295 48.6577 82.712 56.9568 73.4828C66.4143 62.9651 76.4391 55.5963 86.3265 49.7298C92.3361 46.1674 98.3212 43.1066 104.303 40.0778C105.272 39.6646 104.981 42.0012 104.005 42.4923Z" fill="#7E2424"/>
<path d="M73.1932 62.4155C66.1081 72.2783 58.9782 82.2047 52.5347 93.1984C50.7175 96.3002 48.9579 99.4764 47.2893 102.746C46.5706 104.152 45.3909 103.542 46.1167 102.072C52.3355 89.4591 58.7965 77.0613 65.4852 64.9041C65.6506 65.4661 65.816 66.028 65.9869 66.5931C59.1757 70.9427 52.4662 79.0098 47.3964 88.823C45.9574 91.6068 44.6757 94.5222 43.5477 97.5054C43.2031 97.1837 42.864 96.8651 42.5194 96.5434C46.7838 89.2603 50.7838 81.6537 54.4696 73.7908C54.8142 74.1125 55.1533 74.4311 55.4979 74.7528C52.855 79.4532 50.2126 84.1606 47.5697 88.861C46.8885 90.0757 45.9188 89.2022 46.5415 87.8989C48.6213 83.5613 50.701 79.2237 52.7859 74.8822C53.3995 73.6079 54.4286 73.8221 54.0698 75.2498C53.1593 78.866 51.9961 82.4605 50.6207 85.9948C50.2885 86.8473 49.4516 87.1969 49.3059 86.509C49.0866 85.463 49.667 83.9773 50.5465 83.4325C51.5294 82.8237 51.8921 83.9453 52.0688 84.9943C52.5726 87.9614 52.8627 91.1285 52.9575 94.4371C52.812 94.2299 52.6666 94.0226 52.5258 93.8044C53.8911 93.9028 55.2567 94.0082 56.6219 94.1066C57.7778 94.1945 59.0058 94.1387 60.0567 94.5507C60.9156 94.8798 61.6318 95.717 61.6349 97.2978C61.6376 98.8715 60.9372 100.604 60.0696 102.027C59.0544 103.682 57.8302 105.044 56.6782 106.359C55.3702 107.852 54.036 109.261 52.6912 110.575C49.9664 113.244 47.185 115.572 44.3912 117.487C41.2415 119.645 38.0849 121.297 35.0039 122.388C34.4372 122.591 34.1868 121.754 34.5652 120.866C36.5808 116.148 39.167 111.868 42.0873 108.391C42.2641 108.967 42.4361 109.553 42.613 110.129C40.6883 112.269 38.7687 114.406 36.844 116.547C36.6672 115.971 36.495 115.385 36.3182 114.809C38.2196 112.731 40.1262 110.648 42.0277 108.57C42.7893 107.738 43.3348 108.587 42.8771 109.779C40.8034 115.178 36.5588 121.669 33.1956 120.593C31.6583 120.101 30.884 117.939 30.8362 115.372C30.7791 112.448 31.6443 109.17 32.8445 106.043C33.5357 104.244 34.3786 102.573 35.1473 100.818C35.4129 100.208 35.6164 99.5428 35.7204 98.916C35.7519 98.7145 35.8056 98.4294 35.7644 98.2684C35.7648 98.2755 35.9745 98.1971 35.6881 98.3414C35.9873 97.8543 36.2917 97.3633 36.5909 96.8763C36.2709 99.3766 34.8826 102.203 33.2165 103.421C31.5557 104.636 30.003 104.059 29.489 102.15C29.9818 101.775 30.4797 101.395 30.9725 101.019C30.6242 102.92 30.4978 104.673 30.6076 106.343C30.7006 107.714 29.2202 108.806 29.0675 107.517C28.88 105.892 29.0451 104.065 29.4933 102.132C29.778 100.909 30.919 100.542 30.961 101.576C31.0638 104.36 31.441 106.884 32.093 109.153C31.611 109.721 31.1233 110.285 30.6413 110.852C29.7597 105.828 28.8781 100.804 27.9969 95.7864C28.4897 95.4107 28.9876 95.0311 29.4804 94.6554C29.298 99.0335 29.7256 103.028 30.6879 106.437C31.0087 107.576 29.557 109.274 29.2361 108.136C28.1801 104.391 27.7638 100.026 27.9655 95.226C28.0108 94.1261 29.2842 93.1626 29.449 94.0949C30.3306 99.1191 31.2122 104.143 32.0934 109.16C32.3057 110.367 30.9748 112.026 30.6417 110.859C29.9489 108.436 29.5341 105.719 29.4265 102.753C29.9138 102.566 30.4012 102.38 30.8941 102.196C30.5401 103.709 30.4727 105.084 30.6182 106.342C30.1049 106.733 29.5916 107.125 29.0782 107.516C28.9537 105.68 29.0824 103.681 29.4678 101.582C29.6684 100.482 30.6941 99.4931 30.9513 100.451C31.2496 101.57 32.1146 102.005 33.1077 101.293C34.0906 100.588 34.8956 98.9086 35.081 97.443C35.166 96.7642 35.5671 96.1846 35.9889 95.974C37.7747 95.0785 37.3958 98.4375 36.7359 100.413C36.2637 101.823 35.5296 103.145 34.9365 104.5C34.2483 106.068 33.6159 107.674 33.1458 109.312C32.344 112.099 32.079 114.912 32.8071 116.821C33.509 118.645 35.139 118.69 36.8246 117.153C38.8158 115.339 40.5366 112.141 41.7045 109.105C41.9894 109.509 42.2689 109.91 42.5539 110.314C40.6524 112.393 38.7458 114.475 36.8444 116.554C35.8961 117.587 35.3715 115.872 36.3186 114.817C38.2433 112.676 40.163 110.539 42.0877 108.398C43.0349 107.343 43.5467 109.025 42.6134 110.136C39.9386 113.314 37.5885 117.222 35.7434 121.543C35.597 121.033 35.451 120.531 35.3047 120.021C40.1598 118.302 45.1655 115.166 50.0546 110.81C52.4813 108.649 54.8638 106.174 57.1678 103.448C58.0514 102.405 59.0533 101.278 59.7108 99.8302C60.3871 98.3381 60.0455 97.4 59.3603 97.0198C58.3773 96.482 57.0896 96.6205 55.9555 96.5383C54.5903 96.4398 53.2246 96.3343 51.8594 96.2359C51.6228 96.2165 51.4386 95.9872 51.4277 95.6034C51.3712 93.6417 51.253 91.7269 51.0527 89.8748C50.9543 88.9807 50.8405 88.0984 50.7113 87.2278C50.6515 86.8295 50.6015 86.4163 50.5113 86.0486C50.4978 85.9997 50.3986 85.7572 50.4069 85.7139C50.3555 85.6569 50.3906 85.6154 50.5127 85.5964C50.739 85.5274 50.8258 85.2614 50.7679 84.8025C50.328 84.9752 49.8931 85.1438 49.4532 85.3165C50.7489 81.9835 51.8221 78.5984 52.6852 75.1883C53.115 75.3119 53.5394 75.4322 53.9692 75.5558C51.8895 79.8934 49.8097 84.231 47.7249 88.5725C47.3803 88.2508 47.0412 87.9323 46.6966 87.6106C49.3394 82.9102 51.9819 78.2028 54.6247 73.5024C55.3111 72.2837 56.2647 73.1547 55.653 74.4644C51.8761 82.5151 47.7802 90.3207 43.4084 97.7891C42.666 99.058 41.8909 98.1249 42.3801 96.8272C46.5338 85.8556 52.8926 75.9252 59.8319 69.2808C61.8235 67.3777 63.8416 65.7578 65.8777 64.457C66.6529 63.9622 66.9859 65.0323 66.3793 66.1458C59.7924 78.1143 53.4277 90.3204 47.3051 102.741C46.9124 102.515 46.5252 102.293 46.1325 102.067C52.1329 90.3312 59.0953 79.8074 66.2262 69.7101C68.2493 66.8434 70.2898 64.0004 72.3308 61.1646C72.703 60.644 73.1434 60.3823 73.4046 60.7454C73.609 61.0482 73.5659 61.9021 73.1932 62.4155Z" fill="#7E2424"/>
</svg>
