<svg width="134" height="133" viewBox="0 0 134 133" fill="none" xmlns="http://www.w3.org/2000/svg">
<path fill-rule="evenodd" clip-rule="evenodd" d="M35.3979 28.7475C34.1739 23.7419 37.5086 15.4327 43.4667 12.0918C49.4249 8.75084 57.046 8.52198 63.6816 10.506C63.47 4.60706 69.9709 -0.454848 76.3627 0.0325122C82.7545 0.519873 88.0578 5.80075 88.9166 11.6497C89.5858 16.2071 87.0435 21.6356 82.1272 22.4611C83.865 28.1749 84.8313 34.1867 83.8775 40.0548C82.9236 45.9229 79.889 51.6552 74.7677 55.26C73.3537 57.0101 74.4217 59.6503 76.2831 61.0001C78.1445 62.35 80.5537 62.8245 82.781 63.5694C92.1139 66.6908 98.6847 75.164 100.216 84.1927C101.748 93.2214 98.6887 102.585 93.16 110.176C89.3731 115.375 84.2216 119.992 77.7765 121.992C68.7299 124.798 58.8111 122.066 50.0266 118.625C46.678 117.314 43.2679 115.824 40.9041 113.278C38.3701 110.548 33.5808 112.022 30.127 113.692C32.4235 114.569 34.72 115.445 37.0165 116.322C37.51 116.511 38.0453 116.734 38.2742 117.179C38.7559 118.114 37.5692 119.014 36.5648 119.479C35.4854 119.979 34.406 120.48 33.3267 120.98C26.7014 124.05 19.8014 127.187 12.3864 127.376C4.27957 127.584 -3.3782 124.249 -10.6742 120.99C-11.4852 120.628 -12.3448 120.225 -12.7858 119.501C-13.2267 118.778 -12.9802 117.65 -12.1087 117.438C-3.92387 115.446 3.82526 111.95 10.5492 107.216C10.0349 104.268 10.1561 101.229 10.9038 98.3242C11.012 97.9041 11.1675 97.4435 11.5743 97.2284C12.5745 96.6997 13.4432 98.0925 13.6199 99.1414C14.066 101.789 14.512 104.437 14.9581 107.084C20.3143 106.539 25.5127 104.729 29.9189 101.874C26.4823 99.3267 23.0457 96.7799 19.609 94.233C17.6261 92.7635 15.7121 91.8844 14.6412 89.0068C13.9273 87.0885 14.5035 85.1179 16.3698 83.0951C14.2864 73.5401 13.3747 66.3374 13.635 61.487C13.7044 60.1923 13.8619 58.7946 14.8089 57.835C16.4805 56.1411 19.7627 56.8715 21.2885 58.6782C22.8143 60.4849 23.0697 62.9095 23.267 65.1904C29.0765 64.5372 34.8861 63.8841 40.6956 63.2309C42.8212 62.9919 45.0222 62.7585 47.068 63.3406C49.6346 64.071 51.696 66.1395 52.2648 68.5557C54.7163 67.9459 57.3865 67.195 58.7709 65.236C60.1554 63.2769 58.9827 59.8696 56.4457 59.9706C48.5096 60.2866 40.7481 54.8674 38.9419 47.7489C38.4825 45.9385 38.3039 43.9266 36.9228 42.5697C34.7343 40.4196 33.0667 37.6477 33.0774 34.7016C33.0881 31.7556 34.4294 31.4041 35.3979 28.7475ZM-11.9746 119.411C-11.7959 119.657 -11.4841 119.786 -11.1887 119.902C-8.15812 121.095 -5.12755 122.289 -2.09699 123.482C-0.718028 124.025 0.665391 124.57 2.10746 124.95C6.12918 126.009 10.4628 125.75 14.4615 126.881C14.9465 127.018 15.4671 126.876 15.9501 126.733C19.4376 125.699 22.8841 124.549 26.2805 123.284C29.8337 121.96 33.3549 120.5 36.5097 118.496C36.7967 118.314 37.0945 118.111 37.2255 117.814C37.3565 117.517 37.2358 117.103 36.9003 117.015C34.7713 116.459 32.673 115.802 30.6165 115.05C29.9553 114.807 29.2111 114.462 29.0708 113.82C27.2591 113.887 25.6748 114.939 24.3384 116.067C23.0021 117.194 21.7467 118.468 20.1001 119.167C18.4535 119.865 16.2434 119.805 15.1027 118.508C14.9809 118.369 14.8585 118.21 14.6712 118.165C14.4838 118.12 14.2432 118.292 14.3305 118.451C14.5567 118.863 14.0709 119.384 13.5703 119.355C13.0696 119.326 12.6782 118.907 12.555 118.459C12.4318 118.012 11.7628 118.811 10.7934 118.944C9.82395 119.077 8.79545 118.505 8.47344 117.653C8.20805 116.951 7.16755 116.938 6.37246 116.807C4.56465 116.508 3.19182 114.765 3.44608 113.091C-1.74945 114.685 -6.85079 116.54 -11.8279 118.643C-12.1199 118.767 -12.1533 119.165 -11.9746 119.411Z" fill="white"/>
<path d="M60.9657 50.54C62.4913 50.54 63.728 49.4019 63.728 47.998C63.728 46.5941 62.4913 45.4561 60.9657 45.4561C59.4401 45.4561 58.2034 46.5941 58.2034 47.998C58.2034 49.4019 59.4401 50.54 60.9657 50.54Z" fill="#902920"/>
<path d="M41.792 48.4474C42.5997 48.4474 43.2544 47.8449 43.2544 47.1016C43.2544 46.3584 42.5997 45.7559 41.792 45.7559C40.9843 45.7559 40.3296 46.3584 40.3296 47.1016C40.3296 47.8449 40.9843 48.4474 41.792 48.4474Z" fill="#902920"/>
<path fill-rule="evenodd" clip-rule="evenodd" d="M74.157 58.2011C74.4102 59.4093 75.1621 60.5798 76.1632 61.3058C78.0246 62.6556 82.2086 64.0455 84.436 64.7904C84.6386 64.8582 83.4958 65.4522 82.0206 66.7655C78.0265 70.3212 69.2934 76.6882 60.7617 73.4885C59.7645 73.1145 58.9307 72.684 58.2515 72.2277C57.6257 71.8072 63.3698 72.4129 68.7396 71.476C74.1389 70.5341 79.1622 68.0454 77.8176 66.0724C76.5538 64.2178 72.9993 61.0766 72.7221 59.229C72.3528 56.7674 73.9394 57.1627 74.157 58.2011Z" fill="#E7EAEE"/>
<path fill-rule="evenodd" clip-rule="evenodd" d="M-12.0842 118.712C-12.0842 117.726 -8.70545 116.928 -2.92941 114.929C1.0433 113.554 8.78673 109.575 12.5965 109.389C15.1317 109.266 25.2628 112.679 31.8746 115.131C35.1991 116.363 37.7636 117.135 37.7636 117.531C37.7636 118.325 30.7047 122.159 23.4901 124.679C19.9687 125.91 16.6649 127.011 13.6349 126.937C4.39747 126.71 -12.0842 121.209 -12.0842 118.712Z" fill="white"/>
<path fill-rule="evenodd" clip-rule="evenodd" d="M118.416 36.8119C105.17 42.0182 94.1035 50.9144 83.56 59.9611L82.9151 60.5151C82.3 61.0442 81.3664 61.5973 80.7027 61.1207L82.7514 59.4044C93.4712 50.4418 104.555 41.5547 117.818 36.2746C128.015 32.2151 127.907 33.0815 118.416 36.8119ZM61.358 123.533L67.5719 129.762C67.8765 130.067 68.1936 130.395 68.2788 130.802C68.364 131.209 68.1078 131.705 67.6599 131.748L54.8659 132.98C52.7409 133.184 50.5737 131.828 49.9618 129.944C49.3499 128.06 50.3293 125.854 52.1801 124.871C54.031 123.889 56.5696 124.199 58.106 125.565C58.4866 125.904 59.1549 125.616 59.4251 125.197C59.6952 124.778 59.7536 124.265 60.0328 123.851C60.3119 123.437 61.0001 123.175 61.358 123.533ZM51.0407 127.129C50.2474 128.514 50.7491 130.391 52.107 131.335C52.7724 131.798 53.5894 132.046 54.4127 132.168C55.5757 132.34 56.9249 132.21 57.6725 131.372C57.9454 131.066 58.1127 130.691 58.2269 130.31C58.6068 129.04 58.4137 127.633 57.7023 126.491C57.5086 126.179 57.2108 125.855 56.8215 125.87C56.6365 125.877 56.4647 125.964 56.2805 125.981C55.974 126.01 55.6903 125.849 55.411 125.729C53.8681 125.068 51.8341 125.743 51.0407 127.129ZM60.806 124.783C60.5617 125.72 60.0562 126.599 59.3511 127.312C59.1525 127.512 59.2012 127.823 59.2415 128.092C59.4375 129.401 59.1134 130.772 58.3437 131.888C59.605 131.613 60.8949 131.449 62.1899 131.398C63.9652 131.329 65.8174 131.46 67.4445 130.803C66.5752 130.455 65.8374 129.835 65.3809 129.071C65.1124 128.621 64.7411 128.232 64.3728 127.847L61.5434 124.888C61.3389 124.674 60.8781 124.506 60.806 124.783ZM28.6751 124.727C29.0808 125.892 30.6068 126.292 31.9288 126.502L40.7512 127.858C42.7912 128.171 44.885 128.484 46.9137 128.114C47.2964 128.044 47.4989 128.603 47.2464 128.877C46.9938 129.151 46.5544 129.184 46.1642 129.185C44.3967 129.19 42.6396 128.974 40.8903 128.732L39.0271 128.471C35.7294 128.004 32.4333 127.508 29.2055 126.735C28.653 126.602 28.0807 126.451 27.6577 126.098C27.2348 125.745 27.0148 125.129 27.3124 124.681C27.6101 124.232 28.501 124.226 28.6751 124.727ZM76.3627 0.0325122C82.7545 0.519873 88.0578 5.80075 88.9166 11.6497C89.5858 16.2071 87.0435 21.6356 82.1272 22.4611C83.865 28.1749 84.8313 34.1867 83.8775 40.0548C82.9236 45.9229 79.889 51.6552 74.7677 55.26C73.3537 57.0101 74.4217 59.6503 76.2831 61.0001C78.1445 62.35 80.5537 62.8245 82.781 63.5694C92.1139 66.6908 98.6847 75.164 100.216 84.1927C101.748 93.2214 98.6887 102.585 93.16 110.176C89.3731 115.375 84.2216 119.992 77.7765 121.992C68.8204 124.77 59.0094 122.12 50.2905 118.728L50.0266 118.625C46.7478 117.341 43.4099 115.886 41.0532 113.435L40.9041 113.278C38.3701 110.548 33.5808 112.022 30.127 113.692L37.0165 116.322C37.51 116.511 38.0453 116.734 38.2742 117.179C38.7559 118.114 37.5692 119.014 36.5648 119.479L32.5195 121.353C26.1411 124.299 19.5008 127.194 12.3864 127.376C4.37383 127.581 -3.20005 124.326 -10.4196 121.104L-10.8777 120.899C-11.6255 120.559 -12.3816 120.165 -12.7858 119.501C-13.2267 118.778 -12.9802 117.65 -12.1087 117.438C-3.92387 115.446 3.82526 111.95 10.5492 107.216C10.0349 104.268 10.1561 101.229 10.9038 98.3242L10.9419 98.183C11.0496 97.8047 11.2127 97.4196 11.5743 97.2285C12.5745 96.6998 13.4432 98.0925 13.6199 99.1414L14.9581 107.084C20.3143 106.539 25.5127 104.729 29.9189 101.874L19.3319 94.0272C17.4364 92.6159 15.5173 91.0902 14.6412 89.0069C13.7224 86.8218 14.4616 83.86 16.836 83.0144C17.0233 74.7376 16.5492 66.4481 15.4188 58.2351C13.8556 66.4379 15.1119 74.8479 16.3698 83.0951C14.2128 76.224 13.2788 69.0292 13.615 61.8839L13.635 61.487C13.7044 60.1923 13.8619 58.7946 14.8089 57.835C16.4805 56.1411 19.7627 56.8715 21.2885 58.6782C22.8143 60.4849 23.0697 62.9095 23.267 65.1904L41.095 63.1864C43.0957 62.966 45.1501 62.7949 47.068 63.3406C49.6346 64.071 51.696 66.1395 52.2648 68.5557L52.683 68.4506C55.0145 67.8571 57.4649 67.0841 58.7709 65.236C60.1406 63.2977 59.0074 59.9419 56.5262 59.9686L56.4457 59.9706C48.5096 60.2866 40.7481 54.8674 38.9419 47.7489C38.4825 45.9385 38.3039 43.9266 36.9228 42.5697C34.7343 40.4196 33.0667 37.6477 33.0774 34.7017C33.0881 31.7556 35.1294 28.7175 38.238 28.0132C41.3465 27.309 45.0256 29.6957 44.7573 32.6313C46.2654 32.49 47.8081 32.6707 49.2297 33.155C48.419 31.1436 50.5205 28.9233 52.8301 28.6314C55.1397 28.3394 57.3903 29.401 59.311 30.617C61.2317 31.8329 63.067 33.2645 65.3 33.8808L65.4029 33.6616C65.8644 32.6701 66.2895 31.611 66.0569 30.5628C65.8071 29.437 64.4287 28.4633 63.3127 28.9788C62.5293 26.9132 61.2827 24.9974 59.6739 23.3867L55.2028 25.3265C54.6267 24.5326 54.2738 23.6027 54.1876 22.6514C51.2355 24.2039 48.0312 25.3497 44.7145 26.0388L45.0539 23.7085L35.1424 28.446C33.6789 22.1682 37.5086 15.4327 43.4667 12.0918C49.4249 8.75084 57.046 8.52198 63.6816 10.506C63.47 4.60706 69.9709 -0.454848 76.3627 0.0325122ZM125.123 102.352C119.413 103.62 113.87 105.524 108.654 108.009L108.277 108.19C105.386 109.592 102.549 111.271 100.737 113.762C101.961 113.567 103.267 113.861 104.255 114.553C104.879 114.99 105.401 115.645 105.363 116.366C105.344 116.74 105.175 117.097 104.948 117.407C104.059 118.618 102.177 119.111 100.729 118.51C99.2804 117.909 98.4345 116.286 98.8323 114.87C92.6874 116.801 87.4047 120.955 84.3678 126.236L84.2663 126.414C84.1167 126.68 83.9339 126.977 83.6165 127.043C83.1802 127.134 82.7918 126.686 82.8118 126.275C82.8318 125.863 83.1181 125.509 83.3949 125.186C86.9757 121.002 91.1605 117.019 96.516 114.999L96.9193 114.85C98.1827 114.389 99.5051 113.936 100.321 112.952C102.3 110.567 105.148 108.929 108.041 107.543C110.63 106.303 113.308 105.22 116.052 104.304C118.805 103.385 121.621 102.636 124.442 101.909L134 99.4603C131.415 101.132 128.195 101.67 125.123 102.352ZM3.44608 113.091C-1.74945 114.685 -6.85079 116.54 -11.8279 118.643C-12.1199 118.767 -12.1533 119.166 -11.9746 119.411C-11.7959 119.657 -11.4841 119.786 -11.1887 119.902L-2.09699 123.482C-0.718028 124.026 0.665391 124.57 2.10746 124.95C6.12918 126.009 10.4628 125.75 14.4615 126.881C14.9465 127.018 15.4671 126.876 15.9501 126.733C19.4376 125.699 22.8841 124.549 26.2805 123.284C29.8337 121.96 33.3549 120.5 36.5097 118.496C36.7967 118.314 37.0945 118.111 37.2255 117.814C37.3565 117.517 37.2358 117.103 36.9003 117.015C34.7713 116.459 32.673 115.802 30.6165 115.05L30.4738 114.996C29.8521 114.757 29.201 114.417 29.0708 113.82C27.2591 113.887 25.6748 114.939 24.3384 116.067C23.0021 117.194 21.7467 118.468 20.1001 119.167C18.4535 119.865 16.2434 119.805 15.1027 118.508L15.029 118.423C14.9293 118.31 14.8211 118.201 14.6712 118.165C14.4838 118.12 14.2432 118.292 14.3305 118.451C14.5567 118.863 14.0709 119.384 13.5703 119.355C13.0696 119.326 12.6782 118.907 12.555 118.459C12.4758 118.172 12.4827 117.874 12.5206 117.578L12.5301 117.505C12.3075 118.23 11.6098 118.832 10.7934 118.944C9.82395 119.077 8.79545 118.505 8.47344 117.653C8.20805 116.951 7.16755 116.938 6.37246 116.807C4.56465 116.508 3.19182 114.765 3.44608 113.091ZM15.7243 85.1506C14.6534 86.9036 15.6481 89.1221 16.9672 90.7255C21.1038 95.7536 28.0324 98.1666 32.7597 102.732C33.9476 103.88 34.9829 105.151 36.0051 106.427L39.2178 110.442C39.8083 111.18 40.4008 111.92 41.0899 112.582C42.8865 114.307 45.2521 115.42 47.592 116.456C52.3395 118.559 57.2236 120.49 62.3781 121.494C67.5326 122.497 73.0095 122.532 77.9689 120.895C82.6108 119.364 86.6105 116.426 89.7181 112.902C92.7517 109.463 94.9784 105.476 96.7631 101.36L96.8929 101.059C97.1497 100.458 97.402 99.8303 97.3487 99.187C97.2924 98.5069 96.8985 97.8883 96.4388 97.3531C94.6861 95.3126 91.7568 94.1584 88.9516 94.4773C86.1902 94.7913 83.6617 96.5545 82.6502 98.9372L82.6032 99.0511C80.405 104.535 74.9311 108.659 68.7818 110.123C62.6326 111.586 55.9442 110.537 50.3314 107.802C44.7185 105.066 40.1386 100.735 36.7237 95.8067L36.5373 95.5347C35.9204 94.6234 35.3595 93.6648 35.1424 92.6135C34.9035 91.4572 35.1464 90.1567 36.0538 89.3271C36.6532 88.7792 37.5063 88.4577 37.9423 87.7917C38.3783 87.1257 37.8663 85.9493 37.062 86.1872L36.5254 86.3435C32.8284 87.4021 28.5393 88.2232 25.565 86.0205L25.2793 85.8101C23.8916 84.7953 22.4086 83.8267 20.6846 83.4777C18.8416 83.1046 16.6491 83.6369 15.7243 85.1506ZM30.4612 102.921C25.977 105.529 20.9164 107.293 15.6804 108.073C14.9892 108.176 14.8034 109.001 14.7925 109.645C14.7579 111.693 14.8657 113.743 15.1149 115.778C15.6821 115.533 15.9141 114.919 16.3008 114.465C16.6874 114.011 17.5698 113.762 17.8687 114.269C18.0775 114.623 17.7988 115.067 17.4431 115.302C17.0873 115.537 16.6497 115.664 16.3324 115.942C15.543 116.632 15.9556 117.991 16.9174 118.462C17.8791 118.933 19.0957 118.687 20.0178 118.153C20.9398 117.619 21.6522 116.837 22.4341 116.138C24.1062 114.645 26.1515 113.508 28.3657 112.841C31.1767 111.994 34.3067 111.868 36.7796 110.374C36.9462 110.274 37.1186 110.156 37.1814 109.982C37.2673 109.744 37.1221 109.497 36.968 109.286L34.0092 105.332C33.5379 104.703 32.9955 104.026 32.188 103.846C31.8187 103.763 31.4251 103.795 31.0627 103.69C30.7004 103.585 30.359 103.258 30.4612 102.921ZM9.8039 108.665C8.6503 109.16 7.96758 110.326 7.81565 111.489C7.66372 112.652 7.96207 113.823 8.31645 114.949C8.53398 115.639 8.77521 116.328 9.13497 116.966C9.36437 117.374 9.66813 117.78 10.1278 117.956C10.5875 118.133 11.2255 117.974 11.3749 117.537C11.4365 117.357 11.4089 117.162 11.3733 116.976C11.2394 116.277 10.9992 115.595 10.6621 114.956L10.5205 114.697C10.3178 114.324 10.1268 113.884 10.3875 113.558C10.6365 113.247 11.2484 113.118 11.1899 112.735L10.6186 108.998C10.6019 108.889 10.5823 108.773 10.5052 108.689C10.3429 108.511 10.0324 108.566 9.8039 108.665ZM101.264 114.429C100.883 114.427 100.482 114.476 100.177 114.685C99.9977 114.807 99.8624 114.978 99.7673 115.163C99.3654 115.948 99.7362 116.956 100.498 117.467C101.26 117.977 102.315 118.025 103.197 117.719C103.871 117.485 104.52 116.955 104.497 116.292C104.479 115.769 104.048 115.333 103.572 115.046C102.892 114.637 102.076 114.432 101.264 114.429ZM11.9684 98.074C11.8709 98.1407 11.8227 98.2508 11.7815 98.356C11.1816 99.8876 11.1082 101.548 11.1247 103.176C11.1662 107.258 11.7361 111.335 12.8184 115.294L12.8722 115.486C13.0935 116.259 13.3959 117.052 14.0811 117.53C14.2086 111.257 13.7663 104.974 12.7603 98.768C12.695 98.3652 12.3236 97.831 11.9684 98.074ZM6.56625 111.558C6.42304 111.595 6.3311 111.721 6.25962 111.841C5.67463 112.823 5.63513 114.064 6.15665 115.076C6.39048 115.53 6.79141 115.971 7.33378 116.027C7.55489 115.773 7.45383 115.408 7.32995 115.098L7.22297 114.835C6.82486 113.842 6.49811 112.768 6.84902 111.769C6.8948 111.639 6.70945 111.521 6.56625 111.558ZM4.61474 112.919C4.2045 113.758 4.38727 114.814 5.06054 115.495C5.33845 115.233 5.21622 114.805 5.12129 114.45C4.97277 113.894 4.93924 113.312 5.023 112.745C4.91952 112.606 4.69011 112.765 4.61474 112.919ZM13.2615 83.0056C13.8833 83.4984 14.2787 84.5622 13.5402 84.8916C13.0671 85.1027 12.5309 84.794 12.0841 84.5389C9.7625 83.2134 6.79404 83.1157 4.16196 83.7901C1.52989 84.4644 -0.823225 85.838 -3.03171 87.3183C-5.23101 88.7924 -7.35163 90.4099 -9.00536 92.3981C-10.6591 94.3863 -11.8288 96.7822 -11.9248 99.2845C-12.0398 102.283 -10.6322 105.149 -9.00444 107.749C-7.96701 109.406 -6.79715 111.039 -5.18671 112.242L-4.85563 112.483C-4.39879 112.82 -3.92972 113.239 -4.04623 113.747C-5.62474 113.681 -6.77044 112.381 -7.63974 111.167C-8.87586 109.44 -10.0026 107.648 -11.0125 105.8C-11.8521 104.265 -12.6197 102.664 -12.8748 100.961C-13.3545 97.7579 -11.9413 94.5009 -9.74474 91.9771C-7.54817 89.4533 -4.62488 87.5594 -1.66818 85.8123C0.577684 84.4852 2.88905 83.2124 5.41015 82.4061C8.01013 81.5747 11.176 81.3525 13.2615 83.0056ZM79.9846 68.8973C76.2459 72.1087 71.2763 74.0815 66.1723 74.3803C63.9164 74.5124 61.5872 74.314 59.5461 73.4203C57.505 72.5266 55.7857 70.8603 55.3113 68.8266L55.1419 68.8747C53.6645 69.3048 51.9731 70.0832 51.9879 71.4843C52.0511 77.4264 51.9008 83.3703 51.5375 89.3033C51.4677 90.4417 50.9966 91.9363 49.7581 91.9028C45.3576 91.7838 40.9283 92.7189 37.0242 94.591C41.4186 100.933 47.668 106.477 55.4416 108.8C63.2153 111.123 72.5909 109.671 78.0383 104.064C79.7844 102.267 81.0696 100.142 82.3072 98.0133L82.5921 97.5221C82.8553 97.068 83.1232 96.5285 82.8892 96.0611C82.7398 95.7626 83.0619 95.4526 83.3575 95.2684C87.7045 92.561 94.1767 93.2956 97.6786 96.8938C97.4011 96.3944 97.6534 95.706 98.2028 95.4632C98.6396 96.109 98.732 96.9422 98.4461 97.656C98.6354 97.9025 98.9826 97.506 99.0126 97.2055C99.4795 92.5282 99.4428 87.8084 98.9033 83.1377C98.7088 81.4535 98.4445 79.7588 97.7896 78.176C97.2154 76.7879 96.3524 75.5156 95.4068 74.312C93.2313 71.5428 90.5864 69.0866 87.5972 67.0592L87.3801 66.9138C86.9061 66.6016 86.4074 66.3139 85.8474 66.1736C83.6307 65.6183 81.664 67.4548 79.9846 68.8973ZM49.7824 66.2067C47.3109 66.972 44.6347 66.8249 42.0332 66.9903C38.3671 67.2234 34.7507 68.1007 31.4362 69.561C30.0086 70.19 28.6276 70.9292 27.118 71.3666C23.9117 72.2957 20.2363 71.722 17.5423 69.8718C16.9616 73.9518 17.1329 78.1216 18.0467 82.1496C18.1054 82.4083 18.2906 82.7392 18.5651 82.6616C20.3871 82.1467 22.3467 82.8752 23.9667 83.7993C25.5867 84.7234 27.1091 85.8756 28.9492 86.3329C31.1077 86.8694 33.3952 86.3736 35.5317 85.7503L35.6917 85.7033C36.7869 85.3797 38.2034 85.1099 38.9057 85.9482C39.498 86.6553 39.124 87.7114 38.4969 88.3926C37.8697 89.0738 37.0193 89.5801 36.5076 90.3387C35.8795 91.2701 35.8762 92.5281 36.4996 93.4623C40.58 91.9563 44.9474 91.1114 49.3413 90.9781C50.2225 90.9514 50.5315 89.902 50.5857 89.0922C51.0602 81.9963 51.2059 74.8818 51.0222 67.7745C51.0026 67.0169 50.5629 65.965 49.7824 66.2067ZM115.846 85.3947L116.02 85.4754C117.102 85.9814 118.254 86.6557 118.415 87.7461C118.468 88.1052 118.401 88.4701 118.309 88.8223C118.18 89.3099 117.985 89.8102 117.573 90.1389C117.136 90.4874 116.522 90.5863 115.945 90.5657C114.808 90.525 113.669 90.0374 113.01 89.1832C112.352 88.329 112.246 87.1073 112.86 86.2257C113.475 85.3441 114.826 84.9296 115.846 85.3947ZM114.159 86.6146C113.484 86.8735 113.242 87.7125 113.523 88.3328C113.805 88.9532 114.473 89.3615 115.167 89.5707C115.877 89.7846 116.792 89.7672 117.215 89.2005C117.356 89.0119 117.422 88.7846 117.461 88.5585C117.546 88.0663 117.495 87.5214 117.15 87.137C116.723 86.6608 115.995 86.5651 115.314 86.5297L115.146 86.5219C114.812 86.5082 114.466 86.4965 114.159 86.6146ZM29.0487 73.7891C29.134 74.0869 29.0684 74.4012 29.0102 74.7045C28.5998 76.8406 28.5701 79.0382 28.9218 81.1831L28.9868 81.5628C29.0296 81.8313 29.0472 82.1147 28.8796 82.3308C28.6861 82.5801 28.1441 82.555 28.117 82.2497C27.8861 79.6508 27.7382 77.0458 27.6735 74.439C27.6611 73.941 27.8023 73.2788 28.342 73.2406C28.6756 73.2169 28.9634 73.4913 29.0487 73.7891ZM10.0579 68.5812C10.457 68.6917 10.8403 68.9432 10.956 69.3116C11.0717 69.6801 10.8084 70.1457 10.3925 70.1699C10.0048 70.1924 9.70897 69.8675 9.3528 69.7249C8.71334 69.4689 7.99591 69.8263 7.40804 70.1715L7.1088 70.3493C6.54441 70.6914 5.99769 71.0751 5.68777 71.6205C5.37072 72.1784 5.34417 72.8342 5.35398 73.4637C5.36079 73.9014 5.38307 74.3453 5.53011 74.7616C5.8491 75.6646 6.75936 76.3411 7.76903 76.5369C8.77871 76.7327 9.85858 76.479 10.7127 75.9462L10.8799 75.8416C11.0307 75.7502 11.1888 75.6705 11.3662 75.6626C11.6101 75.6518 11.8772 75.8634 11.7943 76.0748C11.7694 76.1382 11.7183 76.1895 11.6672 76.2378C10.2712 77.5576 7.86046 77.8401 6.1495 76.8844C5.84428 76.7139 5.55976 76.5082 5.3291 76.2574C4.63579 75.5036 4.50641 74.4472 4.48735 73.4598C4.47703 72.9255 4.49139 72.383 4.65642 71.8706C5.01302 70.7635 6.02076 69.9412 7.06815 69.3052C7.95746 68.7653 9.0376 68.2987 10.0579 68.5812ZM1.98073 66.3097L5.4612 70.1133C5.26974 70.3039 4.93416 70.3164 4.67547 70.2129C4.44553 70.1208 4.26213 69.9563 4.08932 69.7874L2.04723 67.7662C1.76881 69.8176 1.09434 71.8229 0.0648136 73.6603C-0.0353861 73.8391 0.248512 73.9901 0.466009 74.0107C0.997158 74.0609 1.53428 74.005 2.05805 73.9095L2.32797 73.8594C2.75094 73.782 3.1847 73.7214 3.57899 73.8651C4.05778 74.0397 4.35324 74.681 3.96929 74.9968C3.73262 75.1915 3.37409 75.1672 3.05905 75.1314L-0.330606 74.7456L-0.43477 74.7319C-0.769413 74.6814 -1.13721 74.5608 -1.18625 74.264C-1.21581 74.0851 -1.10784 73.9142 -1.00677 73.759C0.199727 71.906 1.00352 69.8321 1.34474 67.695L1.39615 67.3561C1.46247 66.9401 1.57986 66.4887 1.98073 66.3097ZM120.561 72.2856C120.981 72.5591 121.377 73.096 121.052 73.4628C120.848 73.6923 120.456 73.6979 120.163 73.5745C119.87 73.451 119.643 73.2296 119.39 73.0459C118.354 72.2925 116.799 72.2131 115.679 72.8565C115.52 72.9481 115.361 73.0618 115.296 73.2242C115.232 73.3866 115.303 73.6047 115.483 73.6538C116.913 73.0964 118.617 73.1744 119.979 73.8594C120.176 73.9584 120.383 74.0901 120.432 74.2917C120.48 74.4933 120.245 74.7352 120.049 74.6343C119.16 74.1763 118.099 74.0078 117.094 74.1651C116.626 74.2384 116.168 74.3801 115.694 74.3939C115.219 74.4078 114.7 74.262 114.448 73.8915C114.215 73.5496 114.27 73.0883 114.497 72.7431C114.724 72.398 115.095 72.1535 115.484 71.9673C117.067 71.2094 119.105 71.3372 120.561 72.2856ZM73.1418 53.7941C69.748 56.4193 65.76 58.3908 61.5082 59.5467L61.2244 59.6226C60.6724 59.7676 59.9778 60.0892 60.0939 60.6066L60.1654 60.9276C60.3775 61.8928 60.5573 62.8758 60.406 63.847C60.2429 64.8944 59.6155 65.9428 58.577 66.383L58.4815 66.4213C56.6325 67.1217 56.3727 69.6634 57.5852 71.1265C58.7977 72.5896 60.9004 73.1562 62.8867 73.3676C68.7161 73.9879 74.7995 72.1893 79.1454 68.5604C80.7217 67.2442 82.1321 65.6687 84.0837 64.8867L79.2034 63.2428C77.8868 62.7994 76.5531 62.3477 75.4071 61.6045C74.2611 60.8614 73.3055 59.7793 73.0713 58.5073C72.7843 56.9492 73.596 55.3181 73.1418 53.7941ZM16.8462 58.0067C16.7237 58.0567 16.5987 58.1233 16.5398 58.2341C16.4808 58.345 16.5007 58.4761 16.5215 58.598L17.6397 65.0842C17.9692 66.9956 18.4321 69.1138 20.1452 70.2364C22.0217 71.4661 24.5986 70.9843 26.7838 70.2822L26.9005 70.2444C30.9681 68.915 34.8828 67.0642 39.146 66.4416C42.2068 65.9946 45.4166 66.186 48.3109 65.1663C47.2523 63.6959 44.9587 63.7036 43.0401 63.8965L27.3657 65.5358C26.1514 65.6628 24.876 65.811 23.8898 66.4753C23.4583 66.7659 23.0498 67.1653 22.5155 67.1856C21.9956 67.2053 21.5438 66.5086 21.9512 66.2524L21.9872 66.2321C22.4339 66.0058 22.4039 65.4156 22.3125 64.9539L21.8384 62.5619C21.5987 61.3754 21.306 60.1679 20.5345 59.1992C19.7014 58.153 18.1342 57.4799 16.8462 58.0067ZM125.057 67.7011C125.434 68.1061 125.451 68.7276 125.199 69.2084C124.947 69.6893 124.47 70.0428 123.954 70.2865C123.331 70.5805 122.645 70.7338 121.958 70.8648L121.615 70.9289C121.48 70.9538 121.338 70.9783 121.208 70.9384C121.1 70.9053 121.012 70.8306 120.941 70.7484C120.586 70.3394 120.599 69.7359 120.839 69.2616C121.078 68.7872 121.508 68.4186 121.949 68.0885C122.399 67.7512 122.89 67.4333 123.455 67.3099C124.021 67.1866 124.678 67.2955 125.057 67.7011ZM123.203 68.4129L123.022 68.5248C122.752 68.6954 122.491 68.8816 122.309 69.1303C122.087 69.4342 122.01 69.8583 122.229 70.164L123.683 69.4195C123.92 69.2983 124.165 69.1701 124.319 68.9647C124.473 68.7593 124.503 68.4528 124.313 68.2749C124.028 68.0079 123.542 68.2056 123.203 68.4129ZM100.012 53.7705C100.113 53.8083 100.182 53.8929 100.241 53.9793L102.371 57.1808C102.751 57.7529 103.618 57.8167 104.345 57.7695C105.738 57.6792 107.119 57.4175 108.438 56.9934C108.659 56.9223 108.869 57.1813 108.821 57.3925C108.773 57.6036 108.576 57.754 108.391 57.8866L105.192 60.1813C104.799 60.1557 104.911 59.5639 105.229 59.3509L105.324 59.2904C105.631 59.0997 106.003 58.9114 105.984 58.584L104.135 59.1155C103.782 59.217 103.39 59.3168 103.054 59.1741C102.831 59.0793 102.674 58.8933 102.533 58.706L100.184 55.5511L100.144 58.3138C100.14 58.5403 100.13 58.7861 99.9736 58.9611C99.8626 59.0854 99.6967 59.1522 99.5311 59.2084L96.2903 60.2785C97.1557 61.0749 98.7757 60.237 99.8114 60.8371C100.521 61.2483 100.642 62.1645 100.489 62.9231C100.336 63.6818 99.985 64.4199 100.031 65.1904C100.622 64.7956 101.056 64.2059 101.236 63.5542C101.308 63.2915 101.344 63.012 101.503 62.7838C101.94 62.1547 102.986 62.2827 103.711 62.6191C104.436 62.9556 105.188 63.44 105.981 63.28L104.83 61.5872C104.725 61.4328 104.617 61.2656 104.626 61.0836C104.635 60.9017 104.823 60.7177 105.012 60.7706C105.095 60.7937 105.157 60.8542 105.212 60.9175L107.779 63.979C106.877 64.5259 105.688 64.1814 104.647 63.9174L104.493 63.8803C103.478 63.649 102.238 63.6261 101.678 64.4179C101.282 64.976 100.819 65.4929 100.298 65.9557C100.079 66.1506 99.8286 66.3449 99.5256 66.3768C99.2226 66.4086 98.8745 66.1973 98.9014 65.9177L99.1997 62.8219C99.219 62.6215 99.2338 62.4033 99.1124 62.2359C98.9846 62.0596 98.7436 61.991 98.5216 61.9346L95.7177 61.222C95.1081 61.0671 95.1037 60.1939 95.5609 59.7918C96.0182 59.3898 96.6917 59.3055 97.3011 59.15C97.9105 58.9945 98.5695 58.6643 98.6795 58.0912L99.3911 54.3821C99.4519 54.065 99.6872 53.6497 100.012 53.7705ZM24.5737 1.47726L24.0559 1.86449C20.6058 4.45185 17.2059 7.16435 14.6755 10.5277C12.0186 14.0593 10.3875 18.4385 11.1785 22.6717C12.3312 28.8405 18.3273 33.7533 18.5836 40.0082C18.6177 40.8391 19.5371 41.3562 20.3063 41.7924C23.342 43.514 25.5915 46.2464 27.0759 49.23C28.5139 52.1204 29.2816 55.2522 29.8399 58.3911L29.8933 58.6949C29.9764 59.1735 30.0372 59.7183 29.7016 60.0919C29.3661 60.4655 28.5034 60.3347 28.5368 59.851C28.9306 54.1638 26.6846 48.3619 22.4721 44.1848C21.3779 43.0997 20.1067 42.0938 18.5657 41.669C18.4676 43.8595 17.6661 46.0918 15.9695 47.631C14.2728 49.1701 11.5963 49.8733 9.39988 49.024C7.20347 48.1746 5.85977 45.61 6.84828 43.6152C7.67636 41.9441 9.73288 41.0999 11.6909 40.7442C13.6121 40.3951 15.6036 40.3769 17.532 40.6908C17.7914 40.733 17.9045 40.3993 17.8993 40.1568C17.7598 33.6553 11.2291 28.5651 10.3718 22.1103C9.90334 18.5827 11.2113 15.0317 13.1094 11.9367C15.602 7.87235 19.148 4.35934 23.3691 1.77243L23.4796 1.70646C23.8177 1.5106 24.2119 1.34355 24.5737 1.47726ZM46.0767 34.5912C45.1317 35.1506 45.156 36.392 45.0778 37.4235C44.9706 38.8384 44.4419 40.2546 43.4109 41.309C42.3799 42.3633 40.8135 43.0109 39.2842 42.8339C38.8886 42.7881 38.7684 43.3149 38.8202 43.6788C39.7092 49.9145 43.8198 56.0366 50.2089 58.2694C54.1148 59.6344 58.5268 59.4531 62.5091 58.2896C66.3965 57.1538 69.915 55.1338 73.1305 52.8214L73.3653 52.6517C73.8316 52.3128 74.3004 51.9597 74.6244 51.5014C74.9531 51.0366 75.1148 50.4868 75.1936 49.937C75.6155 46.9916 73.4766 43.9097 70.3952 43.0231C70.0326 42.9188 70.1165 42.3774 70.4347 42.1863C70.7529 41.9953 71.1626 42.0082 71.526 41.906C72.5104 41.6293 72.9632 40.5975 73.1879 39.6732C73.4966 38.4031 73.5832 36.9547 72.7279 35.9182C71.572 34.5175 69.3244 34.5193 67.4187 34.6535L64.3264 34.8714C63.2592 34.9466 61.8853 35.2927 61.8353 36.2766C61.7274 38.3958 60.713 40.5067 58.9208 41.8411C57.1285 43.1754 54.5476 43.6368 52.4199 42.82C50.3261 42.0161 48.8468 39.9186 49.0887 37.8476L49.1018 37.7474C49.2278 36.8714 49.1584 35.9202 48.6007 35.2008C48.043 34.4814 46.8843 34.1131 46.0767 34.5912ZM71.6174 1.47593C70.2386 1.83666 68.914 2.41848 67.8255 3.27683C66.3042 4.47641 65.2928 6.20985 65.0467 8.03947C64.9595 8.68775 65.0996 9.52385 65.7838 9.69801C67.4551 10.1235 68.9506 11.11 69.925 12.4301C68.3449 11.5648 66.6128 10.9353 64.8167 10.5733L72.4084 14.5264C72.8485 14.7556 73.3054 14.9989 73.5821 15.3883C73.8588 15.7778 73.8878 16.3589 73.5076 16.6657L72.9769 16.2856C71.6468 15.3383 70.2871 14.42 68.7985 13.7031C67.6665 13.158 66.4718 12.7351 65.2706 12.3322L64.6151 12.1138C62.3914 11.3755 60.1475 10.6326 57.8054 10.3376C55.6315 10.0638 53.3996 10.1854 51.276 10.6932L50.8571 10.792C47.9884 11.46 44.9971 12.0063 42.6253 13.6204C41.2145 14.5805 40.1096 15.8659 39.0606 17.1603L38.8131 17.4692C36.7288 20.1027 34.8242 23.3494 36.0437 26.3709C41.6425 25.7362 46.0043 21.7498 51.0762 19.4774C51.4639 19.3037 52.1032 19.2506 52.1621 19.6436L46.4867 22.7299C46.6443 23.5269 46.4954 24.3723 46.0723 25.0826C50.2189 24.0044 54.0955 22.0574 57.3255 19.4331L57.5308 19.2646C58.0431 18.8402 59.0303 18.489 59.2486 19.0907L58.9709 19.2335C57.9524 19.7607 56.9392 20.3373 56.2371 21.1911C55.4712 22.1224 55.1663 23.4763 55.8452 24.4632L63.0098 20.5811C63.3008 20.4234 63.6183 20.2601 63.9542 20.2925C64.29 20.325 64.6049 20.6579 64.4598 20.9385L64.2162 20.9853C63.4428 21.1365 62.6586 21.3259 62.0565 21.7895C61.391 22.3019 61.0463 23.2624 61.5409 23.9185C62.428 25.0954 63.1478 26.3789 63.6764 27.7261C63.6879 27.137 64.5604 26.8358 65.1357 27.0944C65.711 27.3531 66.0153 27.9368 66.2238 28.4939C66.8201 30.0876 66.9776 31.8185 66.6777 33.4813C68.4794 34.0667 70.5925 33.3751 72.3255 34.1157C73.934 34.803 74.721 36.5859 74.6092 38.2147C74.4974 39.8435 73.661 41.3495 72.7679 42.7595C75.2641 44.5391 76.5975 47.6046 76.1252 50.4777C76.5605 50.4124 76.9282 50.0668 76.99 49.6649L77.9799 50.2398C76.4315 51.0452 75.3299 52.5398 75.0894 54.1616C81.8924 48.3032 84.151 39.0183 83.1695 30.4921L83.1311 30.1741C82.7421 27.0951 81.8165 23.8858 79.3003 21.8463C80.6493 21.1306 82.3795 21.4121 83.823 20.8746C85.1869 20.3668 86.1241 19.1898 86.7572 17.9676C88.8738 13.8818 88.1449 8.6833 84.9707 5.22568C81.7965 1.76805 76.3486 0.238215 71.6174 1.47593ZM49.3777 52.7169C49.5923 52.7496 49.8357 52.8163 49.9198 53.0009C50.054 53.2957 49.678 53.5652 49.3525 53.6767C48.88 53.8387 48.3839 53.9425 47.8817 53.9843C47.4603 54.0193 46.9287 53.9445 46.7984 53.5741C46.7127 53.3305 46.8615 53.0569 47.0868 52.9067C47.3121 52.7564 47.5969 52.7057 47.8735 52.6782C48.3737 52.6283 48.8813 52.6414 49.3777 52.7169ZM41.6819 48.4917C43.1625 50.0929 45.4786 50.9408 47.7631 50.9573C50.0477 50.9739 52.289 50.2139 54.1857 49.0418L54.3452 48.9432C54.5861 48.7959 54.836 48.6575 55.1185 48.6123C55.4638 48.557 55.8744 48.6904 55.9918 48.9943C54.008 50.5447 51.5213 51.5687 48.9292 51.7851C46.3372 52.0016 43.6524 51.3896 41.5374 49.9937C41.1558 49.7419 40.7614 49.4105 40.7456 48.9787C40.7298 48.5468 41.3776 48.1627 41.6819 48.4917ZM10.6494 41.7097C9.61993 42.0119 8.58385 42.4548 7.93436 43.2495C6.96954 44.4301 7.13826 46.2215 8.18031 47.3451C9.22237 48.4687 10.9845 48.9173 12.5565 48.6187C14.1286 48.32 15.4935 47.344 16.3769 46.1106C17.2603 44.8772 17.6928 43.4048 17.8239 41.9326C17.8459 41.6858 17.7971 41.359 17.5326 41.3137C15.2495 40.9228 12.8619 41.0602 10.6494 41.7097ZM47.1297 35.9569C47.1726 36.2965 47.0299 36.6297 46.8986 36.9495C46.1572 38.7567 45.706 40.6643 45.5639 42.5916C45.5409 42.9038 45.5278 43.2275 45.6522 43.5187C45.7697 43.7937 46.0423 44.033 46.3585 44.0494L46.4148 44.0499C46.7026 44.0406 46.8392 44.4354 46.6581 44.6415C46.4771 44.8476 46.1374 44.8707 45.8613 44.7951C45.2946 44.6398 44.8883 44.1544 44.7239 43.6317C44.5594 43.109 44.6015 42.5509 44.6838 42.012C44.963 40.185 45.6878 38.4136 45.7234 36.5689C45.7334 36.0484 45.849 35.3467 46.413 35.3053C46.7833 35.2781 47.0867 35.6174 47.1297 35.9569ZM54.1746 29.7909C52.9973 30.0139 52.0984 30.9027 51.4878 31.8555C50.2369 33.8075 49.8805 36.2278 50.5218 38.4158C50.8097 39.3982 51.3019 40.3477 52.0742 41.076C52.8465 41.8042 53.9194 42.293 55.0249 42.2762C55.7966 42.2644 56.5456 42.0124 57.2159 41.6604C59.4545 40.4851 60.8766 38.1032 60.7543 35.7342C60.632 33.3652 58.9708 31.1181 56.6212 30.1434C55.8561 29.826 54.9967 29.6353 54.1746 29.7909ZM37.925 28.8197C35.8214 29.5369 34.4633 31.5473 34.1739 33.5945C33.8844 35.6417 34.5084 37.7126 35.3979 39.6079C35.6374 40.1183 35.9097 40.6372 36.3696 40.9978C36.8296 41.3583 37.5259 41.5199 38.0485 41.2409C38.2917 41.111 38.519 41.4148 38.7036 41.61C39.0714 41.9991 39.7184 42.0322 40.2679 41.9312C42.0782 41.5983 43.4694 40.1425 44.0325 38.5247C44.5768 36.9607 44.4607 35.2679 44.139 33.6496L44.105 33.4824C43.7658 31.8503 42.9994 30.0161 41.2726 29.5301C40.3673 29.2753 39.2751 29.4242 38.5752 28.8374C38.4063 28.6957 38.1394 28.7466 37.925 28.8197ZM71.3558 35.7398C72.0674 36.4654 71.7762 37.5921 71.4203 38.523L71.3913 38.5981C71.2489 38.9632 71.1013 39.3369 70.829 39.6329C70.5567 39.929 70.129 40.1357 69.7163 40.0567C69.3037 39.9777 68.9821 39.5373 69.1555 39.1837C69.3706 38.7449 70.1019 38.7225 70.3658 38.3068L69.6527 38.2449C69.1725 38.2032 68.6554 38.1471 68.2997 37.8473C67.9439 37.5475 67.8992 36.9131 68.3318 36.7167C68.6316 36.5806 68.9927 36.714 69.2702 36.8856C69.5478 37.0572 69.8133 37.2744 70.1438 37.3212C70.4742 37.3679 70.876 37.1291 70.808 36.8278C70.7132 36.4085 70.9469 35.9443 71.3558 35.7398ZM55.08 38.5722C55.1363 38.8607 55.157 39.1667 55.0397 39.4391C54.9224 39.7116 54.6364 39.9396 54.3182 39.9274C53.8254 39.9085 53.5615 39.3862 53.4754 38.9392C53.3691 38.387 53.5352 37.6271 54.143 37.586C54.6631 37.5508 54.9876 38.0999 55.08 38.5722ZM39.8959 37.4C40.1414 37.7292 40.1067 38.1691 40.0092 38.5581C39.8844 39.0559 39.5706 39.6113 39.0184 39.6633C38.5197 39.7102 38.0939 39.2996 37.9308 38.8634C37.7318 38.3311 37.8284 37.6807 38.28 37.301C38.7317 36.9213 39.5498 36.9358 39.8959 37.4ZM40.3556 31.7819C40.576 31.8751 40.7314 32.1307 40.6198 32.3289L40.4066 32.3804C39.193 32.6784 37.8992 33.0932 37.3195 34.103C37.1806 34.345 37.0905 34.612 36.9175 34.8346C36.7445 35.0573 36.4529 35.2342 36.1618 35.1778C35.8302 35.1136 35.6383 34.7623 35.6737 34.4521C35.7091 34.1419 35.9142 33.8715 36.1339 33.634C37.0273 32.668 38.2863 31.9941 39.6404 31.7571C39.8787 31.7154 40.1352 31.6887 40.3556 31.7819ZM55.8665 32.3396C56.2294 32.6087 56.5052 32.9673 56.8719 33.232C57.1818 33.4556 57.5733 33.6325 57.7141 33.9709C57.8549 34.3093 57.4313 34.7872 57.1241 34.5606C56.3218 33.969 55.4312 33.4789 54.4852 33.1084C54.0564 32.9405 54.1537 32.2764 54.572 32.0874C54.9904 31.8983 55.5036 32.0705 55.8665 32.3396ZM51.3716 30.2174C50.5808 30.4573 50.0189 31.223 50.0726 31.9876C50.375 31.8452 50.6054 31.5791 50.6887 31.276L50.6768 31.2453C51.0278 30.9901 51.278 30.62 51.3716 30.2174Z" fill="#902920"/>
<path fill-rule="evenodd" clip-rule="evenodd" d="M6.81397 121.855C7.1321 121.858 7.4247 121.994 7.70264 122.143L7.85285 122.225C9.55652 123.164 11.3543 123.958 13.2158 124.593C13.4716 124.681 13.3921 125.076 13.1428 125.178C12.8934 125.28 12.6057 125.189 12.3514 125.098L6.85382 123.13C6.50202 123.004 6.09365 122.812 6.0628 122.465C6.03207 122.121 6.43801 121.852 6.81397 121.855Z" fill="#E7EAEE"/>
<path fill-rule="evenodd" clip-rule="evenodd" d="M-1.95005 116.344L15.0567 121.896L15.1636 121.933C15.6131 122.094 16.0992 122.371 16.0512 122.798C16.012 123.146 15.5935 123.37 15.2135 123.359C14.892 123.349 14.595 123.217 14.3108 123.072L14.157 122.993C11.7858 121.755 9.29785 120.734 6.74627 119.852C3.8559 118.853 0.883815 118.032 -2.09303 117.276C-2.54827 117.16 -3.12515 116.786 -2.8641 116.424C-2.68102 116.17 -2.2622 116.242 -1.95005 116.344Z" fill="#E7EAEE"/>
</svg>
