<svg width="136" height="220" viewBox="0 0 136 220" fill="none" xmlns="http://www.w3.org/2000/svg">
<path fill-rule="evenodd" clip-rule="evenodd" d="M19.7352 6.40433C18.5936 6.5815 17.5878 7.7511 17.3412 9.18802C26.5824 2.83172 37.7442 1.19761 47.8689 4.71869C47.8776 11.2508 44.2958 17.5335 39.4313 19.5188L28.8851 23.8229C31.6672 24.2176 34.5257 23.6958 37.1105 22.3212C38.0287 24.1723 39.5415 25.5243 41.2161 25.9904L37.9743 26.8999C38.4522 28.7629 39.4281 30.4104 40.7009 31.5028C39.6208 31.0296 38.419 31.0248 37.3365 31.4893L38.0623 34.8612C33.2822 34.013 28.1747 34.8456 24.1486 38.2494C20.1225 41.6531 17.4189 47.9101 18.1444 54.0136C18.9934 47.3777 22.5481 41.4074 27.3233 38.5973C32.0984 35.7871 37.9552 36.2187 42.4465 39.7118L39.3999 42.5988C40.57 43.1942 41.9564 43.0421 43.0302 42.2005C45.3752 43.5277 44.7259 49.0166 42.179 49.3968L45.548 49.6964C46.132 57.0253 42.593 64.5832 37.2664 67.3826C31.9398 70.1821 25.2697 67.9898 21.6576 62.2523C17.1739 65.1815 17.4882 74.0592 20.6837 79.0361C22.9144 82.5103 25.9864 84.7674 29.0634 87.0282C30.3943 88.006 31.7261 88.9845 32.9912 90.0625C39.7116 95.789 44.7213 104.719 46.8108 114.697C43.1614 117.823 39.9152 121.718 37.2426 126.176C41.1968 125.94 45.0692 123.877 47.985 120.452L48.6075 128.157C45.4064 129.418 42.53 131.992 40.5065 135.407C43.3595 135.779 46.3016 134.926 48.7508 133.018C47.8735 141.884 46.2902 150.635 44.0333 159.092L36.6754 159.015C38.4211 152.843 40.1893 146.203 38.9032 139.85C37.6171 133.496 31.8487 128.251 27.3085 131.307C32.5302 125.923 36.4843 118.552 38.5337 110.383L25.3843 132.097L15.2937 132.206C14.9764 126.124 14.6712 119.89 16.0228 114.045C17.3743 108.2 20.7489 102.728 25.3984 101.395C25.903 101.25 26.44 101.133 26.9841 101.013C29.2566 100.515 31.6528 99.9902 32.32 97.3629C24.7828 96.8021 17.2275 102.975 14.4551 111.959C12.4796 118.36 12.8277 125.496 13.2061 132.361C6.2382 131.076 -0.89653 131.282 -7.81184 132.97C-9.01238 127.735 -10.2573 122.383 -12.7756 117.98C-15.2938 113.577 -19.382 110.237 -23.6254 110.781C-16.7915 112.08 -13.4063 121.795 -10.8294 129.995C-8.25243 138.196 -3.57451 147.563 3.30527 146.752C5.2646 146.521 5.88831 150.638 4.38667 152.265C2.88503 153.891 0.653748 153.581 -1.2684 153.043C-11.1697 150.271 -20.4139 143.767 -27.5463 134.555C-28.9351 132.761 -30.278 130.798 -30.9196 128.411C-31.7113 125.465 -31.3425 122.212 -30.6617 119.221C-27.1838 103.943 -16.4806 93.4741 -6.30882 84.3141C-0.836441 79.386 -1.03273 67.1737 -6.65884 62.5375C-10.8235 67.3791 -16.3765 70.7644 -21.97 69.9745C-27.5634 69.1847 -32.8571 63.326 -33.0375 56.1306C-31.2807 55.9326 -29.5588 55.2426 -28.0277 54.1232C-29.5306 53.44 -31.2244 53.4692 -32.7124 54.2039C-33.117 52.2648 -32.8216 50.1055 -31.9261 48.4575L-28.737 48.0216C-29.3781 47.0942 -30.2723 46.459 -31.2265 46.2532C-28.925 41.3469 -23.5832 40.0041 -19.3024 41.662C-15.0215 43.3199 -11.5546 47.2697 -8.23773 51.1083C-11.6964 41.4075 -21.0747 38.2806 -29.263 36.2926L-25.6899 33.5846C-27.7548 32.8647 -30.033 33.2032 -31.914 34.5094C-30.686 36.4555 -29.0284 37.953 -27.184 38.7826C-30.1319 44.1507 -35.3351 47.3546 -40.4537 46.9535C-45.4861 46.5591 -50.6113 48.5302 -54.6394 52.4092C-48.0934 49.0041 -40.9421 47.5194 -33.8903 48.1013L-35.0623 54.5982C-39.1331 55.572 -43.0178 57.7957 -46.2981 61.0297L-35.2109 56.2396C-34.0999 63.5057 -29.6074 69.751 -24.0393 71.7701C-18.4712 73.7891 -12.0852 71.4883 -8.15908 66.0487C-3.99217 67.1062 -2.99243 74.8023 -5.27025 79.3896C-7.07386 83.0219 -10.0239 85.2844 -12.9484 87.5272L-12.9486 87.5274L-12.9488 87.5276L-12.949 87.5277L-12.9492 87.5279L-12.9494 87.528L-12.9496 87.5282L-12.9498 87.5284L-12.95 87.5285L-12.9502 87.5287L-12.9504 87.5288L-12.9506 87.529L-12.9513 87.5295C-13.7192 88.1185 -14.4854 88.7061 -15.2286 89.3168C-24.1754 96.6699 -30.6481 108.783 -32.7555 122.117C-34.8629 135.451 -32.5771 149.83 -26.566 161.052C-36.4945 165.859 -43.0955 180.011 -41.6877 193.471C-41.6554 193.78 -41.6196 194.09 -41.5837 194.401L-41.5837 194.401C-41.3712 196.242 -41.1544 198.122 -41.6429 199.851C-42.214 201.874 -44.2652 203.372 -45.6132 202.087C-49.4589 198.424 -53.9686 195.91 -58.6839 194.8C-61.4598 194.146 -65.5335 195.615 -64.9422 199.146C-64.745 200.323 -64.0204 201.221 -63.3171 202.021C-56.0194 210.319 -47.1308 216.311 -37.6545 219.32C-35.5102 220 -33.128 220.496 -31.1843 219.152C-28.417 217.239 -27.9627 212.949 -27.5064 208.639C-27.0578 204.403 -26.6072 200.148 -23.9557 198.113C-21.5614 196.275 -18.611 197.306 -15.8456 198.272L-15.8443 198.272L-15.8353 198.275C-15.4694 198.403 -15.1067 198.53 -14.7491 198.648C-8.17334 200.829 -1.35401 199.997 5.46827 199.164L5.4685 199.164C8.16145 198.835 10.8549 198.507 13.5339 198.363C20.9672 197.965 28.4469 199.02 35.634 201.479C38.1371 202.335 40.6258 200.737 42.9959 199.216C43.3481 198.99 43.6976 198.765 44.0441 198.551C46.7232 196.893 50.3948 196.02 52.3061 198.938C53.0619 200.092 53.341 201.57 53.6216 203.057C53.7604 203.792 53.8996 204.529 54.097 205.23C55.3843 209.799 59.2441 212.598 63.0343 212.869C66.8245 213.141 70.5256 211.302 73.8377 208.929C80.1126 204.433 85.4797 197.884 89.2861 190.078C89.7292 189.169 90.167 188.159 90.0783 187.094C89.8439 184.28 86.6807 184.059 84.5704 184.907C78.8612 187.2 73.6128 191.345 69.4521 196.847C67.4959 194.565 66.5438 190.959 67.0182 187.627C78.6499 177.338 91.0343 166.697 105.14 165.418C107.352 165.217 109.598 165.248 111.84 165.279C116.711 165.347 121.568 165.414 126.033 163.109C134.26 158.862 139.012 144.5 133.858 135.263C129.893 128.156 122.14 126.479 115.342 127.258C103.852 128.574 92.7923 135.342 84.7806 145.96C82.5546 148.911 80.5234 152.176 78.4959 155.435C74.1088 162.488 69.7392 169.513 63.4506 173.256C59.181 165.701 52.4898 160.459 45.289 159.027C50.63 146.419 52.0127 131.157 49.0673 117.321C46.122 103.485 38.8809 91.2277 29.2805 83.8259C28.7597 83.4244 28.2289 83.033 27.6969 82.6407L27.6951 82.6394L27.6948 82.6391L27.6945 82.6389L27.6942 82.6387L27.6939 82.6384L27.6936 82.6382L27.6933 82.638L27.693 82.6377L27.6927 82.6375L27.6924 82.6373L27.6921 82.6371L27.6918 82.6368L27.6915 82.6366L27.6912 82.6364L27.6909 82.6361L27.6906 82.6359L27.6903 82.6357L27.69 82.6355L27.6897 82.6352C25.2721 80.8523 22.8304 79.0517 21.1831 76.2129C19.1716 72.7466 18.9719 67.0528 21.7931 64.6841C25.5448 71.2699 33.4178 72.6922 38.9854 68.7327C44.553 64.7731 47.7237 56.464 47.8359 48.3161L62.2377 47.8472C57.3965 45.7754 52.108 45.4442 47.1317 46.9012L45.4062 40.8903L56.8336 38.9737C52.6176 37.6153 48.0993 37.8318 43.9745 39.5897C43.0373 37.2414 41.6082 35.218 39.8766 33.7878C41.5024 34.0237 43.1909 33.4668 44.5249 32.2547L40.7756 28.4376C42.3288 28.8027 44.0145 27.5002 44.4848 25.5716L38.4837 22.4663L62.1725 7.96462C61.163 7.94187 60.1526 7.9894 59.1473 8.10693L62.2094 5.5167C57.5342 6.23967 52.9228 4.55611 48.3172 2.87465C43.5499 1.13412 38.7886 -0.604162 33.9691 0.331309C32.0757 0.698814 30.1703 1.4694 28.2757 2.23562C24.3658 3.81687 20.502 5.37948 16.8849 3.34207C9.52483 -0.803697 0.893555 -1.10737 -6.63356 2.51463C-7.29917 2.83491 -7.97535 3.18485 -8.65818 3.53823C-12.4161 5.48301 -16.3756 7.53215 -19.886 5.31847C-24.1106 2.65439 -29.2339 4.21256 -33.4697 6.84722C-34.9567 7.77209 -36.3999 8.82416 -37.8418 9.87536C-40.5075 11.8187 -43.1691 13.759 -46.0958 14.8871C-39.4913 20.0655 -32.0119 23.4074 -24.3234 24.6153C-23.379 25.5487 -23.7089 27.6242 -24.651 28.5614C-25.5931 29.4986 -26.867 29.6175 -28.0587 29.6989C-27.7519 32.4152 -25.0161 34.1355 -23.1476 32.787C-23.9328 32.9736 -23.9914 31.3417 -23.6652 30.4091L-21.6295 24.5894C-20.0486 25.332 -18.0809 24.1405 -17.5278 22.1055C-21.4428 22.7083 -25.505 23.2947 -29.2554 21.7366C-33.0059 20.1784 -36.3569 15.8316 -36.1811 10.7921C-27.8291 4.60158 -16.617 5.4398 -8.88551 12.8327C-9.48247 10.6038 -10.9498 8.78806 -12.711 8.09891C-10.6776 5.53793 -7.97832 3.85725 -5.14832 3.39C-6.82952 5.09167 -7.59999 8.13393 -7.01822 10.7735L0.530251 1.89182C-0.708 4.73171 -1.40159 7.95698 -1.47307 11.2075C1.3265 8.86711 3.55688 5.4289 4.83891 1.47739L8.19694 2.08055C6.14112 4.30259 4.99581 7.83339 5.21783 11.2647C7.77645 9.22969 9.76014 6.03797 10.7333 2.39036C13.8864 3.04204 16.9486 4.40746 19.7352 6.40433ZM112.492 163.633C110.804 163.562 109.114 163.49 107.435 163.551C94.9335 164.005 83.3113 171.795 72.997 180.842L72.7206 181.085L72.5654 181.222L72.5628 181.224L72.5627 181.224C70.6054 182.946 68.6288 184.685 66.3944 185.701L63.7695 175.914C63.6287 175.389 63.5419 174.667 63.9236 174.403C67.9374 171.627 71.6024 168.027 74.7361 163.784C76.8242 160.957 78.6762 157.85 80.526 154.747C83.1456 150.353 85.7609 145.966 89.0359 142.391C94.2657 136.681 100.849 133.413 107.455 130.976C112.344 129.172 117.467 127.757 122.496 128.748C127.525 129.738 132.476 133.578 134.32 139.644C135.784 144.463 135.068 150.146 132.811 154.435C130.555 158.724 126.891 161.643 122.965 162.867C119.55 163.932 116.024 163.783 112.492 163.633ZM-31.3459 184.366C-31.0816 185.171 -30.9149 186.244 -31.4426 186.797C-32.1222 187.509 -33.0865 186.591 -33.6576 185.737L-38.5254 178.46C-39.6908 182.336 -40.2254 186.52 -40.0854 190.668C-40.0573 191.501 -40.0043 192.346 -39.951 193.194L-39.951 193.194C-39.7476 196.434 -39.5414 199.718 -40.7146 202.528C-41.2291 203.76 -42.1048 204.892 -43.1947 204.982C-43.8125 205.033 -44.4141 204.744 -44.9843 204.436C-46.5471 203.59 -48.087 202.551 -49.6264 201.512L-49.6266 201.512C-53.5894 198.838 -57.5492 196.166 -61.8885 196.804C-62.4811 196.891 -63.2191 197.265 -63.1959 198.027C-63.1856 198.369 -63.0114 198.662 -62.8421 198.927C-56.5858 208.701 -46.8023 213.441 -37.3315 217.02C-35.7826 217.605 -34.1501 218.175 -32.5729 217.731C-30.9956 217.286 -29.5315 215.467 -29.722 213.415C-30.2259 207.987 -28.8963 202.32 -26.139 198.144C-25.0383 196.477 -23.6465 194.993 -21.9763 194.549C-19.9247 194.004 -17.9196 195.085 -15.9449 196.15C-15.4376 196.424 -14.9323 196.696 -14.4287 196.94C-10.5687 198.807 -6.2299 199.01 -2.27326 197.511C-3.82012 197.485 -4.56308 195.112 -4.88369 193.176C-6.96079 180.633 -8.06507 167.826 -8.17505 155.006C-8.187 153.611 -8.95141 152.379 -9.87344 151.636C-10.654 151.007 -11.5438 150.657 -12.4288 150.309C-12.5893 150.245 -12.7496 150.182 -12.909 150.118C-16.1315 148.812 -19.1679 146.759 -21.8267 144.088C-22.1608 143.753 -22.4899 143.407 -22.819 143.061L-22.8195 143.06L-22.82 143.06L-22.8205 143.059L-22.821 143.059L-22.8218 143.058C-23.8394 141.988 -24.8578 140.917 -26.026 140.15C-27.5731 139.135 -29.4878 138.721 -31.0384 139.728C-31.3843 140.782 -30.7589 142.007 -29.9585 142.516C-29.3523 142.902 -28.6733 143.006 -27.9958 143.111C-27.7787 143.144 -27.5618 143.178 -27.3475 143.22C-26.3284 143.423 -25.3365 143.847 -24.4274 144.47C-23.4723 145.124 -22.5678 146.852 -23.4189 147.71C-23.7679 148.061 -24.2572 148.037 -24.7003 147.995L-29.6986 147.525C-28.4801 151.766 -26.9266 155.849 -25.0695 159.693C-24.9028 160.038 -24.6803 160.421 -24.3632 160.425C-19.4663 160.481 -13.998 161.358 -10.8947 166.205C-10.3066 167.123 -9.82403 168.451 -10.3284 169.448C-13.1729 165.054 -17.6225 162.437 -22.0815 162.535C-26.5406 162.634 -30.9168 165.445 -33.6411 169.963C-31.2366 172.021 -29.3251 175.01 -28.2231 178.432C-27.8904 179.466 -27.9516 181.156 -28.8253 181.133L-34.0722 172.915C-34.3066 172.547 -34.5883 172.149 -34.9588 172.134C-35.2559 172.122 -35.5178 172.366 -35.7535 172.597C-36.2639 173.099 -36.7935 173.631 -37.0599 174.381C-37.3263 175.13 -37.2272 176.162 -36.6722 176.579C-34.307 178.356 -32.4088 181.131 -31.3459 184.366ZM28.4726 197.228C31.8421 193.633 32.9411 187.712 33.8459 182.219L37.1616 162.092C37.1971 161.877 37.2377 161.649 37.3587 161.493C37.5183 161.287 37.7686 161.264 37.9953 161.255C44.0392 161.022 50.4737 161.758 55.3417 166.347C53.3554 167.607 51.6191 169.506 50.3374 171.82C49.9778 172.469 49.6774 173.446 50.1403 173.977C50.3139 174.177 50.5558 174.247 50.7885 174.268C51.9489 174.374 53.0088 173.447 53.8568 172.428C54.0392 172.209 54.2183 171.982 54.3976 171.755L54.3979 171.755L54.3981 171.755L54.3984 171.754L54.3986 171.754L54.3989 171.754C55.0528 170.926 55.7096 170.095 56.5394 169.609C57.5971 168.989 59.0665 169.163 59.6502 170.45C57.7637 171.68 56.2092 173.725 55.3015 176.172C55.0651 176.809 54.8699 177.545 55.0613 178.207C55.2527 178.868 56.0058 179.256 56.3759 178.733L60.0207 173.586C60.197 173.337 60.4419 173.063 60.6885 173.179C60.8217 173.241 60.9086 173.402 60.9848 173.555C62.9164 177.432 63.6842 181.947 64.4553 186.481C64.9068 189.137 65.3594 191.798 66.0475 194.343C66.5989 196.382 67.6633 198.672 69.3496 198.673C70.2816 198.674 71.1059 197.94 71.8436 197.212C72.632 196.433 73.4166 195.617 74.2049 194.796C77.9117 190.937 81.7025 186.99 86.3707 186.518C87.1066 186.443 88.0508 186.651 88.2235 187.569C88.3238 188.102 88.0994 188.639 87.8759 189.107C84.4059 196.373 79.2014 202.101 73.4516 206.39C70.5077 208.585 67.2798 210.471 63.8723 210.505C60.4648 210.538 56.8567 208.31 55.5691 204.274C55.3065 203.45 55.1458 202.581 54.9853 201.713C54.7996 200.709 54.6142 199.705 54.2713 198.775C53.3878 196.378 51.4296 194.69 49.3609 194.543C47.3912 194.404 45.5797 195.526 43.7722 196.646C43.1373 197.04 42.5028 197.433 41.8621 197.771C37.6084 200.016 32.6067 199.813 28.4726 197.228ZM5.98095 153.896C4.71268 155.281 3.00654 155.833 1.34373 155.99C-1.6522 156.271 -4.70943 155.374 -7.30997 153.45L-6.237 158.646C-6.19078 158.87 -6.13566 159.111 -5.99033 159.249C-5.86406 159.369 -5.69696 159.384 -5.53997 159.394L9.87804 160.431C12.1258 160.582 14.3765 160.733 16.6264 160.65C22.937 160.416 29.2008 158.309 34.7846 154.54C35.1067 154.322 35.4349 154.091 35.6669 153.732C35.9434 153.304 36.0527 152.743 36.1452 152.2C36.9272 147.611 37.0624 142.843 36.5425 138.193C36.4148 137.051 36.2368 135.88 35.735 134.922C35.2331 133.963 34.3305 133.262 33.4446 133.478C24.371 135.688 15.1086 135.006 5.84694 134.323L5.84641 134.323C2.35594 134.066 -1.13443 133.808 -4.61453 133.706C-5.23588 133.688 -5.88947 133.684 -6.43528 134.064C-6.98109 134.445 -7.35682 135.347 -7.07644 136.057C-5.48939 140.074 -2.21035 142.637 1.18956 143.793C1.43354 143.876 1.68326 143.957 1.93593 144.04L1.93655 144.04C4.13582 144.756 6.5579 145.544 7.35651 148.163C7.96247 150.15 7.24922 152.512 5.98095 153.896ZM30.7177 187.94C30.0958 191.099 28.7884 194.376 26.4161 195.561C25.5862 195.976 24.6876 196.099 23.8006 196.205C15.576 197.184 7.26345 196.948 -0.91909 195.503C-1.40633 195.417 -1.91992 195.312 -2.29968 194.912C-2.76211 194.425 -2.91892 193.619 -3.04011 192.869C-3.41162 190.569 -3.69949 188.246 -3.90245 185.912C-3.9384 185.499 -3.84872 184.909 -3.52455 184.941C1.71138 185.462 6.96235 185.736 12.2141 185.761C15.8368 185.779 19.4882 185.675 23.0264 184.679C26.5646 183.684 30.0144 181.738 32.601 178.493C31.8656 180.469 31.5491 182.627 31.2321 184.788C31.0771 185.845 30.922 186.902 30.7177 187.94ZM13.0286 174.821C12.6929 175.239 12.3318 175.735 12.3554 176.334C12.3791 176.932 13.081 177.379 13.3231 176.866C14.6447 174.065 16.9429 172.052 19.4618 171.488C21.9806 170.924 24.6768 171.819 26.6634 173.879C26.8698 174.093 27.0695 174.319 27.2693 174.545C27.7403 175.079 28.211 175.613 28.7671 175.982C29.0521 176.171 29.54 176.176 29.5518 175.766C29.5557 175.631 29.4954 175.508 29.4362 175.396C28.0097 172.707 25.8766 170.642 23.4654 169.617C21.3518 168.718 18.9027 168.662 17.0124 170.168C16.3259 170.716 15.7405 171.443 15.1609 172.165L13.0286 174.821ZM-4.72619 173.291C-2.90392 170.639 0.0421982 169.464 2.77868 169.927C5.51516 170.39 8.01809 172.362 9.8363 175.019C10.1566 175.487 10.4707 176.16 10.211 176.686C9.99355 177.126 9.4736 177.158 9.11637 176.908C8.80471 176.69 8.58221 176.321 8.36338 175.959C8.33138 175.906 8.29946 175.853 8.26736 175.801C6.65787 173.181 4.02806 171.644 1.42661 171.801C-1.17484 171.958 -3.6798 173.805 -5.08938 176.607C-5.45648 176.198 -5.56036 175.497 -5.44984 174.891C-5.33933 174.284 -5.04743 173.759 -4.72619 173.291ZM22.0807 166.341C22.0384 166.933 22.6496 167.301 23.0888 167.107C23.4842 166.933 23.7596 166.496 24.0252 166.075C24.0547 166.029 24.0841 165.982 24.1135 165.936C26.5598 162.108 31.218 160.955 34.6038 163.339C35.0479 162.859 35.0732 161.939 34.776 161.3C34.4788 160.661 33.9362 160.268 33.3825 160.042C32.1832 159.552 30.8811 159.719 29.647 160.038C26.7262 160.794 23.7757 162.566 22.2402 165.833C22.166 165.991 22.0938 166.158 22.0807 166.341ZM7.09898 179.823C8.22269 179.273 9.39765 178.866 10.598 178.76C13.5678 178.496 16.6032 180.202 18.4597 183.179C17.6687 183.902 16.6273 183.022 15.8146 182.336L15.8066 182.329C13.2127 180.138 9.66886 179.941 6.93674 181.838C6.72356 181.986 6.50852 182.147 6.29167 182.31C5.2697 183.075 4.20734 183.871 3.10746 183.473C4.01663 181.691 5.54581 180.584 7.09898 179.823ZM15.5298 177.8C15.9955 177.489 16.4135 177.08 16.8315 176.67L16.8316 176.67L16.8317 176.67L16.8318 176.67L16.8319 176.67L16.832 176.67L16.8321 176.67L16.8322 176.669L16.8323 176.669L16.8324 176.669L16.8325 176.669L16.8325 176.669L16.8326 176.669L16.8327 176.669L16.8328 176.669L16.8329 176.669L16.833 176.669L16.8331 176.669L16.8332 176.668L16.8333 176.668L16.8334 176.668L16.8335 176.668L16.8335 176.668L16.8336 176.668L16.8337 176.668L16.8338 176.668C17.2323 176.277 17.631 175.887 18.0714 175.582C19.3152 174.721 20.8646 174.622 22.1695 175.319C22.5502 175.523 22.9075 175.788 23.2649 176.053C23.5726 176.282 23.8805 176.51 24.2036 176.699C24.9018 177.108 25.7333 177.321 26.4289 176.904C26.5061 176.858 26.586 176.797 26.6186 176.696C26.6715 176.533 26.5775 176.356 26.4863 176.223C24.9298 173.95 22.4909 172.719 20.1406 173.019C17.7902 173.319 15.5897 175.143 14.4151 177.764C14.6603 178.177 15.1704 178.039 15.5298 177.8ZM-1.86868 177.086C-2.1337 177.386 -2.39833 177.685 -2.7049 177.908C-3.19273 178.263 -3.84949 178.382 -4.29065 177.938C-4.42716 177 -3.68694 176.271 -3.0424 175.79C-1.45306 174.603 0.255081 173.378 2.09277 173.499C3.5629 173.596 4.90495 174.549 6.17474 175.501C6.48686 175.736 6.80722 175.981 7.0206 176.355C7.23399 176.729 7.31399 177.268 7.11462 177.654C6.91304 178.045 6.48872 178.16 6.13239 178.054C5.78933 177.952 5.49244 177.688 5.20262 177.43L5.16901 177.4C4.14163 176.488 3.0214 175.647 1.77914 175.462C0.664406 175.296 -0.497543 175.698 -1.38942 176.569C-1.55514 176.731 -1.71198 176.908 -1.86868 177.086ZM5.57155 168.795C5.90326 169.344 6.55289 168.756 6.91913 168.244C8.04736 166.667 9.67361 165.69 11.3428 165.588C13.0119 165.485 14.7038 166.258 15.9449 167.689L15.9993 167.752L16.0211 167.778C16.3118 168.117 16.6221 168.478 17.0095 168.492C17.4308 168.506 17.8104 167.754 17.4762 167.425C15.687 165.667 13.6051 164.23 11.3537 164.04C9.10223 163.85 6.67572 165.142 5.63337 167.702C5.49372 168.045 5.38671 168.489 5.57155 168.795ZM26.1199 167.665C25.9269 167.92 25.7314 168.177 25.4782 168.314C25.1811 168.475 24.773 168.398 24.6294 168.028C24.4778 167.638 24.6896 167.182 24.9103 166.85C27.077 163.589 31.1551 162.743 34.0159 164.963C34.4541 165.303 34.9135 165.962 34.6558 166.528C34.3467 167.208 33.5466 166.774 33.0146 166.38C30.8877 164.806 27.9529 165.304 26.2206 167.534C26.1869 167.577 26.1535 167.621 26.1199 167.665ZM27.0595 168.524C26.9366 168.655 26.8139 168.803 26.7622 168.997C26.6176 169.538 27.1323 170.046 27.5785 170C27.9014 169.967 28.1893 169.766 28.4771 169.565C28.587 169.488 28.6969 169.411 28.8087 169.344C29.7957 168.748 30.9817 168.89 31.9835 169.444C32.0785 169.496 32.1727 169.552 32.267 169.608C32.5663 169.787 32.8661 169.965 33.1907 170.028C33.6176 170.11 34.1157 169.929 34.3101 169.436C32.6124 166.744 29.1344 166.306 27.0595 168.524ZM0.979103 167.323C0.816078 167.614 0.470375 167.643 0.217018 167.491C-0.0183945 167.35 -0.19487 167.092 -0.36718 166.841L-0.406525 166.784C-1.59656 165.057 -3.13853 163.731 -4.83751 162.974C-5.27878 162.777 -5.83946 162.385 -5.71541 161.809C-4.49567 161.276 -3.1163 161.694 -2.02112 162.564C-0.925934 163.433 -0.0688248 164.709 0.727966 166.005C0.963272 166.388 1.20083 166.927 0.979103 167.323ZM15.2309 168.937C13.2259 167.301 10.4892 167.272 8.46342 168.866C8.11137 169.143 7.7496 169.532 7.72227 170.059C7.69495 170.587 8.25492 171.077 8.53261 170.685C9.65172 169.107 11.6964 168.779 13.0851 169.956C13.7669 170.534 14.746 170.455 15.3658 169.773C15.6585 169.733 15.479 169.139 15.2309 168.937ZM22.248 182.205C24.3159 179.686 26.9668 177.542 29.8158 177.788C30.1087 177.813 30.5017 178.129 30.3247 178.428L23.2599 182.34C22.912 182.532 22.3984 182.65 22.248 182.205ZM2.702 179.411C2.7715 179.461 2.84073 179.515 2.91019 179.569C3.19084 179.788 3.47542 180.01 3.79824 180.011C4.20097 180.011 4.60025 179.391 4.34485 178.992C3.54038 177.738 2.27603 176.987 1.00766 177.012C-0.260712 177.037 -1.50652 177.836 -2.28059 179.122C-2.1852 179.589 -1.73824 179.804 -1.36472 179.735C-1.09547 179.684 -0.849342 179.531 -0.603172 179.377L-0.602737 179.376C-0.507545 179.317 -0.412346 179.257 -0.315796 179.204C0.642319 178.673 1.79372 178.752 2.702 179.411ZM17.3966 179.683C17.1148 179.703 16.7969 179.428 16.8289 179.069C16.8407 178.937 16.897 178.818 16.9565 178.709C17.6096 177.507 18.79 176.893 19.934 176.88C21.078 176.866 22.1899 177.385 23.1999 178.072C23.4817 178.264 23.7989 178.569 23.7533 178.973C23.2852 179.61 22.51 179.268 21.8343 178.971C21.7593 178.938 21.6855 178.905 21.6135 178.874C20.4891 178.397 19.2111 178.547 18.1734 179.278C18.1551 179.291 18.1368 179.304 18.1185 179.317L18.0661 179.355C17.8539 179.509 17.6378 179.666 17.3966 179.683ZM14.7031 163.32C15.8807 163.86 16.9775 164.687 17.9172 165.743C17.9827 165.816 18.0478 165.891 18.1129 165.966C18.4328 166.335 18.7549 166.707 19.1453 166.932C19.6153 167.204 20.2252 167.211 20.5931 166.749C19.7793 165.95 19.1107 164.911 18.6548 163.735C18.4091 163.102 17.7545 162.986 17.2026 162.952L14.783 162.8C14.6979 162.947 14.6677 163.143 14.7031 163.32ZM4.84221 165.977C4.63501 166.314 4.42799 166.652 4.18325 166.944C3.76682 167.442 3.19247 167.806 2.63612 167.649C3.20145 165.895 4.1152 164.326 5.26772 163.132C6.09062 162.279 7.28123 162.466 8.32468 162.698C8.38033 163.18 7.89603 163.421 7.52773 163.547C6.67402 163.838 5.88824 164.448 5.29164 165.282C5.13309 165.503 4.98769 165.74 4.84239 165.977L4.84221 165.977ZM-5.09205 166.34L-2.84866 168.21C-2.53211 168.474 -2.1279 168.744 -1.7995 168.505C-1.49475 168.283 -1.44814 167.711 -1.60699 167.312C-1.76585 166.912 -2.06875 166.644 -2.35958 166.394L-4.18606 164.82C-4.69595 164.381 -5.52648 164.031 -5.80384 164.733C-6.04295 165.338 -5.53606 165.97 -5.09205 166.34ZM11.7039 174.366C11.3403 174.589 10.9393 174.197 10.6532 173.833L9.71908 172.647C9.60936 172.508 9.49088 172.339 9.50996 172.142C9.52198 172.019 9.58765 171.915 9.65501 171.825C10.5321 170.651 12.1985 170.683 13.0474 171.891L12.0747 173.857C11.9764 174.056 11.8697 174.265 11.7039 174.366ZM-2.43291 183.205C-1.82478 183.478 -1.10706 183.559 -0.570702 183.102C-1.37811 181.914 -2.32446 180.881 -3.36848 180.047C-3.66467 179.811 -3.99858 179.582 -4.34421 179.645C-4.68984 179.708 -4.99576 180.211 -4.82838 180.603C-4.3147 181.806 -3.44396 182.752 -2.43291 183.205ZM31.7949 172.324L30.9325 173.657C30.8507 173.784 30.7594 173.918 30.6341 173.953C30.4444 174.005 30.2716 173.814 30.1353 173.637L28.8835 172.014C28.6994 171.776 28.7521 171.349 28.9351 171.109C29.118 170.869 29.3891 170.779 29.6493 170.739C30.3296 170.634 31.035 170.813 31.6323 171.243C31.804 171.367 31.9844 171.548 31.9923 171.8C31.9985 171.998 31.8939 172.171 31.7949 172.324ZM0.943138 164.059C1.2009 164.414 1.52473 164.778 1.9022 164.738C2.29332 164.697 2.55639 164.258 2.81506 163.827C3.09172 163.366 3.36335 162.913 3.78125 162.963C3.99835 162.505 3.40588 162.139 2.98735 162.131L-0.261887 162.065C0.0916519 162.774 0.495522 163.443 0.943138 164.059ZM14.3912 183.496L7.63222 183.533C7.70544 183.086 8.09929 182.871 8.44433 182.751C9.98534 182.217 11.6248 182.154 13.1882 182.568C13.6652 182.695 14.1937 182.926 14.3912 183.496ZM21.5436 180.501L19.307 180.631C19.0663 180.645 18.7574 180.734 18.7278 181.04C18.7145 181.177 18.7681 181.308 18.8201 181.428C19.0172 181.886 19.227 182.362 19.5678 182.651C19.9087 182.939 20.4217 182.968 20.6869 182.57C20.7782 182.433 20.8317 182.262 20.8849 182.092C20.9502 181.883 21.015 181.675 21.1485 181.535C21.2371 181.443 21.3451 181.392 21.4535 181.341C21.5363 181.302 21.6193 181.263 21.6942 181.206C21.8669 181.072 21.9769 180.725 21.8167 180.568C21.7416 180.494 21.6382 180.496 21.5436 180.501ZM1.9422 180.88C2.25257 181.136 2.44097 181.699 2.24178 182.096C2.00329 182.573 1.70553 183.098 1.26563 183.153C0.698067 183.225 0.291565 182.494 0.0152359 181.855C-0.0788498 181.638 -0.176163 181.398 -0.141365 181.154C-0.068306 180.64 0.467941 180.544 0.875175 180.57C1.24392 180.594 1.63182 180.624 1.9422 180.88ZM31.6894 176.378C32.024 176.413 32.324 176.123 32.5587 175.816C33.2747 174.879 33.7301 173.623 33.8263 172.319C33.5894 172.125 33.2995 172.426 33.118 172.7L31.289 175.467C31.0722 175.795 31.3549 176.342 31.6894 176.378ZM-4.12589 170.229C-4.605 170.56 -5.26079 170.389 -5.60076 169.845C-5.94073 169.301 -5.92609 168.445 -5.56785 167.92C-5.51815 167.847 -5.45875 167.778 -5.38475 167.758C-5.27743 167.73 -5.17335 167.813 -5.08281 167.892L-4.19341 168.667C-3.9882 168.846 -3.76565 169.058 -3.72224 169.371C-3.6735 169.722 -3.88054 170.059 -4.12589 170.229ZM20.7262 164.101C21.0822 164.483 21.6098 164.089 21.9632 163.702L23.1133 162.445C22.8963 162.18 22.5495 162.24 22.2557 162.318L19.6949 162.995L20.7262 164.101ZM-31.0367 135.292C-31.2982 134.994 -31.3652 134.508 -31.3731 134.061C-31.3819 133.555 -31.3357 133.049 -31.236 132.56L-29.5387 135.387C-29.4375 135.556 -29.3543 135.846 -29.504 135.938C-29.7162 135.756 -29.9771 135.704 -30.2363 135.653C-30.5296 135.595 -30.8207 135.537 -31.0367 135.292ZM34.1278 158.744C34.3428 159.087 34.7952 159.013 35.0416 158.707C35.288 158.401 35.379 157.95 35.4496 157.52C35.4666 157.416 35.4824 157.305 35.4485 157.209C35.3625 156.964 35.0786 157.038 34.8884 157.151C34.3768 157.456 33.7744 158.181 34.1278 158.744ZM14.9237 33.7836C15.1314 33.12 15.6148 32.6718 16.0909 32.2977C17.5278 31.1687 19.1234 30.3714 20.778 29.9557C21.174 29.8562 21.6457 29.8076 21.9205 30.1856C22.2297 30.6107 22.0751 31.3461 21.7319 31.7261C21.4261 32.0647 21.0237 32.2036 20.6302 32.3395C20.582 32.3561 20.5339 32.3727 20.4862 32.3896C19.1629 32.8584 17.918 33.6861 16.8576 34.8022C16.45 35.2312 15.9668 35.7366 15.4581 35.5558C14.9198 35.3644 14.7159 34.4472 14.9237 33.7836ZM-14.8399 33.9383C-15.224 33.6722 -15.4834 33.0083 -15.2444 32.5405C-15.1053 32.2684 -14.8461 32.1445 -14.5998 32.0645C-12.6048 31.4167 -10.5394 32.5603 -8.73497 33.8269C-8.32875 34.112 -7.91065 34.4225 -7.65458 34.9166C-7.39851 35.4106 -7.36108 36.1425 -7.6952 36.5532C-8.25442 37.2406 -9.14095 36.5335 -9.77228 35.9574C-10.8778 34.9484 -12.2062 34.3437 -13.5614 34.2325L-13.6146 34.2283L-13.6674 34.2245L-13.744 34.2192C-14.1231 34.1935 -14.509 34.1674 -14.8399 33.9383ZM6.07339 70.5286L4.76115 65.7407C3.59325 66.8191 2.72015 68.4097 2.32383 70.1812C1.9653 69.8083 1.95205 69.1775 1.93905 68.5582V68.5581V68.558C1.93516 68.3729 1.93129 68.1888 1.91822 68.013C1.84072 66.9692 1.32832 65.9947 0.601845 65.5094C-0.124626 65.0241 -1.04256 65.0431 -1.75638 65.5582C-1.56706 66.0883 -1.12096 66.2566 -0.661751 66.4298C-0.356827 66.5448 -0.0461273 66.662 0.199013 66.8887C0.716812 67.3677 0.865143 68.2703 0.873146 69.0877C0.875153 69.2926 0.87104 69.499 0.866928 69.7056V69.7058C0.854645 70.3232 0.842339 70.9416 0.993111 71.5229C1.04179 71.7106 1.11076 71.8977 1.22961 72.0242C1.56623 72.3825 2.07588 72.0848 2.41676 71.7332C3.18685 70.939 3.7924 69.886 4.1559 68.7091C4.47646 69.1188 4.59491 69.6942 4.71243 70.2651L4.71249 70.2654L4.71256 70.2657C4.74702 70.4332 4.7814 70.6002 4.82079 70.7625C4.99455 71.4787 5.41009 72.2441 5.99561 72.2094C6.38582 72.1863 6.70031 71.8105 6.97665 71.4574L8.56422 69.4285C8.75555 69.1839 8.96307 68.873 8.90147 68.5361C8.84234 68.2127 8.54279 68.0395 8.28569 68.086C8.02859 68.1324 7.80875 68.3397 7.60756 68.5496C7.04379 69.138 6.52861 69.8025 6.07339 70.5286ZM2.44676 51.3242C2.53144 50.4466 2.57803 49.4242 2.07405 48.8191C1.13369 47.69 0.310112 46.4019 -0.368477 44.999C-0.664413 44.3871 -0.942253 43.6722 -0.801208 42.9757C-0.588181 41.9237 0.411514 41.5432 1.2548 41.4119C2.60395 41.2017 3.96967 41.166 5.32439 41.3055C5.90653 41.3655 6.52357 41.4774 6.96909 41.9605C7.41461 42.4436 7.57535 43.423 7.14538 43.9287C5.03757 46.4074 3.80335 50.0587 3.83533 53.7211C4.61684 54.3701 5.41122 55.027 6.30164 55.378C7.19205 55.729 8.20689 55.7405 9.01005 55.1363C9.34827 54.8819 9.632 54.5337 9.9163 54.1848C10.1126 53.9439 10.3092 53.7027 10.5242 53.4918C11.0505 52.9754 11.804 52.6555 12.368 53.1021L10.2222 55.6295C9.36711 56.6366 8.30511 57.72 7.17342 57.381C6.79857 57.2686 6.46947 57.0093 6.13918 56.749C5.94263 56.5941 5.74564 56.4388 5.53835 56.314C4.43005 55.6469 3.12977 55.8962 1.93218 56.225C1.85957 56.245 1.78679 56.2652 1.71383 56.2854L1.71296 56.2856C0.582748 56.5989 -0.5868 56.9232 -1.69613 56.5338C-2.87735 56.1193 -3.91351 54.5486 -3.54379 53.0547C-2.8002 54.447 -1.50549 55.3294 -0.187439 55.3423C0.318726 55.3473 0.840523 55.2233 1.25987 54.8607C2.11814 54.1185 2.31985 52.6395 2.44676 51.3242Z" fill="#902920"/>
</svg>
