<svg width="110" height="195" viewBox="0 0 110 195" fill="none" xmlns="http://www.w3.org/2000/svg">
<path fill-rule="evenodd" clip-rule="evenodd" d="M67.1401 52.019C67.356 51.9613 67.576 52.1316 67.6702 52.3343C67.7643 52.537 67.7712 52.7675 67.8132 52.9871C67.977 53.8451 68.7505 54.5492 69.6201 54.6318C69.7284 54.8839 69.4887 55.1362 69.2991 55.3345C68.8676 55.7859 68.5952 56.3865 68.5398 57.0085C68.5039 57.4121 68.419 57.9738 68.0139 57.9685C67.6883 57.9643 67.5452 57.5704 67.4279 57.2666C67.1414 56.5245 66.4952 55.9311 65.7314 55.7087C65.5711 55.662 65.5036 55.457 65.5478 55.296C65.5919 55.1349 65.7141 55.009 65.8307 54.8894C66.3325 54.3746 66.8417 53.7651 66.8363 53.0462C66.8334 52.6574 66.7645 52.1194 67.1401 52.019Z" fill="#902920"/>
<path fill-rule="evenodd" clip-rule="evenodd" d="M82.3495 119.549C81.6758 120.241 81.4372 121.325 81.7578 122.236C81.4027 122.395 81.1373 121.906 80.9616 121.559C80.6979 121.038 80.1996 120.642 79.6327 120.502C80.4538 119.984 80.9647 119.01 80.9237 118.04C81.2538 117.825 81.6232 118.273 81.718 118.656C81.8129 119.038 81.9556 119.535 82.3495 119.549Z" fill="#E7EAEE"/>
<path fill-rule="evenodd" clip-rule="evenodd" d="M76.5998 120.849C76.9906 121.469 77.5462 121.984 78.1941 122.326C78.4268 122.449 78.2157 122.792 78.0235 122.972C77.5393 123.425 77.2326 124.062 77.1815 124.723C76.758 124.299 76.3344 123.874 75.9109 123.45C75.7419 123.281 75.5635 123.018 75.7092 122.828C76.1535 122.249 76.461 121.565 76.5998 120.849Z" fill="#E7EAEE"/>
<path fill-rule="evenodd" clip-rule="evenodd" d="M48.3082 46.197C48.6937 43.7424 49.6253 41.3301 51.2621 39.4608C52.899 37.5914 55.2884 36.3154 57.773 36.3174C60.2577 36.3194 62.7669 37.7266 63.7995 39.9865C64.3337 41.1559 64.4648 42.4723 64.4285 43.7573C64.3594 46.2014 63.7029 48.6269 62.5298 50.7722C61.472 52.7066 59.9513 54.4467 57.9769 55.4281C56.0025 56.4094 53.5418 56.5413 51.6224 55.4563C50.1027 54.5973 49.0394 53.0554 48.5328 51.3848C48.0262 49.7142 48.0374 47.9216 48.3082 46.197M63.4952 44.341C63.54 42.8191 63.2889 41.2475 62.4887 39.9522C62.0021 39.1647 61.3206 38.4987 60.5221 38.0305C57.9471 36.5203 54.4424 37.3316 52.3036 39.4141C50.1649 41.4965 49.2378 44.5743 49.1423 47.5579C49.0913 49.1494 49.2625 50.7813 49.9391 52.2227C50.6157 53.6641 51.8538 54.8969 53.3961 55.293C55.414 55.8112 57.5436 54.8355 59.1259 53.4802C61.766 51.2186 63.3928 47.8157 63.4952 44.341Z" fill="#902920"/>
<path fill-rule="evenodd" clip-rule="evenodd" d="M73.7328 44.4937C73.3219 45.0308 72.8921 45.7364 73.2075 46.3346C73.3203 46.5486 73.0284 46.7978 72.7961 46.7303C72.5639 46.6627 72.4318 46.4173 72.37 46.1834C72.3081 45.9495 72.288 45.6985 72.1639 45.4909C72.0398 45.2832 71.7579 45.1388 71.5527 45.2669C71.2605 45.2322 71.2304 44.7919 71.4002 44.5516C71.57 44.3113 71.8491 44.1461 71.9535 43.871C72.0361 43.6532 71.9918 43.4088 72.031 43.1791C72.0701 42.9495 72.2655 42.7042 72.491 42.7629C72.4833 43.1665 72.5303 43.5854 72.735 43.9333C72.9398 44.2813 73.3319 44.5416 73.7328 44.4937Z" fill="#902920"/>
<path fill-rule="evenodd" clip-rule="evenodd" d="M36.9804 43.6968C37.3017 43.3232 37.7051 43.0036 38.1786 42.8676C38.6521 42.7316 39.2013 42.8032 39.5711 43.1288C39.9733 43.483 40.0997 44.0749 40.014 44.604C39.9283 45.1331 39.6615 45.6139 39.3807 46.0705C39.0164 46.6629 38.6207 47.2361 38.1959 47.7869C38.0633 47.9589 37.9177 48.1363 37.7144 48.2129C37.4459 48.3142 37.1467 48.2156 36.882 48.105C35.9518 47.7162 35.0872 47.1707 34.3358 46.4985C33.6477 45.8829 33.0131 44.9808 33.2919 44.1007C33.4695 43.5399 34.0119 43.1344 34.5938 43.0478C35.1756 42.9612 35.7784 43.1662 36.2411 43.5294C36.4625 43.7032 36.7969 43.9101 36.9804 43.6968M34.0414 44.0254C33.6022 44.6298 34.079 45.4765 34.6325 45.9783C35.3232 46.6044 36.1433 47.067 36.9558 47.5242C37.0602 47.5829 37.1768 47.6438 37.2939 47.6185C37.3983 47.596 37.4756 47.5105 37.5445 47.4289C38.0949 46.7768 38.5878 46.0762 39.0159 45.3381C39.3452 44.7702 39.5869 43.936 39.0564 43.5494C38.6367 43.2436 38.0248 43.49 37.669 43.8682C37.3131 44.2464 37.0892 44.7403 36.7003 45.0845C36.3966 44.6059 36.0737 44.1085 35.5813 43.8277C35.0889 43.5468 34.3747 43.5669 34.0414 44.0254H34.0414Z" fill="#902920"/>
<path fill-rule="evenodd" clip-rule="evenodd" d="M30.6877 27.1819C31.6949 26.3967 32.8147 25.7561 34.0021 25.2859C34.7301 24.9977 35.5608 24.7758 36.2803 25.0845C37.4331 25.5791 37.6576 27.2346 37.0511 28.3326C36.4445 29.4307 35.2942 30.0964 34.199 30.7081C32.0512 31.9077 29.9034 33.1073 27.7557 34.307C28.1787 33.4628 27.7014 32.4719 27.3106 31.6124C26.4305 29.6766 25.9698 27.5513 25.9695 25.4248C25.9694 24.753 26.0197 24.0611 26.3143 23.4574C26.609 22.8537 27.197 22.3531 27.8686 22.3373C28.9433 22.312 29.6577 23.4311 30.0203 24.4431C30.3379 25.3293 30.5619 26.249 30.6877 27.1819ZM35.2397 25.6418C33.5027 25.9947 31.8842 26.9086 30.6849 28.2137C30.5668 28.3422 30.3372 28.2856 30.2293 28.1483C30.1215 28.0111 30.1007 27.827 30.0803 27.6536C29.9449 26.5056 29.6447 25.3771 29.1916 24.3135C28.9391 23.7206 28.5162 23.0659 27.8718 23.0554C27.3942 23.0477 26.9787 23.4301 26.8025 23.8741C26.6264 24.3181 26.6413 24.8123 26.6751 25.2888C26.8635 27.946 27.5626 30.5661 28.723 32.9639C30.623 31.8992 32.523 30.8345 34.4229 29.7698C35.0157 29.4376 35.6191 29.0971 36.0801 28.5978C36.541 28.0985 36.8441 27.4046 36.7103 26.7384C36.5764 26.0722 35.9056 25.5065 35.2397 25.6418Z" fill="#902920"/>
<path fill-rule="evenodd" clip-rule="evenodd" d="M17.3937 158.794C22.9392 158.162 28.5205 157.844 34.1019 157.842C35.1257 157.841 36.0164 157.046 36.4324 156.11C36.8484 155.175 36.8817 154.119 36.8822 153.096C36.8841 149.291 36.5264 145.497 36.1691 141.71C36.0242 140.174 35.8792 138.638 35.7343 137.103C35.6464 136.171 35.553 135.218 35.1606 134.368C34.4796 132.893 32.9717 131.934 31.4006 131.521C29.8296 131.108 28.1784 131.165 26.555 131.224C21.1653 131.422 15.7755 131.619 10.3857 131.816C13.4927 130.677 16.8765 130.623 20.1855 130.583C22.7224 130.552 25.2592 130.521 27.7961 130.49C30.3892 130.458 33.3521 130.588 35.0062 132.586C36.0748 133.876 36.3106 135.643 36.4893 137.308C37.0517 142.553 37.4637 147.814 37.7245 153.082C37.811 154.828 37.7411 156.88 36.3194 157.897C35.5244 158.466 34.4929 158.552 33.5176 158.618C27.5779 159.02 21.6383 159.422 15.6986 159.825C14.304 159.919 12.8343 160 11.5797 159.383C11.1438 159.169 10.696 158.685 10.9302 158.26C12.861 159.311 15.2093 159.043 17.3937 158.794Z" fill="#902920"/>
<path fill-rule="evenodd" clip-rule="evenodd" d="M5.55861 85.632C5.58809 84.9443 5.61757 84.2566 5.64706 83.5689C5.70455 82.228 5.77495 80.837 6.39817 79.6482C7.0214 78.4595 8.36675 77.5358 9.67291 77.8447C10.49 78.0379 11.2434 78.6801 12.0651 78.5077C12.7806 78.3576 13.2195 77.6502 13.824 77.2389C15.2649 76.2585 17.2733 77.1692 18.465 78.441C19.7493 79.8117 20.5841 81.5969 20.8127 83.4612C20.8321 83.6195 20.8418 83.7973 20.74 83.9199C20.6557 84.0215 20.5174 84.0566 20.3888 84.0861C19.8927 84.1997 19.3967 84.3133 18.9007 84.4269C18.4783 84.5237 18.04 84.6208 17.6157 84.533C17.1913 84.4451 16.7838 84.1179 16.7496 83.6859C16.623 86.1 18.4308 88.4062 17.927 90.7706C17.7398 90.6683 17.5525 90.5659 17.3652 90.4636C17.8071 88.0924 15.694 85.7972 16.1352 83.4259C16.1936 83.1121 16.3196 82.778 16.6001 82.6258C16.8806 82.4735 17.3243 82.6466 17.3133 82.9656C17.2957 83.4766 17.8473 83.8585 18.3586 83.8541C18.87 83.8497 19.335 83.5755 19.7719 83.3097C19.9275 83.2151 19.8849 82.981 19.82 82.8108C19.3366 81.5425 18.701 80.3322 17.9312 79.2143C17.411 78.4586 16.784 77.7116 15.9194 77.4048C15.0548 77.098 13.913 77.411 13.5947 78.2715C13.2222 79.2786 11.8145 79.3466 10.7807 79.0562C9.74695 78.7657 8.58666 78.3123 7.66434 78.8622C6.89307 79.322 6.63485 80.3016 6.49035 81.1879C6.24246 82.7082 6.12803 84.2503 6.14881 85.7906C6.19067 86.0258 6.49032 86.1016 6.72906 86.0954C7.98656 86.0627 9.15416 85.0709 9.38969 83.8352C9.72863 84.2249 9.84957 84.7529 9.95918 85.2577C10.3387 87.0054 10.7183 88.7531 11.0979 90.5009C11.2147 91.0389 11.0783 91.8658 10.5365 91.7679C10.2911 89.8617 9.92741 87.9708 9.44833 86.1095C8.54265 86.3155 7.63698 86.5214 6.7313 86.7273C6.45345 86.7905 6.1425 86.8488 5.89933 86.7003C5.56374 86.4953 5.54176 86.0249 5.55861 85.632Z" fill="#902920"/>
<path fill-rule="evenodd" clip-rule="evenodd" d="M32.0539 133.098C32.516 133.599 31.7979 134.523 32.2213 135.057C32.441 135.334 32.2843 135.774 31.9933 135.975C31.7023 136.175 31.3295 136.202 30.9765 136.223C24.9089 136.575 18.8413 136.928 12.7737 137.281C12.3613 137.304 11.8686 137.29 11.643 136.944C11.5446 136.793 11.5208 136.607 11.4995 136.428C11.4441 135.961 11.3887 135.495 11.3333 135.029C11.316 134.882 11.3004 134.726 11.3692 134.595C11.4827 134.38 11.7645 134.334 12.0066 134.312C18.3834 133.75 24.7678 133.274 31.1575 132.885C31.475 132.866 31.8382 132.864 32.0539 133.098ZM31.357 133.886C31.3373 133.771 31.3113 133.645 31.2193 133.573C31.1276 133.501 30.9995 133.506 30.8835 133.515C25.2257 133.927 19.5679 134.34 13.9102 134.752C13.4529 134.785 12.9785 134.824 12.5791 135.049C12.1797 135.274 11.8785 135.744 11.9984 136.186C12.0356 136.323 12.1148 136.453 12.2361 136.527C12.3851 136.617 12.571 136.611 12.745 136.601C18.7183 136.277 24.6916 135.953 30.6649 135.629C31.375 135.591 31.4771 134.587 31.357 133.886Z" fill="#902920"/>
<path fill-rule="evenodd" clip-rule="evenodd" d="M36.8415 127.664C37.9155 130.49 38.258 133.533 38.5916 136.538C39.3667 143.518 40.1418 150.499 40.9169 157.48C40.3402 157.527 40.0745 156.787 40.0027 156.213C38.8284 146.82 38.4504 137.306 36.4645 128.051C36.5902 127.922 36.7158 127.793 36.8415 127.664Z" fill="#902920"/>
<path fill-rule="evenodd" clip-rule="evenodd" d="M2.19707 79.0373C2.03001 78.9659 2.03332 78.7052 2.16148 78.5764C2.28964 78.4476 2.4836 78.4165 2.66384 78.3936C4.01306 78.2222 5.37343 78.1387 6.73348 78.1438C6.66116 78.7241 5.91194 78.8937 5.32778 78.9207C4.34637 78.966 3.36497 79.0114 2.38356 79.0567C2.32057 79.0596 2.25506 79.0621 2.19707 79.0373L2.19707 79.0373Z" fill="#902920"/>
<path fill-rule="evenodd" clip-rule="evenodd" d="M9.80931 150.028C9.69723 147.95 9.58515 145.873 9.47307 143.795C9.1714 138.202 8.86034 132.553 7.30359 127.173C7.10485 126.486 6.87776 125.789 6.43746 125.225C5.33518 123.815 3.29478 123.653 1.50478 123.653C-5.39668 123.653 -12.298 124.31 -19.0758 125.61C-19.7645 125.742 -20.4805 125.894 -21.0301 126.33C-21.9033 127.022 -22.1335 128.239 -22.2146 129.35C-22.3626 131.379 -22.216 133.43 -21.7808 135.417C-22.0299 135.375 -22.279 135.334 -22.5281 135.292C-23.4414 133.39 -23.8574 131.252 -23.724 129.146C-23.6661 128.232 -23.4979 127.3 -23.0267 126.515C-21.8548 124.56 -19.2751 124.091 -17.0091 123.848C-11.2598 123.233 -5.48905 122.818 0.289186 122.605C2.615 122.52 5.24305 122.585 6.83927 124.279C7.6422 125.131 8.0488 126.276 8.36798 127.402C9.47681 131.315 9.78279 135.403 10.0831 139.459C10.3766 143.422 10.6701 147.385 10.9635 151.348C11.0325 152.279 11.1006 153.225 10.9122 154.14C10.2981 157.12 7.12387 158.933 4.1021 159.294C1.08034 159.654 -1.96192 158.964 -5.00469 158.913C-9.09664 158.845 -13.2128 159.933 -17.2485 159.253C-18.4108 159.057 -19.6468 158.646 -20.2858 157.655C-20.729 156.968 -20.809 156.116 -20.8768 155.301C-21.3555 149.554 -21.8341 143.806 -22.3127 138.058C-22.3447 137.674 -22.0585 137.1 -21.7629 137.348C-21.2352 142.885 -20.7075 148.421 -20.1798 153.957C-20.1083 154.707 -20.0307 155.478 -19.6823 156.145C-19.1766 157.114 -18.1562 157.73 -17.0983 158.004C-16.0403 158.279 -14.9315 158.256 -13.8386 158.242C-9.21511 158.182 -4.58929 158.297 0.0255032 158.587C1.56882 158.684 3.12868 158.8 4.65321 158.541C6.17774 158.282 7.69038 157.603 8.6367 156.38C9.98446 154.638 9.92794 152.227 9.80931 150.028Z" fill="#902920"/>
<path fill-rule="evenodd" clip-rule="evenodd" d="M1.96375 76.7899C2.39397 76.4541 2.03221 75.7664 2.11703 75.2272C2.23701 74.4645 3.18612 74.2025 3.95308 74.1139C8.87938 73.5446 13.8403 73.2754 18.7993 73.3082C19.212 73.3109 19.6997 73.3569 19.9075 73.7134C20.157 74.1415 19.9246 74.8886 20.3968 75.0385C20.6185 75.1089 20.9029 74.9787 21.0709 75.1395C21.3487 75.4055 20.8312 75.7649 20.4481 75.7993C14.6448 76.3201 8.82898 76.7013 3.00735 76.9422C2.65118 76.957 2.27353 76.9663 1.96375 76.7899M19.299 74.3877C19.1634 74.0469 18.7097 73.9969 18.343 74.0025C13.6676 74.0736 8.99465 74.3048 4.33503 74.6953C3.78877 74.741 3.14395 74.855 2.91621 75.3536C2.80683 75.6372 3.01546 75.9633 3.2908 76.092C3.56615 76.2207 3.88438 76.2041 4.18771 76.1849C8.84237 75.8896 13.497 75.5943 18.1517 75.299C18.4382 75.2809 18.7368 75.2591 18.9837 75.1128C19.2307 74.9665 19.405 74.6544 19.299 74.3877Z" fill="#902920"/>
<path fill-rule="evenodd" clip-rule="evenodd" d="M25.5725 142.69C26.2904 143.26 25.9834 144.51 26.6079 145.181C26.8982 145.494 27.333 145.615 27.7421 145.735C28.005 145.812 28.3306 146.005 28.247 146.266C28.1613 146.533 27.772 146.49 27.5107 146.388C26.6577 146.054 25.6958 145.498 25.6486 144.583C25.6142 143.915 25.4158 143.256 25.0756 142.681C25.1713 142.519 25.425 142.573 25.5725 142.69V142.69Z" fill="#902920"/>
<path fill-rule="evenodd" clip-rule="evenodd" d="M28.9672 152.152C28.7333 149.141 28.4995 146.13 28.2657 143.119C28.2314 142.676 28.1922 142.217 27.973 141.831C27.7539 141.445 27.2998 141.154 26.8711 141.269C24.9314 141.79 22.9171 142.031 20.9095 141.984C19.1539 141.942 17.3578 141.685 15.6689 142.166C15.7003 143.003 15.7317 143.839 15.7631 144.675C15.7722 144.919 15.7861 145.178 15.925 145.379C16.3145 145.943 17.2814 145.514 17.5011 144.865C17.7207 144.216 17.5224 143.506 17.56 142.822C17.5667 142.701 17.591 142.563 17.6941 142.499C17.9132 142.363 18.1237 142.688 18.1799 142.94C18.3409 143.661 18.5017 144.417 18.3116 145.131C18.1215 145.846 17.4588 146.493 16.7255 146.399C15.9657 146.301 15.6547 147.339 15.6363 148.105C15.5997 149.633 15.563 151.162 15.5263 152.69C15.5147 153.171 15.6878 153.836 16.166 153.782C17.4004 153.642 18.6348 153.502 19.8691 153.362C20.1675 153.328 20.4883 153.299 20.7507 153.444C21.013 153.59 21.1518 153.988 20.9368 154.197C19.487 154.324 18.0371 154.451 16.5872 154.578C16.1638 154.615 15.7244 154.651 15.3249 154.506C14.9254 154.36 14.5775 153.98 14.6138 153.557C14.9704 149.399 15.0503 145.217 14.8526 141.049C14.8105 140.162 15.8907 139.711 16.7633 139.548C19.5331 139.029 22.3579 138.803 25.1749 138.877C26.1193 138.902 27.1488 138.995 27.8337 139.646C28.531 140.309 28.6678 141.353 28.764 142.31C29.1243 145.897 29.4847 149.484 29.845 153.071C29.8644 153.264 29.869 153.494 29.7143 153.612C29.622 153.682 29.4981 153.689 29.3822 153.694C28.18 153.744 26.9777 153.794 25.7755 153.844C25.1385 153.871 24.453 153.884 23.9227 153.531C23.5589 153.288 23.3185 152.902 23.1072 152.52C22.6004 151.601 22.1954 150.627 21.902 149.62C21.4422 150.771 21.1511 151.989 21.0408 153.224C20.4598 153.287 20.3517 152.415 20.4868 151.847C20.7656 150.673 21.0443 149.5 21.323 148.327C21.3655 148.148 21.4332 147.941 21.6082 147.886C21.8659 147.805 22.0638 148.114 22.158 148.367C22.5507 149.422 22.9433 150.477 23.336 151.532C23.6739 152.441 24.6486 152.986 25.6111 153.098C26.5736 153.21 27.5381 152.968 28.4768 152.727C28.6625 152.68 28.8733 152.611 28.9455 152.434C28.9813 152.346 28.9745 152.247 28.9672 152.152ZM15.8874 141.127C16.758 141.138 17.6285 141.149 18.4991 141.161C19.1532 141.169 19.8075 141.177 20.4615 141.165C22.8226 141.121 25.1785 140.804 27.4675 140.223C26.9569 139.699 26.1378 139.67 25.4062 139.683C22.7878 139.73 20.1713 139.882 17.5652 140.139C16.8678 140.208 16.0011 140.435 15.8874 141.127L15.8874 141.127Z" fill="#902920"/>
<path fill-rule="evenodd" clip-rule="evenodd" d="M11.9913 138.873C11.9415 138.601 12.2946 138.452 12.568 138.41C15.7266 137.92 18.9275 137.704 22.1232 137.764C22.1691 137.765 22.2163 137.766 22.2587 137.784C22.4086 137.846 22.4016 138.082 22.2825 138.193C22.1635 138.304 21.9882 138.322 21.8262 138.334C18.7831 138.563 15.6954 138.445 12.714 139.096C12.4372 139.157 12.0423 139.152 11.9913 138.873L11.9913 138.873Z" fill="#902920"/>
<path fill-rule="evenodd" clip-rule="evenodd" d="M82.6281 132.334C82.8023 131.922 82.9949 131.488 83.3651 131.238C83.6774 131.027 84.0688 130.98 84.4435 130.939C85.5556 130.819 86.6677 130.698 87.7797 130.577C88.3296 130.517 89.0395 130.286 89.0186 129.733C88.9512 127.948 89.0893 125.891 90.5075 124.805C91.8048 123.811 93.7476 124.084 95.0788 125.032C96.41 125.98 97.2533 127.457 97.9807 128.92C98.3028 129.568 99.1849 129.687 99.8978 129.562C100.611 129.437 101.333 129.156 102.037 129.327C103.12 129.59 103.667 130.773 104.039 131.823C105.907 137.094 107.174 142.59 109.497 147.677C110.366 149.579 110.091 151.953 108.81 153.607C108.652 152.294 108.872 150.938 109.437 149.742C109.704 149.178 108.818 148.808 108.194 148.809C101.844 148.826 95.4666 148.844 89.1865 149.786C88.9947 149.815 88.7909 149.85 88.6479 149.981C88.509 150.108 88.4548 150.301 88.4068 150.483C88.2121 151.223 88.0174 151.963 87.8226 152.702C87.7006 153.166 87.7772 153.885 88.254 153.837C94.4693 153.207 100.718 152.907 106.965 152.938C107.622 152.941 108.519 153.202 108.434 153.853C101.779 153.932 95.0993 154.012 88.5165 154.992C87.4683 155.148 86.7444 153.85 86.8633 152.797C86.9822 151.744 87.5862 150.799 87.7564 149.753C87.9032 148.851 87.7195 147.932 87.522 147.04C87.2081 145.622 86.8573 144.213 86.4701 142.813C86.0923 141.448 85.6798 140.092 85.2675 138.736C84.6437 136.685 84.02 134.635 83.3962 132.584C82.5384 133.84 82.1562 135.413 82.342 136.922C82.4713 137.974 82.861 138.972 83.153 139.99C83.5704 141.445 83.7895 142.948 84.0075 144.447C84.4368 147.397 84.8661 150.348 85.2955 153.299C85.3586 153.733 85.234 154.373 84.7999 154.309C82.8699 148.338 83.3997 141.737 81.1219 135.891C81.624 134.705 82.1261 133.519 82.6281 132.334ZM97.0021 133.416C97.6312 133.066 97.9568 132.25 97.7412 131.563C97.5256 130.876 96.7916 130.392 96.0755 130.465C94.3195 130.643 92.5636 130.821 90.8077 130.999C90.6456 131.015 90.4641 131.042 90.3667 131.173C90.2899 131.276 90.2884 131.415 90.2958 131.543C90.3425 132.346 90.6209 133.133 91.0889 133.787C91.4525 134.294 91.9555 134.902 91.6715 135.458C91.3168 136.153 90.1508 135.764 89.8616 135.039C89.5724 134.314 89.7782 133.496 89.7244 132.718C89.6706 131.939 89.111 131.043 88.3415 131.173C87.0795 131.385 85.8174 131.598 84.5554 131.81C84.3741 131.84 84.1377 131.952 84.1909 132.128C85.7276 137.215 87.2644 142.302 88.8012 147.389C88.9927 148.023 89.4245 148.807 90.0693 148.657C95.9887 147.274 102.23 148.582 108.24 147.673C106.44 142.028 104.577 136.402 102.652 130.798C102.595 130.632 102.531 130.457 102.39 130.353C102.233 130.239 102.023 130.242 101.83 130.251C100.928 130.289 100.027 130.327 99.1251 130.365C98.7684 130.38 98.2822 130.55 98.3603 130.899C98.6053 131.991 98.8503 133.083 99.0953 134.175C99.1375 134.363 99.1788 134.564 99.1088 134.744C98.9182 135.232 98.1992 135.109 97.7197 134.898C97.4051 134.759 97.0741 134.607 96.8797 134.324C96.6853 134.04 96.7016 133.583 97.0021 133.416ZM94.679 125.49C93.9876 124.983 93.0784 124.617 92.2804 124.931C92.0022 125.041 91.7608 125.225 91.5234 125.406C91.1007 125.73 90.6652 126.068 90.4157 126.539C90.1837 126.976 90.1359 127.485 90.0926 127.978C90.0546 128.41 90.0167 128.841 89.9788 129.272C89.9553 129.54 89.9457 129.847 90.1396 130.033C90.3257 130.211 90.6177 130.198 90.8742 130.174C92.7106 129.999 94.5471 129.824 96.3836 129.65C96.6453 129.625 96.9652 129.554 97.0341 129.3C97.0613 129.2 97.0394 129.093 97.0148 128.992C96.6764 127.601 95.8338 126.337 94.679 125.49M93.9916 130.056C93.8067 130.109 94.0122 130.455 94.1467 130.318C94.3186 130.248 94.1281 129.925 93.9833 130.041L93.9916 130.056Z" fill="#902920"/>
<path fill-rule="evenodd" clip-rule="evenodd" d="M35.7649 88.7689C35.7329 88.6614 35.7969 88.549 35.8723 88.466C36.2423 88.0584 36.8616 88.0282 37.4121 88.0269C40.7491 88.0191 44.086 88.0114 47.423 88.0036C47.6578 88.0031 47.9097 88.0076 48.1013 88.1434C48.2929 88.2791 48.3678 88.599 48.1837 88.7448C48.0857 88.8223 47.9506 88.8271 47.8256 88.8285C43.9489 88.8716 40.0722 88.9146 36.1955 88.9577C36.0266 88.9595 35.8132 88.9307 35.7649 88.7689Z" fill="#902920"/>
<path fill-rule="evenodd" clip-rule="evenodd" d="M37.0008 92.2156C36.7997 92.1 36.8275 91.7757 36.9966 91.617C37.1657 91.4582 37.4121 91.4209 37.6424 91.3931C39.0237 91.2266 40.4128 91.135 41.8012 91.0436C42.5661 90.9932 43.331 90.9428 44.0959 90.8924C45.0903 90.8269 46.0847 90.7614 47.0792 90.6959C47.3951 90.6751 47.7478 90.666 47.9857 90.8749C48.2236 91.0838 48.1655 91.5862 47.8495 91.6057C44.3398 91.8232 40.83 92.0406 37.3203 92.258C37.2114 92.2648 37.0953 92.2699 37.0008 92.2156L37.0008 92.2156Z" fill="#902920"/>
<path fill-rule="evenodd" clip-rule="evenodd" d="M55.8158 96.7514C56.0809 96.2475 56.3688 95.7189 56.8567 95.4251C57.3445 95.1314 58.093 95.1921 58.3557 95.6974C58.6353 96.2351 58.2193 96.8833 57.7309 97.2422C57.2426 97.6011 56.6421 97.8541 56.3248 98.3705C58.0397 99.5005 59.7545 100.631 61.4694 101.761C62.8125 102.646 64.3322 103.91 64.0573 105.494C63.8961 106.424 63.1085 107.146 62.2314 107.493C61.3544 107.839 60.39 107.876 59.4473 107.903C53.1115 108.085 46.7695 108.053 40.4359 107.806C39.9965 107.789 39.5064 107.748 39.2137 107.42C38.9869 107.166 38.9401 106.803 38.9034 106.464C38.5389 103.093 38.1743 99.7223 37.8098 96.3512C37.7963 96.2266 37.7835 96.0966 37.8281 95.9796C38.0156 95.4874 38.752 95.7906 39.1636 96.1191C42.0792 98.4463 46.7403 98.1729 49.3639 95.5209C49.9978 94.88 51.0769 94.9629 51.8913 95.3492C52.7057 95.7356 53.3871 96.3641 54.2041 96.745C54.1169 96.2726 54.5335 95.7742 55.0138 95.7761C55.4941 95.778 55.9067 96.2797 55.8158 96.7514ZM56.173 98.9223C55.9649 98.1573 54.8341 97.9968 54.2104 98.4864C53.5868 98.976 53.3847 99.8288 53.3305 100.62C53.3103 100.915 52.8251 100.944 52.6589 100.7C52.4927 100.455 52.5601 100.126 52.6523 99.8446C52.8959 99.1031 53.2709 98.405 53.7547 97.7925C53.9943 97.4892 53.6431 97.0792 53.327 96.8569C52.2114 96.0726 50.6318 95.2988 49.6085 96.2001C46.8044 98.6698 42.3318 98.9988 39.1965 96.966C39.2339 99.4965 39.4203 102.025 39.7545 104.533C39.7882 104.786 39.8314 105.056 40.006 105.242C40.2371 105.488 40.6153 105.505 40.9527 105.505C46.3993 105.512 51.8459 105.519 57.2925 105.526C57.8225 105.527 58.5431 105.338 58.5017 104.809C58.4055 103.58 58.9499 102.317 59.9103 101.543C59.1549 100.995 58.3996 100.446 57.6442 99.8971C57.4138 99.7297 57.1725 99.5576 56.8918 99.5095C56.0443 99.3643 55.4781 100.336 55.1784 101.142C54.7191 100.321 55.2544 99.126 56.173 98.9223ZM41.9387 107.321C47.6105 107.365 53.2827 107.356 58.9543 107.292C60.5645 107.274 62.4445 107.111 63.3176 105.758C55.4857 106.102 47.6424 106.187 39.8049 106.013C39.7074 106.954 40.9929 107.314 41.9387 107.321M61.3491 102.263C61.1803 102.156 61.0058 102.047 60.8088 102.013C60.215 101.911 59.7465 102.505 59.4885 103.049C59.3393 103.364 59.2097 103.688 59.1006 104.019C59.0174 104.271 58.9456 104.539 58.9978 104.8C59.0501 105.06 59.2635 105.306 59.5289 105.309C60.4933 105.32 61.458 105.31 62.422 105.278C62.6494 105.271 62.8967 105.255 63.067 105.104C63.2673 104.926 63.2918 104.62 63.2416 104.357C63.06 103.405 62.1677 102.782 61.3491 102.263ZM57.9415 96.109C57.9309 95.8153 57.5387 95.6661 57.2676 95.7794C56.9965 95.8928 56.8297 96.1623 56.6808 96.4157C56.5009 96.722 56.321 97.0283 56.141 97.3346C56.0467 97.4952 55.9954 97.7685 56.1772 97.8088C56.6561 97.4107 57.1349 97.0126 57.6138 96.6146C57.7741 96.4813 57.9489 96.3173 57.9415 96.109ZM54.8391 96.5872C54.7578 96.9832 54.961 97.4209 55.3159 97.6144C55.439 97.2065 55.3669 96.7443 55.1254 96.3932C55.1105 96.2939 54.9757 96.2365 54.8938 96.2946C54.8306 96.3745 54.8081 96.4849 54.8349 96.5832L54.8391 96.5872Z" fill="#902920"/>
<path fill-rule="evenodd" clip-rule="evenodd" d="M35.3375 84.9074C35.1935 84.2105 35.0496 83.5136 34.9057 82.8167C34.8497 82.5459 34.7983 82.2453 34.9403 82.008C35.134 81.6845 35.5772 81.6414 35.9542 81.6348C45.2121 81.4737 54.4734 81.5089 63.7297 81.7405C64.3612 81.7563 64.8798 82.3016 65.0718 82.9034C65.2639 83.5052 65.2008 84.1548 65.1356 84.7832C65.1004 85.1226 65.0443 85.5012 64.7736 85.7091C64.5519 85.8793 64.249 85.8836 63.9695 85.8806C54.6722 85.7791 45.375 85.6776 36.0778 85.5761C35.9247 85.5744 35.7628 85.5702 35.6332 85.4887C35.4438 85.3695 35.3827 85.1265 35.3375 84.9074ZM36.6167 82.2466C35.9323 82.2417 35.4472 83.0546 35.6182 83.7172C35.7891 84.3799 36.4293 84.836 37.0945 84.9971C37.7596 85.1582 38.4559 85.0804 39.1373 85.0167C47.5333 84.2319 56.0236 85.7319 64.4136 84.8854C64.4575 84.3749 64.4994 83.8472 64.335 83.362C64.1706 82.8768 63.7423 82.442 63.23 82.4383C54.3589 82.3744 45.4878 82.3105 36.6167 82.2466Z" fill="#902920"/>
<path fill-rule="evenodd" clip-rule="evenodd" d="M20.3469 101.564C17.8015 101.442 15.2452 101.553 12.7198 101.893C12.4963 101.923 12.2462 101.949 12.0666 101.812C11.887 101.676 11.9066 101.314 12.1308 101.29C14.6563 101.012 17.1927 100.834 19.7323 100.755C20.0084 100.746 20.3177 100.751 20.5145 100.945C20.7112 101.139 20.6228 101.577 20.3469 101.564Z" fill="#902920"/>
<path fill-rule="evenodd" clip-rule="evenodd" d="M39.0486 166.399C38.935 165.405 38.8535 164.324 38.1852 163.579C37.6724 163.008 37.9377 161.946 38.6589 161.683C39.3802 161.421 40.2664 162.063 40.2414 162.83C40.2328 163.093 40.1369 163.345 40.0623 163.597C39.5527 165.324 40.0259 167.181 40.6491 168.87C41.2802 170.58 42.2462 172.4 43.9802 172.962C45.986 173.612 48.2057 172.173 49.0948 170.261C49.9839 168.349 49.8485 166.129 49.538 164.043C49.5069 163.834 49.4509 163.593 49.2588 163.504C48.4785 163.144 48.3601 161.878 49.06 161.379C49.7599 160.881 50.9176 161.406 51.0033 162.261C51.0323 162.551 50.9584 162.84 50.9031 163.126C50.5198 165.112 51.0267 167.195 50.6066 169.173C50.3436 170.412 49.7131 171.571 48.8155 172.464C47.8637 173.412 46.5782 174.065 45.2354 174.088C43.4272 174.119 41.7363 172.997 40.7143 171.505C39.6923 170.013 39.2539 168.196 39.0486 166.399Z" fill="#902920"/>
<path fill-rule="evenodd" clip-rule="evenodd" d="M11.9746 103.317C12.4469 102.881 13.1652 102.895 13.8079 102.913C15.841 102.971 17.8802 102.813 19.8804 102.445C20.1162 102.402 20.243 102.768 20.0961 102.958C19.9492 103.147 19.6837 103.187 19.4452 103.211C17.1908 103.44 14.9269 103.576 12.6613 103.618C12.3914 103.623 12.0489 103.577 11.9746 103.317Z" fill="#902920"/>
<path fill-rule="evenodd" clip-rule="evenodd" d="M87.8739 110.941C87.6511 111.695 86.9104 112.161 86.204 112.507C82.6686 114.236 78.5124 114.659 74.701 113.678C73.4209 113.349 71.9625 112.587 71.9078 111.266C71.8675 110.295 72.6425 109.482 73.4631 108.961C74.7221 108.163 76.1897 107.76 77.6531 107.476C80.4761 106.927 83.5364 106.814 86.0919 108.133C87.1624 108.686 88.2153 109.786 87.8739 110.941M72.7812 111.117C72.7834 112.184 73.9734 112.809 75.0052 113.079C78.5882 114.019 82.5075 113.614 85.8222 111.96C86.3541 111.695 86.9155 111.345 87.0845 110.775C87.3115 110.009 86.7183 109.238 86.0602 108.786C84.0796 107.425 81.4597 107.611 79.0702 107.867C77.1473 108.073 75.0981 108.342 73.6323 109.603C73.1793 109.993 72.78 110.52 72.7812 111.117L72.7812 111.117Z" fill="#902920"/>
<path fill-rule="evenodd" clip-rule="evenodd" d="M-16.1464 48.4591C-16.267 47.7734 -15.794 47.092 -15.1847 46.7552C-14.5753 46.4184 -13.8571 46.3534 -13.162 46.3125C-6.96525 45.9479 -0.77826 46.9431 5.4206 47.2703C6.21847 47.3124 7.05969 47.3565 7.73088 47.7899C8.40207 48.2234 8.79609 49.1961 8.33176 49.8463C8.10721 50.1607 7.73588 50.3355 7.36745 50.4518C6.30467 50.7876 5.16432 50.743 4.05081 50.6951C-1.74431 50.446 -7.53943 50.1969 -13.3346 49.9477C-14.4851 49.8983 -15.947 49.5933 -16.1464 48.4591M-15.3517 47.4661C-15.6792 47.9276 -15.4051 48.6161 -14.932 48.9265C-14.4589 49.237 -13.8628 49.272 -13.2975 49.2974C-7.15579 49.5738 -1.01403 49.8502 5.12772 50.1266C5.72616 50.1535 6.38894 50.1594 6.84235 49.7679C7.29576 49.3764 7.23587 48.4427 6.64427 48.3487C-0.185276 47.2628 -7.11563 46.8119 -14.0283 47.0035C-14.5136 47.017 -15.0707 47.0702 -15.3517 47.4661" fill="#902920"/>
<path fill-rule="evenodd" clip-rule="evenodd" d="M51.8061 42.5098C52.7487 40.5456 54.2774 38.5209 56.4496 38.3534C57.8967 38.2418 59.432 38.495 60.5772 39.3865C62.6543 41.0034 62.799 44.1389 62.0568 46.6644C61.1819 49.6412 59.2294 52.3982 56.4287 53.7333C55.7606 54.0517 55.0342 54.2898 54.2947 54.2607C52.3298 54.1836 50.8989 52.2532 50.4758 50.3328C49.896 47.7008 50.6401 44.9396 51.8061 42.5098ZM54.2497 53.5414C55.7021 53.7392 57.0707 52.814 58.0954 51.7658C60.0158 49.8011 61.3052 47.2287 61.73 44.5143C61.8524 43.732 61.9032 42.9204 61.6904 42.1578C61.2718 40.6578 59.8499 39.5737 58.3241 39.2618C56.8568 38.9619 55.2444 39.3198 54.1133 40.3014C53.5697 40.7732 53.1476 41.369 52.779 41.9873C51.5766 44.0038 50.8932 46.3504 50.9769 48.6968C51.0147 49.7567 51.2155 50.8342 51.7522 51.749C52.2888 52.6639 53.1987 53.3983 54.2497 53.5414Z" fill="#902920"/>
<path fill-rule="evenodd" clip-rule="evenodd" d="M4.17443 125.873C4.36753 125.863 4.57476 125.856 4.73827 125.959C4.94034 126.087 5.01415 126.341 5.07234 126.573C5.19975 127.081 5.32789 127.609 5.22529 128.122C5.1227 128.635 4.71783 129.128 4.19501 129.151C2.86138 129.209 1.52776 129.267 0.194136 129.325C-0.328873 129.348 -0.941587 129.423 -1.20149 129.877C-1.37764 130.185 -1.32521 130.568 -1.26752 130.918C-1.10402 131.91 -0.641901 133.164 0.363005 133.128C1.03141 133.103 1.6272 133.611 1.91491 134.215C2.20263 134.818 2.24566 135.506 2.2839 136.173C2.31989 136.802 2.15951 137.661 1.53013 137.677C1.02248 137.689 0.882465 138.375 0.898586 138.883C1.0107 142.413 1.12281 145.942 1.23492 149.472C1.25299 150.041 0.524168 150.28 -0.0419846 150.337C-4.78625 150.816 -9.57998 150.803 -14.3217 150.299C-14.4917 150.281 -14.7088 150.215 -14.7126 150.044C-14.8004 146.055 -14.8881 142.067 -14.9759 138.079C-14.981 137.846 -15.0951 137.525 -15.3193 137.586C-16.026 137.779 -16.7365 137.124 -16.8828 136.406C-17.0291 135.688 -16.7781 134.955 -16.5308 134.266C-16.4164 133.947 -16.2881 133.609 -16.0146 133.409C-15.4306 132.983 -14.3511 133.287 -14.0895 132.612C-14.0463 132.501 -14.0379 132.379 -14.0421 132.259C-14.0786 131.218 -15.0485 130.396 -16.0702 130.19C-17.0918 129.984 -18.1449 130.255 -19.1398 130.565C-19.3678 129.705 -19.4262 128.8 -19.3107 127.917C-19.2835 127.709 -19.2411 127.49 -19.1012 127.333C-18.9017 127.11 -18.5692 127.079 -18.2702 127.063C-10.7886 126.666 -3.30711 126.27 4.17443 125.873ZM-15.7724 133.953C-15.9162 134.12 -15.9481 134.353 -15.974 134.572C-16.0415 135.143 -16.1091 135.713 -16.1766 136.284C-16.1908 136.404 -16.2041 136.53 -16.1558 136.641C-16.0522 136.878 -15.739 136.919 -15.4802 136.926C-14.1068 136.96 -12.7334 136.994 -11.3599 137.028C-11.1283 137.034 -10.8853 137.037 -10.6796 136.931C-10.3488 136.759 -10.2129 136.293 -10.3996 135.971C-10.2315 135.954 -10.0634 135.936 -9.89533 135.919C-9.96938 136.417 -9.46238 136.833 -8.96462 136.907C-8.46685 136.98 -7.96657 136.828 -7.46502 136.788C-6.41346 136.705 -5.3634 137.117 -4.31584 136.994C-4.20557 136.981 -4.08792 136.958 -4.01077 136.878C-3.90995 136.773 -3.91182 136.61 -3.92009 136.465C-3.9598 135.77 -3.9995 135.075 -4.03921 134.379C-4.05171 134.16 -4.0705 133.925 -4.21121 133.756C-4.4121 133.516 -4.77216 133.509 -5.08507 133.521C-6.59714 133.579 -8.10922 133.638 -9.62129 133.696C-9.72687 133.7 -9.84371 133.709 -9.91691 133.785C-9.99891 133.871 -9.99316 134.005 -9.98209 134.123C-9.93128 134.664 -9.88046 135.205 -9.82964 135.746C-10.0303 135.766 -10.227 135.824 -10.4055 135.918C-10.4502 135.492 -10.4948 135.065 -10.5395 134.639C-10.5802 134.25 -10.7325 133.752 -11.1233 133.747C-12.3713 133.73 -13.6193 133.714 -14.8672 133.697C-15.1916 133.693 -15.5607 133.707 -15.7724 133.953ZM-8.58353 138.15C-8.60435 137.863 -8.72877 137.483 -9.01503 137.513C-10.7945 137.705 -12.5957 137.694 -14.3727 137.481C-14.3289 141.353 -14.2568 145.225 -14.1563 149.096C-14.1434 149.594 -13.5145 149.794 -13.0188 149.845C-11.546 149.996 -10.0629 150.047 -8.58316 149.999C-8.46185 149.995 -8.33051 149.986 -8.23805 149.908C-8.11658 149.804 -8.10866 149.623 -8.11045 149.463C-8.1528 145.689 -8.31059 141.915 -8.58353 138.15ZM0.316362 137.934C0.267687 137.85 0.156754 137.833 0.0605335 137.825C-1.47029 137.695 -3.00902 137.659 -4.54427 137.716C-4.68337 137.721 -4.83233 137.73 -4.94248 137.816C-5.10994 137.945 -5.12016 138.189 -5.11553 138.401C-5.03089 142.266 -4.94625 146.13 -4.86162 149.995C-3.17142 150.159 -1.4506 149.999 0.180717 149.528C0.282198 149.498 0.389854 149.463 0.45545 149.381C0.52619 149.291 0.530964 149.168 0.532431 149.054C0.564415 146.568 0.500216 144.081 0.43602 141.595C0.405777 140.424 0.375532 139.253 0.345289 138.082C0.343977 138.031 0.341995 137.978 0.316362 137.934ZM-18.6654 128.138C-18.959 128.599 -18.6434 129.251 -18.161 129.509C-17.6787 129.766 -17.1006 129.741 -16.5546 129.71C-13.2511 129.518 -9.94759 129.327 -6.6441 129.135C-3.4937 128.953 -0.342951 128.77 2.80234 128.514C3.26304 128.477 3.74704 128.43 4.12766 128.167C4.50829 127.905 4.72945 127.351 4.47416 126.966C4.21807 126.579 3.6673 126.562 3.20425 126.585C-3.66003 126.939 -10.5243 127.294 -17.3886 127.648C-17.8628 127.672 -18.4106 127.737 -18.6654 128.138M-5.46102 149.907C-5.69315 146.134 -5.73913 142.35 -5.59874 138.573C-5.59067 138.356 -5.58351 138.13 -5.67011 137.931C-5.92294 137.349 -6.73621 137.351 -7.36286 137.448C-7.64943 137.492 -8.01519 137.629 -7.99368 137.918C-7.72504 141.531 -7.45621 145.15 -7.51654 148.773C-7.52453 149.252 -7.24996 149.726 -6.82989 149.958C-6.40981 150.19 -5.86246 150.169 -5.46102 149.907ZM1.62808 135.979C1.54644 135.48 1.46111 134.971 1.21805 134.528C0.974987 134.085 0.53964 133.714 0.0351315 133.689C-0.923418 133.641 -1.88197 133.594 -2.84052 133.546C-3.09004 133.533 -3.43484 133.609 -3.42282 133.858C-3.3863 134.617 -3.34977 135.375 -3.31324 136.134C-3.2973 136.465 -3.23558 136.865 -2.92875 136.99C-2.82983 137.031 -2.72018 137.034 -2.61332 137.036C-1.36355 137.065 -0.113785 137.094 1.13598 137.122C1.37445 137.128 1.57444 136.918 1.63959 136.688C1.70475 136.459 1.66663 136.214 1.62808 135.979ZM-4.42252 132.24C-4.54766 131.713 -4.67804 131.174 -4.97742 130.723C-5.27681 130.272 -5.78498 129.92 -6.32488 129.959C-7.15703 130.021 -7.98918 130.082 -8.82133 130.143C-9.33977 130.181 -9.92682 130.256 -10.2307 130.677C-10.5983 131.187 -10.3462 131.899 -10.4455 132.52C-10.4803 132.738 -10.3099 132.947 -10.106 133.032C-9.90203 133.116 -9.67287 133.107 -9.45231 133.095C-7.96267 133.019 -6.47303 132.942 -4.98339 132.865C-4.7647 132.854 -4.50226 132.814 -4.41511 132.613C-4.36467 132.497 -4.39322 132.363 -4.42252 132.24ZM-1.81277 131.285C-2.09621 130.897 -2.0892 130.322 -1.79638 129.941C-2.31853 129.616 -3.04978 129.676 -3.51211 130.081C-3.97444 130.486 -4.13016 131.203 -3.87747 131.764C-3.7884 131.961 -3.83939 132.195 -3.77666 132.402C-3.68754 132.697 -3.37935 132.882 -3.07389 132.92C-2.76843 132.958 -2.46203 132.878 -2.16467 132.798C-1.7746 132.694 -1.29987 132.485 -1.30364 132.081C-1.30664 131.759 -1.62283 131.545 -1.81277 131.285ZM-11.1224 132.669C-10.9494 132.103 -11.1821 131.458 -11.6262 131.067C-12.0704 130.676 -12.6925 130.523 -13.2818 130.576C-13.5186 130.598 -13.7656 130.656 -13.9369 130.821C-14.1083 130.986 -14.1697 131.283 -14.0152 131.463C-13.9011 131.597 -13.7058 131.636 -13.5864 131.765C-13.4042 131.961 -13.4657 132.275 -13.3822 132.53C-13.1937 133.105 -12.4124 133.16 -11.8094 133.105C-11.603 133.086 -11.3752 133.057 -11.2394 132.9C-11.1823 132.834 -11.1478 132.752 -11.1224 132.669ZM-11.0241 130.764C-10.8843 130.629 -10.8589 130.392 -10.9671 130.23C-11.2078 130.158 -11.477 130.301 -11.6036 130.518C-11.5095 130.734 -11.2449 130.858 -11.0187 130.794M-4.15468 130.165C-4.11957 130.07 -4.14022 129.958 -4.2065 129.882C-4.43493 129.809 -4.70107 129.874 -4.87077 130.043C-4.69612 130.241 -4.37843 130.295 -4.14856 130.165L-4.15468 130.165Z" fill="#902920"/>
<path fill-rule="evenodd" clip-rule="evenodd" d="M87.9403 114.126C80.6167 116.99 73.2931 119.854 65.9695 122.718C62.8192 123.95 59.1745 125.799 58.8366 129.164C63.1162 125.872 68.4026 123.907 73.7937 123.605C70.0693 128.298 65.3665 132.21 60.0745 135.018C55.3221 137.54 49.3052 140.229 48.8976 145.594C54.0016 139.516 61.8489 135.837 69.7854 135.8C64.7078 143.237 56.5661 148.512 47.7035 150.106C48.0077 152.392 48.3118 154.677 48.616 156.962C51.6273 156.856 54.6568 157.286 57.519 158.228C59.5572 166.985 61.5955 175.742 63.6338 184.498C64.1354 186.653 64.577 189.129 63.2574 190.905C61.9484 192.667 59.4762 192.97 57.287 193.126C48.6584 193.739 40.0297 194.352 31.4011 194.966C30.368 190.285 29.3349 185.605 28.3017 180.925C13.7471 182.276 -0.807625 183.628 -15.3623 184.979C-18.4274 185.264 -21.669 185.519 -24.4426 184.183C-34.5025 179.34 -46.7007 188.715 -57.3261 185.285C-47.9905 185.109 -38.6838 183.481 -29.8431 180.476C-26.6369 179.387 -22.7981 176.402 -24.4733 173.46C-32.6719 179.18 -43.1914 181.464 -53.024 179.658C-52.4467 170.109 -52.818 160.503 -54.1306 151.027C-47.1343 150.027 -40.2395 148.318 -33.5852 145.937C-31.7342 145.275 -29.83 144.513 -28.5119 143.054C-27.1938 141.596 -26.6609 139.239 -27.819 137.651C-37.9401 143.044 -49.626 145.458 -61.0555 144.516C-60.4591 157.448 -59.8627 170.381 -59.2663 183.314C-60.9558 170.39 -61.8517 157.363 -61.9475 144.33C-56.064 143.809 -50.1806 143.287 -44.2971 142.765C-45.2431 138.566 -46.1951 134.27 -45.7091 129.993C-45.2232 125.715 -43.0217 121.384 -39.1522 119.498C-42.0797 113.254 -46.5039 107.718 -51.9488 103.486C-58.3318 98.5248 -66.5382 94.7846 -69.4531 87.2441C-71.3804 82.2584 -70.435 76.4593 -67.7664 71.8279C-65.0978 67.1965 -60.8691 63.6289 -56.2731 60.8998C-62.6007 59.2734 -67.3936 52.9658 -67.2654 46.4337C-67.1372 39.9016 -62.1004 33.787 -55.7138 32.4102C-58.7249 28.8219 -63.4664 27.1772 -66.9297 24.0231C-70.9642 20.3488 -72.9916 14.4217 -71.522 9.16645C-70.0523 3.91117 -64.878 -0.223601 -59.4261 0.00938345C-54.9478 0.20076 -51.0069 3.03317 -47.8809 6.24564C-43.0329 11.2278 -39.4274 17.4099 -37.478 24.0827C-36.1787 28.5303 -31.4169 30.7929 -27.3956 33.0946C-23.3742 35.3963 -19.198 39.4056 -20.331 43.8984C-21.8289 37.7505 -26.8589 32.5971 -32.9687 30.9506C-36.1523 30.0927 -37.3126 26.3041 -38.3367 23.17C-40.3295 17.0711 -43.7314 11.4373 -48.201 6.834C-51.56 3.37453 -55.9516 0.35575 -60.7665 0.615652C-65.7232 0.883205 -70.0926 4.91517 -71.2258 9.74795C-72.359 14.5807 -70.459 19.8762 -66.8423 23.2761C-63.1585 26.7392 -57.8884 28.4355 -54.9185 32.5273C-61.3598 33.8363 -66.4523 40.0353 -66.4862 46.6082C-66.52 53.1812 -61.4916 59.4322 -55.064 60.8075C-59.5936 63.459 -63.8321 66.8271 -66.6267 71.2698C-69.4214 75.7126 -70.6193 81.3514 -68.9472 86.3265C-65.0796 97.8337 -48.9591 100.58 -43.2702 111.305C-41.7295 106.244 -43.988 100.923 -45.1488 95.7619C-46.3096 90.6007 -45.6535 83.9731 -40.8416 81.7753C-42.2479 74.9973 -43.6542 68.2192 -45.0605 61.4412C-46.1084 56.3905 -46.6342 49.9915 -42.2893 47.2112C-45.3506 46.2618 -48.0677 44.2394 -49.8558 41.5793C-47.9248 44.5351 -44.2056 46.2122 -40.712 45.7026C-45.1269 36.1321 -50.0221 26.7833 -55.3731 17.7029C-49.6073 26.3967 -44.5045 35.53 -40.1235 44.9974C-19.8605 44.4491 0.434166 45.0734 20.6251 46.866C23.3059 47.104 26.1911 47.4505 28.1728 49.2716C31.0206 51.8885 35.2962 52.843 38.9866 51.6856C40.1606 54.5963 41.0245 57.8656 40.0264 60.8412C39.0282 63.8168 35.493 66.088 32.6669 64.723C33.4046 68.5181 34.1423 72.3133 34.88 76.1085C42.1056 76.1953 49.3304 76.3429 56.5535 76.5511C60.3818 76.6614 64.3832 76.8356 67.7105 78.7323C71.0377 80.629 73.3858 84.8303 71.9037 88.3618C72.8489 85.4433 73.7942 82.5248 74.7395 79.6063C78.0713 84.8949 79.7077 91.234 79.3519 97.4745C80.5061 95.7183 81.6602 93.9622 82.8144 92.206C78.7138 85.7521 78.1918 77.1743 81.4796 70.2708C84.7041 75.6107 86.5204 81.7925 86.6967 88.0279C87.8992 76.7902 95.8613 66.5451 106.454 62.6052C104.616 66.8399 102.779 71.0747 100.941 75.3094C99.3673 78.9352 97.3684 82.9567 93.5875 84.1086C91.0934 84.8684 87.4821 84.8223 87.0298 87.3901C94.1934 85.5117 101.818 85.4187 109.025 87.1218C103.472 93.7989 92.7694 95.4429 85.4675 90.7407C82.0228 94.5825 79.0382 98.8366 76.5978 103.383C80.7431 98.2312 87.1944 95.0093 93.8034 94.7904C90.2527 98.9869 86.2477 102.799 81.881 106.138C84.1986 106.361 86.7045 106.666 88.3856 108.277C90.0668 109.888 90.1087 113.278 87.9403 114.126ZM-8.7319 71.8351C-6.81113 71.8129 -4.65975 71.8811 -3.31892 73.2567C-2.29605 74.306 -2.02185 75.8538 -1.79887 77.3021C-0.779144 83.9257 0.175652 90.5592 1.06532 97.2015C1.28848 98.8676 -0.108376 100.405 -1.70412 100.933C-3.29986 101.462 -5.0349 101.23 -6.69897 100.992C-5.3115 99.7947 -2.96908 100.653 -1.47569 99.5905C-0.136368 98.6375 -0.144081 96.6805 -0.304451 95.0446C-0.905731 88.9111 -1.72449 82.7989 -2.7587 76.7234C-2.94151 75.6494 -3.16544 74.5069 -3.9262 73.7271C-4.93923 72.6887 -6.55809 72.6196 -8.00879 72.6178C-13.9637 72.6104 -19.9186 72.603 -25.8735 72.5955C-26.8999 72.5943 -27.9798 72.6065 -28.8709 73.1158C-31.4349 74.5813 -30.4897 78.4521 -29.2151 81.1163C-25.6042 80.3843 -21.9146 80.0411 -18.2307 80.0946C-14.9671 80.142 -10.8972 81.2017 -10.3469 84.419C-9.13784 91.487 -7.9288 98.555 -6.71976 105.623C-6.08584 109.329 -5.73641 113.831 -8.69804 116.148C-10.1779 117.305 -12.142 117.581 -14.0058 117.816C-18.5887 118.396 -23.1715 118.975 -27.7543 119.555C-25.8456 136.267 -23.9369 152.98 -22.0282 169.692C-21.8153 171.557 -21.4255 173.699 -19.7863 174.612C-18.8167 175.153 -17.6404 175.108 -16.5322 175.048C-1.92998 174.252 12.6581 173.197 27.223 171.885C26.6405 170.558 26.629 168.991 27.1919 167.655C28.6671 176.291 30.1423 184.928 31.6176 193.564C34.2005 191.784 33.8034 187.919 33.1177 184.858C31.3815 177.108 29.6454 169.357 27.9093 161.607C27.2064 162.896 26.5035 164.186 25.8007 165.475C25.4556 163.865 26.4216 162.2 27.7613 161.243C29.101 160.285 30.7524 159.893 32.3623 159.548C37.3118 158.487 42.315 157.676 47.3464 157.12C45.8842 146.806 44.4221 136.492 42.9599 126.177C33.9707 128.647 24.451 127.869 15.1629 127.073C12.4119 126.837 8.91578 125.912 8.65343 123.163C7.99393 116.253 7.33444 109.344 6.67495 102.434C6.58897 101.533 6.06709 100.32 5.20779 100.604C3.09634 101.301 1.84058 98.2925 1.66773 96.0757C1.12557 89.1222 0.583412 82.1687 0.0412521 75.2152C-0.0298462 74.3034 -0.0482559 73.2508 0.631752 72.6391C1.10786 72.2108 1.79368 72.1324 2.4314 72.0741C6.98125 71.6581 11.5311 71.2421 16.081 70.8261C18.6791 70.5885 21.6304 70.4657 23.521 72.2636C24.8554 73.5326 25.3031 75.4568 25.5847 77.2766C26.1039 80.6304 26.2757 84.0378 26.0967 87.4268C25.7362 84.1141 25.3757 80.8014 25.0151 77.4887C24.8529 75.9981 24.6547 74.4176 23.7131 73.2508C22.1059 71.2594 19.1158 71.2929 16.5654 71.5027C12.0094 71.8776 7.45341 72.2525 2.89744 72.6273C2.28391 72.6778 1.6189 72.7504 1.17293 73.1748C0.592705 73.7269 0.609039 74.6407 0.667061 75.4395C1.15521 82.1595 1.64336 88.8795 2.1315 95.5995C2.22363 96.8678 2.34901 98.2237 3.15089 99.2107C3.95277 100.198 5.69252 100.508 6.44174 99.4801C5.41528 97.2235 6.83512 94.4606 8.93662 93.1456C11.0381 91.8306 13.6173 91.5991 16.0885 91.4019C20.3504 91.0619 24.6124 90.7218 28.8743 90.3818C28.5822 81.5606 27.6309 72.7612 26.031 64.0814C24.5569 63.6691 23.2146 62.7979 22.2378 61.6194C21.507 63.5021 19.33 64.6987 17.3488 64.3065C15.3676 63.9142 13.8107 61.9785 13.8524 59.9593C13.6174 62.283 11.593 64.2984 9.26831 64.5232C6.94361 64.748 4.57062 63.1576 3.89481 60.922C2.7816 62.1636 1.337 63.2335 -0.32373 63.3846C-1.98446 63.5358 -3.82148 62.4871 -4.09155 60.8415C-6.27258 63.671 -11.3414 63.3839 -13.189 60.3262C-15.0893 63.4625 -20.4994 63.3854 -22.3096 60.1963C-23.1225 63.1446 -27.66 63.3805 -29.838 61.2336C-32.016 59.0866 -32.44 55.7793 -32.7431 52.7361C-36.3383 56.2001 -36.9869 61.7649 -36.3045 66.7106C-35.6222 71.6562 -33.844 76.4203 -33.4127 81.3941C-32.4277 81.6418 -31.3474 81.4855 -30.4731 80.9687C-31.4174 78.1147 -32.0385 74.2805 -29.4748 72.7106C-28.4465 72.0809 -27.174 72.0486 -25.9682 72.0347C-20.2228 71.9682 -14.4773 71.9016 -8.7319 71.8351ZM48.1854 119.865C55.7219 119.491 63.4968 120.473 70.659 118.097C71.7673 117.73 72.9027 117.245 73.6168 116.322C71.7872 115.481 69.8443 114.031 69.8891 112.018C69.9185 110.696 70.8345 109.553 71.8667 108.726C72.9501 107.859 74.2115 107.214 75.5495 106.845C75.6581 106.513 75.0756 106.442 74.7872 106.637C74.4987 106.833 74.0609 107.075 73.869 106.784C73.8175 106.706 73.807 106.609 73.7978 106.516C73.0789 99.2001 72.0137 91.9186 70.6068 84.7037C70.1838 82.5344 69.5552 80.118 67.6433 79.0094C66.6108 78.4107 65.3736 78.3102 64.183 78.2279C55.2208 77.6078 46.242 77.228 37.2595 77.089C35.1368 77.0561 32.7619 77.1351 31.2737 78.6492C30.1447 79.7978 29.8214 81.5038 29.7019 83.1099C29.3316 88.0832 30.3967 93.0339 31.0895 97.9726C31.9195 103.889 32.2182 109.865 32.7656 115.813C32.8384 116.605 32.9268 117.43 33.3551 118.1C34.0891 119.248 35.5795 119.608 36.9292 119.798C38.9231 120.077 40.9396 120.195 42.9525 120.151C44.6991 120.112 46.4405 119.951 48.1854 119.865ZM-13.6674 81.4907C-16.2188 80.3692 -19.141 80.6695 -21.9094 80.9909C-26.097 81.4771 -30.2846 81.9633 -34.4722 82.4494C-36.4849 82.6831 -38.4996 82.9171 -40.4907 83.2926C-40.9707 83.3831 -41.4524 83.4827 -41.9053 83.6658C-43.68 84.3831 -44.7381 86.2968 -44.9843 88.1951C-45.2305 90.0934 -44.8086 92.0073 -44.4041 93.8783C-43.147 99.6932 -42.0321 105.563 -41.7296 111.504C-41.6698 112.68 -41.6397 113.872 -41.3164 115.005C-40.9931 116.137 -40.333 117.227 -39.3009 117.794C-38.5069 118.23 -37.5742 118.321 -36.6702 118.38C-28.3838 118.925 -20.1019 117.589 -11.9052 116.257C-10.739 116.067 -9.51201 115.851 -8.60289 115.096C-7.19885 113.931 -6.98906 111.88 -6.99916 110.056C-7.0178 106.686 -7.4258 103.318 -8.21244 100.041C-9.1325 96.2085 -10.5771 92.4384 -10.6154 88.4969C-10.6323 86.7586 -10.4041 84.8853 -11.3111 83.4023C-11.8471 82.5259 -12.727 81.904 -13.6674 81.4907ZM-53.0989 154.471C-51.985 162.474 -51.6107 170.581 -51.9825 178.653C-52.0021 179.079 -51.4851 179.295 -51.0667 179.375C-45.7082 180.4 -40.1898 179.087 -34.9902 177.436C-32.0344 176.498 -29.0763 175.428 -26.52 173.672C-25.3506 172.869 -24.1673 171.659 -24.386 170.257C-25.7908 161.252 -26.5634 152.148 -26.6964 143.035C-31.4275 146.731 -37.4313 148.3 -43.2501 149.78C-46.008 150.482 -48.8033 151.188 -51.6489 151.164C-52.3367 151.159 -52.9079 151.763 -53.1002 152.423C-53.2924 153.084 -53.1937 153.789 -53.0989 154.471M55.6509 158.517C46.7887 157.654 37.7482 158.667 29.297 161.471C29.8045 165.331 30.4978 169.167 31.3738 172.96C31.7246 174.479 32.1047 175.992 32.4847 177.504C33.2247 180.448 33.9648 183.393 34.7048 186.337C34.8078 186.747 34.9369 187.195 35.2901 187.427C35.6055 187.634 36.0135 187.61 36.3894 187.579C45.1403 186.849 53.8862 186.059 62.6261 185.207C60.7155 176.69 58.8049 168.173 56.8943 159.656C56.8209 159.329 56.7324 158.977 56.4721 158.765C56.2467 158.582 55.9399 158.545 55.6509 158.517ZM42.5862 121.129C40.6578 121.228 38.7005 121.324 36.8176 120.896C34.9347 120.468 33.1024 119.442 32.1354 117.77C31.5804 118.409 30.477 118.457 29.8687 117.869C29.2604 117.28 29.2714 116.176 29.8913 115.6C27.4416 115.622 24.9919 115.644 22.5422 115.666C23.6617 116.326 23.5697 118.27 22.4124 118.861C21.2551 119.452 19.6531 118.454 19.6263 117.155C19.6143 116.572 19.9719 115.917 20.5528 115.865C20.3121 115.452 19.6867 115.696 19.2109 115.651C18.4941 115.583 18.1023 114.802 17.8508 114.128C16.8309 111.391 15.9029 108.622 14.9751 105.853C15.6249 106.916 17.0879 107.394 18.2403 106.92C18.6474 106.753 18.6598 106.167 18.4864 105.763C18.1838 105.056 17.494 104.511 16.7277 104.451C15.9614 104.391 15.164 104.859 14.9049 105.583C14.5209 105.296 14.6845 104.632 15.0874 104.372C15.4903 104.112 16.0064 104.135 16.4851 104.163C21.0034 104.436 25.5385 104.432 30.0564 104.15C30.2619 104.138 30.4887 104.115 30.6288 103.964C30.7873 103.793 30.772 103.529 30.7469 103.298C30.5742 101.709 30.4015 100.12 30.2288 98.5305C30.2096 98.3543 30.1823 98.1614 30.0507 98.0428C29.9056 97.912 29.6872 97.9181 29.4924 97.9319C23.8292 98.3354 18.1807 98.9451 12.5619 99.7592C11.9637 99.8458 11.4074 99.3438 11.2186 98.7697C11.0298 98.1955 11.1171 97.5717 11.2062 96.9739C11.2375 96.7641 11.2774 96.5373 11.4328 96.3928C11.5759 96.2598 11.7832 96.2287 11.9769 96.2039C17.8227 95.4578 23.7067 95.01 29.5981 94.863C29.4552 95.4451 28.6962 95.5705 28.0969 95.5811C22.6291 95.6781 17.1674 96.1164 11.7541 96.8926C11.3219 97.6318 11.9142 98.6275 12.7121 98.9383C13.51 99.2491 14.4039 99.083 15.2454 98.9246C19.8834 98.0517 24.5889 97.5372 29.3061 97.3874C29.9795 97.366 30.0601 96.3969 29.9185 95.7381C29.5898 94.2082 29.2611 92.6783 28.9324 91.1484C25.6657 91.7671 22.3288 92.0139 19.0066 91.8826C17.0409 91.805 15.0856 92.1485 13.1483 92.4907C11.5019 92.7816 9.74724 93.1263 8.55739 94.3009C7.16652 95.6739 6.9173 97.8207 7.00179 99.7732C7.14039 102.977 7.95317 106.11 8.35444 109.291C8.84469 113.178 8.7185 117.117 9.09497 121.017C9.1964 122.067 9.34103 123.137 9.81203 124.082C10.283 125.026 11.1392 125.837 12.1831 125.993C20.7609 127.272 29.507 127.417 38.1225 126.424C38.9183 126.332 39.7213 126.229 40.4726 125.951C41.6583 125.512 42.6751 124.633 43.28 123.522C43.5228 123.077 43.704 122.567 43.6155 122.067C43.527 121.568 43.093 121.104 42.5862 121.129ZM-25.9897 143.042C-25.092 152.918 -24.1943 162.794 -23.2966 172.67C-23.1352 174.446 -22.98 176.279 -23.5348 177.973C-24.0896 179.667 -25.5492 181.198 -27.3307 181.257C-26.2848 182.786 -24.4797 183.661 -22.6544 183.982C-20.829 184.302 -18.9576 184.132 -17.1123 183.962C-1.90742 182.557 13.2974 181.152 28.5022 179.747C28.1759 177.847 27.8495 175.947 27.5231 174.047C27.4499 173.621 27.2404 173.08 26.809 173.112C16.3548 173.891 5.90063 174.67 -4.55357 175.449C-8.84652 175.769 -13.1604 176.089 -17.4509 175.738C-19.6219 175.561 -22.3033 174.698 -22.5175 172.53C-24.2314 155.186 -26.2155 137.869 -28.469 120.587C-28.5037 120.321 -28.5467 120.037 -28.7285 119.84C-28.9711 119.577 -29.3727 119.557 -29.7305 119.555C-31.8683 119.544 -34.006 119.533 -36.1437 119.522C-35.5194 123.064 -34.7089 126.573 -33.7169 130.029C-33.5335 130.668 -33.2285 131.414 -32.574 131.529C-30.2234 131.942 -28.3683 133.875 -27.4012 136.057C-26.4341 138.239 -26.2057 140.665 -25.9897 143.042ZM-34.2024 81.5673C-36.0372 72.2609 -37.5897 62.8989 -38.8569 53.4984C-38.9285 52.9668 -38.9979 52.4155 -38.8414 51.9023C-38.519 50.8447 -37.3621 50.2904 -36.2862 50.0352C-34.1829 49.5363 -31.9865 49.7028 -29.8306 49.8617C-10.1202 51.3151 9.6545 51.8966 29.4163 51.6041C28.6304 50.01 27.0498 48.9226 25.3686 48.346C23.6874 47.7694 21.8906 47.6415 20.1175 47.5189C2.72186 46.3167 -14.7 45.1902 -32.1359 45.4001C-34.2691 45.4258 -36.4272 45.4749 -38.487 46.0304C-40.5468 46.5859 -42.5286 47.7046 -43.7169 49.4764C-45.5895 52.2683 -45.1366 55.9563 -44.557 59.2677C-43.1997 67.0224 -41.5484 74.7256 -39.6079 82.3553C-37.806 82.0926 -36.0042 81.8299 -34.2024 81.5673ZM8.23763 63.3781C9.17959 63.388 10.1584 63.3352 10.992 62.8963C12.4599 62.1236 13.1116 60.3433 13.2086 58.6873C13.3055 57.0312 12.9786 55.3714 13.084 53.7159C13.108 53.3385 13.3188 52.8384 13.6848 52.9332C13.95 54.839 14.2151 56.7448 14.4802 58.6507C14.6266 59.7029 14.7787 60.7747 15.2398 61.7318C15.7008 62.6889 16.5295 63.5302 17.5728 63.7306C18.1719 63.8458 18.7975 63.7426 19.3686 63.5279C20.7359 63.0139 21.8819 61.7054 21.83 60.2455C21.7582 58.23 21.6864 56.2144 21.6146 54.1989C21.5862 53.4015 21.2898 52.339 20.493 52.3807C15.1806 52.6591 9.85242 52.6345 4.54285 52.3071C4.15572 52.2833 4.05358 52.8318 4.09458 53.2175C4.30709 55.2167 4.5196 57.2159 4.73212 59.2151C4.89256 60.7245 5.23512 62.4986 6.6201 63.1198C7.12199 63.3449 7.6876 63.3723 8.23763 63.3781ZM35.4845 188.826C35.23 189.004 35.062 189.279 34.9071 189.548C34.1014 190.951 33.4538 192.444 32.9807 193.991C42.2799 193.341 51.5716 192.586 60.8536 191.726C61.2026 191.694 61.5811 191.648 61.8314 191.403C61.9938 191.244 62.0771 191.023 62.1557 190.809C62.5031 189.866 62.8506 188.922 63.1981 187.978C63.3672 187.519 63.5173 186.947 63.1867 186.586C62.9121 186.286 62.445 186.296 62.0397 186.329C53.5532 187.008 45.0709 187.741 36.5934 188.525C36.2074 188.561 35.8019 188.603 35.4845 188.826ZM51.8772 131.534C51.6259 128.601 51.1136 125.308 48.7193 123.594C47.7849 126.167 46.8419 128.778 46.6282 131.507C46.4144 134.236 47.0175 137.144 48.8479 139.18C49.105 139.466 49.3912 139.743 49.5275 140.103C49.6638 140.462 49.5947 140.937 49.2607 141.128C46.7726 138.963 45.7427 135.491 45.801 132.193C45.8592 128.896 46.87 125.698 47.8713 122.556C48.0913 121.866 47.4619 121.139 46.7555 120.978C46.049 120.818 45.3193 121.054 44.6334 121.287C44.4998 121.332 44.441 121.485 44.3988 121.619C43.9244 123.131 43.4456 124.734 43.8131 126.275C45.3961 132.915 45.1918 139.883 46.8031 146.517C46.8626 146.762 46.9271 147.012 47.0698 147.219C48.1385 145.13 49.2072 143.04 50.2759 140.951C50.7781 139.969 51.2831 138.98 51.5966 137.922C52.2061 135.866 52.0603 133.671 51.8772 131.534ZM89.6837 83.3387C89.8901 83.5091 90.1673 83.5627 90.4333 83.5925C93.4554 83.9305 96.3073 81.8734 97.9809 79.3343C99.6545 76.7953 100.445 73.7955 101.542 70.9593C102.572 68.2974 103.889 65.7468 105.463 63.3661C102.311 66.3233 98.4317 68.394 95.1422 71.1968C91.8527 73.9995 89.0531 77.9306 89.2852 82.2459C89.3067 82.6449 89.3755 83.0844 89.6837 83.3387ZM-31.3554 54.7393C-30.9258 56.6225 -31.1034 58.7152 -30.0601 60.3407C-29.0486 61.9165 -26.915 62.6676 -25.1395 62.0727C-23.364 61.4779 -22.1134 59.5931 -22.2554 57.726C-22.2877 57.3017 -22.3835 56.885 -22.479 56.4703C-22.8531 54.8456 -23.2272 53.2209 -23.6012 51.5961C-23.6385 51.4345 -23.6801 51.2645 -23.7947 51.1446C-23.959 50.9727 -24.2222 50.9527 -24.4598 50.9436C-26.7452 50.8561 -29.0306 50.7686 -31.316 50.6811C-31.5358 50.6727 -31.7772 50.671 -31.9481 50.8096C-32.1643 50.9849 -32.1767 51.3071 -32.1486 51.5841C-32.0389 52.6645 -31.5969 53.6806 -31.3554 54.7393ZM30.5073 56.4967C30.5619 59.0979 32.2566 61.3598 34.0438 63.2505C34.2184 63.4352 34.3974 63.6206 34.6154 63.7509C34.9681 63.9618 35.3973 64.0117 35.8067 63.9765C37.1874 63.8578 38.3684 62.8138 38.9512 61.5565C39.5339 60.2992 39.5996 58.8609 39.4742 57.4809C39.3487 56.1008 39.0432 54.7417 38.9199 53.3614C38.8952 53.0846 38.7936 52.7232 38.5157 52.7242C36.0724 52.7336 33.6291 52.743 31.1858 52.7523C30.8733 52.7535 30.542 52.7599 30.278 52.9272C30.014 53.0945 29.8667 53.4852 30.0625 53.7288C30.6606 54.4729 30.4872 55.5421 30.5073 56.4967ZM67.6626 136.96C60.9686 136.842 54.832 140.81 50.1498 145.596C49.3605 146.402 48.5899 147.249 48.0646 148.248C47.9717 148.424 47.8984 148.67 48.0507 148.799C48.1317 148.868 48.2477 148.872 48.3539 148.872C52.2484 148.858 55.9939 147.213 59.1581 144.943C62.3223 142.672 64.9883 139.791 67.6626 136.96ZM-15.1679 61.6031C-14.2117 61.0526 -13.5962 59.9564 -13.6241 58.8534C-13.6382 58.2939 -13.8035 57.7512 -13.9365 57.2075C-14.2786 55.8088 -14.4115 54.3591 -14.3297 52.9215C-14.3122 52.6154 -14.286 52.3008 -14.3781 52.0082C-14.4701 51.7157 -14.7143 51.4467 -15.0205 51.4299C-17.5501 51.2918 -20.0798 51.1537 -22.6094 51.0155C-22.7004 51.0106 -22.7996 51.0079 -22.8731 51.0618C-22.987 51.1454 -22.9806 51.3147 -22.9595 51.4543C-22.6482 53.5128 -21.6521 55.4518 -21.5882 57.5327C-21.5646 58.2984 -21.667 59.0831 -21.4526 59.8185C-21.178 60.7604 -20.3937 61.5038 -19.4836 61.8702C-18.5736 62.2366 -17.5525 62.2574 -16.5871 62.0832C-16.0932 61.9941 -15.6029 61.8535 -15.1679 61.6031ZM86.0522 89.7818C87.8843 90.2987 89.5039 91.3792 91.2812 92.0609C95.2213 93.5721 99.9112 92.9411 103.312 90.4423C104.772 89.3693 106.232 88.2964 107.692 87.2234C105.912 87.6447 104.071 87.806 102.245 87.7008C99.1939 87.5249 96.1809 86.6111 93.1332 86.8399C90.5407 87.0346 88.0194 88.0821 86.0522 89.7818ZM33.7357 75.6847C33.3757 73.69 33.0156 71.6954 32.6555 69.7007C32.1729 67.0272 31.6903 64.3538 31.2076 61.6803C31.1734 61.4907 31.1319 61.2872 30.9914 61.1553C30.8508 61.0234 30.5767 61.023 30.5001 61.1999C30.0181 62.3124 29.0312 63.1943 27.8717 63.5485C27.1682 63.7634 27.1079 64.7234 27.1897 65.4545C27.7666 70.6124 28.4496 75.7585 29.2381 80.8884C29.4674 78.7903 31.2653 76.9683 33.3602 76.7111C33.7677 76.661 33.8087 76.0888 33.7357 75.6847ZM-4.75259 59.4589C-4.9764 57.3085 -5.25873 55.1642 -5.59916 53.0292C-5.66936 52.5889 -5.85686 52.04 -6.30229 52.0204C-8.6047 51.9194 -10.9071 51.8184 -13.2095 51.7174C-13.2916 51.7138 -13.3783 51.7112 -13.4509 51.7497C-13.6367 51.8482 -13.6063 52.1193 -13.5516 52.3224C-13.0206 54.2938 -12.7388 56.3322 -12.715 58.3737C-12.7091 58.876 -12.7149 59.3977 -12.5047 59.854C-12.1952 60.5255 -11.4908 60.9107 -10.8213 61.2244C-9.65438 61.7711 -8.37861 62.2517 -7.10541 62.0532C-5.8322 61.8547 -4.61919 60.7405 -4.75259 59.4589ZM-3.75804 59.4711C-3.52576 60.5962 -3.10014 61.9051 -1.9978 62.2285C-1.06753 62.5015 -0.0617676 62.5768 0.871361 62.3137C1.80449 62.0507 2.65538 61.4243 3.07288 60.5493C3.37005 59.9265 3.4371 59.2216 3.47584 58.5326C3.58195 56.6451 3.509 54.7476 3.25832 52.8739C3.2449 52.7736 3.23001 52.6705 3.17936 52.5828C3.0449 52.3502 2.72834 52.3176 2.45975 52.3117C0.115265 52.2607 -2.22922 52.2096 -4.57371 52.1585C-4.76522 52.1543 -5.03265 52.3534 -4.8707 52.4557C-4.60835 54.8097 -4.23694 57.1515 -3.75804 59.4711ZM75.0208 82.7561C73.1895 86.8969 72.6501 91.5982 73.4962 96.0461C73.8342 97.823 74.4986 99.7085 76.0368 100.66C76.4894 100.94 77.244 101.023 77.4114 100.518C79.3571 94.6478 78.4493 87.9028 75.0208 82.7561ZM-43.6892 134.746C-42.9123 135.279 -42.0365 135.667 -41.1198 135.886C-39.9615 136.162 -38.7586 136.165 -37.5682 136.194C-34.7867 136.261 -32.0086 136.474 -29.2494 136.832C-28.8644 136.882 -28.5462 136.465 -28.5564 136.077C-28.5666 135.689 -28.8026 135.346 -29.0473 135.045C-30.5189 133.232 -32.668 131.983 -34.9715 131.601C-36.6033 131.33 -38.2718 131.482 -39.9253 131.434C-41.5787 131.387 -43.3046 131.107 -44.6231 130.108C-44.6929 131.057 -44.6985 132.012 -44.6397 132.963C-44.6159 133.347 -44.5771 133.746 -44.381 134.078C-44.2167 134.356 -43.9556 134.563 -43.6892 134.746ZM23.2324 60.9697C23.492 61.4407 23.9088 61.8036 24.3356 62.1307C24.7981 62.4851 25.2978 62.8169 25.8658 62.947C27.2645 63.2674 28.6947 62.231 29.2842 60.9227C29.8737 59.6145 29.8139 58.1148 29.6775 56.6864C29.5744 55.6063 29.4339 54.5299 29.2563 53.4596C29.2267 53.2811 29.1925 53.0945 29.0802 52.9526C28.8834 52.7037 28.523 52.6748 28.2058 52.6663C26.5006 52.621 24.7954 52.5757 23.0903 52.5304C22.7127 52.5203 22.1764 52.7009 22.2885 53.0616C22.7904 54.6761 23.0092 56.3782 22.932 58.0671C22.887 59.0527 22.7561 60.1057 23.2324 60.9697ZM83.5784 90.9463C85.3888 88.0247 85.9308 84.3462 85.0398 81.0267C84.2521 78.0917 82.4211 75.4919 81.8405 72.509C80.4876 76.6145 79.1251 81.0339 80.3491 85.1797C80.9764 87.3044 82.2435 89.1783 83.5784 90.9463ZM53.5866 136.91C58.971 135.523 63.9413 132.566 67.7297 128.496C68.8632 127.279 70.0235 126.086 71.2095 124.919C68.3038 125.318 65.4674 126.216 62.8624 127.564C58.8884 129.619 55.4013 132.82 53.5866 136.91ZM86.3918 101.172C88.3721 99.3104 90.3524 97.4492 92.3327 95.588C85.6354 96.4417 79.381 100.312 75.628 105.924C76.5954 106.669 77.9833 106.23 79.1117 105.764C80.6811 105.115 82.2639 104.458 83.6611 103.493C84.6449 102.813 85.5204 101.991 86.3918 101.172ZM-43.8596 141.848C-43.8429 142.02 -43.8226 142.202 -43.7184 142.34C-43.4905 142.641 -43.0257 142.567 -42.6627 142.461C-38.5069 141.247 -34.4094 139.833 -30.3891 138.226C-30.0993 138.11 -29.7612 137.927 -29.7554 137.614C-32.8396 137.401 -35.9238 137.187 -39.008 136.973C-39.7623 136.92 -40.5196 136.868 -41.2591 136.71C-42.3716 136.472 -43.4323 135.995 -44.3484 135.321C-44.2812 137.502 -44.0704 139.676 -43.8596 141.848ZM53.5677 120.982C53.3189 121.162 53.2183 121.479 53.1328 121.774C52.8392 122.786 52.5442 123.859 52.8168 124.877C52.9557 125.395 53.2346 125.863 53.5102 126.324C54.2725 127.598 55.0348 128.872 55.7971 130.147C55.868 130.265 55.9449 130.39 56.0673 130.454C56.4314 130.645 56.7908 130.196 56.9598 129.821C58.0569 127.388 59.1789 124.815 58.9301 122.157C58.8918 121.748 58.7808 121.284 58.4156 121.097C58.2479 121.011 58.0531 121 57.8649 120.991C56.7347 120.935 55.6046 120.878 54.4744 120.822C54.1616 120.807 53.8215 120.799 53.5677 120.982ZM70.8412 111.971C70.8123 113.684 72.3064 115.116 73.9453 115.614C75.5842 116.113 77.3428 115.898 79.0461 115.715C82.0409 115.394 85.2084 115.129 87.6703 113.393C88.2165 113.008 88.7329 112.533 88.9768 111.911C89.3574 110.94 88.9747 109.794 88.2592 109.036C87.5436 108.277 86.5515 107.844 85.5585 107.526C82.0101 106.39 78.0702 106.521 74.605 107.89C72.7769 108.612 70.8743 110.006 70.8412 111.971ZM-44.1421 129.468C-43.8195 129.769 -43.1656 129.846 -43.0398 129.423C-42.6089 127.974 -41.64 126.732 -40.4987 125.741C-39.3574 124.75 -38.0415 123.984 -36.7343 123.225C-36.3818 123.02 -36.404 122.512 -36.4721 122.11C-36.6041 121.331 -36.7361 120.553 -36.868 119.774C-36.9015 119.577 -36.9675 119.341 -37.1606 119.289C-37.3186 119.245 -37.4747 119.352 -37.6038 119.453C-38.5415 120.185 -39.4792 120.918 -40.4169 121.65C-42.2958 123.117 -44.3094 124.8 -44.7169 127.149C-44.8589 127.968 -44.7493 128.902 -44.1421 129.468ZM-36.8273 124.223C-38.9333 125.538 -41.1625 126.994 -42.1196 129.285C-42.1792 129.428 -42.2341 129.577 -42.2294 129.732C-42.2202 130.037 -41.9746 130.294 -41.693 130.411C-41.4114 130.528 -41.0978 130.533 -40.7928 130.537C-38.99 130.558 -37.1872 130.579 -35.3843 130.6C-35.2966 130.602 -35.2015 130.6 -35.1323 130.546C-35.0229 130.461 -35.0341 130.295 -35.0558 130.158C-35.3433 128.341 -35.6309 126.523 -35.9185 124.706C-35.9594 124.447 -36.0429 124.138 -36.2951 124.068C-36.4786 124.017 -36.6657 124.122 -36.8273 124.223ZM52.7433 121.091C51.4159 120.749 49.9841 120.824 48.6996 121.302C48.9483 122.119 49.3892 122.876 49.9764 123.495C51.9554 125.581 52.5406 128.611 52.7652 131.478C52.8852 133.009 52.9275 134.546 52.8919 136.082C53.7612 134.741 54.6305 133.4 55.4998 132.059C55.5862 131.926 55.6753 131.784 55.6848 131.626C55.6942 131.467 55.6223 131.316 55.5491 131.175C54.6912 129.518 53.4308 128.09 52.6349 126.403C51.839 124.716 51.5949 122.562 52.7433 121.091ZM-36.1891 50.8935C-36.9213 51.0097 -37.7561 51.1957 -38.1038 51.8504C-38.3443 52.303 -38.2733 52.8506 -38.1961 53.3573C-37.8779 55.4439 -37.5597 57.5305 -37.2415 59.6171C-35.6131 56.689 -34.0884 53.7047 -32.564 50.7212C-32.8462 50.4022 -33.3462 50.4425 -33.7668 50.5092C-34.5742 50.6373 -35.3817 50.7654 -36.1891 50.8935ZM64.0372 121.744C64.2628 122.043 64.8513 121.712 64.7128 121.364C66.8876 121.988 69.2584 121.544 71.3126 120.595C73.3668 119.646 75.1603 118.225 76.9254 116.809C76.1841 116.706 75.4428 116.602 74.7015 116.498C74.5503 116.477 74.354 116.48 74.2963 116.622C73.8971 117.599 73.0379 118.331 72.0889 118.793C71.1399 119.255 70.0958 119.479 69.0634 119.699C68.347 119.851 67.6306 120.004 66.9141 120.157C65.8045 120.393 64.5531 120.733 64.0372 121.744ZM24.693 106.614C24.8322 106.578 24.9818 106.537 25.0708 106.424C25.2091 106.249 25.14 105.997 25.1038 105.777C25.0675 105.557 25.1232 105.264 25.3429 105.226C25.5432 105.266 25.6355 105.504 25.6405 105.708C25.6454 105.912 25.6004 106.125 25.6742 106.315C25.8386 106.739 26.4236 106.756 26.8747 106.698C27.1415 106.664 27.4084 106.63 27.6753 106.596C27.7588 106.586 27.8482 106.573 27.9103 106.516C28.1077 106.335 27.833 106.04 27.7719 105.779C27.7247 105.578 27.8188 105.36 27.7571 105.162C27.652 104.826 27.2047 104.775 26.8525 104.786C24.159 104.876 21.4655 104.965 18.7719 105.054C18.8181 105.564 18.9576 106.065 19.1813 106.526C19.2295 106.625 19.2864 106.727 19.382 106.782C19.4791 106.838 19.5979 106.834 19.7097 106.829C20.3793 106.798 21.0489 106.767 21.7184 106.735C21.7754 106.733 21.8354 106.729 21.883 106.698C22.0051 106.617 21.9628 106.431 21.9067 106.295C21.81 106.063 21.7132 105.83 21.6165 105.597C21.5324 105.394 21.8991 105.274 22.0535 105.43C22.2079 105.586 22.2136 105.83 22.2864 106.037C22.4376 106.467 22.8941 106.729 23.346 106.784C23.798 106.839 24.2517 106.726 24.693 106.614ZM63.8115 120.871C63.9581 120.715 63.6344 120.551 63.4216 120.578C62.2087 120.726 60.9958 120.875 59.7829 121.024C59.6208 121.044 59.4066 121.133 59.4454 121.291C59.8438 122.923 59.6942 124.684 59.0263 126.226C58.8991 126.519 58.8156 126.967 59.12 127.066C60.3848 124.796 61.969 122.704 63.8115 120.871ZM22.4861 107.845C22.448 107.713 22.4053 107.575 22.3048 107.481C22.1909 107.375 22.0262 107.348 21.8715 107.331C21.0768 107.244 20.2668 107.299 19.4909 107.492C19.7336 108.279 19.9763 109.066 20.219 109.853C20.2651 110.003 20.327 110.17 20.4718 110.228C20.5459 110.258 20.6288 110.253 20.7084 110.248C21.4931 110.193 22.2777 110.138 23.0623 110.083C22.892 109.331 22.6998 108.585 22.4861 107.845ZM17.3763 110.597C17.4635 110.645 17.5702 110.63 17.6683 110.614C18.3786 110.499 19.089 110.383 19.7993 110.267C19.543 109.446 19.2866 108.624 19.0303 107.803C18.9927 107.682 18.9458 107.55 18.8348 107.49C18.7469 107.442 18.6404 107.453 18.5411 107.464C17.9078 107.538 17.2745 107.612 16.6411 107.685C16.522 107.699 16.381 107.729 16.3369 107.84C16.3069 107.916 16.3352 108.001 16.3635 108.077C16.6425 108.83 16.9215 109.583 17.2005 110.336C17.2378 110.437 17.2821 110.546 17.3763 110.597ZM25.3575 107.316C25.2073 107.186 24.9852 107.195 24.7869 107.211C24.1613 107.262 23.5357 107.314 22.9102 107.365C23.0971 108.167 23.3325 108.957 23.6147 109.73C23.6517 109.832 23.6935 109.939 23.7797 110.004C23.8872 110.085 24.0345 110.08 24.169 110.072C24.5961 110.046 25.0231 110.021 25.4502 109.995C25.6469 109.983 25.886 109.941 25.952 109.755C25.9836 109.666 25.9632 109.568 25.9424 109.476C25.8125 108.897 25.6827 108.318 25.5528 107.74C25.5181 107.585 25.4771 107.42 25.3575 107.316ZM21.6266 113.076C21.5648 113.086 21.4988 113.097 21.4537 113.141C21.366 113.225 21.4061 113.371 21.4522 113.484C21.6166 113.886 21.781 114.288 21.9453 114.69C22.0063 114.84 22.075 114.998 22.2111 115.085C22.3369 115.164 22.4952 115.166 22.6442 115.165C23.2119 115.162 23.7795 115.158 24.3472 115.155C24.4302 115.154 24.5204 115.151 24.5844 115.099C24.7005 115.003 24.6572 114.818 24.6038 114.677C24.3854 114.102 24.167 113.526 23.9486 112.95C23.8785 112.766 23.6215 112.763 23.4263 112.794C22.8264 112.888 22.2265 112.982 21.6266 113.076ZM26.4016 107.201C26.2822 107.202 26.1481 107.208 26.0676 107.296C25.9706 107.403 26.0014 107.569 26.0382 107.708C26.1996 108.319 26.3609 108.929 26.5223 109.539C26.5507 109.646 26.5837 109.761 26.6698 109.831C26.7841 109.924 26.9494 109.907 27.0952 109.884C27.6333 109.802 28.1715 109.72 28.7096 109.638C28.6519 109.013 28.5527 108.393 28.413 107.781C28.3693 107.59 28.3089 107.381 28.1433 107.276C28.0194 107.198 27.8636 107.196 27.7169 107.196C27.2785 107.198 26.84 107.2 26.4016 107.201ZM27.4964 115.082C27.322 114.449 27.1476 113.816 26.9732 113.182C26.9066 112.94 26.8122 112.666 26.5784 112.575C26.4632 112.53 26.3349 112.54 26.2117 112.551C25.6374 112.601 25.0632 112.651 24.489 112.701C24.6404 113.268 24.8196 113.828 25.0259 114.377C25.1298 114.654 25.2873 114.968 25.5791 115.015C26.212 115.117 26.8578 115.14 27.4964 115.082ZM28.4967 115.038C29.0172 115.081 29.5886 115.109 30.0092 114.8C29.8268 114.091 29.6444 113.381 29.462 112.672C29.4209 112.512 29.366 112.334 29.2196 112.258C29.1121 112.202 28.9831 112.218 28.8632 112.234C28.3474 112.306 27.8317 112.378 27.3159 112.45C27.4385 113.201 27.6466 113.938 27.9349 114.642C27.9792 114.75 28.029 114.862 28.1215 114.933C28.226 115.014 28.3654 115.027 28.4967 115.038ZM74.8806 104.939C75.2782 104.123 75.6757 103.307 76.0733 102.491C76.1151 102.406 76.158 102.313 76.1428 102.219C76.128 102.127 76.0612 102.054 75.9974 101.986C75.4314 101.388 74.8655 100.79 74.2996 100.191C74.0643 100.512 74.0916 100.949 74.1291 101.345C74.2522 102.646 74.3754 103.947 74.4986 105.248C74.6717 105.286 74.8029 105.099 74.8806 104.939ZM29.0681 107.108C28.9938 107.103 28.9091 107.101 28.8573 107.154C28.799 107.214 28.812 107.311 28.829 107.393C28.9409 107.933 29.0529 108.473 29.1648 109.013C29.2063 109.214 29.2555 109.428 29.4066 109.565C29.8953 110.011 30.837 109.244 31.2913 109.725C31.3713 108.958 31.3138 108.177 31.1225 107.43C31.1091 107.378 31.0931 107.322 31.0529 107.286C31.0064 107.244 30.9389 107.238 30.8765 107.233C30.2737 107.192 29.6709 107.15 29.0681 107.108ZM17.8233 111.113C17.7582 111.121 17.6902 111.131 17.6366 111.169C17.5177 111.254 17.5223 111.429 17.5394 111.573C17.5849 111.96 17.635 112.36 17.837 112.692C18.0391 113.024 18.4383 113.271 18.814 113.17C19.3523 113.025 19.8906 112.881 20.429 112.737C20.4056 112.222 20.3015 111.711 20.1215 111.229C20.0766 111.109 20.02 110.982 19.9093 110.916C19.7944 110.849 19.6508 110.865 19.5187 110.883C18.9536 110.959 18.3884 111.036 17.8233 111.113ZM30.379 106.599C30.5411 106.574 30.7137 106.545 30.8341 106.433C31.1926 106.102 30.7828 105.429 31.0735 105.037C31.187 104.884 30.909 104.747 30.7186 104.755C29.8683 104.791 29.018 104.827 28.1677 104.863C28.2006 105.214 28.2617 105.563 28.3503 105.906C28.449 106.287 28.8207 106.548 29.2053 106.632C29.5899 106.717 29.9897 106.658 30.379 106.599ZM23.5053 111.177C23.3958 110.651 22.6917 110.528 22.1635 110.626C21.6353 110.725 21.0454 110.916 20.5965 110.62C20.6249 111.176 20.7546 111.726 20.9773 112.235C21.0241 112.342 21.0808 112.454 21.1824 112.511C21.2972 112.576 21.4391 112.555 21.5689 112.533C22.0896 112.443 22.6103 112.353 23.1309 112.263C23.389 112.219 23.7291 112.014 23.5934 111.79C23.4852 111.612 23.5479 111.381 23.5053 111.177ZM20.2894 113.339C19.864 113.411 19.4386 113.483 19.0132 113.555C18.7828 113.594 18.499 113.687 18.4744 113.919C18.4123 114.506 18.9974 114.98 19.5762 115.097C20.1551 115.214 20.756 115.099 21.3437 115.157C21.3195 114.658 21.215 114.163 21.0355 113.696C20.9927 113.585 20.942 113.471 20.8478 113.398C20.695 113.281 20.4797 113.307 20.2894 113.339ZM31.5011 112.199C30.9365 112.139 30.3625 112.169 29.8073 112.288C30.1141 113.018 30.332 113.786 30.4547 114.569C30.511 114.928 31.0237 114.935 31.3757 114.846C31.507 114.812 31.6503 114.771 31.7253 114.658C31.7899 114.56 31.7868 114.435 31.7814 114.318C31.7512 113.673 31.721 113.028 31.6908 112.384C31.6889 112.343 31.6862 112.3 31.6629 112.267C31.6282 112.217 31.5611 112.206 31.5011 112.199ZM22.2823 117.975C22.8146 117.444 22.5418 116.371 21.8203 116.159C21.0988 115.947 20.2884 116.7 20.4481 117.435C20.6133 118.195 21.7319 118.524 22.2823 117.975ZM26.4659 111.747C26.8044 111.305 26.2976 110.653 25.7491 110.557C25.2007 110.461 24.6447 110.671 24.0879 110.663C23.8828 110.66 23.8743 110.968 23.9409 111.162C24.0271 111.413 24.1134 111.664 24.1996 111.915C24.2348 112.018 24.2988 112.141 24.4072 112.134C24.8042 112.109 25.2012 112.085 25.5982 112.06C25.9152 112.04 26.2728 111.999 26.4659 111.747ZM31.9545 116.013C31.9136 115.902 31.853 115.794 31.7573 115.724C31.6714 115.662 31.5644 115.635 31.4589 115.623C30.6256 115.522 29.8167 116.353 29.9398 117.183C30.2945 117.605 30.9623 117.721 31.4387 117.445C31.9151 117.168 32.1449 116.53 31.9545 116.013ZM26.8107 110.994C26.7924 111.359 27.1135 111.671 27.4655 111.77C27.8175 111.868 28.192 111.805 28.5519 111.74C28.7361 111.708 28.9427 111.66 29.0391 111.5C29.2449 111.158 28.8366 110.53 29.2135 110.399C28.9605 110.365 28.7075 110.33 28.4545 110.295C28.1206 110.249 27.7751 110.204 27.4509 110.296C27.1267 110.389 26.8275 110.658 26.8107 110.994ZM29.8344 111.463C30.2176 111.796 30.8592 111.75 31.2154 111.388C31.5715 111.026 31.6179 110.412 31.3493 109.981C30.6785 110.106 30.0078 110.23 29.337 110.354C29.4215 110.758 29.523 111.192 29.8344 111.463ZM81.6671 105.052C81.1447 105.245 80.6223 105.439 80.1 105.632C79.8405 105.729 79.5775 105.827 79.3526 105.988C80.207 106.321 81.2847 105.886 81.6671 105.052ZM33.1157 63.5943C33.102 63.3636 32.8579 63.1751 32.6312 63.2201C32.6458 63.4548 32.8799 63.6523 33.1138 63.627L33.1157 63.5943Z" fill="#902920"/>
</svg>
