<svg width="122" height="135" viewBox="0 0 122 135" fill="none" xmlns="http://www.w3.org/2000/svg">
<g filter="url(#filter0_d_241_3481)">
<path fill-rule="evenodd" clip-rule="evenodd" d="M14.3612 45.0589C25.2276 44.9133 36.2975 45.8068 46.1144 50.6193C47.2715 51.1865 48.6119 52.2514 48.2136 53.504C48.0641 53.9743 47.6883 54.3265 47.3144 54.6378C42.9418 58.2777 37.0799 59.2659 31.497 59.984C29.3275 60.263 27.1553 60.5207 24.9788 60.735C7.70978 62.4351 -9.81408 61.3806 -26.7744 57.6207C-27.7728 57.3994 -28.9376 57.0153 -29.2272 56.008C-29.5794 54.7834 -28.3774 53.717 -27.3093 53.0661C-19.0446 48.0301 -9.56248 45.1246 0.0361009 44.6868C-1.66891 44.9797 22.7765 45.0099 14.3612 45.0589Z" fill="white"/>
<path fill-rule="evenodd" clip-rule="evenodd" d="M76.2503 9.23782C74.0672 13.8472 72.2556 18.7248 71.8052 23.8251C71.7858 24.0449 71.7717 24.2793 71.8747 24.4733C72.083 24.8658 72.6197 24.8783 73.0553 24.8433C83.145 24.0333 93.6089 25.909 102.248 31.2976C105.201 33.1393 107.921 35.3705 110.98 37.0213C111.115 37.0941 111.268 37.1678 111.414 37.1224C111.561 37.0765 111.649 36.9261 111.721 36.7876C113.522 33.3598 115.111 29.8156 116.475 26.1832C116.959 24.8955 117.419 23.5772 117.525 22.2022C117.792 18.7405 115.503 15.2425 112.27 14.1712C103.984 11.4257 95.6981 8.6801 87.4122 5.93452C85.8976 5.43266 84.3627 4.92677 82.7733 4.83147C81.1839 4.73618 79.5073 5.0958 78.2963 6.15175C77.3644 6.96441 76.784 8.11094 76.2503 9.23782Z" fill="white"/>
<path d="M47.3421 118.368C47.3369 119.231 49.3852 119.844 50.0008 119.247C50.6164 118.649 50.6777 117.691 50.6995 116.828C50.9925 105.202 50.9343 93.9338 50.547 82.3109L80.7553 89.8085L79.8122 120.695C79.7822 121.57 81.1229 121.878 81.7668 121.293C82.4106 120.707 82.5048 119.738 82.5536 118.864C83.0567 109.863 83.0487 100.828 83.42 91.8363C83.6167 87.0721 89.6562 86.9912 95.4493 81.0419C98.3338 78.0796 100.775 74.0132 100.775 74.0132C101.381 84.9245 102.419 95.8576 101.754 106.765C101.703 107.595 102.973 107.914 103.591 107.367C104.184 106.842 104.297 105.972 104.349 105.17L104.356 105.07C105.039 93.6519 105.682 69.2281 106.672 53.2222C107.047 47.1618 108.256 41.3443 108.964 37.8929C109.277 36.3696 108.237 36.4096 106.144 35.4898C105.287 35.1133 103.421 37.9835 102.663 46.0696L102.625 46.4951C102.355 49.7115 102.162 55.778 102.046 64.6944C101.696 66.742 99.4324 67.2445 95.256 66.202L95.0924 66.1606C90.8114 65.0639 84.2404 63.0448 75.3794 60.1032L75.3073 59.2607C74.1696 45.7227 74.3737 36.2484 75.9196 30.8375L75.9678 30.6715C78.4012 22.4337 74.2047 25.8823 73.7313 26.5441C70.562 30.9748 69.9405 36.5912 70.0269 41.6459L70.2863 56.8423C70.3067 58.429 70.2536 60.0865 69.4135 61.4134C68.6924 62.5524 67.4974 63.2733 66.3277 63.9375L51.8702 72.1193C50.5378 72.8785 49.2122 73.6819 48.1703 74.8086C47.0242 76.0479 46.2554 77.764 46.5458 79.4354C46.7393 80.5497 47.2006 81.413 47.9297 82.0254L47.7678 89.8454C47.525 102.025 47.3831 111.532 47.3421 118.368Z" fill="white"/>
<path fill-rule="evenodd" clip-rule="evenodd" d="M84.4848 8.26515C84.5613 8.32149 84.6122 8.39984 84.6506 8.48044C84.8245 8.8448 84.7271 9.32628 84.3434 9.53867C83.9597 9.75107 83.3345 9.5379 83.3139 9.14328C83.3074 9.01723 83.357 8.89412 83.4135 8.77768C83.5061 8.58664 83.6264 8.39594 83.8216 8.2769C84.0168 8.15786 84.3035 8.13165 84.4848 8.26515ZM84.2349 8.85972C84.353 8.82484 84.3131 8.6336 84.1887 8.63788C83.8699 8.72685 83.7258 9.11738 83.926 9.3498C84.0821 9.21796 84.191 9.04432 84.2339 8.85891L84.2349 8.85972ZM99.07 14.4395C99.3651 14.5444 99.6923 14.386 99.9327 14.1923C100.196 13.9802 100.425 13.6983 100.454 13.3723C100.483 13.0463 100.246 12.688 99.9013 12.6615C99.6599 12.6429 99.4372 12.7809 99.252 12.929C99.0038 13.1276 98.7736 13.371 98.7017 13.6708C98.6297 13.9706 98.7662 14.3316 99.07 14.4395ZM100.143 13.2975L99.4862 13.9338L99.473 13.9563L99.213 13.786C99.2924 13.5908 99.3796 13.3855 99.5548 13.258C99.7301 13.1304 100.022 13.1228 100.143 13.2975ZM106.367 17.8514C106.102 17.5912 106.204 17.1212 106.381 16.7878C106.509 16.5468 106.679 16.3127 106.921 16.2132C107.163 16.1138 107.487 16.2014 107.586 16.4576C107.648 16.6173 107.613 16.7992 107.571 16.966C107.495 17.2705 107.391 17.5838 107.171 17.7932C106.951 18.0025 106.584 18.0651 106.367 17.8514ZM107.242 16.9211C107.267 16.8669 107.289 16.807 107.278 16.7476C107.268 16.686 107.219 16.634 107.162 16.6223C106.797 16.7374 106.552 17.1791 106.633 17.5767C106.895 17.4359 107.112 17.2021 107.242 16.9211ZM104.018 24.054C104.411 24.3535 104.957 23.9276 105.189 23.4933C105.345 23.2002 105.461 22.8861 105.533 22.5623C105.577 22.3625 105.579 22.1051 105.396 22.0094C105.308 21.9631 105.202 21.9719 105.104 21.9908C104.448 22.1176 103.902 22.6839 103.805 23.3391C103.767 23.5971 103.81 23.895 104.018 24.054ZM105.082 22.6137C105.116 22.7126 105.047 22.8143 104.982 22.8967L104.327 23.73C104.207 23.2455 104.491 22.694 104.958 22.5073C105.015 22.5173 105.064 22.5597 105.082 22.6137ZM47.9962 74.8521C47.649 75.7245 48.0128 76.9471 48.9222 77.1435C58.1585 79.1381 67.2847 81.6531 76.2446 84.6729C79.2134 85.6735 82.5178 86.72 85.3724 85.4231C86.4815 84.9192 87.4148 84.098 88.3302 83.2887L97.8763 74.8484C94.697 79.2893 90.7429 83.1611 86.2513 86.2313C85.1766 86.9659 84.0379 87.6686 82.763 87.9099C81.1762 88.2103 79.5544 87.7674 77.9996 87.3282L50.7852 79.6408C49.6978 79.3336 48.3277 78.2975 49.0075 77.3857C48.1169 77.7323 48.1993 79.0196 48.4452 79.952L77.8857 88.2252C79.2806 88.6172 80.7269 89.0128 82.1581 88.7913C83.5798 88.5713 84.8374 87.7648 86.0323 86.9552C91.1172 83.51 96.0893 79.4791 98.8585 73.9592C98.9394 73.798 99.0199 73.6341 99.101 73.469C99.8254 71.9942 100.596 70.4247 102.086 69.844C102.504 82.1401 102.472 94.452 101.989 106.746C101.957 107.57 103.235 107.847 103.826 107.278C104.417 106.709 104.472 105.791 104.488 104.966L105.431 57.3673C105.563 50.6766 105.749 43.7497 108.606 37.7131C105.225 43.2168 105.008 50.0519 104.891 56.5294L104.025 104.233C104.003 105.415 103.824 106.851 102.751 107.32L102.826 69.2895C101.001 69.1473 99.7213 70.9717 98.6596 72.4856L98.6397 72.5141C95.5578 76.9084 91.1919 80.1807 86.9025 83.3755C85.0949 84.7218 82.8812 86.14 80.7612 85.3937C70.19 81.6724 59.4191 78.5313 48.5116 75.9889C49.8774 73.8899 51.9377 72.3647 54.0117 70.9812C57.7314 68.4999 61.6468 66.3185 65.7083 64.4646L65.9927 64.3351C67.8751 63.4787 69.8351 62.5871 71.0646 60.9226C72.7188 58.6834 72.6398 55.638 72.5329 52.8452C72.386 49.0086 72.3228 45.1688 72.3434 41.3294C72.3715 36.093 72.6026 30.6611 74.9473 25.992C72.1974 28.509 71.9795 32.7262 71.957 36.4768L71.8469 54.8644C71.8331 57.1602 71.703 59.7368 70.0317 61.2908C69.4032 61.8752 68.6159 62.2474 67.8418 62.6133L67.8417 62.6133L67.788 62.6387C61.5817 65.5734 55.6019 68.9978 49.9208 72.8705C49.1496 73.3961 48.3435 73.9796 47.9962 74.8521ZM81.5306 120.472C81.107 120.854 80.2043 120.663 80.2273 120.102C80.6445 109.917 81.1214 99.7342 81.6582 89.5543C81.3588 89.3647 81.0977 89.8485 81.0809 90.1951L79.8102 116.463C79.7438 117.836 79.6786 119.225 79.957 120.572C80.1176 121.349 81.3616 121.433 81.9263 120.859C82.491 120.285 82.5518 119.416 82.5808 118.624L83.647 89.5088C83.6606 89.1387 83.4807 88.6109 83.116 88.721L82.023 118.905C82.0027 119.466 81.9543 120.089 81.5306 120.472ZM51.4999 81.2042L50.8174 116.159C50.8026 116.916 49.6578 117.194 49.053 116.729C48.4482 116.264 48.285 115.44 48.195 114.688C47.7759 111.185 48.0264 107.647 48.2762 104.122L48.2762 104.122C48.3148 103.576 48.3534 103.032 48.3895 102.487C48.8537 95.4861 48.9028 88.4587 48.5365 81.4527C48.5259 81.2489 48.8446 81.1716 49.0005 81.3054C49.1563 81.4392 49.1824 81.6648 49.1969 81.8684C49.6823 88.6508 49.305 95.4482 48.9276 102.246L48.9276 102.246C48.7816 104.876 48.6355 107.507 48.5395 110.137C48.474 111.929 48.4355 113.753 48.9191 115.481C49.0144 115.822 49.1523 116.186 49.4609 116.364C49.7694 116.543 50.275 116.381 50.2819 116.028L50.9531 81.9618C50.9603 81.599 51.1501 81.0942 51.4999 81.2042ZM110.525 25.1697C110.599 25.1514 110.679 25.1411 110.748 25.1745C110.862 25.2287 110.912 25.378 110.93 25.5147C111.012 26.1321 110.633 26.7831 110.097 26.9448C109.869 27.0136 109.547 26.9267 109.531 26.6614C109.49 25.9854 109.937 25.3152 110.525 25.1697ZM110.468 26.0476C110.573 25.941 110.617 25.7642 110.577 25.6111C110.221 25.7052 109.942 26.0879 109.93 26.4995C110.157 26.455 110.362 26.2847 110.465 26.0536L110.468 26.0476ZM89.0751 22.6471C89.0078 22.5287 88.9141 22.426 88.803 22.349C88.4198 22.0833 87.836 22.1893 87.5667 22.5736C87.2974 22.9578 87.3886 23.5546 87.7598 23.8374C88.1309 24.1203 88.7188 24.0409 89.0046 23.6692C89.2242 23.3839 89.2533 22.9609 89.0751 22.6471ZM88.4457 23.4904C88.1794 23.5353 87.9256 23.2206 88.0205 22.9633C88.1155 22.7059 88.5099 22.6394 88.6812 22.8518C88.8526 23.0643 88.712 23.4455 88.4457 23.4904ZM108.682 30.2819C108.772 30.3256 108.852 30.409 108.866 30.5141C108.876 30.5885 108.853 30.6628 108.83 30.7338L108.706 31.1159C108.623 31.3739 108.534 31.6411 108.356 31.8346C108.178 32.0281 107.882 32.1239 107.667 31.9798C107.295 31.7307 107.479 31.1041 107.751 30.7347C107.979 30.4236 108.347 30.118 108.682 30.2819ZM108.23 31.2644C108.363 31.1347 108.412 30.914 108.348 30.7331C107.982 30.8491 107.769 31.3477 107.924 31.7248L108.242 31.279L108.23 31.2644ZM95.8567 24.1622C95.8262 24.0945 95.7887 24.0279 95.7321 23.9809C95.5505 23.8301 95.2783 23.9468 95.094 24.094C94.8565 24.2837 94.6477 24.5322 94.578 24.8326C94.5082 25.1331 94.6091 25.4884 94.8689 25.6446C95.3203 25.916 95.9014 25.417 95.9665 24.8844C95.9964 24.6395 95.9579 24.3862 95.8567 24.1622ZM95.1234 25.2752C94.9482 25.2057 94.9195 24.9135 95.0775 24.8096L95.0741 24.8102L95.472 24.4041C95.6298 24.7216 95.453 25.1632 95.1234 25.2752ZM81.1403 22.0862C81.051 22.1806 80.9369 22.2496 80.8135 22.284C80.3069 22.4252 79.7693 21.8166 79.9509 21.3075C80.1325 20.7984 80.9233 20.6973 81.2197 21.1454C81.406 21.4269 81.3709 21.8425 81.1403 22.0862ZM80.7189 21.3159C80.5517 21.2868 80.3776 21.4395 80.3781 21.6149C80.3787 21.7903 80.5536 21.9421 80.7207 21.9121C80.8979 21.7476 80.9202 21.4347 80.7682 21.2449L80.7189 21.3159ZM113.096 20.0138C113.468 19.8109 113.627 19.2943 113.694 18.8195C113.754 18.3963 113.238 18.1276 112.913 18.3239C112.587 18.5202 112.435 18.9571 112.308 19.3591C112.165 19.81 112.724 20.2167 113.096 20.0138ZM113.161 18.7204C113.307 18.7615 113.346 19.037 113.219 19.13L113.219 19.1259C113.21 19.3619 112.999 19.5573 112.801 19.5118C112.805 19.2011 112.943 18.8976 113.161 18.7204ZM97.1984 20.6385C96.8201 20.642 96.5545 20.1319 96.6424 19.715C96.7304 19.2981 97.0663 19.0014 97.421 18.8535C97.6751 18.7475 97.9646 18.9953 98.0265 19.2946C98.0883 19.5939 97.9786 19.9062 97.8268 20.1602C97.6795 20.4067 97.4614 20.636 97.1984 20.6385ZM97.6042 19.7309L97.6426 19.4055C97.2944 19.3434 96.9521 19.757 97.0289 20.1471C97.1012 20.203 97.1944 20.2227 97.2794 20.2001C97.3449 20.0194 97.4503 19.8576 97.5834 19.7335L97.6042 19.7309ZM89.0199 18.2206C89.4159 18.2232 89.6869 17.8759 89.7846 17.5527C89.86 17.3036 89.8556 16.9942 89.6082 16.8447C89.3322 16.678 88.9316 16.8231 88.7052 17.0381C88.5041 17.2292 88.3721 17.4863 88.417 17.7378C88.4619 17.9894 88.7173 18.2186 89.0199 18.2206ZM89.1713 17.2083C89.3264 17.1577 89.4821 17.3629 89.3626 17.4604L89.3517 17.4437C89.2939 17.5907 89.1787 17.7214 89.0282 17.8108C88.8713 17.6244 88.9409 17.3312 89.1713 17.2083ZM103.839 28.1395C103.851 28.0729 103.861 28.0021 103.836 27.9394C103.798 27.8434 103.689 27.7957 103.588 27.7819C103.149 27.7222 102.773 28.1098 102.573 28.5095C102.397 28.8628 102.355 29.3998 102.715 29.555C103.06 29.7038 103.407 29.3411 103.567 28.9976C103.694 28.725 103.785 28.4358 103.839 28.1395ZM103.023 28.7334C102.955 28.6178 103.019 28.4461 103.145 28.404L103.132 28.4149C103.226 28.4047 103.296 28.5269 103.26 28.6152C103.224 28.7035 103.117 28.7456 103.023 28.7334ZM92.1839 11.9448C91.9743 12.1474 91.7409 12.3345 91.4696 12.4081C91.3851 12.431 91.3195 12.328 91.2874 12.239C91.1103 11.7481 91.1282 11.1192 91.4892 10.7716C91.8502 10.4239 92.5683 10.6286 92.5953 11.1555C92.6114 11.4694 92.3987 11.7373 92.1839 11.9448ZM92.083 11.064C91.7562 11.044 91.5323 11.493 91.6337 11.8347C91.9233 11.7393 92.1318 11.4077 92.1106 11.0765L92.083 11.064ZM82.6699 14.5053C82.6517 14.2498 82.4742 13.9916 82.2373 13.9796C82.0449 13.9699 81.8744 14.1191 81.766 14.291C81.5968 14.5594 81.5399 14.9387 81.7117 15.2059C81.8834 15.4731 82.3193 15.5121 82.4683 15.23C82.5857 15.0076 82.6882 14.7608 82.6699 14.5053ZM82.0192 15.1172L81.9857 14.7732L81.9906 14.7691C82.0343 14.6193 82.1277 14.4871 82.2498 14.4021C82.3721 14.6529 82.2591 15.0034 82.0192 15.1172ZM75.181 19.7152C75.3486 19.9894 75.2466 20.3651 75.0973 20.6513C75.0464 20.7489 74.9868 20.8473 74.8973 20.9001C74.7072 21.0121 74.4673 20.8683 74.3426 20.6723C74.1591 20.3839 74.145 19.9541 74.3559 19.6912C74.5669 19.4282 75.0024 19.4229 75.181 19.7152ZM74.5919 20.1576C74.5929 20.2582 74.7026 20.3361 74.7846 20.2944C74.8666 20.2527 74.8854 20.1094 74.8177 20.0428C74.7478 19.9909 74.6368 20.0661 74.646 20.1591L74.5919 20.1576ZM76.7777 14.7737C77.1263 14.7835 77.4177 14.3754 77.3013 14.0402C77.2732 13.9594 77.2263 13.8855 77.1656 13.8262C76.9135 13.5805 76.4289 13.6838 76.2946 14.0118C76.1603 14.3399 76.4292 14.7639 76.7777 14.7737ZM76.8486 14.0341C77.0049 14.0353 76.906 14.3326 76.7522 14.3034L76.7543 14.3097C76.6929 14.216 76.7433 14.0685 76.8486 14.0341Z" fill="#902920"/>
<path fill-rule="evenodd" clip-rule="evenodd" d="M110.628 12.9814C112.536 13.6139 114.522 14.2947 115.93 15.7544C117.694 17.5833 118.231 20.3651 117.925 22.9135C117.62 25.4619 116.578 27.8483 115.549 30.1903C114.385 32.8372 113.222 35.4841 112.059 38.1311C108.085 36.244 104.652 33.361 100.846 31.142C92.5437 26.3004 82.6815 24.7816 73.1398 25.3659C72.3372 25.415 71.2918 25.3131 71.0838 24.5196C71.0219 24.2834 71.0575 24.0333 71.0952 23.7919C71.9461 18.3404 73.6715 13.0326 76.1815 8.14438C76.5536 7.41975 76.9485 6.69601 77.4959 6.09863C78.7597 4.71921 80.7101 4.17552 82.5587 4.23368C84.4074 4.29185 86.1958 4.88054 87.955 5.46385C95.5128 7.9697 103.071 10.4756 110.628 12.9814ZM76.2503 9.23794C74.0672 13.8473 72.2556 18.7249 71.8052 23.8252C71.7858 24.045 71.7717 24.2794 71.8747 24.4734C72.083 24.8659 72.6197 24.8784 73.0553 24.8434C83.145 24.0334 93.6089 25.9091 102.248 31.2977C105.201 33.1394 107.921 35.3705 110.98 37.0214C111.115 37.0942 111.268 37.1679 111.414 37.1224C111.561 37.0766 111.649 36.9262 111.721 36.7877C113.522 33.3599 115.111 29.8157 116.475 26.1833C116.959 24.8956 117.419 23.5773 117.525 22.2023C117.792 18.7407 115.503 15.2426 112.27 14.1714C103.984 11.4258 95.6981 8.68021 87.4122 5.93464C85.8976 5.43278 84.3627 4.92688 82.7733 4.83159C81.1839 4.73629 79.5073 5.09592 78.2963 6.15186C77.3644 6.96452 76.784 8.11105 76.2503 9.23794Z" fill="#902920"/>
<path fill-rule="evenodd" clip-rule="evenodd" d="M9.5029 31.601C9.02146 31.8837 8.38514 31.4649 8.19417 30.9386C8.04541 30.5285 8.07258 30.0857 8.09961 29.6452C8.10728 29.5203 8.11493 29.3955 8.11855 29.2717C8.15282 28.1014 7.81735 26.969 7.48262 25.8391C7.37833 25.4871 7.27411 25.1353 7.18117 24.7827C5.63632 18.9213 7.39821 12.2953 11.6469 7.98819C12.2122 9.04395 13.6864 9.3045 14.8005 8.87499C15.9147 8.44549 16.7483 7.51267 17.5314 6.60786C18.3145 5.70305 19.1347 4.76247 20.2388 4.30745C19.4064 4.17487 18.5428 4.24412 17.7418 4.50771C17.6032 3.36602 16.4002 2.4744 15.2736 2.67841C14.5044 2.81772 13.8834 2.09422 13.3955 1.48072C12.9077 0.867216 12.1321 0.231104 11.4301 0.576615C12.3454 1.11588 12.2903 2.47275 11.9207 3.4724C11.8533 3.65478 11.7791 3.83842 11.7045 4.02306C11.3701 4.85047 11.0276 5.69776 11.2534 6.53944C11.4683 7.34047 10.8311 8.09059 10.2843 8.71245C7.21636 12.202 5.60409 16.9449 5.90654 21.5906C4.97461 20.3537 3.7975 19.3042 2.46444 18.5215C2.21597 18.3756 1.95978 18.2369 1.70311 18.0979C0.793464 17.6054 -0.122177 17.1096 -0.721391 16.2803C-1.42817 15.3022 -2.71778 14.8922 -3.91974 14.945C-5.12169 14.9978 -6.26773 15.4434 -7.38843 15.8833C-7.69939 16.0054 -8.06156 16.1944 -8.08091 16.5293C-8.09534 16.7789 -7.90389 16.9885 -7.71614 17.1525C-5.91874 18.7231 -3.14333 19.0455 -1.03608 17.9286C-0.269139 17.522 0.670319 17.8906 1.4153 18.3361C5.74166 20.9232 8.21716 26.3127 7.36998 31.3002C6.65762 31.5813 5.88746 31.5556 5.11326 31.5297C4.68743 31.5155 4.26038 31.5012 3.84105 31.538C2.65936 31.6414 1.31699 32.5291 1.53957 33.6998C2.05551 36.4135 2.57239 39.2026 2.07601 41.9203C1.93202 42.7086 1.70465 43.4773 1.47718 44.2463C1.31334 44.8002 1.14946 45.3543 1.01664 45.916C0.683596 47.3245 0.547628 48.7799 0.613975 50.226C0.631768 50.6138 0.66866 51.0164 0.86505 51.3507C1.15475 51.8438 1.72607 52.0859 2.26872 52.2608C4.0197 52.8251 5.8868 53.023 7.71659 52.8381C9.10003 52.6984 10.6544 52.1806 11.1633 50.8803C11.4847 50.0592 11.2976 49.1372 11.1185 48.2735C10.2675 44.1698 9.70322 39.8199 11.0503 35.8521C11.0968 35.7153 11.1456 35.5779 11.1946 35.44C11.4828 34.6286 11.7774 33.7993 11.6365 32.9606C11.4717 31.9794 10.358 31.0989 9.5029 31.601ZM5.81741 44.1109L4.72962 46.5372C4.60194 46.822 4.5278 47.2526 4.81853 47.363C5.58352 46.2498 6.12114 44.9796 6.38846 43.6538C6.48682 43.1659 6.91628 42.7986 7.38561 42.6393C7.85493 42.4799 8.36285 42.493 8.85754 42.5186C9.13511 42.5329 9.44152 42.5637 9.63052 42.7685C9.7805 42.9309 9.81905 43.1647 9.85096 43.384L10.7031 49.241C10.778 49.7557 10.8501 50.298 10.6617 50.7826C10.3432 51.6015 9.40627 51.9743 8.55002 52.1552C6.4457 52.5997 4.21544 52.4231 2.20668 51.6529C1.9232 51.5442 1.63282 51.4158 1.43901 51.1812C1.18063 50.8685 1.14396 50.4319 1.13346 50.0256C1.06543 47.3943 1.62666 44.7487 2.75667 42.3738L5.47768 43.3335C5.64339 43.392 5.82753 43.4674 5.89284 43.6313C5.95449 43.7859 5.88553 43.959 5.81741 44.1109ZM6.01886 42.7106C5.84293 42.9196 5.50378 43.0167 5.29442 42.8416C4.58144 42.2453 3.59927 41.9879 2.68712 42.1582C2.98923 40.1906 2.72035 38.2095 2.45098 36.2247C2.32256 35.2785 2.19403 34.3314 2.12722 33.3847C2.11942 33.2742 2.11484 33.1543 2.17697 33.0627C2.27873 32.9128 2.49607 32.9167 2.67555 32.9369L6.94952 33.4176C7.09583 33.434 7.24726 33.4522 7.37347 33.5283C7.72956 33.7432 7.69992 34.2626 7.62509 34.6732L6.29905 41.9496C6.24998 42.2189 6.1948 42.5016 6.01886 42.7106ZM7.00246 40.9845C7.61321 38.4755 8.01791 35.916 8.21107 33.3404C9.25854 33.5005 10.3616 33.2623 11.2513 32.6838C11.0833 33.5364 10.8704 34.3848 10.6576 35.233C10.1518 37.2493 9.64635 39.2639 9.74579 41.3274L9.74671 41.3463C9.75523 41.5211 9.76406 41.7021 9.69499 41.8623C9.62343 42.0281 9.43739 42.1602 9.26628 42.1044C8.46804 41.8439 7.54713 42.0002 6.87803 42.5095C6.75146 42.0154 6.87786 41.4963 6.99866 41.0001L7.00246 40.9845ZM12.1406 7.567C11.6805 6.90217 11.5757 6.02178 11.7905 5.24114C11.891 4.87622 12.0566 4.51764 12.2212 4.16136C12.5511 3.44732 12.8767 2.74251 12.6642 2.01447C12.603 1.80466 12.5301 1.51374 12.727 1.42058C13.5216 2.0968 14.0512 3.07945 14.1806 4.11779C14.2184 4.42123 14.2179 4.74947 14.0548 5.00773C13.8951 5.26065 13.6191 5.39232 13.3439 5.52364C13.2472 5.56975 13.1507 5.61581 13.0593 5.66706C12.7076 5.86429 12.3869 6.29668 12.5892 6.64654C14.2772 5.36349 16.4532 4.74647 18.5594 4.95367C18.0006 5.32139 17.4881 5.75999 17.0379 6.25577C16.8816 6.42785 16.7279 6.60979 16.5732 6.79291C15.9052 7.58351 15.2185 8.39627 14.2271 8.53359C13.4287 8.64419 12.6007 8.23184 12.1406 7.567ZM-4.08897 15.4461C-2.82872 15.3658 -1.37794 16.1169 -0.795267 16.9207L-2.13239 17.7541C-3.6304 18.405 -4.3717 18.1796 -4.72134 18.0733C-4.73965 18.0677 -4.75689 18.0625 -4.77311 18.0577C-5.80315 17.7546 -6.78176 17.276 -7.65456 16.6484C-6.52997 16.0711 -5.34921 15.5263 -4.08897 15.4461ZM17.0218 4.30159C16.9595 4.38974 16.846 4.4216 16.7416 4.44754L15.0183 4.87549C14.9353 4.8961 14.8469 4.91656 14.7659 4.88939C14.5517 4.81762 14.5635 4.50759 14.6443 4.29573C14.7251 4.08387 14.824 3.81943 14.6698 3.65374C14.4829 3.45286 14.8227 3.17707 15.0953 3.15259C15.7403 3.09469 16.4057 3.33258 16.8692 3.78678C17.0085 3.92335 17.1346 4.1421 17.0218 4.30159ZM7.56762 32.3861C7.71616 32.5538 7.6358 32.9014 7.41249 32.8923C6.04281 32.8363 4.67871 32.6441 3.3466 32.3194C4.51737 32.0252 5.74451 32.1008 6.94876 32.1783C7.17179 32.1926 7.41907 32.2183 7.56762 32.3861ZM10.6405 32.195C10.7029 32.3328 10.6213 32.5166 10.4776 32.5621C9.76862 32.7866 9.03289 32.9256 8.29123 32.9751C8.09895 32.8514 8.15076 32.5295 8.33121 32.3889C8.51166 32.2483 8.75735 32.2372 8.98563 32.2321L10.6405 32.195ZM14.3311 45.5303C24.6729 45.47 35.5532 45.5463 44.5609 50.7748C45.4255 51.2766 45.4542 52.6427 44.8661 53.4649C44.2779 54.287 43.2964 54.6897 42.3587 55.0245C39.4006 56.0808 36.349 56.86 33.2538 57.3495C30.3273 57.8123 27.3683 58.0159 24.4122 58.1909C7.16339 59.212 -10.3524 59.2514 -27.1316 55.0079C-27.2083 54.3872 -26.6694 53.8855 -26.1743 53.522C-18.6231 47.9774 -9.11658 46.2591 0.0361951 44.687C-9.56238 45.1247 -19.0445 48.0303 -27.3092 53.0663C-28.3773 53.7171 -29.5793 54.7835 -29.2271 56.0082C-28.9375 57.0155 -27.7728 57.3995 -26.7743 57.6209C-9.81398 61.3807 7.70987 62.4352 24.9789 60.7351C27.1554 60.5208 29.3276 60.2632 31.4971 59.9841C37.08 59.266 42.9419 58.2778 47.3145 54.6379C47.6884 54.3266 48.0641 53.9744 48.2137 53.5041C48.612 52.2515 47.2716 51.1867 46.1145 50.6194C36.2976 45.8069 25.104 44.0146 14.3311 45.5303ZM47.2351 52.0256C47.7966 52.7284 47.8136 53.9639 47.0433 54.4101C44.5301 55.8659 41.9779 57.3185 39.1975 58.1086C37.7259 58.5267 36.2102 58.7532 34.698 58.9702C31.7616 59.3916 28.8204 59.7811 25.8707 60.0906C7.99988 61.9652 -10.1632 60.8729 -27.7018 56.8688C-28.52 56.682 -28.8861 55.5739 -28.5567 54.7815C-28.2981 54.1593 -27.7473 53.729 -27.1317 53.4615C-27.5567 53.8319 -27.661 54.6748 -27.2918 55.1858C-26.8016 55.864 -25.9147 56.0641 -25.1059 56.2126C-15.5284 57.9706 -5.84192 59.2521 3.88597 59.3464C7.00428 59.3766 10.1223 59.2849 13.2395 59.1931C22.4333 58.9225 31.7207 58.6386 40.6192 56.2492C42.4185 55.766 44.303 55.1274 45.4882 53.6539C45.7136 53.3735 45.9143 53.0536 45.9614 52.693C46.0607 51.9329 45.475 51.2787 44.935 50.7494C45.7795 51.0194 46.6737 51.3228 47.2351 52.0256ZM-26.6167 53.278C-26.8191 53.2698 -26.9926 53.3403 -27.1317 53.4615C-26.9633 53.3884 -26.7901 53.3274 -26.6167 53.278ZM-26.0597 52.9727C-26.1997 53.0073 -26.3682 52.8392 -26.2828 52.7201L-26.2103 52.7956C-26.1485 52.6202 -25.9018 52.5508 -25.7618 52.6695C-25.8334 52.7979 -25.9198 52.9381 -26.0597 52.9727ZM33.324 117.613C34.1043 120.006 35.9676 122.235 38.4049 122.517C39.2863 122.619 39.9306 121.298 39.3249 120.632C38.7192 119.965 37.3952 120.537 37.4345 121.449C35.8969 120.853 34.8059 119.379 34.2442 117.79C33.6825 116.201 33.5759 114.487 33.4747 112.8L33.0637 105.952C32.9257 103.652 32.692 101.127 31.0895 99.5177C30.7414 99.168 30.3411 98.8774 29.9415 98.5873C29.4299 98.2159 28.9194 97.8453 28.521 97.3525C27.5883 96.1988 27.4337 94.5948 27.3681 93.0959C27.007 84.8459 28.1422 76.5297 30.6978 68.7022C30.8653 68.1893 31.039 67.6775 31.2128 67.1655C31.9139 65.1001 32.6163 63.031 32.9137 60.8699C32.5029 60.7683 32.2244 61.2817 32.1 61.6971L29.5885 70.0785C28.9332 72.2654 28.2772 74.4552 27.7974 76.6899C26.6701 81.9412 26.5325 87.3571 26.3994 92.7336C26.3672 94.0322 26.3496 95.3977 26.9435 96.5443C27.373 97.3736 28.0697 97.9889 28.7698 98.6072C29.2776 99.0558 29.7873 99.5059 30.1983 100.041C31.106 101.222 31.4766 102.738 31.7514 104.217C32.1138 106.166 32.351 108.14 32.4611 110.122C32.4878 110.604 32.5074 111.087 32.5269 111.572L32.5269 111.572C32.6097 113.621 32.6928 115.678 33.324 117.613ZM38.0115 121.168C38.0818 120.878 38.5107 120.769 38.6971 120.998L38.7457 120.955C38.9301 121.186 38.8124 121.597 38.5333 121.679C38.2542 121.76 37.9412 121.457 38.0115 121.168ZM-18.0461 125.354C-18.1755 124.581 -17.295 124.062 -16.552 123.9L-16.4616 123.88C-15.7374 123.722 -14.8954 123.539 -14.6357 122.836C-13.5909 120.007 -13.5743 116.898 -13.5577 113.807C-13.538 110.142 -13.5185 106.504 -11.7851 103.392C-10.9538 101.9 -9.77478 100.643 -8.50591 99.5259C-8.40888 99.4405 -8.31072 99.355 -8.21211 99.2691C-7.18374 98.3735 -6.10708 97.4357 -5.75882 96.1104C-5.56437 95.3704 -5.62405 94.5877 -5.6852 93.8234L-6.86818 79.0402C-7.0192 77.153 -7.1704 75.2641 -7.44583 73.392C-8.01018 69.556 -9.09177 65.8198 -10.332 62.1569C-9.38593 62.691 -8.94699 63.83 -8.62096 64.8913C-6.74015 71.0135 -6.23601 77.4811 -5.74394 83.8831L-4.97323 93.9103C-4.8323 95.7439 -4.90201 98.0028 -6.47319 98.8685C-8.96742 100.243 -10.9348 102.606 -11.8767 105.359C-12.7801 107.999 -12.7441 110.84 -12.7082 113.661C-12.7001 114.3 -12.692 114.938 -12.6949 115.572C-12.7102 119.007 -13.1704 122.705 -15.4194 125.235C-15.7899 125.652 -16.2344 126.044 -16.7748 126.138C-17.3153 126.231 -17.9527 125.912 -18.0461 125.354ZM-17.5466 125.327C-17.5705 125.491 -17.4081 125.633 -17.2483 125.642C-17.0884 125.652 -16.9384 125.568 -16.802 125.482C-16.3657 125.205 -15.9641 124.869 -15.6105 124.487C-15.8923 124.274 -16.2898 124.286 -16.6087 124.433C-16.9276 124.579 -17.1828 124.84 -17.4181 125.106C-17.4751 125.17 -17.534 125.241 -17.5466 125.327ZM13.6677 100.83C13.6714 105.599 14.3427 110.338 15.0125 115.058C15.1991 116.372 15.3918 117.708 15.9392 118.911C16.1868 119.455 16.6665 120.04 17.234 119.9C17.4113 119.856 17.566 119.743 17.6967 119.613C18.208 119.101 18.3557 118.166 17.8626 117.635C17.3695 117.104 16.2758 117.401 16.2531 118.135C15.2338 112.957 14.5567 107.709 14.228 102.437C14.1914 101.85 14.1217 101.187 13.6677 100.83ZM17.4887 118.006C17.515 118.106 17.4627 118.209 17.4122 118.298L17.0016 119.029L16.7222 118.978C16.6873 118.688 16.7453 118.387 16.8851 118.133C17.0151 117.896 17.4199 117.744 17.4887 118.006ZM13.6403 92.2207C13.4754 90.6361 13.5135 89.0371 13.5632 87.4443C13.8208 79.1824 14.3832 70.9309 15.2488 62.7138C15.2696 62.5166 15.3123 62.2863 15.4854 62.2015C15.8447 62.0256 16.053 62.6378 16.0133 63.0473C15.0581 72.8878 14.4736 82.7688 14.3429 92.6584C14.34 92.8753 14.023 92.9499 13.8615 92.8117C13.6999 92.6735 13.6627 92.4364 13.6403 92.2207Z" fill="#902920"/>
<path d="M17.9937 100.624C15.8283 100.504 13.6629 100.385 11.4975 100.265C8.51152 100.1 5.5161 99.9339 2.57446 99.3944C0.520613 99.0177 -1.50006 98.4596 -3.45649 97.7286C-3.6693 97.6491 -3.89125 97.5606 -4.03561 97.3848C-4.31147 97.0489 -4.18301 96.5121 -3.87223 96.2082C-3.56145 95.9044 -3.12389 95.7771 -2.70361 95.6683C6.18457 93.369 15.5645 94.6469 24.6168 96.1656C25.3021 96.2806 26.0079 96.4046 26.5941 96.7785C27.1804 97.1524 27.6223 97.8439 27.491 98.5282C27.3368 99.3314 26.504 99.7993 25.7316 100.062C23.2667 100.901 20.5926 100.767 17.9937 100.624" fill="white"/>
<path fill-rule="evenodd" clip-rule="evenodd" d="M17.9937 100.624C15.8283 100.504 13.6629 100.385 11.4975 100.265C8.51152 100.1 5.5161 99.9339 2.57446 99.3944C0.520613 99.0177 -1.50006 98.4596 -3.45649 97.7286C-3.6693 97.6491 -3.89125 97.5606 -4.03561 97.3848C-4.31147 97.0489 -4.18301 96.5121 -3.87223 96.2082C-3.56145 95.9044 -3.12389 95.7771 -2.70361 95.6683C6.18457 93.369 15.5645 94.6469 24.6168 96.1656C25.3021 96.2806 26.0079 96.4046 26.5941 96.7785C27.1804 97.1524 27.6223 97.8439 27.491 98.5282C27.3368 99.3314 26.504 99.7993 25.7316 100.062C23.2667 100.901 20.5926 100.767 17.9937 100.624M-3.66578 97.111C3.3827 99.4489 10.9317 99.6564 18.3541 99.8427C20.176 99.8884 21.9994 99.9341 23.8206 99.8634C24.5398 99.8355 25.3206 99.7641 25.8491 99.274C26.3776 98.784 26.3951 97.7285 25.7248 97.4658C21.8305 95.9399 17.5705 95.7052 13.3944 95.4957C8.42361 95.2464 3.39749 95.0115 -1.49331 95.9381C-2.33001 96.0966 -3.2596 96.3605 -3.66578 97.111Z" fill="#902920"/>
<path fill-rule="evenodd" clip-rule="evenodd" d="M102.792 65.6995C103.189 63.2963 103.385 60.8586 103.378 58.4214C103.367 54.6796 102.878 50.9435 103.038 47.2053C103.197 43.4671 104.084 39.6048 106.457 36.7564C106.256 38.3095 105.8 39.8277 105.113 41.2279C103.761 43.983 103.755 47.1993 103.779 50.2818C103.815 55.0247 103.851 59.7676 103.887 64.5105C103.898 65.957 102.938 67.2934 101.689 67.9726C100.44 68.6518 98.9525 68.7492 97.5528 68.5367C96.4406 68.3679 95.3641 68.0157 94.2933 67.665C87.9475 65.5863 81.6017 63.5076 75.2558 61.429C74.7456 61.2618 74.1429 60.9823 74.0991 60.4364C73.4353 52.1611 73.2958 43.842 73.6817 35.5485C73.8478 31.9799 74.2672 28.0609 76.8049 25.6051C76.0472 27.2945 75.2857 28.9948 74.8299 30.794C74.2305 33.1599 74.1759 35.6295 74.1247 38.0731C73.9698 45.4679 73.8165 52.8974 74.7662 60.2301C74.8112 60.578 74.9373 61.0095 75.2782 61.0507C78.0963 61.3914 80.8042 62.3445 83.4866 63.2915C87.2043 64.6039 90.9221 65.9164 94.6398 67.2289C95.544 67.5481 96.4608 67.87 97.4149 67.9401C98.7803 68.0405 100.125 67.6201 101.432 67.2046C101.821 67.081 102.235 66.9401 102.483 66.6106C102.677 66.3533 102.739 66.0198 102.792 65.6995Z" fill="#902920"/>
<path fill-rule="evenodd" clip-rule="evenodd" d="M96.9188 69.7468C91.3072 69.4564 86.0821 66.9979 80.6939 65.4204C78.7993 64.8657 76.8746 64.4182 74.9512 63.971C73.7009 63.6803 72.4506 63.3896 71.2002 63.0989C73.6291 62.4335 76.1962 63.1975 78.5961 63.956C84.7037 65.8863 90.8113 67.8165 96.9188 69.7468Z" fill="#902920"/>
<path fill-rule="evenodd" clip-rule="evenodd" d="M4.8185 47.3626C4.52777 47.2522 4.60191 46.8216 4.72959 46.5368C5.09219 45.728 5.45478 44.9193 5.81738 44.1105C5.88549 43.9586 5.95446 43.7855 5.8928 43.6309C5.8275 43.467 5.64336 43.3916 5.47765 43.3331C4.57065 43.0132 3.66364 42.6933 2.75664 42.3734C1.62663 44.7483 1.0654 47.3939 1.13343 50.0252C1.14393 50.4315 1.1806 50.8681 1.43898 51.1808C1.63279 51.4154 1.92317 51.5438 2.20665 51.6525C4.21541 52.4227 6.44567 52.5993 8.54999 52.1548C9.40624 51.9739 10.3432 51.6011 10.6616 50.7822C10.8501 50.2976 10.778 49.7553 10.7031 49.2406C10.419 47.2883 10.135 45.3359 9.85092 43.3836C9.81902 43.1643 9.78047 42.9305 9.63048 42.7681C9.44148 42.5633 9.13508 42.5325 8.85751 42.5182C8.36282 42.4926 7.8549 42.4795 7.38558 42.6389C6.91625 42.7982 6.48679 43.1655 6.38843 43.6534C6.12111 44.9792 5.58349 46.2494 4.8185 47.3626Z" fill="#E7EAEE"/>
<path fill-rule="evenodd" clip-rule="evenodd" d="M2.68689 42.1583C3.59905 41.988 4.58121 42.2454 5.2942 42.8417C5.50355 43.0168 5.8427 42.9197 6.01864 42.7107C6.19457 42.5017 6.24975 42.219 6.29882 41.9497C6.74084 39.5242 7.18285 37.0988 7.62487 34.6733C7.69969 34.2627 7.72934 33.7433 7.37325 33.5284C7.24704 33.4523 7.0956 33.4341 6.9493 33.4177C5.52464 33.2575 4.09998 33.0972 2.67532 32.937C2.49584 32.9168 2.27851 32.9129 2.17675 33.0628C2.11462 33.1544 2.1192 33.2743 2.12699 33.3848C2.33394 36.3173 3.13304 39.2527 2.68689 42.1583Z" fill="white"/>
<path fill-rule="evenodd" clip-rule="evenodd" d="M11.2513 32.6837C10.3616 33.2622 9.25858 33.5004 8.21111 33.3403C8.01794 35.9158 7.61325 38.4754 7.0025 40.9844C6.88057 41.4853 6.75017 42.0101 6.87806 42.5094C7.54716 42 8.46808 41.8438 9.26632 42.1043C9.43743 42.1601 9.62347 42.028 9.69503 41.8621C9.76659 41.6962 9.75453 41.5079 9.74583 41.3273C9.60456 38.3957 10.6841 35.563 11.2513 32.6837Z" fill="white"/>
<path fill-rule="evenodd" clip-rule="evenodd" d="M3.34666 32.3192C4.67877 32.6439 6.04287 32.8361 7.41255 32.8921C7.63585 32.9012 7.71622 32.5536 7.56767 32.3859C7.41913 32.2181 7.17185 32.1925 6.94882 32.1781C5.74457 32.1006 4.51743 32.0251 3.34666 32.3192Z" fill="white"/>
<path fill-rule="evenodd" clip-rule="evenodd" d="M8.29128 32.9754C9.03294 32.9259 9.76867 32.787 10.4777 32.5625C10.6214 32.517 10.703 32.3332 10.6406 32.1953C10.0889 32.2077 9.53731 32.2201 8.98568 32.2325C8.7574 32.2376 8.51171 32.2486 8.33126 32.3893C8.15081 32.5299 8.099 32.8517 8.29128 32.9754" fill="white"/>
<path fill-rule="evenodd" clip-rule="evenodd" d="M11.7904 5.24035C11.5756 6.02099 11.6804 6.90138 12.1405 7.56621C12.6006 8.23105 13.4285 8.6434 14.227 8.5328C15.448 8.36367 16.2069 7.16997 17.0378 6.25498C17.488 5.7592 18.0005 5.32059 18.5592 4.95288C16.4531 4.74568 14.2771 5.3627 12.589 6.64575C12.3868 6.29588 12.7074 5.86349 13.0591 5.66627C13.4108 5.46904 13.8389 5.34865 14.0547 5.00694C14.2178 4.74868 14.2182 4.42044 14.1804 4.11699C14.051 3.07866 13.5215 2.09601 12.7268 1.41979C12.5299 1.51294 12.6029 1.80386 12.6641 2.01367C12.9825 3.10499 12.0921 4.14407 11.7904 5.24035Z" fill="#FFB61D"/>
<path fill-rule="evenodd" clip-rule="evenodd" d="M16.7417 4.44746C16.8461 4.42151 16.9596 4.38965 17.0219 4.3015C17.1347 4.14201 17.0086 3.92326 16.8693 3.78669C16.4057 3.3325 15.7404 3.0946 15.0954 3.1525C14.8228 3.17698 14.483 3.45278 14.6699 3.65365C14.8241 3.81935 14.7252 4.08378 14.6444 4.29564C14.5636 4.5075 14.5518 4.81753 14.766 4.8893C14.847 4.91647 14.9354 4.89601 15.0184 4.87541C15.5928 4.73276 16.1672 4.59011 16.7417 4.44746Z" fill="#FFB61D"/>
</g>
<defs>
<filter id="filter0_d_241_3481" x="-33.2898" y="0.479004" width="155.296" height="133.675" filterUnits="userSpaceOnUse" color-interpolation-filters="sRGB">
<feFlood flood-opacity="0" result="BackgroundImageFix"/>
<feColorMatrix in="SourceAlpha" type="matrix" values="0 0 0 0 0 0 0 0 0 0 0 0 0 0 0 0 0 0 127 0" result="hardAlpha"/>
<feOffset dy="4"/>
<feGaussianBlur stdDeviation="2"/>
<feComposite in2="hardAlpha" operator="out"/>
<feColorMatrix type="matrix" values="0 0 0 0 0 0 0 0 0 0 0 0 0 0 0 0 0 0 0.25 0"/>
<feBlend mode="normal" in2="BackgroundImageFix" result="effect1_dropShadow_241_3481"/>
<feBlend mode="normal" in="SourceGraphic" in2="effect1_dropShadow_241_3481" result="shape"/>
</filter>
</defs>
</svg>
