<svg width="141" height="205" viewBox="0 0 141 205" fill="none" xmlns="http://www.w3.org/2000/svg">
<path fill-rule="evenodd" clip-rule="evenodd" d="M48.5604 14.658C48.4809 11.4777 48.5358 8.13897 49.9855 5.30984C51.4352 2.4807 54.7241 0.403373 57.5539 1.4886C59.471 2.22379 61.6127 1.69004 63.6256 1.18837L63.7084 1.16774C66.3272 0.515369 69.0702 -0.0428335 71.6604 0.617405C74.2506 1.27764 76.6382 3.49076 76.7333 6.2975C76.7743 7.5047 76.401 8.68952 76.0323 9.84318L72.9631 19.4473C71.7401 23.2743 70.4108 27.2781 67.5759 30.0323C64.7411 32.7864 59.8982 33.7087 57.2184 30.9092C56.5153 32.0929 57.1701 33.719 58.264 34.4631C59.358 35.2072 60.7374 35.3015 62.0509 35.3685C77.537 36.1577 93.7101 35.995 107.831 28.9113C107.952 27.191 109.163 25.5883 110.738 25.0647L110.887 25.0149C111.927 24.667 113.521 24.1342 114.442 24.5518C115.515 25.0381 116.057 26.3799 116.556 27.6153C116.68 27.9233 116.802 28.2247 116.928 28.5046C118.02 30.918 117.955 33.7292 117.869 36.4233C117.841 37.2738 117.525 38.4213 116.717 38.3643C121.027 39.3621 125.237 40.7937 129.271 42.6333L130.869 40.0432C129.188 35.1666 121.881 34.0256 118.744 38.1497C118.262 37.1827 119.541 36.2914 120.559 35.9807C120.511 35.9946 120.519 35.9905 120.577 35.972C119.751 33.0649 119.336 30.0219 119.347 26.9706L119.347 26.9741C119.347 26.9729 119.347 26.9717 119.347 26.9705C119.632 28.3517 120 29.51 120.367 30.6684C120.735 31.8267 121.102 32.985 121.387 34.3662C126.264 33.1522 130.995 33.674 135.94 34.2194L136.087 34.2357C136.084 34.2361 136.082 34.2366 136.079 34.237C134.016 34.5871 132.344 36.7381 132.442 38.9196C134.733 39.3546 137.157 39.0767 139.332 38.1296C138.265 37.2746 137.603 35.8942 137.576 34.4724C139.585 36.1609 140.895 37.82 139.804 38.6994C138.28 39.9283 133.484 40.0144 131.864 39.8833L130.24 43.139C133.823 45.0739 137.038 47.7325 139.664 50.9303C141.321 52.9485 142.467 56.6048 140.183 57.8848L152.215 60.6378C153.006 60.8186 154.011 61.6076 153.467 62.2538L101.595 51.2415C100.88 51.0898 100.093 50.0375 100.801 49.8266C103.668 50.6085 106.614 51.0939 109.583 51.2736C108.999 48.3465 109.257 45.2225 110.314 42.4076C111.913 38.1491 110.854 32.9894 107.745 29.896C89.4029 38.4074 68.6047 36.8033 48.8425 34.7923C46.4431 34.5482 43.8632 34.3383 41.7436 35.6028C39.5327 36.9217 38.3188 39.6305 38.0969 42.2692C37.8749 44.9079 38.4965 47.5189 39.1701 50.0515C39.5637 51.5315 39.9777 53.0175 40.3931 54.5086L40.3932 54.5091C42.981 63.798 45.6243 73.286 43.7502 82.7498C43.2637 85.2064 42.4795 87.5938 41.6961 89.9789C40.717 92.9599 39.739 95.9372 39.3451 99.0411C38.6813 104.272 39.7171 109.52 40.7477 114.646L44.3756 132.694C44.5152 133.388 44.6724 134.119 45.1341 134.631C45.9021 135.483 47.1969 135.429 48.3237 135.315L61.0588 134.015C62.3081 133.888 63.8332 133.536 64.2032 132.272C64.4071 131.576 64.1621 130.842 63.9199 130.169L61.7581 124.169L68.6168 128.781C69.1004 129.106 69.6115 129.441 70.1896 129.478C70.9024 129.524 71.5694 129.112 72.1874 128.72C78.7365 124.569 85.6659 121.094 92.8395 118.364C84.646 108.473 74.7102 100.186 63.6618 94.0269C69.0818 81.6708 72.0298 68.1725 72.2555 54.6787L54.3679 56.7203C53.8289 58.858 53.8979 61.0746 53.9667 63.2834C53.9848 63.8666 54.003 64.4493 54.0099 65.0298C54.0431 67.8091 53.7519 70.774 52.1353 73.0135C50.5187 75.2531 47.1861 76.3296 45.1503 74.5954C47.6867 76.1235 51.1525 74.1882 52.5063 71.4052C53.86 68.6222 53.6936 65.3571 53.4942 62.2714L53.0736 55.7636C72.8205 53.9121 92.3098 48.1838 110.23 38.9645C99.053 46.4261 86.1373 50.2712 73.4136 53.9179C73.9198 66.5295 71.1199 79.3442 65.4008 90.5918C64.5823 92.2014 66.2455 93.8646 67.6837 94.8287C77.777 101.596 86.9832 109.789 94.9842 119.127C88.9085 120.733 83.0788 123.447 77.8376 127.108C77.5716 127.293 77.306 127.482 77.0398 127.671L77.0397 127.671C75.2574 128.938 73.4513 130.221 71.3795 130.73C68.9981 131.316 66.1174 130.527 65.1193 128.22L66.6337 133.814C60.0692 136.179 53.0428 137.034 46.1986 136.302C45.4776 136.225 44.6983 136.1 44.206 135.551C43.8296 135.131 43.6927 134.537 43.5694 133.972L39.1355 113.642C38.2463 109.564 37.3514 105.421 37.5812 101.221C37.8193 96.8702 39.2438 92.7147 40.669 88.5577C42.0626 84.4925 43.4568 80.4258 43.7423 76.1735C44.1483 70.1261 42.2974 64.3889 40.4382 58.6265C39.467 55.6163 38.4936 52.5991 37.8385 49.5272C37.1035 46.0802 36.7892 42.3631 38.054 39.0437C39.3188 35.7243 42.543 32.983 45.8939 33.3912C45.9904 28.8681 47.294 24.3529 49.618 20.492C48.7148 24.9614 47.5549 29.3793 46.1466 33.7133L57.221 35.0015L55.2411 29.1659C58.5102 32.9843 64.983 31.675 68.3788 27.8277C71.7746 23.9804 72.8566 18.5568 73.6252 13.4151C70.0137 14.7892 65.8131 14.191 62.754 11.8669C61.3338 10.7879 59.1987 11.3794 57.9117 12.6854C56.6247 13.9915 55.9808 15.8213 55.3781 17.5824C54.6904 17.1209 54.6934 16.2346 54.6965 15.3122C54.6987 14.6646 54.7009 13.9992 54.4642 13.4503C53.6194 11.4911 50.3538 12.7216 49.9741 14.8609C49.5945 17.0002 50.9711 18.9724 52.3371 20.568C49.7674 21.014 48.6283 17.3791 48.5604 14.658ZM114.927 26.498C114.698 26.0525 114.415 25.5837 113.956 25.426C113.45 25.2524 112.902 25.5111 112.418 25.7634L110.626 26.698C110.014 27.0172 109.382 27.3518 108.941 27.902C108.501 28.4522 108.301 29.2817 108.654 29.8808C109.864 31.9328 111.091 34.0252 111.657 36.3751C112.224 38.725 112.038 41.4154 110.616 43.3733C109.878 44.3879 110.223 45.9288 111.093 46.7819C111.962 47.635 113.202 47.9365 114.398 48.0576C116.582 48.2788 118.792 48.0049 120.982 47.7314L125.515 47.1651C127.087 46.9688 128.466 45.5463 128.681 43.9004C128.941 43.6061 128.53 43.2 128.182 43.053C125.556 41.9457 122.878 40.9701 120.159 40.1306C117.623 39.3476 114.769 38.7128 112.392 40.0177C113.598 38.6151 115.328 37.7208 117.106 37.5802C117.414 33.7465 116.648 29.8486 114.927 26.498ZM127.389 47.6704C128.669 48.4666 129.349 50.0075 129.719 51.5271C129.852 52.0721 129.955 52.6267 130.058 53.1809C130.241 54.1719 130.425 55.1617 130.779 56.0942C132.978 56.6546 135.204 57.1108 137.446 57.4608C138.043 57.5539 138.655 57.639 139.249 57.5069C139.843 57.3748 140.425 56.9822 140.638 56.3835C140.688 56.2447 140.716 56.0982 140.745 55.9522L140.745 55.9521C140.788 55.7373 140.83 55.5233 140.937 55.3358C140.971 55.2761 141.012 55.2149 141.053 55.1529L141.053 55.1526C141.203 54.9281 141.359 54.6938 141.23 54.4863C138.559 50.1789 134.816 46.6239 130.462 44.2593C130.215 44.1253 129.918 43.9943 129.667 44.1308C129.525 44.2077 129.432 44.3544 129.346 44.4948L127.389 47.6704ZM111.138 51.8074L120.695 53.8745C121.306 54.0067 121.851 53.4486 122.263 52.9431L126.324 47.9543C124.603 47.9382 122.895 48.2187 121.186 48.4995C120.143 48.6706 119.1 48.8419 118.054 48.9462C115.29 49.2213 112.312 48.9565 110.15 47.1856C109.932 48.3889 110.135 49.6618 110.711 50.7088C110.486 50.7486 110.312 50.9987 110.346 51.2335C110.397 51.5913 110.801 51.7345 111.138 51.8074ZM122.167 54.1494C124.009 54.3503 125.812 54.7982 127.61 55.245L129.624 55.7456C129.463 53.6433 128.963 51.5777 128.152 49.6624C127.997 49.2965 127.816 48.9187 127.498 48.6997C127.179 48.4807 126.682 48.4925 126.462 48.8283C125.204 50.7452 123.763 52.5312 122.167 54.1494ZM130.745 38.4227C130.886 38.5405 131.047 38.6619 131.229 38.6432C131.496 38.6159 131.649 38.3144 131.753 38.0535L132.861 35.2732C132.923 35.1188 132.985 34.9457 132.93 34.7914C132.842 34.5479 132.526 34.5092 132.282 34.573C132.22 34.5893 132.158 34.6097 132.095 34.6302C131.913 34.6898 131.731 34.7496 131.55 34.708C130.24 34.4064 128.856 34.4361 127.545 34.7941C128.43 36.1643 129.512 37.3916 130.745 38.4227ZM71.6654 17.9035L69.3209 18.4737C69.1325 18.5195 68.9146 18.5591 68.7661 18.4339C68.5764 18.274 68.6347 17.9301 68.8175 17.7535C69.0003 17.5769 69.2576 17.5231 69.5003 17.4766L70.5101 17.2835C70.7698 17.2338 71.043 17.185 71.2904 17.2732C71.5378 17.3615 71.742 17.6377 71.6654 17.9035ZM63.7723 18.5518C64.0946 18.595 64.4856 18.3306 64.4318 17.9947L63.2128 17.4394C62.1879 16.9725 60.9677 16.5143 59.9872 17.1178C59.6691 17.3136 59.3934 17.7548 59.6068 18.0612C60.6189 17.4461 61.9411 17.4613 62.9145 18.0992C62.9705 18.1359 63.0259 18.1747 63.0815 18.2136C63.2978 18.3649 63.516 18.5174 63.7723 18.5518ZM67.1916 20.2173L67.0422 19.7153C66.9453 19.6308 66.7833 19.6449 66.6973 19.7453C65.9556 21.0512 65.8191 22.7071 66.3385 24.0992C66.4664 24.4421 66.0427 24.7974 65.6981 24.7222C65.3535 24.647 65.1213 24.3199 64.9454 24.0022C64.5735 24.4194 64.8982 25.1855 65.4251 25.2911C65.952 25.3968 66.4892 24.9846 66.7134 24.4658C66.9376 23.9469 66.9132 23.3537 66.833 22.7967C66.8131 22.6582 66.79 22.5199 66.7668 22.3816L66.7668 22.3814L66.7668 22.3814L66.7668 22.3814L66.7668 22.3814L66.7668 22.3813L66.7668 22.3813L66.7668 22.3813L66.7668 22.3813L66.7668 22.3812L66.7668 22.3812L66.7668 22.3812C66.6969 21.9633 66.6269 21.545 66.6449 21.1206C66.6611 20.7356 66.8275 20.2729 67.1916 20.2173ZM56.9493 24.4119C56.9573 23.6436 57.1322 22.6509 57.8536 22.5032C58.3904 22.3933 58.8789 22.8963 59.0213 23.4447C59.1297 23.862 59.0992 24.3007 59.0688 24.7385L59.0688 24.7385L59.0688 24.7386L59.0688 24.7387L59.0688 24.7387L59.0688 24.7388L59.0688 24.7389L59.0688 24.7389L59.0688 24.739L59.0688 24.7391L59.0688 24.7391L59.0688 24.7392C59.0592 24.8766 59.0497 25.0138 59.0445 25.1502C59.0226 25.7217 59.1032 26.3504 59.5048 26.7275C60.732 27.88 62.2596 28.6787 63.8854 29.018C62.1571 29.4122 60.5476 28.172 59.2058 27.0056L56.1503 24.3496C55.9519 24.1771 55.7433 23.8651 55.929 23.6694C56.3039 23.8592 56.6494 24.1106 56.9493 24.4119ZM58.0893 24.1408C58.09 24.5217 58.0305 24.904 57.9139 25.2673C58.1956 25.3764 58.4415 25.5805 58.6066 25.8425C58.7066 25.0063 58.6797 24.1564 58.5274 23.3346C58.4437 22.8834 57.7408 22.9002 57.4972 23.29C57.2535 23.6798 57.3447 24.1906 57.4802 24.6267C57.551 24.3491 57.817 24.1369 58.0893 24.1408ZM45.4274 95.0071C51.2727 95.4048 57.2849 95.7823 62.9028 93.8808C63.1459 93.7985 63.4465 93.5414 63.29 93.3352C57.1605 94.9854 50.7394 95.3284 44.5358 94.337C44.4489 94.7706 45.0085 94.9786 45.4274 95.0071ZM37.8049 156.326C38.2754 155.67 38.6843 154.966 39.0236 154.228L34.856 152.263C35.0267 151.899 35.5315 151.959 35.8912 152.09C37.0657 152.518 38.1908 153.088 39.2377 153.785L40.8161 150.376C41.0109 150.313 41.2289 150.342 41.3992 150.453C40.1388 153.628 38.5615 156.67 36.7018 159.512C36.4317 159.925 36.0385 160.387 35.5784 160.285C35.6064 159.992 35.7133 159.705 35.8836 159.468C34.7645 159.3 33.5279 159.063 32.8631 158.114C33.982 158.197 35.0827 158.484 36.1015 158.958C36.6871 158.345 37.1866 157.642 37.578 156.88C36.32 156.544 35.1224 155.979 34.0543 155.216C34.2536 154.873 34.743 154.982 35.0901 155.134L37.8049 156.326ZM2.81211 202.896C2.44674 193.053 3.04557 183.149 4.59616 173.39C4.73087 172.542 4.92372 171.606 5.59014 171.096C3.90731 180.81 3.15796 190.681 3.35723 200.51C3.37419 201.346 3.36423 202.28 2.81211 202.896ZM9.71533 186.808C11.0434 186.777 12.3706 187.092 13.5443 187.717L14.602 185.526C13.0913 185.067 11.6403 184.405 10.2949 183.562C11.9161 183.588 13.5146 184.154 14.8033 185.159C14.8139 183.902 15.4185 182.653 16.3853 181.889C14.0005 189.014 10.6898 195.815 6.57526 202.042C5.82551 203.177 4.97151 204.356 3.73643 204.818C2.50135 205.281 0.833947 204.618 0.712848 203.26C-0.226163 192.729 0.481809 182.002 2.80004 171.635C2.89411 171.214 3.00086 170.774 3.28106 170.454C3.70746 169.967 4.40073 169.896 5.0244 169.869C8.21645 169.728 11.4134 169.839 14.5794 170.201C14.8868 170.446 14.3295 170.846 13.9395 170.84L3.46459 170.694C1.3155 181.311 0.594396 192.215 1.32951 202.977C1.3581 203.395 1.40072 203.845 1.66233 204.157C2.33744 204.963 3.59632 204.169 4.30431 203.363C7.54484 199.673 10.1868 195.408 12.0771 190.815C10.9044 191.085 9.62968 190.731 8.75645 189.894C9.96455 189.818 11.1834 190.061 12.269 190.595L13.2983 188.561L9.71533 186.808ZM82.5466 129.654C82.6164 129.338 82.5489 129.01 82.449 128.707C82.1908 127.924 81.7112 127.228 81.0857 126.728C80.6746 127.161 80.9583 127.87 81.2007 128.412C81.4432 128.955 81.5057 129.8 80.9544 129.987L71.7343 133.12C71.4293 133.224 71.0466 133.51 71.2043 133.797C73.1378 133.949 75.0453 133.237 76.8833 132.537L80.9809 130.974C81.6373 130.724 82.389 130.366 82.5466 129.654ZM57.2282 96.434C57.4615 96.4149 57.2779 96.0266 57.0566 95.9532C56.8352 95.8798 56.5647 95.5927 56.7706 95.4721L57.7168 95.7157C58.0946 95.9877 57.7999 96.6957 57.3474 96.8086C56.895 96.9214 56.449 96.6636 56.0563 96.4153C55.8859 96.9603 55.2204 97.2723 54.7306 97.0368C54.2408 96.8012 54.0452 96.0752 54.3409 95.5905C54.6982 95.3827 55.1623 95.4045 55.4914 95.6444C55.4922 95.8151 55.3224 95.8314 55.1379 95.8491C55.0315 95.8594 54.9202 95.8701 54.834 95.9112C54.4854 96.0776 54.8058 96.7052 55.1823 96.6429C55.5588 96.5805 55.7886 96.1793 55.9638 95.8216C56.3028 96.1655 56.755 96.3845 57.2282 96.434ZM63.2985 19.7902C63.8913 19.819 63.9438 20.8001 63.5229 21.2493C63.164 21.6323 62.5399 21.7886 62.148 21.4609C62.1279 20.93 62.3535 20.3892 62.7414 20.0381C62.8985 19.8959 63.0937 19.7802 63.2985 19.7902ZM69.4567 21.9072C70.0874 21.7004 70.0744 20.7668 69.9267 20.0986C69.128 20.0369 68.4046 20.9892 68.6441 21.7872C68.902 21.896 69.1877 21.9954 69.4567 21.9072ZM42.1507 140.24L46.164 139.268C46.6583 138.405 46.5483 137.219 45.907 136.497C45.7457 137.148 45.7405 137.837 45.8919 138.484C44.1509 138.95 42.3858 139.309 40.609 139.558C41.0288 142.077 41.1818 144.65 41.0643 147.216C43.249 147.761 45.4959 148.054 47.7516 148.087L49.0571 154.441L36.9792 160.351C32.9436 162.326 30.3296 166.484 27.9363 170.432C29.5242 169.439 30.6139 167.802 31.6986 166.173C32.8918 164.382 34.0788 162.6 35.9161 161.691L48.2238 155.602C48.6691 155.382 49.1473 155.129 49.3665 154.666C49.5721 154.232 49.4975 153.722 49.4181 153.251L48.5377 148.025C54.2433 148.313 59.9842 148.067 65.67 147.289L64.1567 161.164C63.9597 162.97 63.6967 164.925 62.4682 166.228C61.5852 167.165 60.3455 167.601 59.1542 167.997C45.3081 172.6 31.1463 176.088 16.8363 178.421L15.8093 171.183C18.5559 169.847 21.3664 168.661 24.2254 167.632C24.0081 168.568 23.7918 169.56 24.0634 170.469C24.335 171.378 25.2925 172.12 26.1491 171.767C27.1053 171.372 27.268 170.048 27.2912 168.977C27.5121 158.782 29.3519 148.674 31.1857 138.622C28.2095 148.963 26.6786 159.731 26.658 170.469C26.6566 171.197 25.5456 171.397 25.0847 170.863C24.6238 170.329 24.6526 169.514 24.7118 168.787C25.5119 158.968 27.0156 149.197 29.2059 139.583C29.3539 138.933 29.5694 138.199 30.1481 137.916C30.5292 137.729 30.9692 137.795 31.3795 137.865L40.048 139.339C37.1814 138.255 34.1802 137.544 31.1336 137.226C30.6394 137.175 30.1072 137.142 29.6733 137.408C29.1061 137.755 28.8908 138.489 28.729 139.154C26.6792 147.573 25.3142 156.161 24.654 164.793C24.5339 166.364 23.133 167.528 21.7191 168.085C21.1249 168.319 20.5085 168.484 19.8929 168.649C19.0435 168.877 18.1955 169.105 17.409 169.511C16.0523 170.213 14.8623 171.726 15.191 173.254L16.5304 179.479C30.5629 177.837 44.2826 173.828 57.8886 169.684C60.2056 168.978 62.7264 168.113 64.0415 165.978C64.7943 164.756 65.0362 163.282 65.2329 161.852C65.9002 157.001 66.2421 152.108 66.2555 147.222C76.898 146.447 87.5309 145.463 98.1467 144.27C99.4697 144.122 100.901 143.918 101.865 142.939C103.493 141.284 102.904 138.474 102.049 136.319C99.7543 130.535 96.3857 125.242 92.1836 120.818C91.8877 122.128 92.821 123.326 93.6482 124.328C96.5413 127.831 98.9048 131.818 100.628 136.101C101.359 137.92 101.831 140.382 100.328 141.629C99.6539 142.189 98.7576 142.315 97.9105 142.419C79.2757 144.701 60.5588 146.081 41.8398 146.551L42.1507 140.24ZM131.821 111.212C132.04 112.087 132.438 113.179 133.305 113.166C132.364 108.995 130.624 105.041 128.219 101.605L138.583 95.2484L134.803 109.129C134.532 110.122 134.26 111.168 134.488 112.162C135.353 112.052 135.733 110.965 135.929 110.072C139.476 93.922 145.528 78.3271 153.77 64.094C153.415 63.2056 152.39 62.8948 151.488 62.6981C147.378 61.8014 143.223 61.1239 139.069 60.4463L139.069 60.4463L139.069 60.4463C134.429 59.6895 129.789 58.9327 125.212 57.8709C123.025 57.3636 120.847 56.7861 118.67 56.2086L118.669 56.2086L118.669 56.2085L118.669 56.2085C112.824 54.6583 106.978 53.1079 100.946 52.9148C100.855 52.9119 100.76 52.9099 100.675 52.9476C100.418 53.0621 100.408 53.4346 100.441 53.7226C101.749 65.1914 101.855 76.8372 100.756 88.3843C100.597 90.058 101.722 91.5037 102.778 92.741L106.976 97.6608C107.573 98.3598 108.711 99.0417 109.233 98.2555C109.605 97.6952 110.392 97.5899 110.983 97.8461C111.573 98.1024 112.007 98.632 112.398 99.1602C114.683 102.246 116.258 105.912 116.962 109.774L127.235 102.091C129.4 104.703 130.98 107.847 131.821 111.212ZM122.117 64.7382C126.38 65.7449 131.015 65.0772 134.925 62.8935C135.511 62.566 136.085 62.2035 136.591 61.7503C137.033 61.3546 137.746 60.8997 138.08 61.383C137.31 63.0333 136.86 64.8418 136.766 66.6633C136.695 68.0451 135.33 68.9173 134.138 69.5318L130.528 71.3917C129.627 71.8559 128.703 72.3275 127.711 72.4419C126.72 72.5563 125.631 72.2423 125.063 71.3971L120.83 65.0904C120.511 64.6144 120.184 64.1205 120.075 63.5462C119.986 63.0815 120.048 62.598 120.117 62.1263C120.337 60.6453 120.639 59.176 121.022 57.7284C122.586 58.4006 124.274 58.7057 125.946 59.0063L130.26 59.7817C130.552 59.8341 130.849 59.8884 131.108 60.0331C131.348 60.1671 131.544 60.3716 131.736 60.5733L133.935 62.8814C133.275 62.6875 132.655 63.0721 132.029 63.4605C131.752 63.6318 131.475 63.8038 131.192 63.9273C130.608 64.1825 129.967 64.2299 129.339 64.2581C128.34 64.3028 127.339 64.3068 126.341 64.2699C124.437 64.1995 122.505 63.9709 120.774 63.1696C120.414 63.9087 121.356 64.5584 122.117 64.7382ZM112.584 80.694C112.911 80.5261 113.26 80.3539 113.62 80.3839C113.986 80.4145 114.3 80.6491 114.584 80.8879C117.621 83.4398 119.39 87.2587 121.067 90.9522C118.332 91.8236 115.733 93.1956 113.424 94.9867L113.368 95.0299L113.368 95.0299C112.994 95.3206 112.609 95.6201 112.159 95.7232C111.686 95.8315 111.117 95.6468 110.946 95.1777C109.542 91.3184 107.503 87.7268 104.943 84.6068L112.584 80.694ZM115.365 79.4021C118.319 77.8593 121.334 76.4477 124.397 75.1724C124.71 75.0419 125.04 74.9105 125.372 74.9495C125.733 74.992 126.04 75.23 126.318 75.4707C128.97 77.7609 130.782 81.0892 131.328 84.6728C128.2 85.8294 125.25 87.5423 122.644 89.715C122.348 89.962 121.834 90.1749 121.678 89.8212C120.022 86.0705 117.894 82.5582 115.365 79.4021ZM134.363 88.698C135.638 90.5343 137.068 92.2502 138.632 93.82C134.673 95.4334 130.971 97.7731 127.749 100.699C126.59 97.4556 124.974 94.4009 122.97 91.6627C122.871 91.5272 122.766 91.3749 122.779 91.2025C122.795 91.01 122.952 90.8653 123.098 90.7447C126.137 88.2343 129.628 86.3353 133.319 85.1849C132.957 86.417 133.651 87.6728 134.363 88.698ZM109.71 55.3606C110.376 55.4747 111.124 55.6568 111.449 56.2723C113.166 59.516 115.901 62.1391 119.137 63.6446C116.347 65.5631 113.321 67.0974 110.166 68.1941C109.654 68.3719 109.18 67.8903 108.855 67.4519C105.896 63.4693 103.445 59.0679 101.585 54.3963C104.309 54.5778 107.021 54.8997 109.71 55.3606ZM112.666 97.662C114.796 95.1157 117.77 93.3589 120.929 92.7812C121.986 92.5878 122.833 93.6093 123.406 94.5432C124.649 96.5655 125.726 98.7016 126.623 100.921C126.673 101.045 126.724 101.177 126.703 101.31C126.656 101.606 126.318 101.726 126.042 101.807C124.405 102.292 123.118 103.497 121.822 104.711C120.822 105.647 119.816 106.589 118.64 107.209C118.523 107.271 118.396 107.331 118.267 107.316C118.05 107.292 117.911 107.075 117.802 106.879L112.666 97.662ZM136.887 69.6149C138.654 72.7604 140.892 75.6074 143.495 78.0229C140.039 79.4137 136.747 81.2772 133.731 83.5504C133.296 83.8779 132.793 83.2861 132.565 82.7897C131.075 79.5436 129.102 76.5504 126.738 73.9489C130.196 73.3392 133.502 71.6815 136.15 69.2287C136.392 69.0051 136.727 69.3296 136.887 69.6149ZM125.592 73.7863C121.763 74.4144 118.074 76.0962 114.996 78.6171C113.762 75.2663 111.614 72.4051 109.496 69.5979C112.98 68.5895 116.34 67.0739 119.448 65.1087C121.279 68.1639 123.335 71.0676 125.592 73.7863ZM146.323 64.7736C147.583 64.2007 148.904 63.6158 150.263 63.7065C150.993 63.7553 151.694 63.999 152.384 64.245C149.663 68.7014 147.236 73.351 145.126 78.1486C142.42 75.4701 140.001 72.4741 137.925 69.2314C137.865 69.139 137.804 69.0397 137.802 68.9273C137.798 68.6875 138.046 68.5361 138.257 68.44L146.323 64.7736ZM104.795 83.6736C104.431 82.7486 103.85 81.9229 103.116 81.2889L103.066 81.2464C102.904 81.1079 102.738 80.9658 102.652 80.7673C102.578 80.5973 102.57 80.4036 102.563 80.2154C102.508 78.6052 102.461 76.937 103.047 75.4332C103.823 73.4432 105.571 72.0685 107.263 70.8453C107.471 70.6946 107.696 70.5389 107.946 70.5335C108.213 70.5278 108.449 70.6933 108.659 70.8603C111.183 72.8651 112.721 75.9341 113.933 79.0124C110.619 79.8246 107.469 81.4314 104.795 83.6736ZM134.155 85.5269C134.61 84.2144 135.723 83.2749 136.846 82.518C139.195 80.9345 141.828 79.8258 144.554 79.2723L139.392 93.0624C137.138 91.0079 135.335 88.4142 134.155 85.5269ZM103.933 84.134C103.936 84.3798 103.703 84.551 103.497 84.6743L102.506 85.2703C102.493 85.488 102.775 85.5795 102.977 85.5235C103.038 85.5067 103.098 85.483 103.159 85.4594L103.159 85.4594C103.299 85.4046 103.438 85.35 103.58 85.3812C103.711 85.4103 103.816 85.5094 103.913 85.6057C106.736 88.4017 108.881 91.944 110.104 95.8284C110.181 96.0727 110.255 96.3332 110.198 96.5865C110.116 96.9511 109.792 97.1944 109.493 97.4021C108.817 97.8709 107.787 98.2857 107.337 97.5999C105.876 95.3756 104.147 93.3478 102.204 91.5779C101.783 91.1944 101.795 90.5124 101.841 89.9221L102.441 82.1029C102.958 82.6067 103.417 83.177 103.804 83.7977C103.868 83.9 103.932 84.0106 103.933 84.134ZM102.637 59.5444C104.453 62.7165 106.371 65.823 108.386 68.8573C106.301 70.2222 104.144 71.6604 102.819 73.8325L102.256 59.298C102.412 59.3111 102.557 59.4053 102.637 59.5444ZM137.825 65.7855C138.028 64.2778 138.285 62.6554 139.312 61.563L147.521 63.5395L137.513 68.0895L137.825 65.7855ZM119.061 62.8722L117.6 61.7731L117.737 61.3189C117.445 61.497 117.209 61.2264 116.958 60.9386C116.734 60.6818 116.498 60.4114 116.2 60.4334C116.129 60.4386 116.047 60.4533 115.964 60.4681C115.704 60.5146 115.434 60.5628 115.455 60.3286C115.463 60.2337 115.541 60.1634 115.614 60.1044L118.209 57.9844C118.514 57.7349 118.842 57.4753 119.224 57.4363C119.606 57.3973 120.037 57.687 120.01 58.0885C119.9 59.7136 119.58 61.3276 119.061 62.8722ZM117.076 57.1454C117.255 57.0065 117.548 57.1006 117.616 57.3192C117.022 58.2571 116.155 59.0053 115.166 59.4338C114.882 59.5567 114.425 59.5444 114.425 59.2246C114.425 58.8439 114.038 58.6816 113.679 58.531C113.603 58.4992 113.528 58.4678 113.459 58.4351C112.678 58.0671 112.307 56.9751 112.682 56.1517C113.647 55.8888 114.655 56.1057 115.621 56.323C116.179 56.4487 116.802 56.6225 117.076 57.1454ZM135.949 61.2674C135.598 61.4091 135.309 61.7147 135.177 62.0831C134.148 61.8745 133.225 61.1892 132.7 60.2444C133.451 60.251 134.19 60.5598 134.732 61.0936C135.09 60.7745 135.7 60.8617 135.949 61.2674ZM150.415 36.7276C149.881 34.915 145.523 31.3901 142.138 29.8702C134.998 26.665 127.006 25.4936 119.22 26.5109C125.829 24.7969 133.101 25.9354 139.773 28.1015C145.751 30.0424 152.989 37.3671 150.811 37.4176C148.986 37.4599 141.938 35.5289 138.338 33.7515C140.503 33.5544 144.62 34.9718 147.441 35.9429C149.227 36.558 150.494 36.994 150.415 36.7276Z" fill="#902920"/>
</svg>
