<svg width="104" height="177" viewBox="0 0 104 177" fill="none" xmlns="http://www.w3.org/2000/svg">
<path fill-rule="evenodd" clip-rule="evenodd" d="M74.5774 100.171C73.8875 99.8618 73.1965 99.5521 72.5012 99.2505C67.4113 97.0425 61.3062 95.4546 56.5038 98.2291C55.7703 93.5607 60.7934 89.9953 65.4158 88.9392C66.6836 88.6495 67.9917 88.4441 69.2999 88.2386C72.7617 87.695 76.2242 87.1512 78.9417 85.0467C82.9764 81.9221 84.0523 76.3527 84.4073 71.2734C89.7065 75.1881 96.9022 76.4189 103.208 74.4891C103.69 74.3418 104.177 74.1772 104.667 74.0115C107.012 73.2197 109.432 72.4019 111.655 73.32C114.628 74.5478 118.252 74.0426 120.772 72.0489C123.292 70.0551 124.608 66.6534 124.082 63.49C123.873 62.2343 125.478 61.103 126.597 61.7174C127.181 62.038 127.424 62.7466 127.36 63.4094C127.334 63.6812 127.065 63.8686 126.812 64.0447C126.5 64.262 126.212 64.4623 126.436 64.7828C126.793 65.2933 127.985 65.2149 128.751 65.143C129.45 65.0774 130.802 64.7828 130.635 64.081C130.547 63.7111 130.209 63.591 129.869 63.4703C129.616 63.3804 129.361 63.2901 129.209 63.096C129.02 62.8552 128.968 62.5919 128.917 62.3285C128.865 62.0652 128.814 61.8019 128.625 61.5611L132.533 59.913C132.994 60.5303 133.152 61.3438 133.013 62.0991C132.976 62.302 132.786 62.5436 132.613 62.7636C132.384 63.0552 132.185 63.3089 132.41 63.3846C133.85 63.8686 135.68 63.5138 136.431 62.1307C136.548 61.9142 136.25 61.8829 135.858 61.8417C135.48 61.8019 135.014 61.7529 134.751 61.5188C134.259 61.0815 133.935 60.4598 133.955 59.8C136.188 59.3466 137.5 56.8394 137.395 54.572C137.289 52.3045 136.131 50.2366 135.002 48.2649C134.454 47.3069 133.597 46.2811 133.013 46.1083C132.977 46.0976 132.943 46.087 132.909 46.0768C132.405 45.9223 132.16 45.847 130.041 46.5101C128.729 46.9208 128.923 46.5094 129.164 46C129.191 45.9419 129.22 45.8826 129.246 45.823C129.387 45.5058 129.484 45.1829 129.209 45.0166C127.936 44.2461 126.597 45.0854 126.078 45.9703C125.768 46.4988 126.241 46.4619 126.739 46.423C126.919 46.409 127.102 46.3947 127.252 46.4068C127.598 46.4348 127.77 46.603 127.329 47.2371C126.67 48.1836 125.093 48.9359 123.992 48.8674C123.469 48.7629 123.131 48.5802 123.063 47.9879C123.05 47.8795 123.097 47.763 123.15 47.6305C123.196 47.5137 123.248 47.3844 123.268 47.2371C123.44 46.0091 119.377 47.5507 120.074 48.4452C120.23 48.644 120.609 48.6392 120.944 48.6349C121.124 48.6326 121.29 48.6305 121.403 48.6598C122.03 48.8219 122.205 49.1056 122.141 49.7647C121.959 51.1539 120.514 51.1166 118.927 51.0756C117.609 51.0416 116.192 51.005 115.323 51.7834C110.43 56.1635 103.572 58.0794 97.0188 57.5162C90.4654 56.9529 84.2378 54.0493 79.1473 49.8987C78.4447 49.3259 77.7443 48.7219 77.0394 48.1139C73.6373 45.18 70.1286 42.154 65.7478 42.0914C65.8763 41.7986 65.7612 41.4551 65.6558 41.1405C65.5481 40.8193 65.4506 40.5281 65.6331 40.352C66.7641 39.2609 67.3419 37.1354 67.8422 35.2947C68.2919 33.6405 68.679 32.2162 69.349 31.9796C70.6897 31.506 71.0829 30.3242 71.5366 28.9608C71.5619 28.8848 71.5874 28.8083 71.6132 28.7312C71.768 28.2698 71.9061 27.8971 72.0237 27.5796C72.3835 26.6086 72.552 26.1537 72.422 25.254C72.2924 24.3566 71.8064 23.582 71.3179 22.8034C71.0571 22.3878 70.7957 21.9712 70.5874 21.5341C69.4417 19.1309 69.9784 16.4441 70.5148 13.7591C70.7157 12.7534 70.9166 11.7479 71.029 10.7577C71.4414 7.12368 69.1482 2.34935 65.5674 3.1527C63.8225 3.54418 62.7139 5.11421 61.6602 6.60645C61.5063 6.82436 61.3536 7.04062 61.2003 7.2513C59.9969 8.90472 57.9791 10.5085 56.0855 9.72644C52.9261 8.42166 47.9847 10.7577 47.5192 13.1881C45.9679 11.7957 44.9484 13.2326 44.3554 14.202C41.9824 18.0813 41.9848 23.033 43.2625 27.394C44.2581 30.7922 46.0637 34.074 48.9375 36.1556C49.3029 36.4202 49.6876 36.6684 50.0727 36.9168C51.1911 37.6384 52.3123 38.3618 52.9685 39.4937C53.8506 41.0153 53.0756 43.5647 51.3142 43.4759C43.4369 43.079 35.5123 43.6205 27.7631 45.0854C23.6916 45.855 18.8749 47.7022 18.3127 51.7931C17.9613 54.3504 19.4689 56.6125 20.9755 58.8732C22.4887 61.1437 24.001 63.4129 23.6283 65.9785C22.1542 76.1262 24.5167 86.7813 30.1443 95.3656C27.1202 101.168 24.0635 107.06 22.6966 113.455C21.3298 119.85 21.8383 126.922 25.53 132.328C27.4538 135.145 30.1683 137.452 32.8531 139.734C36.9661 143.229 41.0093 146.665 42.0321 151.785C42.5129 154.191 42.2199 156.647 41.9271 159.101C41.821 159.99 41.715 160.878 41.6457 161.765C41.3853 165.097 41.8085 168.815 44.2658 171.091C45.6676 172.389 47.876 172.77 49.6665 172.257C49.6513 172.53 49.6354 172.785 49.6205 173.024C49.539 174.331 49.4856 175.189 49.7155 176.205C49.7754 176.47 49.8728 176.771 50.1272 176.867C50.6339 177.059 50.9718 176.286 50.9375 175.761C50.808 173.776 50.5599 172.654 50.3209 172.02C51.3652 171.557 52.1846 170.743 52.4772 169.583C54.8343 160.241 57.0336 149.713 51.996 141.492C50.3318 138.775 48.0106 136.574 45.6852 134.369C44.5106 133.255 43.3349 132.14 42.2424 130.957C38.9869 127.433 36.3403 122.654 37.5227 118.011C39.6937 109.486 46.4966 102.284 54.9053 99.6081C63.3139 96.9323 73.0472 98.8723 79.7757 104.565C79.5254 108.137 76.6846 110.515 73.8071 112.925C72.46 114.053 71.1048 115.187 70.0035 116.454C65.559 121.568 65.3361 129.203 67.1624 135.719C68.5887 140.807 71.1165 145.585 74.5232 149.633C75.3803 150.652 76.4369 151.695 77.7694 151.756C79.5602 151.838 80.9008 150.119 81.5484 148.453C83.8418 142.554 81.5572 135.95 79.0349 130.145C78.0636 127.909 80.0385 125.567 81.8418 123.922L94.1868 112.663C97.3436 109.783 100.705 106.518 101.17 102.279C101.566 98.6727 99.6783 95.1176 97.0393 92.6183C94.4003 90.1191 91.071 88.4915 87.7981 86.9023L81.5656 83.8759C83.62 86.507 86.721 87.9839 89.7743 89.4382C90.3641 89.7191 90.9522 89.9992 91.5306 90.2866C95.103 92.0617 98.7703 94.6524 99.5883 98.5456C100.593 103.328 96.9421 107.718 93.557 111.254C89.2706 115.731 84.9468 120.241 79.8547 123.782C78.1222 124.987 76.2009 126.109 74.0893 126.184C71.9777 126.259 69.6805 124.941 69.349 122.861C69.0497 120.984 70.3475 119.264 71.568 117.803L80.5933 107C81.965 105.359 83.7719 104.931 85.9215 104.423C86.6777 104.244 87.4763 104.055 88.3133 103.8C83.2489 104.057 78.9368 102.125 74.5774 100.171ZM38.0466 71.1384C38.411 74.408 39.4219 77.6822 41.4719 80.261C43.522 82.8398 46.7162 84.6351 50.0149 84.4925C51.1194 84.4448 51.4733 82.8073 50.8174 81.9204C50.2486 81.1512 49.308 80.8011 48.3959 80.4616C48.2564 80.4097 48.1176 80.358 47.9809 80.3052C46.9502 79.9065 45.8512 79.2395 45.6652 78.1536C48.5735 80.4081 52.9155 80.6173 56.0287 78.6529C57.1122 81.7516 60.7065 83.6122 63.9596 83.1005C67.2127 82.5888 69.9317 79.9981 71.0107 76.8978C71.0314 76.8386 71.0517 76.7787 71.0721 76.7187C71.236 76.2362 71.4045 75.7402 71.777 75.3984C72.1239 75.0801 72.5971 74.9448 73.0518 74.8195L81.9464 72.3687C82.1672 72.3079 82.4177 72.2506 82.6136 72.3689C82.8225 72.4952 82.8802 72.7668 82.9108 73.0083C83.5261 77.8704 80.7868 82.9773 76.3878 85.1693C74.0293 86.3446 71.3338 86.7286 68.6615 87.1094C65.1749 87.6062 61.7277 88.0974 59.1192 90.3329C57.6995 91.5496 56.7147 93.1477 55.7279 94.749C55.2565 95.514 54.7847 96.2797 54.2647 97.0049C51.0765 101.452 45.221 104.463 40.0206 102.726C37.0358 101.728 34.7157 99.3681 32.8087 96.8722C27.0681 89.3588 24.0379 79.8326 24.3869 70.3961C24.4502 68.6839 24.6267 66.9504 25.2481 65.3529C29.189 69.9163 33.7459 73.9511 38.7573 77.3143C38.5822 76.4085 37.9524 75.6652 37.3255 74.9864C35.5319 73.0443 33.5522 71.2254 31.5748 69.4086C26.9763 65.1836 22.3895 60.9694 20.1808 55.24C19.6953 53.9805 19.3362 52.6056 19.6353 51.2897C20.3137 48.3053 23.8339 47.063 26.8442 46.4571C34.0739 45.0021 41.4523 44.2814 48.828 44.3097C49.2197 48.8619 53.0211 52.9332 57.567 53.5326C62.1129 54.132 66.9038 51.1006 68.1801 46.7122C68.218 46.582 68.2535 46.4501 68.2891 46.3178C68.4477 45.728 68.608 45.1323 68.9871 44.6602C69.4513 44.0823 70.3954 43.7982 70.9372 44.3047C74.9532 48.0588 79.1675 51.6679 83.97 54.3528C88.7724 57.0376 94.229 58.7692 99.7304 58.5264C90.3331 61.9425 80.7276 64.79 70.9846 67.0481C70.2395 67.2208 69.3168 67.334 68.8379 66.7397C67.1409 64.6334 64.3735 63.4314 61.6698 63.6262C58.966 63.8209 56.4009 65.4071 55.0257 67.7348C54.5278 68.5775 53.2853 68.4716 52.3402 68.2081C50.3742 67.6598 48.351 66.8167 47.1892 65.144C46.9931 64.8616 46.8232 64.5578 46.6536 64.2545C46.3216 63.6608 45.9908 63.0695 45.467 62.6455C44.7261 62.0459 43.7557 61.8997 42.7946 61.755C42.5274 61.7148 42.261 61.6746 42.0004 61.6249C39.0335 61.0588 36.4061 58.9565 35.2108 56.1924C38.0076 54.3261 41.7846 55.2118 44.8726 56.5465C45.3589 56.7567 45.8464 56.9775 46.3358 57.1992C48.9539 58.3848 51.625 59.5945 54.4491 59.3361C56.8502 59.1163 58.9459 57.8713 61.0505 56.6209C62.9112 55.5154 64.7789 54.4058 66.8708 53.9969C72.2377 52.9479 77.5057 56.9301 80.0183 61.7704C80.0375 61.8074 80.0568 61.8446 80.0761 61.8819C80.4872 62.6766 80.9317 63.536 81.7559 63.8696C80.915 59.1584 77.3636 55.0261 72.821 53.4732C68.2785 51.9204 62.9289 53.01 59.3624 56.2145C57.1494 58.2029 53.7866 58.3435 50.8983 57.6126C49.2715 57.201 47.721 56.5564 46.1695 55.9114C44.9664 55.4113 43.7626 54.9109 42.5221 54.5186C39.6818 53.6203 36.4014 53.3546 33.8732 54.9265C33.1143 53.26 32.0989 51.7098 30.8734 50.3468C32.088 57.2913 38.4447 63.0009 45.5027 63.4867L41.586 64.9694C40.6709 65.3159 39.7225 65.684 39.0509 66.3937C37.901 67.6089 37.8616 69.4784 38.0466 71.1384ZM36.1174 119.711C35.7369 121.623 35.528 123.694 36.386 125.445C36.8484 126.388 37.5869 127.164 38.313 127.926L38.3627 127.978C42.7305 132.565 46.8332 137.403 50.6437 142.459C48.9518 144.078 47.0683 145.499 45.0448 146.682C44.4811 147.012 43.8723 147.332 43.2189 147.32C42.2451 147.303 41.4537 146.569 40.7686 145.879C35.9838 141.062 31.3224 136.123 26.7905 131.069C25.3496 129.462 23.8846 127.779 23.2297 125.726C22.3974 123.115 22.9867 120.291 23.5808 117.616C25.2194 110.242 26.9431 102.666 31.2159 96.4264C33.6162 100.721 38.0615 103.821 42.9332 104.597C39.5553 109.036 37.2055 114.247 36.1174 119.711ZM66.5522 37.4948C65.8374 38.9839 64.6318 40.2993 63.0683 40.8447C60.9838 41.5719 58.6911 40.8444 56.6503 40.0031C55.5898 39.566 54.5183 39.081 53.697 38.2823C52.9998 37.6044 52.5221 36.7379 52.0797 35.8731C50.7021 33.1802 49.5636 30.3659 48.682 27.4738C47.953 25.0822 47.5773 22.0559 49.5179 20.472C51.7345 22.1671 54.7157 22.5923 57.4912 22.2707C59.9588 21.9848 62.3228 21.1675 64.6742 20.3545C64.9676 20.2531 65.2607 20.1517 65.5539 20.0514C65.8887 19.9369 66.2851 19.8312 66.5741 20.0349C66.7952 20.1907 66.8733 20.4766 66.9333 20.7397C67.8261 24.653 68.0862 28.709 67.7006 32.7037C67.542 34.3467 67.2669 36.0058 66.5522 37.4948ZM75.4616 149.291C71.4881 144.013 68.8263 137.762 67.7783 131.248C67.3283 128.45 67.1827 125.519 68.1183 122.844C69.0117 126.348 73.2434 128.585 76.6562 127.358C77.5469 129.186 78.3568 131.054 79.0825 132.953C80.9892 137.944 82.2871 143.623 80.1754 148.53C79.6678 149.71 78.665 150.966 77.3907 150.778C76.5646 150.656 75.9626 149.957 75.4616 149.291ZM49.004 13.0076C50.0085 11.2148 52.2187 10.304 54.2721 10.4763C54.7514 10.5165 55.2287 10.5772 55.6964 10.6366C57.1784 10.8249 58.5644 11.001 59.6111 10.4763C61.2046 9.67752 61.8705 8.56708 62.5483 7.43682C63.0008 6.68231 63.4585 5.91897 64.2011 5.23361C64.6708 4.80002 65.1945 4.38392 65.8199 4.24686C67.0989 3.96656 68.3269 4.93699 69.0553 6.02132C70.6187 8.34853 70.825 11.516 69.5766 14.025C68.2018 16.7881 65.3674 18.5172 62.5319 19.7538C60.4905 20.6441 58.3301 21.3663 56.1021 21.4122C53.8741 21.4581 51.5556 20.755 50.0193 19.1465C48.4831 17.5381 47.9177 14.9463 49.004 13.0076ZM42.7245 158.423C42.629 157.717 42.5537 156.929 42.9836 156.36C44.7454 156.518 46.5637 155.882 47.8396 154.661C47.4515 153.863 46.2502 153.917 45.4914 154.38C45.2002 154.558 44.9327 154.776 44.666 154.994C44.2378 155.343 43.8117 155.691 43.2924 155.867C42.7905 155.372 42.8805 154.499 43.2979 153.931C43.7154 153.364 44.3713 153.029 45.0028 152.714L48.9791 150.733C48.2152 149.979 46.9418 149.97 45.9667 150.42C44.9917 150.871 44.2456 151.689 43.5276 152.486C42.7307 151.099 43.2995 149.109 44.7102 148.348L49.8616 145.57C50.2618 145.354 50.6862 145.132 51.1411 145.146C52.1259 145.175 52.7202 146.237 52.9896 147.182C53.769 149.913 53.5313 152.817 53.2872 155.647C52.9281 159.807 52.5632 164 51.392 168.01C50.9884 169.392 50.3513 170.898 49.0105 171.434C47.5559 172.015 45.8449 171.133 44.9751 169.834C44.1052 168.535 43.8739 166.927 43.6647 165.38L42.7245 158.423ZM111.398 64.0802C111.955 64.0122 112.439 63.3701 112.167 62.8801L110.252 59.4287C109.999 58.974 109.741 58.5001 109.707 57.9816C109.674 57.4631 109.934 56.8867 110.43 56.7264C111.14 56.4969 111.793 57.181 112.204 57.8019C113.07 59.1099 113.825 60.4908 114.459 61.9251C115.21 60.927 114.389 59.5486 113.639 58.5495C112.888 57.5504 112.232 56.0182 113.17 55.1918C114.097 54.3755 115.57 55.2122 116.28 56.2216C116.653 56.7517 116.96 57.3398 117.265 57.9256C117.857 59.0607 118.444 60.1875 119.502 60.8684C119.959 60.5902 119.731 59.8932 119.454 59.4366L115.906 53.5836C115.588 53.0601 116.113 52.3504 116.72 52.262C117.327 52.1736 117.913 52.4973 118.421 52.8415C120.861 54.4968 122.804 57.0308 123.263 59.9366C123.721 62.8424 122.476 66.0706 119.917 67.5374C119.143 67.981 118.281 68.2574 117.405 68.4272C112.07 69.4607 106.232 66.0577 104.522 60.9182C104.26 60.1317 104.197 59.0571 104.94 58.6846C105.506 58.4006 106.19 58.7381 106.662 59.1602C107.343 59.7701 107.83 60.5506 108.317 61.3315C108.786 62.0837 109.256 62.8363 109.899 63.4373C110.31 63.8201 110.84 64.1482 111.398 64.0802ZM55.7523 69.8577C56.4076 69.8779 57.0868 69.8988 57.6316 70.2503C58.2325 70.638 58.4944 71.6195 57.9252 72.0521C57.7098 72.2158 57.4303 72.2635 57.1629 72.3062C54.6765 72.7035 51.8401 73.0126 49.9073 71.4044C49.4727 71.602 49.3459 72.1976 49.5232 72.6395C49.7006 73.0815 50.0953 73.396 50.4903 73.6636C52.2444 74.852 54.3442 75.527 56.4646 75.5841C55.0759 76.7825 53.0433 77.1902 51.2974 76.6207C50.612 76.3971 49.6481 76.142 49.3449 76.7939C50.6895 78.0746 52.7417 78.1731 54.6017 78.1972C51.279 79.7749 46.9194 78.7474 44.6583 75.8535C44.4973 75.6475 44.1342 75.7527 44.0063 75.9807C43.8785 76.2086 43.9132 76.4888 43.9517 76.7471C44.1474 78.062 44.416 79.5076 45.4634 80.3308C46.0178 80.7666 46.7056 80.9563 47.394 81.1463C47.6686 81.222 47.9433 81.2978 48.2096 81.3892C49.1435 81.7099 50.1087 82.4135 50.1176 83.3977C47.1092 83.6561 44.1642 81.9573 42.3429 79.5576C40.5217 77.1579 39.685 74.1495 39.2992 71.1655C39.1994 70.3941 39.1292 69.5956 39.3542 68.8508C39.8021 67.368 41.2721 66.4716 42.627 65.713C43.6097 65.1628 44.9651 64.6559 45.7446 65.4671C48.2847 68.1105 51.8803 69.718 55.5507 69.8511C55.6176 69.8535 55.6848 69.8556 55.7523 69.8577ZM62.2035 75.1894L100.703 64.5699C102.38 64.1075 104.364 63.703 105.706 64.8064C90.4626 69.5002 75.0242 73.5643 59.4434 76.9849C58.5951 77.1711 57.386 77.1338 57.2381 76.2809C57.7502 76.2998 57.7482 75.7278 57.746 75.1229C57.7439 74.5274 57.7417 73.9 58.2298 73.7729L103.095 62.0972C103.366 62.0266 103.711 61.9794 103.877 62.2042C104.148 62.5696 103.594 62.9779 103.155 63.0995L60.3651 74.9526C60.7535 75.4842 61.5674 75.3649 62.2035 75.1894ZM105.611 72.1277C102.833 73.9822 99.3071 74.469 95.9869 74.0767C92.6667 73.6845 89.5015 72.4804 86.4247 71.1768L104.845 66.0322C105.49 65.8519 106.288 65.71 106.743 66.2003C110.481 70.2242 117.282 70.9422 121.783 67.7883C121.258 70.2924 118.985 72.3294 116.431 72.5851C114.976 72.7308 113.543 72.3545 112.117 71.98C111.739 71.8807 111.361 71.7816 110.984 71.6923C109.183 71.2665 107.148 71.1014 105.611 72.1277ZM54.7073 41.3111C54.9703 40.9359 55.5365 40.7289 55.9011 41.0074C58.0386 42.6397 61.0102 43.1217 63.557 42.2492C64.3698 41.9707 65.2945 42.5473 65.6301 43.3358C65.9656 44.1243 65.8302 45.0379 65.5354 45.8424C64.6378 48.2921 62.2216 50.1146 59.6117 50.3106C57.0018 50.5067 54.3388 49.0658 53.0826 46.778C52.6948 46.0717 52.5655 44.9647 53.3134 44.6602C54.0595 44.3565 54.2732 43.4207 54.3539 42.6217L54.3563 42.5975C54.4015 42.1494 54.4489 41.6797 54.7073 41.3111ZM125.888 60.9221C125.588 61.0033 125.27 61.0829 124.969 61.0027C124.668 60.9224 124.403 60.6211 124.478 60.32C127.17 59.8941 129.769 58.8916 132.048 57.4002C132.935 56.8193 133.877 55.807 133.429 54.8479C133.132 54.2119 132.335 53.9671 131.632 53.9958C130.613 54.0373 129.664 54.4925 128.748 54.9388L123.808 57.3467C123.578 57.0757 123.673 56.6398 123.916 56.3805C124.15 56.1305 124.482 56.0023 124.803 55.8784L124.839 55.8646C127.082 54.9972 129.171 53.738 130.983 52.1616C131.514 51.6999 131.238 50.7487 130.632 50.3906C130.026 50.0325 129.265 50.1032 128.572 50.2321C126.563 50.606 124.629 51.3784 122.917 52.4909C122.074 53.0386 120.878 53.6452 120.189 52.9149C122.049 51.0359 124.6 50.033 127.071 49.0809L131.852 47.2386C132.184 47.1105 132.544 46.9804 132.889 47.0685C133.359 47.1884 133.634 47.6616 133.847 48.0959C135.055 50.56 135.944 53.1788 136.486 55.8674C136.564 56.2575 136.629 56.6885 136.428 57.0319C136.245 57.3433 135.889 57.5027 135.554 57.6406C132.407 58.9378 129.176 60.0346 125.888 60.9221ZM103.278 61.0869C103.099 61.2767 102.832 61.3508 102.579 61.4168L58.6708 72.8718C59.3524 71.2311 61.356 70.6699 63.0971 70.2913C75.2119 67.6568 87.0795 64.0236 98.9342 60.3943C99.6083 60.1879 100.282 59.9816 100.957 59.7754C101.541 59.5965 102.178 59.4185 102.751 59.6322C103.325 59.8459 103.697 60.6427 103.278 61.0869ZM43.8479 17.3997C44.1169 16.5223 44.5566 15.3098 45.2448 14.7003C45.5957 14.3895 46.0708 14.058 46.4931 14.2624C46.7586 14.3909 46.8888 14.6879 46.9976 14.9612C47.1604 15.37 47.3928 15.9181 47.6253 16.4662C47.8577 17.0143 48.0902 17.5624 48.2529 17.9712C48.4813 18.5446 48.7021 19.4357 48.2834 19.7253C46.4931 20.9636 46.9005 25.4843 47.7022 27.5644C47.8937 28.061 48.0579 29.0787 47.8929 29.8207C47.7278 30.5626 46.9005 31.23 46.2239 30.8793C45.8357 30.6781 45.22 29.6118 44.9971 29.2256C44.9767 29.1903 44.9596 29.1607 44.9462 29.138C41.6482 23.5148 43.4764 18.4354 43.8055 17.521C43.826 17.4642 43.8406 17.4235 43.8479 17.3997ZM58.3165 78.2869C61.2486 77.7456 64.1504 77.0419 67.0042 76.1802C67.0484 76.1669 67.0927 76.1535 67.1369 76.1401C68.0254 75.8711 68.9267 75.5983 69.8537 75.6028C69.7373 77.0647 68.9222 78.419 67.8043 79.3728C66.6863 80.3266 65.2864 80.9075 63.8525 81.2379C62.7652 81.4885 61.6187 81.6011 60.5382 81.3229C59.4578 81.0446 58.45 80.325 58.0392 79.2912C57.892 78.9206 57.9233 78.3595 58.3165 78.2869ZM61.9512 69.5633C60.0812 69.8273 58.1047 69.6921 56.4213 68.8388C56.0655 68.6585 56.2498 68.1162 56.5011 67.8072C57.7934 66.2183 59.751 65.1844 61.7961 65.0107C63.8412 64.8369 65.9462 65.5256 67.4898 66.8735C67.745 67.0963 68.0043 67.4489 67.832 67.7401C67.7413 67.8934 67.5599 67.9641 67.3917 68.0243C65.6141 68.6599 63.8212 69.2993 61.9512 69.5633ZM56.1931 52.2826C54.5305 51.763 53.2293 50.4445 52.2787 48.9894C51.7025 48.1073 51.231 47.1649 50.7592 46.2221C50.4528 45.6096 50.1462 44.9969 49.8108 44.4004C50.4268 44.2984 51.0266 44.717 51.3682 45.2378C51.6121 45.6097 51.76 46.0307 51.9079 46.4517C51.9672 46.6205 52.0264 46.7893 52.0919 46.9549C53.3212 50.065 56.9825 51.9301 60.2797 51.3137C63.577 50.6972 66.2509 47.8033 66.8226 44.5095C66.8826 44.1634 66.9917 43.7353 67.3374 43.6666C67.711 43.9775 67.7276 44.5395 67.6617 45.02C67.1833 48.5071 64.0105 51.1311 60.621 52.1219C59.1828 52.5424 57.6233 52.7295 56.1931 52.2826ZM122.101 54.3698C124.179 52.754 126.628 51.6151 129.205 51.0659C129.514 51 129.978 51.0678 129.951 51.3819C129.942 51.4812 129.877 51.5655 129.813 51.6422C128.533 53.1808 126.659 54.0812 124.846 54.9356C124.338 55.175 123.802 55.4201 123.241 55.3855C122.68 55.3509 122.1 54.9297 122.101 54.3698ZM131.094 55.1433C131.361 55.0583 131.653 54.9785 131.915 55.0765C132.178 55.1745 132.351 55.5337 132.167 55.7438C130.576 57.553 128.196 58.4458 125.874 59.1032C125.267 59.2751 124.375 59.2707 124.271 58.6503C126.328 57.1139 128.645 55.9232 131.094 55.1433ZM68.6317 28.6368C68.766 27.8089 68.9264 26.8196 68.9264 26.1798C68.9264 25.3008 69.0603 24.2258 69.8827 23.9128C70.6712 23.6127 71.5621 24.3327 71.7139 25.1599C71.8658 25.9872 70.9279 29.3273 70.4622 30.0288C70.2494 30.3493 70.0019 30.669 69.6518 30.8301C69.3016 30.9912 68.8248 30.9391 68.6104 30.6196C68.4987 30.4533 68.4737 30.2457 68.4546 30.0465C68.4355 29.8468 68.5254 29.2924 68.6317 28.6368ZM68.6532 18.2305C68.6943 18.2894 68.712 18.3608 68.7285 18.4306C69.0701 19.8755 69.2026 21.3693 69.1207 22.8515C68.7289 23.0272 68.4043 22.506 68.2892 22.0936L67.7967 20.3293C67.6029 19.6349 67.4468 18.7852 67.9642 18.2816C68.1521 18.0987 68.5032 18.0157 68.6532 18.2305ZM47.9192 33.9555C47.41 33.6049 46.9973 33.3207 46.9973 32.4534C46.9973 31.4273 48.11 30.4274 48.3525 30.6216C49.2343 31.3276 50.819 34.829 50.8984 35.9534C50.2349 35.6834 49.7458 35.3152 48.8529 34.6429C48.6585 34.4966 48.4451 34.3359 48.2065 34.1586C48.1088 34.086 48.0123 34.0196 47.9192 33.9555ZM53.7089 73.9568L55.5072 73.5778C55.7315 73.5306 56.0041 73.4981 56.1541 73.6708C56.4432 74.0037 55.8738 74.4243 55.4321 74.4324C54.8278 74.4436 54.2213 74.2762 53.7089 73.9568ZM108.296 57.4906C108.621 57.5273 108.896 57.9412 108.682 58.1881L108.662 58.2103C108.381 58.4243 108.058 58.6501 107.708 58.5998C107.358 58.5495 107.111 58.0388 107.401 57.8368C107.669 57.6498 107.97 57.4539 108.296 57.4906ZM110.884 62.8507L110.475 62.791L110.435 62.7871L109.57 61.4599C110.329 61.215 111.175 62.1103 110.884 62.8507ZM108.977 60.4504C108.644 60.4664 108.377 60.0531 108.53 59.758C108.682 59.4629 109.175 59.4392 109.355 59.7183C109.535 59.9973 109.31 60.4344 108.977 60.4504ZM63.5877 17.1632L60.4618 18.638C58.0735 19.7647 55.0736 19.4728 52.9492 17.9069C52.6494 17.8377 52.3894 18.1949 52.4402 18.4973C52.4909 18.7998 52.7375 19.0285 52.9847 19.2111C54.6974 20.476 57.0392 20.6345 59.1052 20.1103C61.1711 19.5861 63.0239 18.4574 64.8189 17.3114C64.6888 16.8575 64.0158 16.9612 63.5877 17.1632ZM60.6473 24.0078C60.3904 24.2367 59.9457 23.9259 59.9499 23.5825C59.954 23.2391 60.2334 22.9631 60.5216 22.7747C61.7301 21.9849 63.4627 22.1075 64.5469 23.0596C64.3076 23.4516 63.7483 23.3607 63.2771 23.2841L63.276 23.2839C63.2395 23.278 63.2035 23.2721 63.1682 23.2666C62.2738 23.1265 61.3221 23.4063 60.6473 24.0078ZM54.8614 25.3044C55.2715 25.2112 55.7055 24.8985 55.6665 24.4811C55.6336 24.1293 55.2785 23.8958 54.9368 23.8011C54.1314 23.5778 53.2065 23.868 52.6749 24.5109C52.1433 25.1538 52.0343 26.1138 52.4084 26.8588C52.5885 26.6984 52.7352 26.5009 52.8811 26.3044C53.0977 26.0129 53.3125 25.7237 53.632 25.5617C53.8738 25.439 54.1447 25.4064 54.4166 25.3736C54.5661 25.3556 54.7159 25.3375 54.8614 25.3044ZM63.0253 29.9351C63.5214 29.9281 63.856 29.4175 63.9807 28.9391C64.2371 27.9551 63.9762 26.8523 63.3058 26.086C63.0023 25.7391 62.4851 25.4504 62.0989 25.7029C61.9794 25.7811 61.8937 25.9011 61.8245 26.0257C61.34 26.8979 61.5826 27.9885 61.9592 28.9121C62.1572 29.3974 62.4995 29.9426 63.0253 29.9351ZM56.7496 29.9396L56.6018 28.4052C56.5456 27.8213 56.4203 27.1348 55.8862 26.8879C55.1567 26.5505 54.3861 27.3588 54.1949 28.1372C53.9896 28.9732 54.1081 29.8839 54.5207 30.64C54.895 31.3258 55.8265 31.9003 56.4216 31.3926C56.8159 31.0562 56.7992 30.4545 56.7496 29.9396ZM55.5207 144.939C59.6329 144.817 63.7451 144.696 67.8573 144.578C68.309 144.565 68.7941 144.561 69.169 144.812C69.5167 145.046 69.7069 145.491 69.6342 145.903L57.5622 146.129C57.1138 146.137 56.6497 146.143 56.2372 145.968C55.8247 145.792 55.4764 145.383 55.5207 144.939ZM59.7416 34.9037C59.3008 34.7783 59.5086 34.1263 59.7158 33.7189C60.3854 32.4027 60.0081 30.7885 59.3377 29.4727L59.3211 29.4402C59.1723 29.1487 59.0133 28.8373 59.0662 28.5163C59.121 28.1834 59.5421 27.9065 59.8053 28.1188C59.8844 28.1827 59.9325 28.2761 59.9782 28.3668C60.4816 29.3661 60.9754 30.3932 61.1394 31.4993C61.3033 32.6053 61.0921 33.8195 60.3309 34.6409C60.1769 34.8071 59.9598 34.9658 59.7416 34.9037ZM60.3989 39.0955C62.463 38.7658 64.1185 36.7632 64.0477 34.6815C64.0435 34.5576 64.0324 34.4288 63.9685 34.3225C63.7893 34.0245 63.3018 34.0939 63.0718 34.355C62.8825 34.5698 62.8106 34.8544 62.7397 35.1352C62.7244 35.1956 62.7092 35.2559 62.6928 35.3152C62.4169 36.3173 61.7303 37.2006 60.8256 37.7174C60.7817 37.7425 60.7368 37.7671 60.6918 37.7919L60.6917 37.7919L60.6917 37.792L60.6916 37.792L60.6913 37.7922C60.427 37.9376 60.1553 38.0871 60.0167 38.3487C59.8543 38.6552 60.0555 39.1504 60.3989 39.0955ZM73.0026 164.465C73.0907 166.938 73.3663 174.783 73.0442 176.207C72.9844 176.471 72.8869 176.773 72.6325 176.869C72.1258 177.061 71.8285 176.303 71.8222 175.763C71.7712 171.386 71.7202 166.243 71.6692 161.1C71.6182 155.956 71.5672 150.813 71.5162 146.436C72.3563 146.436 72.6325 149.39 72.6325 151.297C72.6325 157.706 73.0026 164.465 73.0026 164.465ZM43.6857 109.89L43.6856 109.89C43.1004 109.597 42.4566 109.275 42.7954 108.821C51.7536 109.208 60.7325 109.118 69.6812 108.553C72.2156 108.393 75.0745 108.023 76.5809 105.986C76.6413 105.905 76.6994 105.821 76.7577 105.736C76.958 105.446 77.1593 105.154 77.454 104.966C77.8342 104.723 78.4427 104.754 78.6329 105.162C78.3645 107.345 76.3103 109.166 74.1025 109.177C73.1363 109.181 72.8089 110.438 72.6864 111.393C72.564 112.348 71.903 113.571 70.9962 113.239C71.2251 112.456 71.3733 111.649 71.4377 110.836C71.4592 110.564 71.4536 110.247 71.2419 110.073C71.0776 109.938 70.844 109.938 70.631 109.944L46.987 110.616C46.8371 110.62 46.6719 110.63 46.5649 110.735C46.4342 110.863 46.4462 111.072 46.4675 111.253L48.1456 125.509C48.1825 125.822 48.3104 126.223 48.6273 126.225L62.0309 126.298C62.7434 126.302 63.7574 126.845 63.3221 127.407C63.144 127.637 62.8096 127.658 62.5181 127.659L48.8772 127.714C48.3012 127.717 48.1383 128.497 48.1595 129.07L48.3766 134.936C46.7381 133.773 46.6257 131.438 46.6142 129.433C46.5808 123.591 46.0568 117.752 45.0494 111.997C44.9236 111.279 44.7308 110.473 44.0984 110.106C43.9755 110.035 43.8324 109.963 43.6857 109.89Z" fill="#902920"/>
<path fill-rule="evenodd" clip-rule="evenodd" d="M74.4462 137.798C75.0076 136.53 76.3151 135.624 77.7038 135.541C78.0647 135.519 78.4745 135.572 78.6949 135.858C78.9153 136.144 78.726 136.686 78.3675 136.639C77.5068 136.527 76.6476 136.964 76.0437 137.586C75.4397 138.207 75.0456 138.996 74.6611 139.771C74.1086 139.321 74.1581 138.449 74.4462 137.798Z" fill="#902920"/>
<path fill-rule="evenodd" clip-rule="evenodd" d="M135.779 16.4335C136.485 16.5 137.139 16.0923 137.724 15.6932C139.35 14.5835 141.102 13.0706 140.995 11.1086C140.962 10.4855 140.736 9.89924 140.511 9.31234C140.414 9.06115 140.318 8.80984 140.236 8.55547C139.81 7.22708 139.794 5.82646 139.778 4.42224C139.765 3.27045 139.752 2.11625 139.513 0.997477C139.427 0.596271 139.255 0.140498 138.86 0.0263997C138.637 -0.0378892 138.4 0.0274215 138.177 0.0925062L131.072 2.17124C129.734 2.56254 129.448 4.29393 129.409 5.68316L129.305 9.46309C128.883 9.51586 128.482 9.35083 128.081 9.18579C127.928 9.1228 127.775 9.0598 127.621 9.00892C126.103 8.50792 124.267 9.35032 123.661 10.8259C123.055 12.3015 123.772 14.1857 125.206 14.8899C126.641 15.5942 128.576 15.0113 129.379 13.6327C129.925 12.6966 129.957 11.56 129.975 10.4775L130.009 8.44479C130.021 7.68512 130.876 7.26386 131.598 7.02235C133.824 6.27847 136.07 5.59572 138.333 4.97514C138.557 4.91381 138.835 4.86779 138.987 5.04178C139.07 5.13579 139.088 5.26821 139.102 5.39233L139.412 8.05356C139.458 8.44823 139.413 8.97897 139.024 9.06264C137.143 9.46672 135.47 10.7477 134.594 12.456C134.22 13.1837 133.985 14.0196 134.15 14.8202C134.316 15.6207 134.963 16.3567 135.779 16.4335ZM138.654 1.21227C138.734 1.29265 138.757 1.41105 138.776 1.52209L138.992 2.77133C139.049 3.10131 139.103 3.45576 138.959 3.75865C138.732 4.23709 138.129 4.38105 137.607 4.48385C136.399 4.72131 135.207 5.03644 134.04 5.42662C133.066 5.7527 132.109 6.1308 131.153 6.50875C131.073 6.54071 130.992 6.57267 130.911 6.6046C130.684 6.69418 130.371 6.75877 130.241 6.55367C130.209 6.5023 130.195 6.44158 130.184 6.38194C129.956 5.17056 130.517 3.84919 131.55 3.16516C132.119 2.78841 132.792 2.60359 133.452 2.42448L138.09 1.16546C138.281 1.11344 138.515 1.0716 138.654 1.21227ZM129.297 11.172C129.277 12.3429 128.994 13.6816 127.953 14.2482C127.127 14.6977 126.048 14.4817 125.298 13.917C124.417 13.2539 123.934 11.9334 124.577 11.0449C124.845 10.6748 125.264 10.435 125.698 10.278C126.693 9.91751 127.831 9.95374 128.801 10.3768C128.956 10.4444 129.114 10.5278 129.204 10.6692C129.296 10.8159 129.3 10.9992 129.297 11.172ZM5.15537 13.7878C5.27569 14.1573 5.80003 14.1431 6.17959 14.0544L9.63067 13.2473C9.53436 12.3513 9.35975 11.4637 9.10948 10.5977C9.03572 10.3426 8.94678 10.0756 8.74601 9.90097C8.43507 9.63047 7.96974 9.66789 7.56042 9.72098L2.25976 10.4085C1.89583 10.4557 1.41013 10.6915 1.54864 11.0302C2.76216 13.997 3.7193 17.0678 4.406 20.1976C4.53736 20.7963 4.51524 21.6371 3.91445 21.7684C2.17451 22.1488 0.685824 23.5095 0.155783 25.2039C-0.00726399 25.7252 -0.0813081 26.3041 0.129622 26.808C0.24394 27.0811 0.435768 27.316 0.65078 27.5201C1.6827 28.4997 3.32867 28.7721 4.62302 28.1775C5.91736 27.5829 6.77837 26.1589 6.7009 24.7409C6.67164 24.2053 6.52206 23.6844 6.37342 23.1688L2.98495 11.4157L7.47141 11.0649C7.92205 11.0901 8.11245 11.7281 7.87438 12.1102C7.63631 12.4922 7.16331 12.6512 6.72082 12.7398C6.65709 12.7526 6.59276 12.7647 6.52824 12.7768C6.14482 12.8488 5.75476 12.922 5.44384 13.1505C5.24257 13.2984 5.07819 13.5507 5.15537 13.7878Z" fill="#902920"/>
<path fill-rule="evenodd" clip-rule="evenodd" d="M73.7056 133.999C73.5709 134.173 73.2668 134.124 73.1371 133.945C73.0074 133.767 73.019 133.521 73.0896 133.312C73.2162 132.939 73.5027 132.642 73.803 132.385C74.5575 131.741 75.4558 131.264 76.4138 131C76.7914 130.896 77.232 130.835 77.5445 131.071C77.8571 131.306 77.8068 131.934 77.4165 131.969C75.9704 132.098 74.5913 132.853 73.7056 133.999Z" fill="#902920"/>
</svg>
