<svg width="103" height="85" viewBox="0 0 103 85" fill="none" xmlns="http://www.w3.org/2000/svg">
<path fill-rule="evenodd" clip-rule="evenodd" d="M93.3577 4.35961C101.111 8.58938 105.364 17.0773 109.151 25.0564C117.681 23.996 126.485 25.2255 134.399 28.5823C136.859 29.6259 139.468 31.143 140.195 33.7148C141.077 36.835 138.797 39.9153 136.485 42.188C130.694 47.879 123.699 52.338 116.095 55.1848C113.224 56.2595 109.912 57.4303 108.799 60.2864C103.893 72.8844 91.5053 82.0478 78.0909 83.7326C64.6766 85.4175 50.7173 79.8574 41.6021 69.8725C39.8617 67.966 36.9857 67.7766 34.4112 67.5866C25.5994 66.9361 16.9035 64.7431 8.83695 61.137C5.466 59.63 1.85298 57.4368 1.0891 53.8242C0.206577 49.6506 3.56753 45.8129 7.00241 43.2832C14.6347 37.6622 24.0479 34.4983 33.5258 34.3684C34.2533 25.6917 38.1256 17.3126 44.2626 11.1358C50.3995 4.95906 58.7534 1.03255 67.4251 0.248916C71.7326 -0.140331 76.0739 0.220224 80.3626 0.779094C84.8445 1.36313 89.39 2.19503 93.3577 4.35961ZM124.228 38.0845C124.278 41.1786 121.735 43.6553 119.216 45.4536C111.567 50.9161 102.484 53.9279 93.5545 56.8632C87.3276 58.9102 81.0703 60.9647 74.6022 62.027C70.6754 62.6719 66.6975 62.9462 62.7231 63.1462C48.5156 63.8612 33.1266 63.2671 21.8494 54.5959C19.6467 52.9022 19.4434 49.4311 20.8535 47.0368C22.2635 44.6426 24.8825 43.1978 27.5437 42.3988C28.9253 41.984 30.3979 41.6883 31.5334 40.7986C32.6689 39.9089 33.3122 38.1684 32.4689 36.9981C31.5813 35.7664 29.7392 35.8845 28.2499 36.1793C19.8246 37.8472 11.5433 41.1469 5.15722 46.8902C3.80517 48.1062 2.47748 49.5586 2.24418 51.362C1.82171 54.6276 5.03368 57.119 7.95887 58.6311C20.2713 64.9956 34.3574 67.3796 48.2169 67.2425C62.0763 67.1055 75.7977 64.5446 89.3131 61.4727C105.679 57.7531 122.542 52.9135 134.942 41.6039C136.182 40.4728 137.396 39.2452 138.076 37.7107C138.756 36.1762 138.807 34.263 137.808 32.9145C137.133 32.0038 136.083 31.4598 135.054 30.9835C127.142 27.3185 118.23 25.8396 109.558 26.7524C110.044 28.1422 110.53 29.5321 111.015 30.922C113.814 30.8807 116.698 30.8542 119.3 31.8863C121.902 32.9183 124.182 35.2856 124.228 38.0845ZM107.355 26.7038C107.486 26.1178 107.288 25.5133 107.08 24.9497C104.853 18.8914 101.24 13.3471 96.5979 8.86247C94.8874 10.735 93.1769 12.6075 91.4664 14.48C90.6527 15.3707 89.8287 16.2704 88.827 16.9427C87.6106 17.7591 86.1891 18.2029 84.8608 18.8208C81.8909 20.2024 79.4169 22.4384 76.9924 24.641C76.0552 25.4924 74.7258 25.7397 73.4647 25.8527C64.6022 26.6474 55.7416 22.5783 46.9446 23.9154C46.0067 24.058 45.061 24.2622 44.1182 24.1566C42.2021 23.9419 40.5672 22.4812 38.6407 22.4024C42.3803 25.7958 47.6926 26.8126 52.7366 27.054C57.7806 27.2953 62.9095 26.9105 67.8205 28.0862C70.3364 28.6885 72.9773 27.8526 75.2973 26.708C77.6173 25.5634 79.797 24.0955 82.2598 23.3037C84.1346 22.701 86.2008 22.474 87.7748 21.2906C89.237 20.1912 90.0334 18.4433 91.1604 17.0022C92.8093 14.8937 95.1525 13.4621 97.4427 12.0766C97.9052 11.7968 98.5612 11.5384 98.9257 11.9375C99.3629 12.4162 98.807 13.1456 98.2741 13.5148C95.6898 15.3053 92.3886 16.649 91.3095 19.602C90.4751 21.8854 88.1815 23.3065 85.8912 24.1216C83.6009 24.9367 81.1494 25.3336 78.9948 26.4594C77.4645 27.2591 76.1284 28.4055 74.5601 29.1275C70.1808 31.1436 65.1058 29.5006 60.3077 29.0321C56.6209 28.6721 52.8957 29.0345 49.2028 28.7437C45.5099 28.4529 41.6763 27.3937 39.1057 24.7265C38.4401 24.036 37.4022 25.0593 37.0131 25.9359C36.0596 28.0839 35.0975 30.2602 34.7075 32.5777C34.3175 34.8952 34.5553 37.4074 35.8558 39.3649C37.6641 42.0868 41.5203 43.2217 44.5148 41.9133C47.05 40.8057 49.8721 45.0569 52.2311 43.6114C53.7474 42.6823 55.6275 43.816 57.1762 44.69C58.725 45.564 61.1616 45.9266 61.8701 44.2955C62.3312 43.234 63.7499 43.1171 64.9021 43.0085C66.0542 42.8998 67.4892 42.2592 67.3553 41.1097C65.4202 41.9836 62.8589 40.2104 62.9959 38.0916C63.099 36.4949 64.3895 35.246 65.6926 34.3177C67.2204 33.2294 68.9685 32.3201 70.8435 32.2661C72.7185 32.212 74.7187 33.2084 75.3644 34.9696C76.1139 37.0137 77.7428 38.7183 79.7508 39.5598C80.2039 38.5061 80.6571 37.4524 81.1102 36.3988C81.7182 34.985 82.3553 33.5289 83.4758 32.474C84.5964 31.4191 86.3399 30.8654 87.7099 31.5664C89.0819 32.2685 89.6308 33.9106 90.0535 35.3927C91.6351 33.1746 94.3899 31.8472 97.1103 31.9923C100.692 32.1834 104.327 30.6264 106.66 27.9017C106.963 27.5473 107.253 27.159 107.355 26.7038ZM73.8457 2.07525C73.2869 2.11732 72.6294 2.23901 72.3966 2.74874C71.5667 4.5662 69.6347 5.61155 67.7395 6.2444C65.8444 6.87723 63.826 7.24328 62.1244 8.29038C60.8438 9.07834 59.8109 10.2133 58.5647 11.0545C55.6038 13.0529 51.8088 13.1907 48.2374 13.261C47.779 13.27 47.2925 13.2718 46.9005 13.0341C46.5085 12.7964 46.2834 12.2246 46.5676 11.865C50.9497 12.8929 55.7929 11.7091 59.2067 8.77564C60.1443 7.96999 60.9886 7.03533 62.0594 6.41769C63.5852 5.53766 65.4085 5.38885 67.1014 4.90269C68.7943 4.41652 70.5521 3.36994 70.9397 1.65179C58.1784 0.90135 45.325 8.55465 39.9037 20.1315C39.8198 20.3108 39.7536 20.5609 39.9146 20.6761C42.5167 22.5383 46.0267 22.1342 49.2255 22.0524C56.4726 21.8672 63.6051 23.7537 70.8329 24.3146C73.0378 24.4856 75.5618 24.4081 77.0302 22.7544C79.1309 20.3885 81.7652 18.4992 84.6797 17.2681C85.9613 16.7268 87.3121 16.3023 88.4519 15.5046C90.7971 13.8633 91.9619 10.8484 94.438 9.41235C95.1585 8.99447 95.2314 7.91199 94.8003 7.19931C94.3692 6.48662 93.5956 6.06406 92.8463 5.70015C86.9788 2.85012 80.3504 1.58556 73.8457 2.07525ZM68.9895 75.6142C71.9651 75.4688 74.162 72.6621 77.0607 71.9742C78.4668 71.6405 80.0253 71.8091 81.2752 71.0834C82.3742 70.4454 83.035 69.2177 84.1398 68.5894C85.1895 67.9925 86.4652 68.0272 87.6717 67.9765C92.4652 67.7751 97.1731 65.9117 100.806 62.778C101.761 61.9538 103.154 61.9707 104.366 61.6197C105.578 61.2687 106.812 60.028 106.25 58.8981C99.4838 61.1124 92.4922 62.5507 85.5184 63.9843C71.0813 66.9521 56.4057 69.9359 41.7167 68.7234C43.5312 70.1947 45.3456 71.6659 47.16 73.1372C49.42 74.9697 51.6901 76.8093 54.1918 78.2949C64.0937 84.1745 76.7802 83.8437 87.5553 79.78C92.3157 77.9846 96.9483 75.4029 100.068 71.3837C97.2497 72.9626 93.7004 71.9106 90.5418 72.5873C87.2818 73.2857 84.4079 75.8321 81.0862 75.547C77.0494 75.2006 72.9661 78.9995 69.3195 77.2337C68.6376 76.9034 68.2327 75.6512 68.9895 75.6142ZM44.2404 51.2772C45.1738 52.6075 46.8192 53.4047 48.4417 53.3127C49.2154 53.2688 49.9978 53.0389 50.7528 53.2133C51.6476 53.42 52.366 54.238 52.4555 55.152C52.6058 56.6884 51.1807 57.9045 49.7973 58.5898C49.0364 58.9667 48.2259 59.2797 47.3783 59.3321C46.2533 59.4017 45.159 59.0107 44.0614 58.7545C41.6926 58.2017 39.1803 58.2761 36.8484 58.9682C37.987 60.3354 39.9308 60.6508 41.7012 60.8279C49.4052 61.5984 57.1725 61.5 64.9042 61.0932C67.429 60.9604 69.9538 60.7946 72.4626 60.4812C81.6575 59.3324 90.4781 56.2258 99.2153 53.1394C102.374 52.0237 105.532 50.9079 108.691 49.7922C109.127 49.6381 109.587 49.467 109.871 49.1019C110.178 48.708 110.214 48.1738 110.235 47.675C110.383 44.1065 110.407 40.5327 110.305 36.9625C110.3 36.7906 110.288 36.6015 110.168 36.4778C110.008 36.3121 109.739 36.3426 109.513 36.3855C105.786 37.0913 102.059 37.7971 98.3327 38.5029C97.6632 38.6298 96.9694 38.7667 96.4177 39.1666C95.7596 39.6436 95.4023 40.4198 94.9177 41.0722C91.9001 45.1347 84.9495 43.6277 81.3385 47.173C80.1485 48.3413 79.4758 49.9292 78.4666 51.2567C77.4574 52.5843 75.8334 53.7118 74.2162 53.3047C73.2797 53.069 72.5452 52.3683 71.7346 51.8433C70.9241 51.3182 69.8393 50.9671 69.0173 51.474C68.6142 51.7226 68.3477 52.1368 68.0121 52.471C66.6893 53.7887 64.512 53.6892 62.73 53.1317C60.948 52.5742 59.2364 51.6463 57.3701 51.5912C55.2457 51.5285 53.177 52.6145 51.0672 52.3576C48.9285 52.0971 47.1104 50.4937 44.9615 50.3387C44.5888 50.3118 44.1014 50.4255 44.0622 50.7971C44.0439 50.9708 44.1402 51.1343 44.2404 51.2772ZM88.7816 36.9432C87.8821 36.2237 88.3704 34.6523 87.6423 33.7598C86.7454 32.6606 84.9303 33.4708 84.0102 34.5507C83.1265 35.5878 82.4828 36.8281 82.1432 38.1476C81.752 39.6681 81.2405 41.758 79.6724 41.6788C79.2602 41.6579 78.8785 41.4631 78.5221 41.255C76.2612 39.9348 74.4318 37.8885 73.3722 35.4944C72.8459 34.305 71.3304 33.8235 70.0527 34.0664C68.7749 34.3094 67.6808 35.1023 66.6338 35.874C65.9696 36.3637 65.2624 36.9142 65.0501 37.7117C64.8378 38.5092 65.4639 39.5432 66.2734 39.383C67.4503 39.1502 68.7379 39.9554 69.0438 41.1154C68.6917 42.8883 66.8649 43.9011 65.2321 44.6762C63.9672 45.2767 62.7023 45.8771 61.4374 46.4775C60.5146 46.9156 59.5282 47.3648 58.5141 47.2414C56.5314 47 54.9683 44.6475 53.0449 45.1861C52.5284 45.3307 52.0875 45.6771 51.5739 45.8317C49.0039 46.6057 46.6764 42.4148 44.2288 43.5163C40.3494 45.2622 35.197 42.969 33.8977 38.9181C33.4906 45.263 34.1503 51.675 35.8409 57.8041C38.3854 56.7378 41.2543 56.4612 43.9557 57.0215C45.3088 57.3022 46.6762 57.7896 48.0374 57.5506C49.3985 57.3117 50.6947 55.951 50.2333 54.6483C48.8201 55.3997 47.0663 55.1423 45.5924 54.5182C44.5812 54.0899 43.6063 53.4681 43.0287 52.534C42.4512 51.6 42.3621 50.3061 43.036 49.439C43.9325 48.2853 45.7163 48.3233 47.077 48.8555C48.4377 49.3877 49.6599 50.2974 51.0934 50.58C52.5426 50.8656 54.0265 50.4767 55.492 50.2912C57.7108 50.0103 59.9884 50.2031 62.1284 50.8527C63.6181 51.3049 65.2423 51.9729 66.6605 51.3308C67.9589 50.7429 68.7728 49.1529 70.1936 49.0397C72.3063 48.8714 73.7748 52.1281 75.7976 51.4955C76.6873 51.2173 77.1638 50.2845 77.6303 49.4774C79.8059 45.7131 83.8171 43.0692 88.1343 42.5539C89.2766 42.4175 90.4797 42.409 91.4899 41.8586C93.1196 40.9706 93.7745 38.9496 95.2 37.7611C96.8448 36.3896 99.1772 36.3551 101.31 36.1624C103.682 35.9482 106.029 35.4561 108.287 34.6994C108.683 34.5666 109.1 34.4087 109.349 34.0728C109.656 33.6596 109.624 33.0926 109.544 32.5848C109.322 31.1933 108.827 29.8459 108.096 28.6417C105.168 31.3858 101.658 34.3306 97.6806 33.8033C95.7425 33.5463 93.7034 34.1925 92.2669 35.5189C91.2515 36.4565 89.8609 37.8065 88.7816 36.9432M27.0022 55.517C29.1578 56.4961 31.3134 57.4753 33.4689 58.4544C33.7324 58.5741 34.1049 58.6652 34.2595 58.4206C34.3505 58.2767 34.3063 58.0894 34.2599 57.9254C32.8972 53.1095 32.186 48.1096 32.1519 43.1047C32.1495 42.7526 31.6398 42.7064 31.2958 42.7813C30.2748 43.0036 29.2516 43.2266 28.2598 43.5556C26.3207 44.1988 24.5177 45.2487 23.0012 46.6176C21.9419 47.5739 20.96 48.8878 21.1906 50.2961C21.2967 50.9437 21.652 51.5238 22.0546 52.042C22.6516 52.8105 23.3697 53.4847 24.1741 54.0322C25.0554 54.6321 26.0316 55.0761 27.0022 55.517ZM122.705 39.4613C123.451 37.9763 122.732 36.0839 121.466 35.0071C120.2 33.9303 118.522 33.4931 116.894 33.1613C115.106 32.7969 113.3 32.521 111.485 32.3349C112.059 37.3442 112.27 42.3951 112.115 47.4348C112.105 47.7561 112.461 47.9904 112.782 47.9737C113.103 47.9569 113.386 47.7672 113.649 47.5819C116.512 45.5624 119.195 43.2866 121.654 40.7904C122.052 40.3863 122.45 39.9681 122.705 39.4613ZM75.4825 74.8912C77.2976 73.8751 79.5439 74.2978 81.6034 74.0057C85.4502 73.4601 88.7317 70.3825 92.6163 70.4568C93.8119 70.4797 94.9967 70.8081 96.1893 70.7197C97.4805 70.624 98.6831 70.0475 99.8218 69.4313C102.128 68.1831 104.54 66.3999 104.867 63.7981C104.886 63.6509 104.897 63.4982 104.852 63.3567C104.625 62.6408 103.545 62.9824 102.948 63.4367C98.1942 67.048 92.4698 69.8048 86.5044 69.5824C84.9415 69.5241 84.0106 71.2546 82.7333 72.1571C81.4162 73.0877 79.6948 73.1212 78.1114 73.4273C75.9053 73.8539 73.8183 74.8812 72.1348 76.3693C73.3605 76.6455 74.3862 75.505 75.4825 74.8912Z" fill="#902920"/>
</svg>
