<svg width="83" height="81" viewBox="0 0 83 81" fill="none" xmlns="http://www.w3.org/2000/svg">
<path fill-rule="evenodd" clip-rule="evenodd" d="M71.8701 16.1371L71.9464 16.4372L72.035 16.8199C72.0871 17.0548 72.1437 17.3263 72.2026 17.6316C72.4068 18.6897 72.5825 19.8723 72.7094 21.1586C73.0668 24.7792 72.9818 28.5606 72.2866 32.3377C71.3432 37.4633 69.3498 42.005 66.361 45.8218L66.107 46.1414C63.7148 49.1076 60.7171 51.6094 57.1572 53.6208L56.8053 53.8165L57.0398 53.8916C61.0531 55.1497 65.1645 55.862 68.9946 55.6823C69.8159 55.6439 70.6076 55.9895 71.1381 56.6175C71.6674 57.2445 71.8764 58.0811 71.7051 58.8834L71.6485 59.1316L71.5673 59.4578L71.5338 59.5827C71.4124 60.0358 71.263 60.5401 71.0816 61.0881C70.5807 62.6016 69.9233 64.2028 69.0883 65.8345C66.7296 70.4442 63.4061 74.4631 58.946 77.4046C58.3541 77.7952 57.6321 77.9307 56.9424 77.7849L56.7842 77.7464C56.0618 77.5381 55.4791 77.0604 55.1452 76.4214L54.9075 75.9281L54.7898 75.6905L54.5371 75.1948L54.2572 74.664C54.1594 74.4815 54.0571 74.2938 53.9505 74.1011C53.042 72.4598 52.0003 70.7947 50.8446 69.2098C47.6414 64.8169 44.1982 61.8987 40.7774 61.1984C35.1815 60.0537 30.6899 58.5744 26.7768 56.2535C21.7181 53.2531 18.2298 49.0909 16.6719 43.5356L16.5858 43.2197C15.8019 40.259 14.4206 36.7204 12.6814 32.9564C12.1439 31.7932 11.6047 30.6796 11.0839 29.6437L10.8619 29.2046C10.5057 28.5041 10.2105 27.9429 10.0853 27.713C9.62357 26.8627 9.6606 25.83 10.18 25.0158L10.2535 24.9067C10.785 24.1582 11.6682 23.7348 12.5897 23.7966L17.5318 24.1265L17.6076 24.0621C19.9266 22.125 22.8662 20.7455 26.2696 20.7846C29.8196 20.8253 33.1177 22.5007 36.0399 25.678L36.2431 25.9021C40.165 30.2863 44.9242 31.3776 50.0332 30.2353C53.6825 29.4193 57.4948 27.3948 60.7386 24.5359C63.7545 21.8778 65.9584 18.763 66.7807 16.0587C67.1243 14.9286 68.1732 14.1603 69.3542 14.1775C70.5363 14.1942 71.5627 14.9947 71.8701 16.1371ZM69.5486 16.93L69.4556 17.1558C68.2413 20.0385 65.9689 23.8972 63.0366 26.4816C59.4265 29.6633 55.0023 31.651 50.8424 32.5812C44.8412 33.9229 38.9766 32.8916 34.2931 27.8045L34.0872 27.5776C31.6422 24.8442 29.6426 23.3078 26.3493 23.2511C23.056 23.1945 20.9544 25.0409 19.063 26.7698L18.9783 26.8416C18.6882 27.0697 18.3228 27.1836 17.952 27.1589L11.8509 26.5176L13.2728 29.7364C13.6992 30.7109 14.0002 31.4117 14.1756 31.8388L15.6913 35.5526C20.2195 46.5802 25.3904 57.3363 40.8532 58.2357L41.3783 58.2622C45.4914 58.4395 48.125 61.629 51.2927 66.1387L51.9681 67.107C52.8033 68.3104 55.2972 72.0639 56.2624 73.8077L56.5763 74.383L56.8631 74.9245C56.9226 75.0384 56.979 75.1478 57.0324 75.2523L57.3231 75.8337L57.6598 75.6001C61.3152 73.0134 64.404 68.4096 66.4203 64.4692C67.1821 62.9804 67.7817 61.5201 68.2364 60.1463L68.2951 59.9673C68.4254 59.565 68.5302 59.2114 68.6114 58.9143L68.6705 58.6936L68.2203 58.7041C63.0206 58.7798 57.5471 57.4591 52.4058 55.4255C51.1639 54.9343 68.2736 47.3148 69.3391 31.7952C69.5819 28.2581 70.3686 23.6527 70.0372 20.295C69.9327 19.236 69.7929 18.2557 69.6316 17.3694L69.5486 16.93Z" fill="#902920"/>
<circle cx="24.6667" cy="28.8525" r="1.5" fill="#902920"/>
</svg>
