<svg width="432" height="36" viewBox="0 0 432 36" fill="none" xmlns="http://www.w3.org/2000/svg">
<path d="M1.52309 25.1193C-0.601321 23.3593 0.884746 21.994 4.83566 22.0664L154.976 24.9171C158.927 24.9896 160.413 23.6243 158.314 21.87C156.189 20.1099 151.269 18.6235 147.318 18.551L141.419 18.4398L128.261 18.1891C124.31 18.1166 119.39 16.6302 117.265 14.8702C115.141 13.1101 116.627 11.7448 120.578 11.8173L193.204 13.201L202.467 13.3741C206.418 13.4466 207.904 12.0813 205.78 10.3212C203.881 8.75053 199.761 7.40054 196.108 7.0743L173.82 6.65435C169.869 6.58187 164.949 5.09547 162.825 3.3354C160.7 1.57533 162.186 0.210036 166.137 0.282514L419.468 5.08777C423.419 5.16025 428.339 6.64664 430.463 8.40671C432.588 10.1668 431.102 11.5321 427.151 11.4596L234.437 7.80274C231.39 8.0026 230.412 9.25649 232.311 10.8272C234.435 12.5873 239.355 14.0737 243.304 14.1544L263.296 14.5354L328.103 15.7666C332.054 15.839 336.974 17.3254 339.096 19.0937C341.221 20.8538 339.734 22.2191 335.785 22.1384L309.067 21.6336C309.067 21.6336 302.761 22.0204 305.898 24.6408C309.061 27.267 301.778 27.7116 295.691 27.6015L381.29 29.2288C385.241 29.3013 390.161 30.7877 392.285 32.5477C394.41 34.3078 392.924 35.6731 388.973 35.6006L12.5185 28.4383C8.56753 28.3658 3.64751 26.8794 1.52309 25.1193Z" fill="#7E2424"/>
</svg>
