<svg width="505" height="33" viewBox="0 0 505 33" fill="none" xmlns="http://www.w3.org/2000/svg">
<path d="M503.114 28.1311C505.756 26.3964 504.131 24.9985 499.493 25.0054L323.239 25.3654C318.601 25.3723 316.976 23.9744 319.588 22.245C322.23 20.5104 328.125 19.0976 332.763 19.0907L339.688 19.0773L355.136 19.0449C359.774 19.038 365.669 17.6252 368.311 15.8906C370.953 14.1559 369.329 12.758 364.691 12.7649L279.431 12.9438L268.558 12.9633C263.92 12.9702 262.295 11.5723 264.937 9.8376C267.299 8.2896 272.244 7.00067 276.555 6.73356L302.719 6.68337C307.357 6.67645 313.253 5.2637 315.895 3.52903C318.537 1.79435 316.912 0.39643 312.274 0.40335L14.8807 1.00597C10.2428 1.01289 4.34704 2.42564 1.70506 4.16031C-0.936906 5.89499 0.687661 7.29292 5.32557 7.286L231.559 6.82615C235.114 7.07803 236.153 8.35544 233.792 9.90344C231.15 11.6381 225.254 13.0509 220.618 13.0661L197.148 13.1154L121.069 13.2715C116.431 13.2784 110.536 14.6912 107.895 16.4342C105.253 18.1689 106.878 19.5668 111.514 19.5515L142.88 19.49C142.88 19.49 150.239 19.9844 146.335 22.5674C142.401 25.1557 150.902 25.7245 158.047 25.7154L57.5586 25.9227C52.9206 25.9296 47.0249 27.3424 44.3829 29.077C41.741 30.8117 43.3656 32.2096 48.0035 32.2027L489.938 31.2855C494.576 31.2785 500.472 29.8658 503.114 28.1311Z" fill="#7E2424"/>
</svg>
